<?xml version="1.0" standalone="no"?>
<!DOCTYPE svg PUBLIC "-//W3C//DTD SVG 20010904//EN"
 "http://www.w3.org/TR/2001/REC-SVG-20010904/DTD/svg10.dtd">
<svg version="1.0" xmlns="http://www.w3.org/2000/svg"
 width="550.000000pt" height="360.000000pt" viewBox="0 0 550.000000 360.000000"
 preserveAspectRatio="xMidYMid meet">

<g transform="translate(0.000000,360.000000) scale(0.100000,-0.100000)"
fill="#000000" stroke="none">
<path d="M3066 3583 c-3 -3 -6 -23 -6 -43 0 -34 -3 -38 -32 -44 -17 -3 -29 -8
-26 -11 3 -3 19 -2 36 1 30 6 32 9 32 48 0 30 3 37 10 26 8 -13 10 -13 10 2 0
19 -14 31 -24 21z"/>
<path d="M3080 3523 c0 -27 7 -31 45 -22 l30 7 -27 1 c-15 0 -32 9 -37 19 -9
15 -10 15 -11 -5z"/>
<path d="M3085 3459 c-4 -11 -4 -23 -1 -26 3 -4 6 1 6 10 0 10 13 20 33 26
l32 9 -32 1 c-24 1 -33 -4 -38 -20z"/>
<path d="M3025 3460 c-20 -9 -20 -9 1 -9 11 -1 25 -6 32 -13 9 -9 12 -7 12 10
0 23 -12 26 -45 12z"/>
<path d="M1888 3405 c-3 -3 -43 -10 -88 -15 -46 -5 -88 -14 -92 -18 -5 -5 -28
-7 -51 -5 -23 3 -134 -7 -247 -22 -113 -15 -250 -33 -305 -40 -67 -8 -90 -14
-70 -17 l30 -5 -27 -2 c-31 -1 -39 -21 -9 -21 11 0 89 9 173 20 84 11 214 26
288 35 74 8 197 23 273 33 123 16 167 15 138 -2 -5 -4 -90 -15 -188 -26 -294
-32 -687 -81 -692 -85 -2 -3 8 -22 23 -43 14 -21 26 -46 26 -55 0 -9 6 -18 13
-18 50 -5 149 6 246 28 120 26 502 93 533 93 17 0 18 -19 18 -315 l0 -315 -22
-5 c-13 -2 -89 -11 -170 -18 l-148 -13 -1 46 c0 25 -2 77 -3 115 -2 39 -4 102
-5 142 -1 60 -5 77 -24 99 -31 35 -69 28 -94 -19 -15 -27 -18 -60 -18 -217 l0
-185 -80 -8 c-121 -11 -357 -45 -363 -52 -3 -3 0 -20 8 -38 7 -18 17 -79 20
-137 6 -101 6 -102 8 -29 l2 75 133 18 c72 10 179 24 237 32 105 14 273 37
405 54 39 5 89 9 113 10 40 0 42 -2 42 -29 0 -26 -3 -29 -45 -34 -26 -2 -49
-8 -52 -11 -4 -4 3 -26 15 -50 11 -25 32 -87 47 -139 25 -94 25 -94 23 -458
l-3 -364 -135 -6 c-74 -4 -241 -10 -370 -14 l-235 -8 -25 54 c-14 30 -31 54
-39 54 -8 0 -19 14 -25 30 -6 17 -18 41 -26 55 -9 14 -20 34 -26 44 -6 11 -20
20 -32 21 -22 2 -22 -1 -23 -144 -1 -80 -4 -135 -8 -122 -4 14 -11 26 -17 28
-15 5 -74 -63 -86 -98 -10 -30 -33 -37 -99 -31 -28 3 -37 10 -46 31 -12 34
-86 75 -120 66 -12 -3 -23 -10 -23 -15 0 -6 -4 -10 -10 -10 -5 0 -10 10 -10
23 0 33 -44 92 -79 107 -47 19 -64 0 -59 -62 4 -41 3 -48 -11 -44 -9 2 -30 7
-48 11 -18 4 -35 14 -38 25 -7 21 -109 120 -125 120 -7 0 -9 -13 -4 -37 8 -46
43 -154 55 -169 6 -7 3 -23 -6 -40 -8 -16 -15 -38 -15 -49 0 -15 -2 -17 -9 -6
-7 11 -10 11 -12 -3 -4 -15 -6 -15 -27 -1 -28 21 -73 107 -63 123 5 8 17 -4
35 -35 15 -27 24 -37 20 -23 -3 14 -18 41 -33 60 -24 33 -26 34 -29 13 -4 -26
-12 -29 -30 -11 -9 9 -12 9 -12 -4 0 -8 19 -36 41 -62 l42 -47 -38 7 c-76 14
-60 -46 17 -67 29 -7 43 -7 54 2 7 6 20 9 28 6 11 -4 13 -1 9 11 -4 13 -3 14
6 6 14 -13 4 -44 -15 -44 -8 0 -14 -5 -14 -11 0 -6 6 -9 14 -6 11 5 12 0 3
-24 -9 -24 -8 -39 6 -80 l18 -50 -26 -54 c-30 -64 -40 -63 -83 3 -35 54 -99
119 -108 109 -13 -13 7 -55 46 -99 44 -51 50 -68 21 -68 -11 0 -32 -10 -47
-23 -22 -19 -26 -29 -20 -51 8 -31 56 -64 106 -72 31 -5 37 -11 51 -54 8 -27
13 -65 11 -85 l-4 -36 -64 6 c-36 4 -64 3 -64 -3 0 -14 83 -82 101 -82 9 0 20
-7 23 -16 4 -11 14 -15 32 -11 16 3 42 -4 70 -20 24 -13 48 -22 54 -18 15 9
50 -14 44 -29 -10 -26 -33 -26 -70 -1 -42 28 -101 34 -110 10 -9 -22 13 -43
57 -57 43 -12 52 -28 16 -28 -41 0 -77 -59 -52 -84 28 -28 72 1 93 59 l10 30
1 -28 c2 -82 51 -80 51 2 l1 46 19 -40 c11 -22 32 -50 47 -62 20 -16 24 -25
16 -35 -6 -7 -13 -26 -17 -43 -6 -29 -5 -28 14 7 11 20 28 42 37 47 17 10 17
10 -1 11 -48 0 -127 134 -96 164 15 15 53 -31 81 -100 21 -50 22 -51 40 -33
11 11 30 19 43 19 22 0 26 -6 32 -46 18 -121 -74 -217 -126 -131 -11 17 -20
25 -20 16 0 -8 9 -25 20 -36 61 -66 122 -19 138 103 6 51 10 58 44 77 40 24
61 17 35 -11 -29 -32 -43 -158 -21 -194 19 -30 78 33 87 92 3 19 2 53 -2 75
-8 37 -9 37 -10 10 -6 -88 -10 -108 -27 -132 -28 -37 -39 -34 -42 12 -5 58 5
97 33 127 26 28 27 28 132 12 18 -3 46 -16 63 -30 24 -21 30 -34 30 -65 l0
-39 108 2 107 2 -85 6 -85 6 88 2 c48 1 87 -2 87 -7 0 -5 309 -9 750 -10 l750
0 25 49 c14 28 30 50 35 50 6 0 10 4 10 10 0 22 -27 -3 -52 -49 l-28 -49 -181
2 c-179 1 -182 1 -190 24 -5 13 -17 22 -29 22 -11 0 -20 7 -20 15 0 7 -6 18
-14 22 -12 7 -20 45 -17 78 1 6 16 10 34 8 17 -1 137 -4 265 -6 191 -4 232 -2
232 9 0 8 7 14 15 14 11 0 15 -21 18 -102 l3 -103 2 103 2 102 50 0 50 0 0
-100 0 -100 220 0 220 0 0 108 c1 59 0 204 0 324 -1 213 0 216 20 211 17 -5
20 0 22 31 0 20 1 42 2 49 1 6 -11 13 -25 15 -22 3 -27 10 -36 55 -6 29 -9 54
-7 56 6 7 24 -49 24 -75 0 -29 16 -32 25 -4 24 76 -91 256 -179 278 -21 6 -32
16 -36 33 -8 33 -34 31 -38 -4 -3 -22 -12 -31 -43 -44 -80 -32 -142 -131 -156
-251 -3 -29 -9 -55 -14 -58 -11 -7 15 -81 34 -95 4 -3 6 -91 5 -195 -3 -177
-4 -187 -18 -156 -14 30 -18 32 -68 32 -48 0 -54 -2 -64 -27 -12 -27 -12 -26
-19 27 l-7 55 2 -62 c0 -33 -2 -59 -5 -57 -3 2 -152 6 -330 9 -270 4 -326 8
-335 20 -6 8 -19 15 -28 15 -10 0 -16 8 -16 23 0 38 -13 47 -59 43 l-43 -4 4
208 c1 114 0 206 -4 203 -5 -2 -8 -116 -8 -252 0 -181 -3 -250 -12 -259 -10
-10 -10 -17 0 -32 6 -11 12 -50 12 -87 l0 -67 -30 29 c-16 16 -30 36 -30 44 0
9 -9 30 -20 46 -11 17 -20 43 -20 58 0 15 -7 30 -15 33 -8 4 -15 13 -15 20 0
8 -7 17 -15 20 -12 5 -15 28 -15 118 0 68 4 116 11 123 11 11 5 22 -49 77 -44
46 -124 37 -169 -19 -16 -19 -31 -35 -34 -35 -13 0 -29 53 -29 96 0 30 -5 46
-15 50 -8 4 -15 13 -15 20 0 8 -6 17 -14 20 -8 3 -19 19 -25 35 -8 24 -15 29
-44 29 -34 0 -44 11 -61 64 -4 12 -13 17 -26 13 -14 -4 -20 0 -20 13 0 22 -72
79 -78 62 -6 -20 -22 -14 -34 13 -8 19 -18 25 -37 23 -23 -3 -27 1 -31 32 -3
24 -12 38 -27 45 -13 5 -23 15 -23 22 0 10 38 13 158 14 86 0 166 2 177 4 11
1 138 6 283 9 l262 7 2 -93 c1 -51 2 -132 3 -180 0 -48 4 -91 9 -95 5 -4 6 71
4 169 l-5 176 166 7 c208 8 501 23 562 29 25 2 51 1 57 -3 8 -5 13 -99 15
-332 l2 -324 3 343 c1 188 5 342 10 342 4 1 30 3 57 5 28 2 174 9 325 15 151
6 279 15 284 20 6 6 19 10 31 9 17 -1 16 -2 -5 -9 -22 -7 -19 -8 16 -9 l41 -1
7 -79 c3 -44 6 -268 6 -498 -1 -439 0 -432 -39 -346 -9 19 -19 23 -55 23 -43
0 -45 -2 -67 -45 -18 -35 -20 -48 -11 -57 8 -8 13 -52 14 -117 l2 -106 5 105
6 105 55 0 54 0 -3 -103 c-2 -68 1 -102 8 -102 6 0 11 19 11 43 0 29 3 38 9
28 5 -8 8 -27 6 -43 -3 -23 0 -28 17 -28 12 0 22 8 25 21 6 21 7 21 20 4 21
-29 15 -9 -13 46 -14 28 -20 48 -13 44 9 -6 10 4 5 39 l-7 46 30 0 c35 0 33 7
31 -117 l-1 -83 115 0 c105 0 115 2 121 19 5 17 45 27 43 11 -2 -18 3 -30 12
-30 6 0 10 34 10 83 -1 63 -3 78 -11 64 -6 -11 -9 -32 -7 -48 l5 -29 -81 0
c-45 0 -105 3 -133 6 l-53 7 0 49 0 49 140 -3 c107 -2 140 0 140 10 0 9 56 12
245 12 l245 0 2 -37 c1 -21 2 -65 3 -98 l0 -60 34 -3 34 -3 -5 62 -4 62 30
-34 c17 -19 41 -47 54 -63 12 -16 24 -27 26 -25 2 2 -22 36 -54 76 l-58 71 3
319 c2 175 4 369 4 430 l1 113 50 52 c29 30 50 62 50 74 0 24 -43 64 -67 64
-13 0 -14 42 -8 323 4 177 9 325 12 330 7 12 61 8 65 -5 6 -17 28 0 28 22 0
23 -24 32 -66 24 -22 -4 -34 -2 -34 5 0 6 -7 11 -15 11 -8 0 -15 7 -15 15 0 8
-7 15 -15 15 -8 0 -15 9 -15 19 0 11 -10 27 -22 36 -21 14 -23 25 -26 109 l-4
93 54 6 c29 4 69 7 87 7 20 0 31 4 25 8 -5 5 -46 7 -91 4 l-83 -4 0 -427 0
-428 -207 -6 c-115 -4 -287 -10 -383 -13 -96 -3 -183 -7 -192 -9 -10 -2 -18 1
-18 5 0 5 -7 10 -15 12 -13 3 -16 50 -20 335 -5 322 -5 332 14 343 11 5 33 10
50 10 36 0 38 10 17 110 -8 36 -13 66 -12 67 1 2 63 3 221 3 66 0 287 18 326
25 31 7 123 14 177 15 23 0 42 3 42 8 0 4 -35 6 -77 5 l-78 -2 75 10 c118 14
106 18 -50 14 -152 -3 -137 1 39 13 l104 7 12 46 c6 25 28 69 48 96 20 28 34
53 30 56 -3 4 -37 4 -74 1 -66 -7 -69 -6 -78 17 -5 13 -10 18 -10 12 -1 -9
-14 -8 -48 6 -41 16 -47 22 -48 47 0 27 4 29 42 35 72 9 65 23 -12 22 -11 0
-23 -1 -26 -2 -10 -2 -30 -52 -24 -61 12 -20 -56 5 -280 102 -313 137 -316
138 -329 178 -10 29 -26 39 -201 121 -237 112 -218 100 -226 137 -18 88 -87
80 -104 -12 -9 -43 5 -32 -250 -199 -156 -103 -170 -114 -167 -139 2 -19 -3
-31 -20 -41 -13 -8 -126 -81 -251 -161 -126 -80 -233 -146 -238 -146 -5 0 -9
63 -9 140 0 108 4 148 16 171 21 41 3 107 -67 255 -10 22 -19 45 -19 50 0 6
-11 34 -25 62 -14 29 -25 54 -25 56 0 3 -5 17 -12 33 -6 15 -19 48 -28 72 -15
42 -30 58 -42 46z m-315 -62 c-7 -2 -21 -2 -30 0 -10 3 -4 5 12 5 17 0 24 -2
18 -5z m-80 -10 c-7 -2 -19 -2 -25 0 -7 3 -2 5 12 5 14 0 19 -2 13 -5z m1617
-87 c0 -8 3 -23 6 -33 4 -12 3 -14 -3 -6 -7 10 -18 9 -47 -6 l-38 -20 7 27 c3
15 13 33 22 40 22 16 53 15 53 -2z m338 -394 c9 -5 13 -42 15 -132 l1 -125
-79 -7 c-44 -4 -143 -9 -220 -12 -116 -4 -127 -3 -66 5 41 5 77 11 80 15 8 8
8 264 -1 264 -3 0 -4 8 -1 18 2 10 -2 30 -10 46 -13 23 -16 25 -19 9 -3 -14
-7 -12 -22 15 -15 28 -22 33 -49 30 -23 -2 -37 -12 -52 -35 -11 -17 -30 -36
-43 -42 -19 -9 -21 -14 -12 -32 7 -12 18 -18 26 -15 12 4 14 -15 14 -116 0
-67 -3 -118 -7 -114 -10 10 -10 8 -13 124 l-3 97 -7 -130 c-4 -71 -3 -135 2
-142 14 -18 2 -20 -132 -28 -69 -3 -132 -8 -141 -11 -14 -4 -17 10 -21 103 -6
122 -4 130 25 139 28 9 223 139 260 172 16 16 27 21 27 12 0 -7 11 -1 25 14
30 32 70 34 104 4 l25 -23 -23 32 c-22 32 -18 31 141 -47 90 -45 169 -84 176
-88z m-372 21 c-11 -11 -19 6 -11 24 8 17 8 17 12 0 3 -10 2 -21 -1 -24z m89
27 c3 -6 -4 -10 -17 -10 -18 0 -20 2 -8 10 19 12 18 12 25 0z m-152 -17 c-7
-2 -19 -2 -25 0 -7 3 -2 5 12 5 14 0 19 -2 13 -5z m147 -127 l0 -114 -27 -6
c-100 -19 -115 -19 -111 0 4 24 97 42 109 22 5 -7 9 37 9 100 0 68 4 112 10
112 6 0 10 -45 10 -114z m-74 12 c-1 -58 -5 -93 -12 -95 -8 -3 -11 16 -9 62 2
44 -1 65 -8 65 -8 0 -7 4 2 9 8 5 11 16 6 30 -4 14 -2 21 8 21 11 0 13 -20 13
-92z m559 -45 c17 -3 38 -13 48 -21 9 -8 20 -12 24 -9 3 4 0 7 -7 7 -7 0 -11
2 -8 5 9 10 38 -7 31 -18 -4 -6 0 -8 10 -4 9 3 19 1 23 -4 9 -15 94 -50 105
-43 5 3 9 0 9 -6 0 -6 4 -9 9 -6 5 3 33 -5 62 -19 30 -13 50 -24 44 -25 -5 0
-59 -4 -120 -10 -60 -5 -144 -10 -185 -11 l-74 -2 -13 69 c-7 38 -15 80 -18
93 -5 20 -3 22 12 17 10 -4 32 -10 48 -13z m-997 -113 c12 -18 22 -44 22 -56
0 -20 -5 -24 -30 -24 -25 0 -30 -4 -30 -25 0 -16 -6 -25 -15 -25 -15 0 -162
-14 -257 -25 -30 -4 -48 -2 -48 5 0 5 6 10 13 11 6 0 77 40 157 89 80 49 150
87 155 86 6 -1 20 -17 33 -36z m522 10 c0 -5 -17 -9 -37 -9 l-38 2 35 7 c19 4
36 8 38 9 1 0 2 -3 2 -9z m-132 -17 c-10 -2 -26 -2 -35 0 -10 3 -2 5 17 5 19
0 27 -2 18 -5z m-1128 -13 c0 -5 -15 -9 -32 -9 l-33 1 30 8 c17 4 31 8 33 9 1
0 2 -3 2 -9z m109 -29 c-15 -5 -22 6 -14 19 6 9 10 9 16 -1 5 -8 4 -15 -2 -18z
m-211 12 c-10 -2 -26 -2 -35 0 -10 3 -2 5 17 5 19 0 27 -2 18 -5z m-101 -9
c-3 -3 -12 -4 -19 -1 -8 3 -5 6 6 6 11 1 17 -2 13 -5z m-209 -21 c-10 -2 -26
-2 -35 0 -10 3 -2 5 17 5 19 0 27 -2 18 -5z m545 -30 c3 -16 5 -28 4 -28 -1 0
-22 -10 -47 -21 l-45 -21 4 41 c4 45 13 56 52 56 21 0 28 -6 32 -27z m1347
-115 c0 -4 -8 -8 -17 -8 -10 0 -155 -9 -323 -20 -168 -11 -307 -20 -309 -20
-2 0 -1 3 2 7 9 8 130 19 382 33 104 6 191 13 193 15 8 8 72 2 72 -7z m80 8
c0 -8 -61 -12 -66 -4 -3 4 11 8 30 8 20 0 36 -2 36 -4z m324 -17 c-11 -4 -44
-8 -74 -9 -30 -1 -77 -6 -105 -10 -52 -9 85 -6 325 7 63 3 113 3 110 0 -3 -3
-104 -11 -225 -18 -134 -8 -206 -16 -185 -20 19 -3 25 -7 14 -8 -12 0 -35 -4
-51 -7 -27 -5 -31 -3 -42 27 -6 17 -11 35 -11 39 0 4 59 7 131 7 73 -1 123 -4
113 -8z m-378 -18 c-8 -13 -216 -26 -311 -21 -41 3 57 12 293 28 13 1 21 -2
18 -7z m44 -1 c0 -5 -2 -10 -4 -10 -3 0 -8 5 -11 10 -3 6 -1 10 4 10 6 0 11
-4 11 -10z m-7 -33 c3 -8 6 -210 6 -449 l2 -435 -63 -7 c-76 -8 -467 -25 -595
-26 l-93 0 -2 313 -3 312 -5 -314 -5 -314 -25 -4 c-13 -2 -27 -7 -30 -12 -3
-5 -132 -9 -288 -9 -277 -1 -282 -1 -272 19 11 20 -3 28 -15 9 -10 -16 -35
-12 -35 5 0 9 6 18 14 21 8 3 17 11 19 18 4 11 0 11 -20 2 -21 -10 -24 -16
-20 -48 l5 -38 -54 0 -54 0 -2 413 -3 412 185 1 c102 1 253 5 335 9 83 4 170
8 195 9 l45 1 11 -60 12 -60 1 100 c1 55 5 94 9 87 12 -19 182 0 194 22 10 17
38 22 38 7 0 -5 10 -7 23 -4 13 3 4 -7 -24 -25 -46 -30 -84 -76 -75 -90 3 -5
-8 -6 -25 -4 -32 5 -35 1 -16 -31 8 -15 14 -103 17 -292 l6 -270 2 268 2 268
25 -3 25 -3 2 -280 2 -280 -23 -3 c-13 -2 -27 2 -31 8 -5 7 -10 1 -14 -16 -14
-53 3 -57 256 -51 125 3 231 8 237 11 5 4 5 21 0 43 -13 60 -12 623 2 639 20
24 4 41 -35 38 -24 -2 -49 5 -74 19 -49 29 -196 32 -256 4 -22 -9 -37 -20 -33
-23 3 -3 19 2 36 10 16 9 36 16 43 15 7 0 -7 -9 -31 -20 -24 -11 -46 -17 -49
-14 -3 3 -14 -2 -24 -12 -10 -9 -21 -14 -24 -10 -12 12 17 44 63 67 42 22 61
25 154 25 100 0 107 -1 142 -28 20 -15 37 -23 37 -17 0 6 -13 19 -30 28 -16 9
-30 20 -30 25 0 4 -12 8 -27 8 -25 2 -25 2 -5 6 13 3 30 -1 39 -9 15 -11 16
-11 10 6 -6 16 -5 17 8 6 10 -8 15 -9 15 -1 0 7 19 10 53 9 l52 -1 -45 -7
c-44 -7 -44 -7 -9 -8 58 -3 132 10 117 19 -10 7 -9 9 3 9 9 0 19 -6 22 -13z
m-853 -17 c-11 -7 -7 -10 20 -11 54 -3 -84 -17 -160 -16 -61 0 -63 0 -20 7 45
7 45 7 10 10 -21 2 -2 6 45 10 44 3 89 7 100 8 16 1 17 0 5 -8z m115 0 c3 -5
-1 -10 -9 -10 -9 0 -16 5 -16 10 0 6 4 10 9 10 6 0 13 -4 16 -10z m85 0 c0 -5
-7 -10 -15 -10 -8 0 -15 5 -15 10 0 6 7 10 15 10 8 0 15 -4 15 -10z m30 0 c0
-5 -2 -10 -4 -10 -3 0 -8 5 -11 10 -3 6 -1 10 4 10 6 0 11 -4 11 -10z m-436
-15 c-5 -11 -17 -14 -48 -10 -30 4 -36 3 -21 -4 17 -8 14 -10 -18 -10 -27 -1
-36 3 -31 11 5 8 2 9 -9 5 -9 -3 -19 -2 -22 3 -3 5 27 11 67 13 40 1 76 4 80
5 4 1 5 -5 2 -13z m226 -55 c0 -5 -7 -10 -16 -10 -8 0 -12 5 -9 10 3 6 10 10
16 10 5 0 9 -4 9 -10z m-627 -37 c-7 -2 -21 -2 -30 0 -10 3 -4 5 12 5 17 0 24
-2 18 -5z m1244 -35 c-3 -8 -6 -5 -6 6 -1 11 2 17 5 13 3 -3 4 -12 1 -19z m73
-293 l0 -295 -25 0 -25 0 0 168 c0 93 -3 223 -6 290 l-7 120 24 5 c13 2 27 5
32 6 4 0 7 -132 7 -294z m-190 27 c0 -13 -12 -22 -22 -16 -10 6 -1 24 13 24 5
0 9 -4 9 -8z m40 -2 c0 -5 -4 -10 -10 -10 -5 0 -10 5 -10 10 0 6 5 10 10 10 6
0 10 -4 10 -10z m30 0 c0 -5 -4 -10 -10 -10 -5 0 -10 5 -10 10 0 6 5 10 10 10
6 0 10 -4 10 -10z m35 0 c-3 -5 -10 -10 -16 -10 -5 0 -9 5 -9 10 0 6 7 10 16
10 8 0 12 -4 9 -10z m22 -12 c-3 -8 -6 -5 -6 6 -1 11 2 17 5 13 3 -3 4 -12 1
-19z m-167 -3 c0 -8 9 -15 20 -15 17 0 20 -7 20 -39 0 -22 -4 -43 -10 -46 -5
-3 -10 -1 -10 5 0 6 -5 8 -12 4 -7 -4 -22 -9 -35 -10 -21 -2 -23 1 -23 42 0
38 3 44 21 44 15 0 19 5 15 15 -3 8 -1 15 4 15 6 0 10 -7 10 -15z m150 -56 c0
-37 -2 -39 -30 -39 -28 0 -30 2 -30 38 0 46 3 51 35 44 22 -4 25 -10 25 -43z
m-70 1 c0 -22 -4 -40 -10 -40 -5 0 -10 18 -10 40 0 22 5 40 10 40 6 0 10 -18
10 -40z m-154 -46 c-3 -9 -10 -13 -15 -10 -5 4 -4 19 2 37 11 28 12 29 15 10
2 -13 1 -29 -2 -37z m224 -61 l0 -43 -45 0 -45 0 0 38 c0 21 2 41 4 43 2 2 23
4 45 5 l41 1 0 -44z m-220 -14 c0 -27 -4 -39 -12 -37 -13 5 -22 53 -14 75 10
26 26 2 26 -38z m45 9 c-4 -59 -25 -62 -25 -4 0 33 4 46 14 46 11 0 14 -11 11
-42z m34 20 c0 -13 -4 -32 -9 -43 -7 -15 -9 -10 -9 23 -1 23 4 42 9 42 6 0 10
-10 9 -22z m31 -18 c0 -22 -4 -40 -10 -40 -5 0 -10 18 -10 40 0 22 5 40 10 40
6 0 10 -18 10 -40z m-30 -106 c0 -43 -19 -45 -22 -1 l-1 32 -4 -32 c-6 -45
-33 -45 -33 0 0 41 4 45 35 39 21 -4 25 -10 25 -38z m140 8 l0 -39 -45 0 -45
0 0 37 c0 37 0 37 45 38 l45 2 0 -38z m-220 -12 c0 -22 -4 -40 -10 -40 -5 0
-10 18 -10 40 0 22 5 40 10 40 6 0 10 -18 10 -40z m110 5 c0 -19 -4 -35 -10
-35 -5 0 -10 16 -10 35 0 19 5 35 10 35 6 0 10 -16 10 -35z m60 -66 c-36 -4
-108 -6 -160 -6 -104 0 -84 4 90 15 124 8 177 1 70 -9z m93 -26 c-7 -2 -21 -2
-30 0 -10 3 -4 5 12 5 17 0 24 -2 18 -5z m-3000 -113 l34 -40 -19 -40 c-11
-22 -24 -40 -29 -40 -5 0 -9 1 -9 3 0 1 -11 35 -25 75 -14 41 -25 80 -25 88 0
22 32 2 73 -46z m215 14 c33 -23 45 -51 58 -134 7 -47 12 -62 13 -40 2 66 58
105 91 65 7 -8 19 -15 26 -15 22 0 46 -57 34 -79 -5 -11 -10 -28 -10 -39 0
-11 -7 -25 -15 -32 -8 -7 -15 -21 -15 -31 0 -26 -25 -24 -46 4 l-16 22 6 -27
c3 -14 9 -34 12 -45 6 -17 6 -17 -11 -1 -10 10 -26 41 -35 70 -9 29 -33 79
-53 111 -35 55 -61 71 -69 45 -7 -20 -31 32 -35 75 -6 60 21 82 65 51z m2162
-64 c0 -6 -53 -10 -152 -10 -141 0 -279 -4 -558 -14 -83 -3 -96 -2 -60 5 25 6
164 13 310 17 146 4 309 9 363 10 63 2 97 -1 97 -8z m-1700 -18 c0 -15 -11
-21 -27 -15 -12 5 -12 7 -1 14 17 11 28 11 28 1z m-535 -37 c14 -13 25 -32 25
-42 0 -15 4 -14 20 7 20 25 20 25 36 5 8 -11 29 -47 45 -79 36 -70 34 -101
-11 -160 -17 -22 -30 -45 -30 -51 0 -6 -9 -21 -21 -33 l-20 -23 -46 41 c-25
22 -52 40 -60 40 -25 0 -71 -32 -77 -53 -7 -29 -26 -16 -42 28 -17 50 -18 89
-1 103 12 10 90 -10 124 -31 7 -5 29 -4 49 2 19 5 43 7 51 4 11 -4 14 -2 9 5
-4 7 -24 12 -45 12 -30 0 -42 6 -55 25 -16 24 -16 24 10 15 32 -12 44 -13 44
-1 0 5 -14 12 -31 16 l-31 7 24 16 c13 9 26 16 31 14 18 -6 5 28 -19 47 -36
28 -57 17 -49 -25 5 -27 3 -34 -9 -34 -9 0 -18 12 -22 28 -10 45 -12 48 -13
15 -1 -17 3 -34 8 -38 5 -3 21 -27 36 -53 14 -26 21 -41 14 -34 -7 6 -21 12
-31 12 -54 0 -88 42 -88 109 0 36 19 68 33 55 3 -4 14 12 23 35 15 38 19 41
56 41 28 0 46 -7 63 -25z m494 -87 c1 -22 -20 -15 -37 12 -10 17 -9 26 5 53
l17 32 7 -40 c4 -22 8 -48 8 -57z m3287 76 l152 -6 5 -62 c3 -33 6 -244 6
-468 l0 -408 -232 -2 c-128 0 -254 -1 -282 -2 -27 0 -114 1 -192 2 l-142 2 3
347 3 348 32 9 c28 8 31 12 31 50 0 23 -9 70 -20 105 -12 38 -17 68 -12 73 5
5 30 10 55 11 25 1 43 5 41 8 -4 7 291 3 552 -7z m-4085 -26 c8 -15 8 -18 0
-14 -6 4 -16 16 -22 28 -8 15 -8 18 0 14 6 -4 16 -16 22 -28z m704 -42 c18 -1
46 -13 67 -31 35 -29 36 -32 43 -120 7 -84 6 -91 -14 -109 -21 -19 -22 -19
-54 12 -25 24 -42 32 -70 32 -58 0 -93 23 -101 65 -5 25 -3 44 7 58 8 12 18
37 21 55 8 35 33 55 56 45 8 -3 29 -6 45 -7z m-420 -17 c11 -17 2 -18 -19 -3
-17 12 -17 14 -4 14 9 0 20 -5 23 -11z m-242 -24 c25 -10 21 -25 -8 -25 -32 0
-75 20 -75 36 0 12 40 7 83 -11z m227 -5 c0 -5 -2 -10 -4 -10 -3 0 -8 5 -11
10 -3 6 -1 10 4 10 6 0 11 -4 11 -10z m2710 -60 c0 -27 -4 -50 -10 -50 -5 0
-10 23 -10 50 0 28 5 50 10 50 6 0 10 -22 10 -50z m140 -77 c38 -43 66 -102
74 -158 6 -35 4 -34 -12 15 -27 79 -48 116 -93 161 -22 22 -32 36 -21 30 11
-6 34 -27 52 -48z m-2635 27 c3 -5 1 -10 -4 -10 -6 0 -11 5 -11 10 0 6 2 10 4
10 3 0 8 -4 11 -10z m75 -5 c0 -8 -2 -15 -4 -15 -2 0 -6 7 -10 15 -3 8 -1 15
4 15 6 0 10 -7 10 -15z m2310 2 c0 -2 -10 -12 -22 -23 l-23 -19 19 23 c18 21
26 27 26 19z m-2322 -70 c18 -25 22 -27 17 -9 -6 19 -3 22 23 22 16 0 37 -9
47 -20 22 -25 32 -104 15 -125 -7 -9 -8 -15 -2 -15 6 0 12 6 15 13 6 19 37
-48 37 -82 0 -32 -39 -86 -69 -96 -12 -4 -29 5 -51 25 -19 18 -43 30 -59 30
-39 0 -111 92 -111 142 0 52 9 68 36 68 22 0 23 2 12 25 -8 19 -8 31 0 50 10
21 14 23 39 14 15 -5 39 -24 51 -42z m-105 -26 c-9 -12 -23 18 -16 35 6 17 8
17 13 -6 4 -14 5 -27 3 -29z m-470 -28 c60 -80 65 -89 36 -69 -41 27 -111 126
-90 126 5 0 30 -26 54 -57z m745 48 c10 -6 5 -11 -19 -20 -17 -6 -33 -11 -34
-11 -2 0 -5 9 -8 20 -4 16 0 20 21 20 15 0 33 -4 40 -9z m-450 -15 c57 -30 88
-78 103 -163 11 -56 5 -84 -32 -155 -6 -11 -5 -18 1 -18 24 0 -14 -195 -43
-218 -6 -5 -32 -12 -58 -16 -37 -5 -51 -3 -80 16 -43 29 -84 108 -75 144 7 26
7 26 28 8 12 -11 6 1 -13 25 -32 40 -34 48 -36 124 -1 63 3 87 16 107 10 14
21 38 25 53 13 56 71 47 116 -17 26 -39 30 -53 29 -108 0 -53 -2 -60 -12 -44
-7 11 -22 31 -35 44 -18 19 -26 21 -37 12 -8 -7 -15 -22 -14 -34 0 -21 0 -21
9 2 17 41 53 15 46 -34 -2 -16 -1 -21 1 -11 6 25 15 21 41 -21 l24 -36 -22
-18 c-21 -17 -47 -23 -79 -19 -7 2 -10 -2 -6 -8 3 -6 17 -11 30 -11 22 0 23
-2 14 -32 -5 -18 -9 -46 -8 -63 1 -26 2 -24 9 12 11 52 44 119 65 126 13 6 13
10 -3 39 -14 27 -16 46 -11 103 3 39 3 79 -2 90 -5 13 -8 15 -9 5 0 -10 -7 -7
-21 10 -37 47 -39 55 -19 88 23 37 22 37 58 18z m511 -37 c40 -19 42 -22 35
-52 -4 -18 -7 -42 -7 -54 1 -20 -1 -21 -21 -7 -25 16 -38 10 -29 -13 5 -12 7
-12 14 -1 7 11 11 10 18 -2 7 -10 6 -17 -2 -22 -8 -5 -7 -8 4 -8 12 0 16 -15
17 -75 2 -46 -1 -75 -7 -75 -6 0 -30 19 -55 43 -43 41 -44 43 -39 93 4 39 0
60 -16 92 -26 50 -27 78 -3 91 25 15 43 13 91 -10z m41 11 c0 -5 -2 -10 -4
-10 -3 0 -8 5 -11 10 -3 6 -1 10 4 10 6 0 11 -4 11 -10z m-426 -39 c-4 -18 2
-46 15 -77 20 -45 20 -46 2 -30 -10 10 -26 38 -34 64 -14 42 -14 47 1 59 23
17 22 17 16 -16z m-341 -108 c-10 -77 -19 -95 -46 -88 -35 11 -79 38 -91 57
-20 33 42 75 116 77 27 1 28 0 21 -46z m375 -37 c-2 -1 -11 -8 -20 -15 -16
-12 -18 -10 -18 19 0 32 0 33 20 15 11 -10 19 -19 18 -19z m2769 -2 c-3 -3
-12 -4 -19 -1 -8 3 -5 6 6 6 11 1 17 -2 13 -5z m-2726 -32 c8 -13 20 -17 45
-14 50 6 84 -34 84 -102 0 -37 3 -47 10 -36 5 8 10 26 10 39 l0 25 30 -29 c57
-55 65 -154 15 -194 -14 -10 -25 -26 -25 -34 0 -49 -38 -62 -81 -29 -13 11
-35 22 -49 25 -70 17 -125 132 -85 177 10 11 13 20 7 20 -6 0 -14 -4 -17 -10
-12 -19 -24 -10 -40 35 -22 57 -14 88 32 120 45 30 49 30 64 7z m1105 -27 c13
-8 24 -20 24 -26 0 -13 -28 -8 -78 12 -29 12 -37 12 -63 -4 -17 -9 -35 -17
-41 -17 -15 0 22 40 47 51 27 11 81 4 111 -16z m-796 -77 c23 -16 23 -17 5
-17 -12 -1 -26 4 -32 10 -20 20 -33 -1 -28 -44 6 -53 0 -41 -24 48 -11 38 -17
73 -14 78 3 5 19 -6 37 -25 17 -18 42 -41 56 -50z m-97 15 c3 -16 9 -37 12
-48 4 -11 -2 -6 -13 11 -11 18 -25 35 -32 39 -8 5 -8 10 1 21 15 18 25 11 32
-23z m927 -77 c0 -30 -4 -58 -10 -61 -6 -4 -10 17 -10 54 0 34 4 61 10 61 6 0
10 -24 10 -54z m-840 -3 c0 -7 4 -13 10 -13 5 0 7 -7 3 -15 -7 -21 -28 -13
-30 11 -1 10 -5 30 -9 44 -6 24 -6 24 9 5 9 -11 17 -26 17 -32z m-396 12 c3
-8 1 -15 -4 -15 -6 0 -10 7 -10 15 0 8 2 15 4 15 2 0 6 -7 10 -15z m426 5 c0
-5 -2 -10 -4 -10 -3 0 -8 5 -11 10 -3 6 -1 10 4 10 6 0 11 -4 11 -10z m-408
-80 c3 -35 1 -39 -22 -43 -23 -4 -22 -4 5 -6 31 -2 71 -43 60 -61 -12 -19 -84
-9 -113 15 -2 2 4 27 13 56 9 30 19 60 21 67 8 29 32 11 36 -28z m-382 10 c6
0 8 5 5 11 -4 6 2 5 14 -3 12 -7 21 -16 21 -20 0 -5 5 -8 11 -8 6 0 8 8 5 18
-5 14 -4 14 9 -2 12 -16 12 -22 2 -28 -18 -12 -69 -10 -62 2 4 6 -7 15 -24 21
-17 6 -31 15 -31 20 0 6 8 5 19 -1 11 -5 25 -10 31 -10z m735 10 c3 -5 1 -10
-4 -10 -6 0 -11 5 -11 10 0 6 2 10 4 10 3 0 8 -4 11 -10z m2189 1 c10 -15 -5
-41 -22 -41 -12 0 -13 3 -4 12 7 7 12 17 12 23 0 5 -5 3 -10 -5 -5 -8 -10 -10
-10 -4 0 22 24 32 34 15z m116 -3 c0 -6 -3 -8 -7 -5 -3 4 -12 2 -20 -4 -13
-11 -19 2 -6 14 11 11 33 8 33 -5z m-2264 -35 c-7 -7 -26 7 -26 19 0 6 6 6 15
-2 9 -7 13 -15 11 -17z m-23 -48 c4 -23 3 -34 -2 -25 -12 21 -24 99 -13 80 5
-8 12 -33 15 -55z m2282 55 c3 -5 -1 -10 -10 -10 -9 0 -13 5 -10 10 3 6 8 10
10 10 2 0 7 -4 10 -10z m-2941 -35 c4 -10 -1 -15 -16 -15 -17 0 -18 2 -8 15 7
8 14 15 15 15 2 0 5 -7 9 -15z m643 -58 c38 -88 37 -90 -9 -41 -40 42 -44 51
-35 71 5 13 13 23 16 23 3 0 16 -24 28 -53z m50 -39 c-2 -13 -4 -5 -4 17 -1
22 1 32 4 23 2 -10 2 -28 0 -40z m-465 21 c18 -12 25 -18 15 -15 -11 3 -30 9
-43 12 -13 3 -21 10 -18 15 7 12 9 12 46 -12z m458 -113 c0 -5 -26 15 -57 44
-32 30 -62 57 -67 61 -4 4 -5 13 0 20 5 9 24 -6 66 -51 32 -36 58 -69 58 -74z
m1947 98 c2 -5 -17 -9 -42 -9 -47 0 -62 11 -22 17 35 5 61 2 64 -8z m583 6 c0
-5 -20 -10 -45 -10 -25 0 -45 5 -45 10 0 6 20 10 45 10 25 0 45 -4 45 -10z
m-2807 -9 c22 -9 24 -13 17 -49 -9 -50 -17 -62 -40 -62 -21 0 -50 35 -50 60 0
19 28 60 40 60 5 0 20 -4 33 -9z m-328 -18 c19 -9 35 -20 35 -25 0 -14 -59 -9
-90 7 -63 33 -11 50 55 18z m165 -3 c0 -5 -4 -10 -10 -10 -5 0 -10 5 -10 10 0
6 5 10 10 10 6 0 10 -4 10 -10z m80 0 c0 -5 -2 -10 -4 -10 -3 0 -8 5 -11 10
-3 6 -1 10 4 10 6 0 11 -4 11 -10z m270 -25 l35 -36 -32 16 c-17 8 -33 24 -36
35 -3 11 -4 20 -3 20 1 0 18 -16 36 -35z m2639 12 c-2 -1 -33 -1 -69 2 l-65 5
60 6 c51 4 89 -2 74 -13z m-599 3 c-18 -11 -110 -11 -110 1 0 5 28 9 63 9 42
0 57 -3 47 -10z m-2336 -10 c35 -13 33 -30 -3 -30 -29 0 -57 21 -44 33 9 9 17
9 47 -3z m222 -24 c34 -19 64 -33 67 -30 6 7 94 -32 102 -46 10 -17 -2 -25
-19 -11 -17 14 -104 37 -176 46 l-56 7 4 34 c2 19 7 34 10 34 3 0 33 -15 68
-34z m1471 28 c-3 -3 -22 -6 -42 -6 -20 0 -39 3 -42 6 -4 3 15 6 42 6 27 0 46
-3 42 -6z m1566 -1 c-35 -2 -91 -2 -125 0 -35 2 -7 3 62 3 69 0 97 -1 63 -3z
m295 0 c-43 -2 -113 -2 -155 0 -43 1 -8 3 77 3 85 0 120 -2 78 -3z m-3708 -63
c0 -41 -14 -61 -24 -34 -9 22 4 85 15 78 5 -3 9 -23 9 -44z m3938 43 c-42 -2
-114 -2 -160 0 -46 1 -11 3 77 3 88 0 125 -2 83 -3z m-3765 -33 c20 -1 19 -2
-7 -16 -24 -13 -30 -14 -37 -2 -13 20 -11 31 7 24 9 -3 25 -6 37 -6z m1930 3
c-40 -2 -107 -2 -150 0 -43 1 -10 3 72 3 83 0 118 -2 78 -3z m1015 -43 c0 -27
-3 -52 -9 -55 -5 -4 -9 17 -9 49 0 69 16 75 18 6z m-3188 27 c0 -36 -52 -72
-73 -51 -10 11 13 44 36 54 31 12 37 12 37 -3z m3349 -147 c0 -23 -1 -23 -9
-5 -7 17 -9 17 -9 3 -1 -19 -16 -24 -25 -9 -10 16 4 37 24 37 15 0 20 -7 19
-26z m57 5 c9 -7 8 -12 -5 -17 -29 -12 -41 -8 -41 12 0 22 24 24 46 5z m49 1
c12 -12 11 -15 -5 -19 -15 -4 -20 0 -20 14 0 23 7 24 25 5z"/>
<path d="M3075 3230 c-3 -5 -1 -10 4 -10 6 0 11 5 11 10 0 6 -2 10 -4 10 -3 0
-8 -4 -11 -10z"/>
<path d="M3920 2600 c8 -5 20 -10 25 -10 6 0 3 5 -5 10 -8 5 -19 10 -25 10 -5
0 -3 -5 5 -10z"/>
<path d="M2910 2310 c0 -5 5 -10 11 -10 5 0 7 5 4 10 -3 6 -8 10 -11 10 -2 0
-4 -4 -4 -10z"/>
<path d="M2546 2200 c-11 -3 -15 -9 -10 -13 10 -6 42 9 34 16 -3 3 -14 1 -24
-3z"/>
<path d="M1990 2180 c0 -6 11 -8 28 -4 39 10 40 14 4 14 -18 0 -32 -5 -32 -10z"/>
<path d="M2261 2134 c-13 -9 -30 -32 -38 -51 -20 -48 -11 -52 10 -4 29 66 83
73 130 17 l18 -21 -10 22 c-13 26 -49 53 -71 53 -9 0 -26 -7 -39 -16z"/>
<path d="M2264 2095 c-13 -13 -26 -34 -29 -48 -5 -18 -13 -24 -32 -24 -37 0
-46 -15 -30 -51 7 -18 17 -29 20 -25 4 4 14 8 22 9 13 2 15 -19 15 -127 0
-108 2 -129 15 -129 8 0 15 -4 15 -10 0 -15 -17 -12 -46 6 -38 26 -53 5 -28
-41 15 -28 24 -35 39 -30 11 3 64 8 118 12 l97 6 -3 33 c-2 19 -7 37 -10 41
-11 11 -8 233 3 233 5 0 8 15 6 33 -3 17 -5 35 -5 40 -1 4 -10 7 -20 7 -12 0
-21 8 -24 23 l-4 22 -2 -22 c-1 -27 -21 -31 -21 -5 0 25 -26 59 -51 65 -14 4
-29 -2 -45 -18z m149 -82 c-7 -2 -19 -2 -25 0 -7 3 -2 5 12 5 14 0 19 -2 13
-5z m-183 -13 c0 -5 -15 -10 -32 -9 -31 1 -32 1 -8 9 35 11 40 11 40 0z m180
-172 c5 -116 4 -125 -12 -117 -9 5 -45 8 -79 6 -53 -2 -64 1 -67 16 -3 13 3
17 23 17 15 0 24 4 20 10 -3 6 0 10 9 10 8 0 16 -5 18 -12 3 -7 12 -9 22 -5
13 5 15 11 9 20 -18 21 -23 78 -11 100 12 22 12 21 19 -8 l8 -30 -1 35 c-2 77
1 92 20 88 15 -3 18 -20 22 -130z m-97 52 c-3 -12 -8 -19 -11 -16 -5 6 5 36
12 36 2 0 2 -9 -1 -20z m-2 -93 c-8 -8 -11 -3 -11 19 1 25 2 27 11 11 8 -14 8
-22 0 -30z m52 -94 c-7 -2 -19 -2 -25 0 -7 3 -2 5 12 5 14 0 19 -2 13 -5z"/>
<path d="M1955 2100 c-3 -5 1 -10 10 -10 9 0 13 5 10 10 -3 6 -8 10 -10 10 -2
0 -7 -4 -10 -10z"/>
<path d="M1990 2096 c0 -10 28 -13 41 -5 10 6 7 9 -13 9 -16 0 -28 -2 -28 -4z"/>
<path d="M2072 1546 c7 -8 15 -12 17 -11 5 6 -10 25 -20 25 -5 0 -4 -6 3 -14z"/>
<path d="M2032 1505 c-16 -19 -11 -19 24 0 23 12 25 15 9 15 -11 -1 -26 -7
-33 -15z"/>
<path d="M2127 1513 c-4 -3 -7 -19 -7 -35 0 -35 25 -47 48 -24 16 16 15 16 -8
14 -16 -2 -25 3 -28 15 -2 10 3 17 12 17 8 0 18 5 21 10 7 11 -28 14 -38 3z"/>
<path d="M3162 1730 c0 -14 2 -19 5 -12 2 6 2 18 0 25 -3 6 -5 1 -5 -13z"/>
<path d="M660 1246 c0 -9 -7 -12 -19 -9 -20 5 -34 -27 -24 -53 10 -26 20 -14
15 17 -4 29 -3 30 16 20 17 -9 20 -7 24 14 3 14 1 25 -3 25 -5 0 -9 -6 -9 -14z"/>
<path d="M441 1193 c-13 -47 -14 -109 -2 -78 11 26 24 115 17 115 -3 0 -10
-17 -15 -37z"/>
<path d="M3668 1303 c7 -3 16 -2 19 1 4 3 -2 6 -13 5 -11 0 -14 -3 -6 -6z"/>
<path d="M3880 1190 c0 -6 -16 -26 -35 -45 -21 -21 -40 -55 -50 -87 -8 -28
-21 -55 -28 -60 -9 -6 -9 -11 1 -28 7 -11 13 -58 14 -107 l2 -88 5 85 c5 71 9
85 24 88 16 3 17 -5 14 -110 -3 -104 -4 -113 -22 -114 -41 -2 -45 -4 -45 -24
0 -27 31 -33 156 -28 78 3 107 7 114 18 15 24 12 27 -30 34 l-40 6 0 111 c0
82 3 109 13 108 22 -2 56 13 62 29 11 28 -52 151 -87 171 -16 9 -28 24 -28 34
0 10 -8 17 -20 17 -11 0 -20 -5 -20 -10z m30 -40 c0 -22 -4 -40 -10 -40 -11 0
-14 63 -3 73 11 12 13 8 13 -33z m-34 -13 c-1 -7 -11 -26 -23 -43 -12 -17 -25
-42 -28 -57 -8 -30 -25 -37 -25 -9 1 28 37 99 57 111 23 13 22 13 19 -2z m75
-7 c25 -14 51 -66 47 -93 -3 -19 -6 -17 -20 13 -8 19 -25 44 -37 54 -33 30
-28 46 10 26z m74 -140 c-3 -5 -13 -10 -21 -10 -8 0 -14 5 -14 10 0 6 9 10 21
10 11 0 17 -4 14 -10z m-213 -12 c-17 -8 -26 -8 -34 0 -9 9 -4 12 23 11 32 0
33 -1 11 -11z m98 -158 c0 -16 -4 -30 -10 -30 -11 0 -14 43 -3 53 11 12 13 8
13 -23z m0 -65 c0 -14 -4 -25 -10 -25 -5 0 -10 11 -10 25 0 14 5 25 10 25 6 0
10 -11 10 -25z m109 -49 c-9 -9 -226 -14 -240 -5 -9 5 34 9 115 9 71 0 127 -2
125 -4z"/>
<path d="M3982 905 c0 -16 2 -22 5 -12 2 9 2 23 0 30 -3 6 -5 -1 -5 -18z"/>
<path d="M3610 640 c0 -5 -9 -10 -20 -10 -19 0 -21 -5 -18 -67 3 -75 9 -81 74
-68 l34 6 0 64 c0 58 -2 65 -19 65 -11 0 -23 5 -26 10 -3 6 -10 10 -16 10 -5
0 -9 -4 -9 -10z m3 -32 c3 -10 7 -10 20 0 25 21 37 5 37 -47 l0 -47 -42 0
c-46 1 -44 -3 -40 76 2 30 17 41 25 18z"/>
<path d="M3610 559 c0 -5 6 -9 14 -9 8 0 17 -6 19 -12 4 -8 6 -7 6 3 1 9 -8
19 -19 22 -11 3 -20 1 -20 -4z"/>
<path d="M841 1128 c-1 -29 -23 -38 -37 -16 -5 8 -2 9 10 5 12 -5 16 -3 14 5
-5 13 -48 21 -48 9 0 -3 8 -18 18 -33 15 -23 19 -25 35 -13 13 9 17 22 14 42
l-4 28 -2 -27z"/>
<path d="M760 1112 c0 -26 50 -82 74 -82 9 0 16 4 16 9 0 5 3 16 6 25 3 9 2
16 -4 16 -5 0 -12 -10 -15 -22 -6 -22 -6 -22 -28 -2 -12 10 -28 33 -35 49 -12
27 -13 28 -14 7z"/>
<path d="M600 932 c0 -5 7 -15 15 -22 8 -7 15 -23 15 -37 0 -21 42 -73 60 -73
7 0 30 45 30 58 0 4 -9 -4 -19 -17 l-18 -24 -22 22 c-28 28 -27 53 3 67 18 9
25 8 34 -5 9 -13 9 -12 5 7 -7 31 -24 38 -39 18 -12 -17 -14 -17 -38 -1 -14
10 -26 13 -26 7z"/>
<path d="M194 816 c-10 -8 -17 -17 -14 -19 3 -3 14 1 24 9 11 7 17 16 15 19
-3 3 -14 -2 -25 -9z"/>
<path d="M275 720 c-3 -5 -2 -17 3 -26 8 -14 10 -12 10 9 0 29 -3 33 -13 17z"/>
<path d="M263 670 c2 -8 12 -16 23 -17 13 -2 15 -1 4 4 -8 3 -19 11 -23 17 -6
7 -7 6 -4 -4z"/>
<path d="M856 871 c-3 -4 8 -8 23 -7 16 1 27 4 24 9 -6 10 -41 9 -47 -2z"/>
<path d="M860 773 c0 -5 10 -18 23 -29 l22 -19 -20 25 c-11 14 -21 27 -22 29
-2 2 -3 0 -3 -6z"/>
<path d="M579 614 c-32 -39 -15 -123 32 -152 23 -15 25 0 2 19 -17 15 -43 69
-43 91 0 7 11 -4 25 -25 14 -20 28 -37 31 -37 18 0 44 24 44 41 0 12 4 17 11
13 6 -3 3 8 -5 25 -9 17 -20 32 -24 32 -33 6 -65 3 -73 -7z m26 -14 c-4 -6 1
-23 10 -38 l16 -27 -20 24 c-23 25 -28 51 -10 51 5 0 7 -5 4 -10z m61 -27 c-4
-4 -11 -1 -16 7 -7 11 -10 12 -10 2 0 -7 -4 -10 -10 -7 -6 4 -5 11 3 20 10 11
14 11 26 -1 8 -7 11 -17 7 -21z"/>
<path d="M701 538 c-1 -25 -8 -45 -22 -59 -25 -25 -17 -39 10 -15 23 21 32 62
21 90 -7 17 -9 14 -9 -16z"/>
<path d="M4196 2773 c-6 -14 -5 -15 5 -6 7 7 10 15 7 18 -3 3 -9 -2 -12 -12z"/>
<path d="M1073 2735 c0 -22 2 -30 4 -17 2 12 2 30 0 40 -3 9 -5 -1 -4 -23z"/>
<path d="M4276 2665 c4 -8 8 -15 10 -15 2 0 4 7 4 15 0 8 -4 15 -10 15 -5 0
-7 -7 -4 -15z"/>
<path d="M1599 2393 c-11 -12 -14 -64 -14 -237 l0 -221 47 0 48 0 0 208 c0
167 -3 214 -15 237 -17 33 -45 39 -66 13z"/>
<path d="M1224 2366 c-17 -13 -20 -31 -24 -153 -3 -76 -4 -175 -2 -221 l3 -83
42 3 42 3 0 216 c0 168 -3 220 -14 232 -16 21 -22 21 -47 3z"/>
<path d="M3875 2252 c-34 -7 -64 -43 -82 -99 -13 -40 -21 -53 -36 -53 -21 0
-20 -12 1 -90 l10 -35 1 31 c1 22 7 33 20 37 24 6 31 -30 31 -164 0 -87 -2
-97 -19 -102 -11 -3 -22 -2 -25 1 -3 3 -7 46 -8 96 l-1 91 -7 -115 c-4 -63 -5
-121 -2 -127 3 -9 26 -13 67 -13 35 0 67 -5 70 -11 5 -6 12 -3 21 10 10 14 28
21 61 23 l48 3 -4 161 c-1 94 1 164 7 167 5 4 9 20 10 38 1 26 -2 30 -18 26
-14 -3 -22 3 -30 22 l-10 26 5 -27 c4 -20 1 -28 -9 -28 -7 0 -17 12 -21 28 -8
34 -43 72 -65 72 -25 0 -68 -46 -75 -81 -4 -16 -11 -29 -16 -29 -11 0 -11 0 3
41 17 50 45 87 71 91 28 5 72 -16 91 -44 9 -12 16 -18 16 -12 0 35 -63 75
-105 66z m134 -341 c-1 -124 -3 -151 -16 -155 -11 -5 -14 -2 -9 11 6 17 5 17
-8 1 -14 -19 -46 -24 -46 -8 0 6 7 10 15 10 12 0 15 16 15 82 0 45 -3 79 -6
75 -3 -3 -6 -38 -5 -76 l1 -71 -51 0 c-49 0 -50 1 -47 28 3 24 8 28 48 32 37
4 42 7 27 15 -12 8 -18 24 -18 60 -1 78 35 145 79 145 l23 0 -2 -149z m-123
51 c0 -17 3 -35 7 -38 16 -16 7 -50 -14 -51 -19 -2 -20 2 -15 30 10 47 10 60
1 81 -6 14 -5 18 6 14 8 -3 14 -18 15 -36z m-59 -208 c-3 -3 -12 -4 -19 -1 -8
3 -5 6 6 6 11 1 17 -2 13 -5z"/>
<path d="M3951 2015 c-2 -11 -2 -28 -1 -39 1 -10 -4 -22 -11 -27 -8 -4 -11
-10 -8 -13 2 -3 10 -1 17 3 9 5 12 23 9 52 -2 24 -5 35 -6 24z"/>
<path d="M4520 2227 c0 -21 17 -39 33 -35 13 2 11 7 -8 25 -14 12 -25 16 -25
10z"/>
<path d="M982 2180 c0 -19 2 -27 5 -17 2 9 2 25 0 35 -3 9 -5 1 -5 -18z"/>
<path d="M4572 2160 c0 -14 2 -19 5 -12 2 6 2 18 0 25 -3 6 -5 1 -5 -13z"/>
<path d="M4513 2153 c-14 -5 -17 -31 -7 -57 9 -25 21 -19 33 15 15 42 6 56
-26 42z"/>
<path d="M983 2055 c0 -27 2 -38 4 -22 2 15 2 37 0 50 -2 12 -4 0 -4 -28z"/>
<path d="M4573 2020 c0 -41 2 -58 4 -37 2 20 2 54 0 75 -2 20 -4 3 -4 -38z"/>
<path d="M4504 2049 c-3 -6 3 -20 14 -31 l20 -20 7 22 c10 30 -25 55 -41 29z"/>
<path d="M1512 1910 c0 -14 2 -19 5 -12 2 6 2 18 0 25 -3 6 -5 1 -5 -13z"/>
<path d="M4573 1820 c0 -41 2 -58 4 -37 2 20 2 54 0 75 -2 20 -4 3 -4 -38z"/>
<path d="M1388 1774 c-4 -3 -7 -80 -8 -171 0 -91 -2 -170 -3 -177 -1 -7 23
-12 72 -14 l74 -3 -7 32 c-3 17 -6 101 -6 185 l0 154 -58 0 c-32 0 -61 -3 -64
-6z"/>
<path d="M972 1720 c0 -19 2 -27 5 -17 2 9 2 25 0 35 -3 9 -5 1 -5 -18z"/>
<path d="M4571 1714 c0 -11 3 -14 6 -6 3 7 2 16 -1 19 -3 4 -6 -2 -5 -13z"/>
<path d="M4992 1657 c-23 -27 -52 -103 -52 -136 0 -33 1 -34 19 -17 27 25 61
100 61 136 0 32 -11 38 -28 17z m4 -72 c-19 -49 -46 -79 -46 -51 0 20 26 84
42 104 20 24 22 -5 4 -53z"/>
<path d="M490 1613 c0 -35 32 -105 59 -132 l21 -21 0 34 c0 54 -45 146 -72
146 -4 0 -8 -12 -8 -27z m45 -35 c26 -56 33 -94 14 -82 -25 15 -64 134 -44
134 3 0 17 -24 30 -52z"/>
<path d="M4573 1540 c0 -47 2 -66 4 -42 2 23 2 61 0 85 -2 23 -4 4 -4 -43z"/>
<path d="M4860 1550 c-18 -33 12 -120 41 -120 6 0 1 12 -10 26 -12 15 -21 41
-21 61 0 45 16 34 35 -25 l15 -47 -5 45 c-3 25 -14 53 -24 64 -19 18 -19 18
-31 -4z"/>
<path d="M604 1505 c-7 -19 -14 -45 -13 -57 0 -17 4 -13 15 17 21 57 34 66 34
23 0 -21 -9 -46 -21 -62 -11 -14 -16 -26 -11 -26 26 0 56 77 46 117 -9 34 -33
28 -50 -12z"/>
<path d="M5283 1511 c-23 -16 -55 -50 -72 -74 -24 -35 -38 -46 -68 -52 -49 -9
-73 -22 -73 -40 0 -18 -12 -19 -27 -4 -7 7 -15 6 -26 -5 -24 -24 -87 -142 -93
-175 -4 -16 -15 -38 -26 -48 -20 -18 -20 -17 -13 7 4 14 10 32 13 40 3 9 -4 5
-17 -7 -26 -27 -41 -29 -41 -7 0 9 -6 28 -14 42 -24 49 -33 87 -24 112 8 25
74 70 102 70 22 0 46 -40 47 -80 1 -25 4 -18 10 25 13 89 16 99 45 128 36 36
72 36 80 0 10 -49 13 -49 11 -3 -2 42 -4 45 -33 48 -25 2 -37 -4 -67 -38 -22
-23 -37 -50 -37 -65 0 -28 -12 -32 -30 -10 -17 20 -32 19 -63 -5 -14 -11 -32
-20 -40 -20 -9 0 -21 -15 -27 -32 -12 -32 -14 -33 -74 -34 l-62 0 -18 42 c-9
23 -28 52 -41 64 l-25 23 0 -106 c0 -59 2 -107 5 -107 2 0 21 15 41 32 30 27
46 33 88 35 59 2 73 -7 82 -53 3 -19 10 -34 14 -34 14 0 21 -32 14 -67 -8 -44
-44 -68 -95 -64 -33 1 -45 -4 -70 -29 -35 -34 -42 -36 -63 -14 -15 14 -16 14
-16 0 0 -9 6 -16 13 -16 8 0 7 -3 -3 -10 -30 -19 -3 -18 42 2 45 19 49 19 73
4 31 -20 31 -37 4 -94 -16 -32 -20 -55 -16 -89 4 -43 2 -49 -35 -89 -22 -24
-48 -46 -59 -49 -26 -9 -24 -31 3 -39 18 -4 20 -8 10 -18 -6 -6 -12 -25 -12
-41 0 -16 -4 -26 -10 -22 -15 9 -12 -38 5 -78 8 -20 15 -49 15 -64 l-1 -28
-14 30 c-10 24 -14 26 -14 10 -1 -11 4 -36 9 -57 7 -25 7 -51 0 -84 -8 -35 -8
-49 1 -54 8 -6 8 -9 0 -14 -6 -4 -11 -12 -11 -18 0 -5 12 3 28 19 18 20 45 34
80 42 74 18 81 13 79 -56 -1 -70 15 -115 49 -133 36 -20 47 -2 46 76 0 51 -5
73 -21 95 -12 15 -21 31 -21 34 0 11 33 4 61 -12 24 -14 29 -24 29 -54 0 -145
118 -205 160 -82 9 24 8 39 -4 68 -15 36 -15 38 8 56 14 11 36 43 50 72 l25
52 -6 -42 c-7 -51 3 -93 21 -93 14 0 25 29 26 70 1 20 5 15 18 -20 21 -53 61
-75 88 -48 14 14 14 18 0 46 -16 31 -34 42 -69 42 -13 0 -1 10 33 27 63 32 72
48 36 64 -21 10 -33 8 -79 -15 -63 -31 -73 -32 -81 -9 -8 20 10 33 45 33 14 0
43 11 63 25 29 20 41 23 56 15 16 -8 23 -6 37 10 10 11 24 20 33 20 9 0 23 8
31 18 9 9 26 25 38 35 12 10 19 22 16 27 -6 10 -65 7 -83 -4 -20 -12 -42 6
-44 38 -2 43 -1 46 15 90 13 35 20 41 61 51 54 14 96 49 96 81 0 25 -43 64
-71 64 -26 0 -25 3 21 61 39 50 58 94 46 106 -8 9 -87 -76 -109 -118 l-18 -34
23 30 c41 53 91 106 95 101 7 -6 -49 -86 -78 -112 -13 -12 -38 -25 -56 -29
-31 -6 -32 -5 -43 34 -6 21 -16 41 -23 44 -9 3 -7 18 6 61 10 32 16 69 13 81
-3 13 -2 27 4 30 13 8 13 25 -1 25 -5 0 -7 -4 -4 -10 3 -5 2 -10 -3 -10 -14 0
-22 41 -12 59 5 9 10 11 10 5 0 -6 14 -17 31 -24 38 -16 103 1 119 31 13 24
-5 33 -50 27 -17 -3 -30 -4 -30 -3 0 1 18 21 40 45 39 42 53 76 28 67 -7 -2
-12 -11 -10 -20 1 -8 -3 -19 -9 -23 -9 -5 -10 -2 -6 9 15 39 -10 13 -36 -37
-28 -53 -58 -79 -65 -57 -2 6 -8 9 -13 5 -5 -3 -9 3 -9 13 0 10 -6 29 -14 43
-10 21 -10 30 0 52 18 35 56 176 52 189 -2 6 -22 -3 -45 -20z m11 -84 c-9 -28
-23 -65 -31 -80 -14 -28 -33 -28 -33 0 0 9 -7 24 -16 34 -15 17 -13 22 37 75
61 64 71 57 43 -29z m-659 -113 c18 -38 12 -54 -27 -75 -17 -9 -18 -4 -18 62
0 60 2 70 14 60 8 -7 22 -28 31 -47z m569 34 c9 -12 16 -30 16 -40 0 -10 9
-18 23 -20 44 -6 32 -129 -15 -147 -13 -4 -38 -13 -56 -19 l-32 -10 20 28 c11
15 20 31 20 35 0 3 7 13 15 21 16 16 21 74 7 74 -5 0 -7 -13 -4 -28 2 -18 -2
-33 -12 -41 -17 -14 -18 -13 -20 34 -1 20 -7 31 -19 33 -24 5 -57 -25 -57 -52
0 -17 2 -18 10 -6 7 11 10 11 10 2 0 -7 10 -16 23 -21 21 -8 21 -9 -13 -25
l-35 -16 33 3 c36 4 36 4 20 -22 -9 -15 -20 -18 -48 -14 -22 3 -40 1 -44 -6
-5 -7 4 -11 24 -11 17 0 40 -5 50 -10 12 -6 21 -6 25 -1 8 14 115 43 131 37
17 -7 18 -51 3 -97 -17 -50 -26 -56 -49 -31 -12 12 -32 29 -45 38 -23 15 -27
15 -52 -1 -16 -9 -38 -28 -50 -42 -27 -33 -49 -25 -70 24 -8 21 -19 40 -23 43
-16 11 -50 76 -50 98 0 22 50 122 79 155 14 17 16 17 32 -4 l16 -22 7 27 c12
50 103 73 130 34z m206 -48 c0 -5 -5 -10 -11 -10 -5 0 -7 5 -4 10 3 6 8 10 11
10 2 0 4 -4 4 -10z m-260 -54 c0 -2 -9 -6 -20 -9 -11 -3 -20 -1 -20 4 0 5 9 9
20 9 11 0 20 -2 20 -4z m290 -16 c0 -16 -39 -31 -73 -28 l-32 3 30 17 c33 19
75 24 75 8z m-295 -10 c3 -5 1 -10 -4 -10 -6 0 -11 5 -11 10 0 6 2 10 4 10 3
0 8 -4 11 -10z m-285 -115 c-7 -9 -15 -13 -19 -10 -3 3 1 10 9 15 21 14 24 12
10 -5z m70 5 c0 -5 -5 -10 -11 -10 -5 0 -7 5 -4 10 3 6 8 10 11 10 2 0 4 -4 4
-10z m15 -49 c3 -11 3 -30 0 -43 -5 -18 -1 -25 17 -33 16 -7 24 -20 26 -44 5
-49 -3 -71 -45 -121 -27 -32 -44 -44 -60 -42 -14 2 -36 -10 -60 -32 l-39 -35
-29 19 c-51 34 -65 78 -44 139 9 26 15 30 33 25 17 -5 19 -4 9 7 -17 18 -16
74 2 108 15 30 33 41 66 41 16 0 19 -4 13 -22 -5 -17 1 -14 28 15 39 40 73 48
83 18z m31 -40 c-12 -19 -24 -12 -19 10 4 13 9 17 15 11 6 -6 7 -15 4 -21z
m-236 -11 c-9 -16 -15 -19 -23 -11 -6 6 -20 11 -31 11 -30 0 -6 18 29 22 38 4
39 4 25 -22z m452 -22 c14 -32 14 -34 -14 -72 -15 -21 -28 -33 -29 -25 0 8 -4
5 -8 -6 -5 -11 -5 -49 -1 -85 l7 -65 2 61 c1 66 23 110 73 147 35 26 54 17 77
-37 11 -24 24 -47 30 -50 6 -4 11 -14 11 -23 0 -15 -2 -14 -18 0 -31 28 -35
19 -8 -14 20 -23 26 -42 26 -75 0 -51 -10 -76 -49 -118 -23 -25 -24 -27 -4
-17 18 9 23 8 28 -9 16 -51 -65 -160 -119 -160 -49 0 -88 14 -102 36 -33 49
-52 190 -29 206 6 5 5 8 -2 8 -7 0 -13 9 -13 20 0 12 -7 32 -16 46 -30 45 1
166 58 225 48 49 78 51 100 7z m-169 -83 c-8 -24 -23 -51 -33 -60 -17 -16 -17
-14 1 21 14 27 19 51 15 77 -4 36 -3 38 13 23 17 -15 17 -20 4 -61z m422 -40
c46 -19 53 -40 24 -71 -23 -25 -94 -52 -105 -41 -4 3 -9 28 -11 54 -3 26 -10
54 -16 61 -14 18 64 16 108 -3z m-439 -82 c-3 -3 -12 0 -21 7 -14 12 -14 15 2
33 18 19 18 19 21 -8 2 -15 1 -29 -2 -32z m-19 -18 c34 -17 58 -63 49 -94 -3
-12 -9 -31 -12 -42 -4 -14 -2 -19 5 -15 6 4 11 2 11 -3 0 -7 -16 -9 -41 -6
-37 5 -40 4 -25 -10 39 -39 -9 -156 -71 -171 -15 -4 -42 -17 -60 -30 -42 -28
-72 -22 -80 18 -3 16 -14 33 -24 38 -25 14 -42 73 -34 119 4 24 20 55 40 78
33 37 34 37 35 13 0 -14 5 -32 10 -40 7 -11 10 -2 10 33 0 40 5 54 29 78 30
30 80 40 82 17 0 -7 4 -3 9 10 11 26 26 28 67 7z m-291 -111 c-20 -61 -25 -69
-21 -37 5 40 -7 65 -20 43 -3 -5 -18 -10 -33 -10 l-27 0 32 19 c17 11 42 34
54 50 37 50 43 21 15 -65z m46 22 c-11 -12 -25 -30 -31 -41 l-13 -20 7 20 c4
11 11 35 17 53 8 28 12 31 24 21 13 -10 12 -15 -4 -33z m-90 -73 c-11 -21 -5
-46 9 -37 5 3 9 -1 9 -9 0 -13 -4 -13 -25 -4 -30 14 -30 20 -8 58 18 31 31 24
15 -8z m402 -78 c9 -30 19 -61 22 -69 6 -16 -42 -46 -74 -46 -54 0 -38 61 21
75 30 8 31 9 7 12 -23 4 -25 8 -22 43 6 57 28 50 46 -15z m386 28 c0 -2 -13
-9 -30 -14 -16 -6 -28 -16 -27 -22 1 -8 -11 -11 -35 -9 -36 3 -53 -11 -25 -21
6 -2 9 -8 5 -12 -4 -4 -14 -5 -23 -2 -13 6 -13 10 3 41 18 37 36 50 25 19 -5
-15 -2 -15 16 3 18 17 91 31 91 17z m-810 -28 c-7 -9 -15 -13 -19 -10 -3 3 1
10 9 15 21 14 24 12 10 -5z m21 -36 l-9 -34 -1 31 c-1 17 2 34 6 37 12 13 14
-1 4 -34z m48 -59 c-4 -8 -24 -31 -44 -50 -40 -39 -40 -39 5 65 21 49 21 49
34 25 7 -14 9 -32 5 -40z m41 -8 c0 -4 -29 -37 -65 -72 -36 -35 -65 -58 -65
-50 0 8 26 40 57 72 54 55 73 68 73 50z m370 -1 c-8 -5 -26 -12 -40 -16 -24
-7 -24 -7 -5 9 11 8 29 15 40 15 16 0 17 -1 5 -8z m-171 -24 c6 -8 14 -28 17
-44 5 -24 1 -36 -16 -53 -19 -19 -24 -20 -43 -7 -14 9 -24 29 -28 55 -5 38 -3
42 20 51 35 13 37 13 50 -2z m184 -52 c-9 -43 -44 -93 -75 -107 -27 -12 -38
-28 -20 -28 5 0 17 -15 26 -32 21 -40 11 -78 -29 -104 -25 -16 -27 -16 -53 3
-35 26 -55 86 -48 143 4 24 10 48 14 52 11 11 72 -11 73 -25 0 -7 10 11 23 38
30 66 76 121 87 104 4 -7 5 -27 2 -44z m171 46 c7 -11 -29 -35 -64 -44 -28 -7
-59 6 -41 17 56 35 95 45 105 27z m-304 -11 c0 -5 -4 -10 -10 -10 -5 0 -10 5
-10 10 0 6 5 10 10 10 6 0 10 -4 10 -10z m85 0 c-3 -5 -11 -10 -16 -10 -6 0
-7 5 -4 10 3 6 11 10 16 10 6 0 7 -4 4 -10z m-324 -17 c13 -15 12 -16 -8 -11
-13 4 -23 3 -23 -1 0 -4 -12 -13 -27 -20 -27 -11 -27 -11 5 19 38 35 36 35 53
13z m102 -35 l6 -38 -47 -1 c-43 0 -148 -24 -197 -44 -20 -8 -20 -8 -1 13 18
21 82 49 100 44 5 -2 16 4 25 12 13 12 104 56 107 52 1 0 4 -18 7 -38z m190
16 c-6 -15 -73 -20 -73 -5 0 12 51 30 67 24 6 -3 9 -11 6 -19z m131 -78 c-5
-21 -8 -25 -15 -15 -11 17 -12 83 -2 93 12 11 24 -46 17 -78z m-150 29 c-7
-17 -9 -17 -41 -9 -35 9 -27 24 12 24 26 0 33 -3 29 -15z m256 -15 c22 -22 19
-40 -7 -40 -21 0 -53 29 -53 47 0 20 37 16 60 -7z m-444 -77 c15 -34 19 -133
7 -133 -33 1 -55 51 -60 134 l-4 70 22 -19 c12 -11 28 -34 35 -52z"/>
<path d="M5053 1208 c5 -24 13 -52 18 -63 7 -18 8 -18 8 5 1 33 -18 100 -28
100 -5 0 -4 -19 2 -42z"/>
<path d="M4810 941 c-14 -27 -13 -38 3 -18 8 11 20 15 35 11 28 -8 29 -44 1
-70 -21 -19 -21 -18 -41 6 l-21 25 8 -25 c4 -14 11 -29 15 -33 13 -15 60 16
66 42 3 14 12 38 20 54 17 30 14 33 -17 15 -17 -10 -23 -10 -26 0 -7 18 -31
14 -43 -7z"/>
<path d="M5193 788 c-11 -13 -26 -33 -32 -46 -7 -13 -17 -20 -24 -16 -7 4 -9
3 -4 -1 4 -5 1 -18 -7 -31 -14 -20 -13 -24 6 -40 27 -25 47 -66 58 -117 l9
-42 -4 45 c-2 25 -7 54 -11 65 -6 14 -4 17 7 13 8 -3 23 -2 34 3 16 6 12 8
-16 8 -23 1 -43 9 -57 24 l-21 22 20 33 c22 34 35 40 42 20 2 -7 2 0 0 15 -5
27 10 57 29 57 5 0 13 -10 18 -22 10 -23 10 -23 7 2 -3 33 -28 36 -54 8z"/>
<path d="M5223 736 c0 -18 3 -24 9 -18 7 7 7 16 0 28 -8 14 -9 13 -9 -10z"/>
<path d="M4841 624 c-12 -15 -17 -30 -12 -33 5 -3 10 -15 12 -26 7 -34 49 -26
76 14 32 47 27 65 -18 69 -30 3 -41 -2 -58 -24z m26 -8 c-7 -13 -15 -22 -19
-20 -10 6 9 44 21 44 5 0 4 -11 -2 -24z m53 0 c0 -20 -12 -25 -35 -15 -18 8
-18 9 3 5 17 -3 22 -1 18 10 -3 8 -1 14 4 14 6 0 10 -6 10 -14z m-30 -46 c0
-5 -2 -10 -4 -10 -3 0 -8 5 -11 10 -3 6 -1 10 4 10 6 0 11 -4 11 -10z"/>
<path d="M4936 575 c-5 -16 -20 -42 -34 -57 -27 -29 -24 -50 3 -28 25 21 47
69 42 93 -3 19 -4 18 -11 -8z"/>
<path d="M4800 575 c-5 -40 2 -70 18 -82 25 -20 37 -15 17 7 -10 11 -21 37
-25 58 -4 20 -9 28 -10 17z"/>
<path d="M5365 1337 c-14 -24 -25 -48 -25 -53 0 -5 12 10 26 34 14 23 30 40
35 37 5 -4 9 1 9 9 0 28 -19 17 -45 -27z"/>
<path d="M4835 1260 c0 -30 8 -39 20 -20 12 20 27 10 23 -15 -6 -27 6 -34 16
-9 8 20 -12 57 -25 48 -6 -3 -16 1 -22 10 -10 14 -12 12 -12 -14z"/>
<path d="M5331 1254 c0 -11 3 -14 6 -6 3 7 2 16 -1 19 -3 4 -6 -2 -5 -13z"/>
<path d="M171 1224 c0 -11 3 -14 6 -6 3 7 2 16 -1 19 -3 4 -6 -2 -5 -13z"/>
<path d="M4675 1190 c-3 -6 1 -7 9 -4 18 7 21 14 7 14 -6 0 -13 -4 -16 -10z"/>
<path d="M4661 1144 c-1 -34 25 -55 41 -32 21 32 29 50 24 56 -3 3 -6 0 -6 -6
0 -6 -6 -9 -14 -6 -8 3 -17 1 -21 -5 -3 -7 0 -8 9 -5 9 3 16 1 16 -5 0 -22
-39 -11 -43 12 -3 16 -5 14 -6 -9z"/>
<path d="M4741 1148 c0 -9 -13 -31 -28 -48 -25 -30 -28 -31 -40 -14 -15 20
-26 14 -17 -10 9 -24 37 -19 68 13 19 20 26 36 23 52 -2 13 -5 16 -6 7z"/>
<path d="M2280 1137 c0 -7 -13 -23 -29 -35 -17 -12 -36 -41 -46 -69 -9 -26
-21 -56 -26 -65 -5 -11 -5 -28 1 -43 14 -37 13 -218 -2 -233 -8 -8 -8 -15 2
-27 10 -12 36 -15 131 -15 65 0 120 4 123 8 3 4 0 57 -6 117 -8 80 -7 114 1
127 13 21 15 68 2 68 -4 0 -14 21 -21 46 -14 50 -53 104 -76 104 -8 0 -14 7
-14 15 0 8 -9 15 -20 15 -11 0 -20 -6 -20 -13z m30 -32 c0 -14 -4 -25 -10 -25
-5 0 -10 11 -10 25 0 14 5 25 10 25 6 0 10 -11 10 -25z m71 -51 c24 -41 32
-74 20 -74 -6 0 -11 10 -11 21 0 12 -16 36 -35 55 -19 18 -35 38 -35 45 0 18
42 -14 61 -47z m-126 6 c-3 -5 -12 -10 -18 -10 -7 0 -6 4 3 10 19 12 23 12 15
0z m35 -10 c0 -5 -5 -10 -11 -10 -5 0 -7 5 -4 10 3 6 8 10 11 10 2 0 4 -4 4
-10z m130 -100 c0 -5 -9 -10 -19 -10 -11 0 -23 5 -26 10 -4 6 5 10 19 10 14 0
26 -4 26 -10z m-200 -10 c0 -5 -6 -10 -14 -10 -8 0 -18 5 -21 10 -3 6 3 10 14
10 12 0 21 -4 21 -10z m0 -135 c0 -63 -4 -105 -10 -105 -6 0 -10 42 -10 105 0
63 4 105 10 105 6 0 10 -42 10 -105z m190 5 c0 -60 -4 -100 -10 -100 -6 0 -10
40 -10 100 0 60 4 100 10 100 6 0 10 -40 10 -100z m-66 -25 c3 -8 1 -15 -4
-15 -6 0 -10 7 -10 15 0 8 2 15 4 15 2 0 6 -7 10 -15z m6 -60 c0 -8 -4 -15
-10 -15 -5 0 -10 7 -10 15 0 8 5 15 10 15 6 0 10 -7 10 -15z m75 -35 c4 -6
-37 -9 -117 -8 l-123 2 115 6 c63 3 116 7 117 8 1 1 5 -2 8 -8z"/>
<path d="M4581 1054 c0 -11 3 -14 6 -6 3 7 2 16 -1 19 -3 4 -6 -2 -5 -13z"/>
<path d="M4602 893 c-33 -29 -36 -57 -7 -73 28 -15 23 -34 -7 -24 -14 4 -18 2
-14 -5 10 -15 31 -14 45 3 10 11 8 18 -9 34 -32 30 -6 81 32 61 11 -6 18 -6
18 0 0 7 -22 21 -35 21 -1 0 -12 -8 -23 -17z"/>
<path d="M4607 863 c-12 -12 -7 -19 13 -19 11 0 20 6 20 13 0 14 -22 18 -33 6z"/>
<path d="M4625 780 c-10 -11 -13 -20 -7 -20 6 0 16 9 22 20 6 11 9 20 7 20 -2
0 -12 -9 -22 -20z"/>
<path d="M2553 636 c-20 -21 -23 -35 -23 -104 0 -87 7 -96 64 -85 26 5 26 6
26 94 0 60 -4 89 -11 89 -7 0 -17 7 -23 15 -9 12 -14 11 -33 -9z m37 -26 c-20
-13 -53 -13 -45 0 3 6 18 10 33 10 21 0 24 -2 12 -10z m20 -86 l0 -66 -32 7
c-18 4 -34 8 -35 9 -1 1 1 27 4 59 6 55 7 57 34 57 29 0 29 0 29 -66z"/>
<path d="M2873 595 c0 -38 2 -53 4 -32 2 20 2 52 0 70 -2 17 -4 1 -4 -38z"/>
<path d="M3300 526 c0 -31 6 -34 13 -6 3 11 1 23 -4 26 -5 3 -9 -6 -9 -20z"/>
<path d="M2871 504 c0 -11 3 -14 6 -6 3 7 2 16 -1 19 -3 4 -6 -2 -5 -13z"/>
<path d="M2700 500 c0 -5 5 -10 10 -10 6 0 10 5 10 10 0 6 -4 10 -10 10 -5 0
-10 -4 -10 -10z"/>
<path d="M3303 410 c0 -25 2 -35 4 -22 2 12 2 32 0 45 -2 12 -4 2 -4 -23z"/>
<path d="M3815 100 c3 -5 8 -10 11 -10 2 0 4 5 4 10 0 6 -5 10 -11 10 -5 0 -7
-4 -4 -10z"/>
</g>
</svg>
