<?xml version="1.0" standalone="no"?>
<!DOCTYPE svg PUBLIC "-//W3C//DTD SVG 20010904//EN"
 "http://www.w3.org/TR/2001/REC-SVG-20010904/DTD/svg10.dtd">
<svg version="1.0" xmlns="http://www.w3.org/2000/svg"
 width="585.000000pt" height="427.000000pt" viewBox="0 0 585.000000 427.000000"
 preserveAspectRatio="xMidYMid meet">

<g transform="translate(0.000000,427.000000) scale(0.100000,-0.100000)"
fill="#000000" stroke="none">
<path class="st1" d="M3471 3734 c0 -11 3 -14 6 -6 3 7 2 16 -1 19 -3 4 -6 -2 -5 -13z"/>
<path class="st1" d="M3398 3713 c6 -2 18 -2 25 0 6 3 1 5 -13 5 -14 0 -19 -2 -12 -5z"/>
<path class="st1" d="M3518 3683 c7 -3 16 -2 19 1 4 3 -2 6 -13 5 -11 0 -14 -3 -6 -6z"/>
<path class="st1" d="M3408 3673 c21 -4 22 -9 22 -102 0 -64 -4 -102 -12 -110 -11 -11 -9
-11 9 -2 12 6 31 11 42 11 14 0 21 6 20 18 0 10 -3 12 -6 5 -2 -7 -13 -13 -23
-13 -17 0 -20 10 -22 98 -3 96 -3 97 -28 98 -22 1 -22 0 -2 -3z"/>
<path class="st1" d="M3348 3663 c7 -3 16 -2 19 1 4 3 -2 6 -13 5 -11 0 -14 -3 -6 -6z"/>
<path class="st1" d="M1610 3602 c0 -7 -10 -13 -22 -13 -18 -1 -19 -2 -5 -6 26 -7 17 -36
-13 -44 -14 -4 -19 -7 -12 -8 6 -1 12 -9 12 -19 0 -17 -18 -20 -162 -35 -90
-9 -192 -19 -228 -22 -172 -14 -263 -22 -305 -29 -39 -5 -268 -20 -322 -21
-24 0 -43 -3 -43 -7 0 -4 -33 -7 -72 -7 -40 -1 -97 -5 -126 -10 -48 -9 -54 -8
-76 14 l-24 23 87 7 c75 5 170 13 356 30 28 3 70 7 95 9 25 3 86 8 135 11 50
3 182 15 295 26 113 10 230 20 260 22 50 3 49 3 -15 5 -38 1 -110 -3 -160 -8
-74 -8 -386 -33 -795 -66 -36 -2 -101 -9 -145 -14 -44 -4 -97 -8 -119 -6 l-39
1 46 -40 46 -40 4 -90 3 -90 2 93 c1 64 6 94 15 97 6 2 57 6 112 9 55 3 152
10 215 16 200 17 454 41 485 45 17 2 69 6 115 10 47 3 92 8 100 10 8 2 68 7
133 10 l117 6 0 -365 0 -365 -42 -4 c-24 -2 -13 -3 25 -2 37 1 70 -2 73 -6 7
-11 21 -9 -181 -23 -60 -4 -132 -9 -160 -11 -27 -3 -88 -7 -135 -10 -368 -22
-448 -27 -545 -35 -60 -5 -150 -12 -200 -15 -118 -7 -209 -15 -267 -21 -39 -5
-47 -3 -51 13 -4 17 -5 17 -6 -1 0 -10 12 -35 29 -56 18 -23 31 -51 31 -71 2
-33 2 -33 8 6 5 33 10 40 31 43 20 2 22 1 10 -7 -12 -9 -11 -11 8 -11 13 0 20
4 17 10 -4 7 2 7 18 1 14 -6 27 -8 29 -6 2 2 15 6 28 9 14 2 40 8 59 12 26 5
36 3 43 -10 5 -9 14 -14 20 -10 6 4 5 10 -3 15 -14 9 -3 11 91 14 25 1 62 5
82 9 20 4 85 9 145 11 59 3 119 7 133 10 14 3 81 8 150 11 69 3 127 10 128 15
2 5 8 9 14 9 6 0 7 -7 4 -16 -3 -8 -2 -13 2 -11 24 13 52 20 92 22 25 1 45 3
45 4 0 2 8 4 18 6 10 2 17 -3 17 -12 0 -9 -6 -13 -15 -10 -8 4 -17 3 -19 -2
-6 -10 26 -11 39 -1 6 4 18 6 28 5 9 -2 17 1 17 6 0 5 -10 9 -22 10 -22 0 -22
1 2 10 14 6 39 8 55 6 26 -4 79 1 181 18 26 4 30 2 32 -17 3 -42 4 -83 3 -94
-1 -7 -33 -14 -77 -17 -42 -3 -78 -8 -80 -10 -3 -2 11 -28 31 -58 19 -29 43
-72 52 -96 10 -24 21 -43 26 -43 4 0 7 -9 7 -19 0 -11 5 -23 10 -26 6 -4 10
-14 9 -23 -3 -39 1 -175 7 -170 7 8 6 170 -1 190 -6 15 3 18 62 21 l68 3 -75
3 c-58 3 -68 5 -45 11 l30 8 -32 1 c-18 0 -33 5 -33 9 0 5 128 15 285 22 157
7 283 15 280 18 -2 3 -128 -1 -279 -8 -267 -12 -306 -11 -306 9 0 13 38 19
175 26 66 3 143 8 170 10 28 3 147 10 265 15 118 5 285 13 370 17 85 5 184 8
220 8 60 0 65 -2 68 -22 3 -20 -1 -23 -30 -24 -30 -2 -31 -2 -5 -6 27 -4 35
-17 18 -27 -5 -4 -12 0 -14 6 -4 10 -6 10 -6 0 -1 -7 6 -15 14 -18 8 -4 12
-10 9 -15 -3 -5 1 -9 9 -9 20 0 23 -18 26 -140 1 -58 5 -107 8 -110 3 -3 3 68
1 158 l-4 162 35 0 c19 0 31 3 27 7 -4 4 -23 6 -42 4 -18 -1 -34 2 -34 7 0 10
70 22 131 22 22 0 39 3 39 8 0 4 -40 5 -90 2 -87 -5 -89 -5 -95 19 -3 13 -4
25 -2 28 6 6 81 10 282 18 94 4 172 8 175 10 3 2 102 6 220 10 118 4 217 9
220 11 3 1 88 6 188 10 203 8 197 10 168 -61 -8 -19 -11 -35 -5 -35 5 0 9 -5
9 -11 0 -5 -5 -7 -11 -3 -8 5 -9 -123 -4 -484 l7 -490 -118 -8 c-66 -4 -110
-10 -100 -12 11 -2 81 0 155 4 75 5 121 10 103 12 -31 3 -32 5 -29 40 2 20 8
36 14 35 8 -2 8 7 0 28 -9 23 -9 32 1 38 19 11 14 141 -5 141 -12 0 -14 37 -9
245 4 155 2 245 -4 245 -14 0 0 63 17 76 11 10 11 13 -3 18 -13 5 -15 9 -6 18
7 7 12 20 12 31 0 16 5 17 45 11 30 -4 45 -3 45 5 0 6 12 11 27 11 14 0 24 3
20 6 -3 3 -35 6 -71 5 -61 -1 -81 8 -55 25 6 3 15 0 20 -7 6 -10 8 -7 6 9 0
12 -5 22 -9 22 -6 0 -3 39 4 45 4 4 173 11 431 19 104 3 210 8 235 10 26 2 94
7 152 11 58 3 128 8 155 10 28 3 125 8 216 11 l166 6 -1 -24 c-1 -23 -4 -23
-136 -30 -225 -12 -245 -16 -51 -12 101 3 188 7 193 10 13 8 9 72 -4 77 -7 2
-5 3 5 1 15 -2 116 91 125 117 4 10 -4 11 -140 9 l-98 -1 -2 43 -1 43 -4 -37
c-2 -21 -7 -38 -10 -38 -14 0 -153 53 -153 59 0 4 -21 7 -47 8 -44 1 -37 -3
72 -39 66 -21 121 -43 123 -47 1 -4 60 -6 130 -4 110 3 125 2 110 -10 -13 -10
-64 -16 -175 -22 -205 -9 -308 -15 -360 -19 -28 -3 -43 0 -43 8 0 7 -3 6 -9
-2 -5 -9 -24 -12 -57 -9 -27 2 -64 0 -81 -4 -20 -4 -33 -3 -33 3 0 5 -5 6 -11
2 -22 -13 -77 -21 -90 -13 -7 4 -18 5 -24 1 -5 -3 -37 -7 -70 -9 -141 -5 -240
-16 -247 -27 -11 -17 -10 -23 7 -23 8 0 15 5 15 10 0 5 9 7 20 4 11 -3 20 -1
20 4 0 6 6 4 14 -3 10 -9 11 -15 2 -20 -6 -5 -2 -8 12 -8 12 0 21 5 20 11 -2
6 3 14 11 17 8 2 11 0 8 -5 -8 -13 46 -3 54 10 4 5 17 6 29 2 17 -5 19 -9 9
-15 -7 -5 -16 -7 -20 -4 -4 2 -10 0 -14 -6 -4 -6 6 -10 24 -10 25 0 31 4 31
21 0 11 4 17 10 14 6 -3 10 -1 10 6 0 10 3 10 11 2 13 -13 3 -36 -12 -28 -5 4
-9 1 -9 -5 0 -6 8 -9 18 -6 9 3 37 6 62 7 71 2 124 28 88 42 -10 4 -10 6 -1 6
7 1 17 -9 24 -20 6 -12 7 -19 2 -16 -5 3 -15 2 -23 -4 -11 -6 -8 -9 13 -9 17
0 27 5 27 15 0 8 7 15 16 15 9 0 12 -5 8 -12 -5 -8 -2 -9 10 -5 10 4 15 3 11
-3 -3 -6 -1 -10 4 -10 6 0 11 9 11 20 0 12 -7 20 -17 20 -9 0 -13 3 -10 7 4 3
18 0 32 -7 19 -10 22 -16 13 -22 -9 -5 -5 -8 12 -8 16 0 21 -3 12 -8 -6 -5
-54 -9 -105 -10 -50 -1 -134 -5 -185 -8 -67 -5 -96 -3 -107 6 -8 7 -15 8 -15
3 0 -5 -10 -9 -22 -10 -59 -2 -256 -15 -275 -18 -27 -4 -30 10 -5 24 15 9 15
10 -5 8 -12 0 -21 -4 -21 -7 2 -19 -4 -26 -22 -26 -15 0 -19 5 -14 21 4 11 7
21 8 21 0 1 40 4 89 8 66 5 87 3 87 -6 0 -9 3 -8 10 2 17 27 11 33 -31 26 -29
-5 -38 -3 -34 5 6 8 2 8 -14 0 -16 -9 -26 -9 -42 0 -15 7 -19 8 -15 0 5 -7 1
-9 -8 -5 -9 3 -16 10 -16 15 0 5 -4 9 -10 9 -5 0 -7 -7 -4 -15 4 -8 2 -15 -4
-15 -6 0 -9 8 -8 18 2 12 14 18 44 20 23 2 42 7 42 12 0 5 -18 7 -41 4 l-41
-6 7 31 7 32 -69 -7 c-37 -4 -70 -9 -73 -12 -3 -3 25 -2 62 1 l68 6 -26 -49
c-14 -27 -31 -53 -38 -59 -7 -6 -75 -13 -152 -16 -76 -2 -177 -7 -224 -10 -47
-2 -138 -7 -203 -11 -65 -3 -131 -7 -147 -9 -16 -2 -32 1 -36 6 -4 6 -11 6
-19 -1 -8 -7 -27 -11 -42 -10 -15 1 -30 1 -33 0 -3 -1 -17 -3 -33 -5 -19 -3
-25 0 -20 8 5 9 3 9 -8 0 -18 -15 -149 -15 -149 0 0 7 -4 7 -12 -1 -7 -7 -19
-12 -27 -11 -11 0 -10 3 4 9 18 8 18 9 -5 9 -15 1 -31 -4 -38 -11 -9 -9 -12
-9 -12 1 0 7 -5 9 -12 4 -7 -4 -26 -7 -43 -6 -29 2 -29 2 -5 -6 18 -7 4 -9
-52 -10 -46 -1 -78 3 -78 9 0 6 -6 10 -13 10 -18 0 -47 37 -47 59 0 11 8 22
18 24 13 4 11 5 -5 6 -20 1 -23 -4 -23 -39 0 -22 -5 -40 -11 -40 -5 0 -7 5 -4
10 8 13 -96 13 -225 0 -52 -5 -167 -11 -255 -15 -156 -5 -159 -5 -125 12 86
41 217 101 238 107 12 4 20 12 17 17 -3 5 0 6 7 4 8 -3 73 20 146 50 133 56
178 68 198 53 6 -5 11 -2 11 8 0 10 -7 14 -19 11 -10 -3 -16 -1 -12 4 3 5 14
9 25 9 10 0 19 4 19 9 0 5 11 12 25 15 14 4 23 10 20 15 -2 5 2 12 11 15 10 4
13 2 8 -6 -5 -7 -2 -9 9 -5 14 5 16 -8 19 -106 2 -62 -1 -117 -5 -124 -9 -12
134 -10 396 5 64 4 125 4 135 1 9 -3 28 -2 41 3 14 5 76 12 138 15 63 3 116
11 120 16 6 10 -163 4 -367 -13 -58 -5 -180 -12 -271 -15 l-167 -7 -4 53 c-2
30 -4 98 -4 152 l1 99 150 67 c83 38 180 82 217 100 37 17 74 31 82 31 8 0 18
5 21 11 4 6 14 8 22 5 8 -3 12 -2 9 2 -3 5 26 19 64 31 l70 23 102 -32 c157
-49 270 -87 303 -101 17 -7 32 -13 35 -13 3 -1 40 -12 83 -26 l77 -24 0 -123
c0 -136 14 -176 18 -51 3 104 2 103 60 82 9 -4 24 -8 32 -9 8 -2 56 -15 105
-29 50 -15 149 -42 222 -61 73 -19 149 -41 170 -49 41 -15 190 -61 236 -72 15
-3 30 -10 33 -15 3 -5 64 -9 137 -9 80 0 127 4 122 9 -10 9 -300 103 -440 143
-38 11 -104 30 -145 43 -165 51 -183 56 -196 51 -8 -3 -14 -11 -14 -18 0 -9 3
-9 10 2 8 13 11 13 22 1 11 -11 11 -13 -1 -6 -10 6 -12 4 -6 -4 5 -9 11 -9 17
-3 6 6 16 9 22 7 6 -2 30 -9 54 -15 23 -6 40 -15 37 -20 -3 -4 4 -6 14 -3 10
3 30 -2 42 -11 13 -8 27 -15 32 -16 4 0 8 0 10 -1 10 -3 46 -11 62 -14 11 -2
21 -4 23 -5 1 -2 7 -3 12 -4 6 0 10 -4 10 -8 0 -5 0 -10 0 -12 0 -2 -33 5 -72
15 -40 11 -122 33 -183 49 -142 38 -365 109 -342 109 9 1 17 7 17 14 0 8 3 8
8 1 4 -5 16 -10 27 -10 44 -1 95 -17 88 -27 -4 -7 0 -8 12 -4 11 5 22 1 31
-10 7 -10 14 -13 14 -6 0 6 10 9 23 7 52 -10 -43 26 -140 53 -109 30 -106 27
-86 79 2 7 -17 19 -43 28 -56 19 -54 19 -54 7 0 -5 18 -12 40 -16 48 -8 51
-23 10 -67 -25 -29 -29 -30 -30 -13 0 17 -22 27 -137 64 -75 25 -132 46 -125
49 6 2 69 -16 140 -40 130 -44 163 -49 139 -23 -7 7 -15 11 -18 9 -6 -4 -72
12 -104 25 -11 5 -45 15 -75 24 -236 69 -359 110 -354 119 3 5 10 5 16 2 6 -4
8 -2 5 4 -4 5 -15 8 -25 6 -21 -5 -46 10 -41 24 3 7 17 5 39 -5 19 -9 42 -15
50 -14 10 2 9 -2 -5 -14 l-20 -17 20 8 c30 11 42 8 140 -24 149 -50 266 -84
272 -78 3 2 -35 17 -83 32 -104 31 -225 72 -344 115 -106 39 -130 44 -130 30
0 -6 -6 -11 -14 -11 -12 0 -58 -18 -141 -55 -17 -8 -53 -23 -80 -35 -28 -12
-102 -45 -165 -74 -203 -94 -279 -126 -295 -126 -20 0 -19 -12 6 -44 11 -14
16 -26 10 -26 -6 0 -34 -11 -63 -24 -30 -14 -78 -34 -108 -46 -29 -12 -79 -33
-109 -46 -31 -14 -66 -30 -78 -35 -13 -5 -35 -15 -49 -21 -15 -7 -32 -13 -38
-13 -6 0 -40 -14 -76 -31 -95 -44 -316 -143 -380 -169 -30 -13 -84 -25 -120
-28 -86 -7 -87 -8 174 97 49 19 94 33 99 29 6 -3 7 -2 4 4 -3 5 24 21 61 36
37 14 112 47 167 72 55 26 183 83 285 128 l185 82 -3 31 c-3 27 1 33 30 44 18
8 80 36 137 62 57 27 109 47 116 44 6 -2 12 2 12 10 0 8 -2 14 -3 14 -1 0 -47
-21 -101 -46 -54 -25 -121 -55 -150 -65 -48 -19 -52 -23 -55 -56 -3 -41 36
-20 -348 -188 -518 -226 -487 -214 -507 -185 -21 30 -35 24 -31 -12 3 -30 0
-33 -57 -55 -93 -36 -95 -36 -96 -16 0 10 -3 13 -6 6 -7 -18 -23 -16 -23 2 0
8 5 15 10 15 7 0 7 7 0 23 -10 20 -9 20 9 -3 l21 -25 0 32 c0 17 3 39 7 49 5
14 3 16 -11 11 -10 -4 -15 -3 -11 3 3 5 -6 22 -22 37 -15 16 -27 31 -25 36 1
4 -3 7 -8 7 -6 0 -10 -4 -10 -10 0 -5 -4 -10 -9 -10 -12 0 -21 39 -10 46 5 3
9 0 9 -7 0 -7 3 -9 6 -6 4 4 1 14 -7 23 -10 12 -14 68 -16 227 -2 116 0 218 3
226 11 24 12 51 3 45 -5 -3 -9 14 -8 38 0 24 3 37 6 31 8 -21 20 -15 18 9 -1
12 -7 24 -13 26 -7 2 -12 13 -12 23 0 11 5 17 10 14 17 -11 81 -103 155 -222
38 -61 73 -109 79 -106 5 3 6 1 2 -5 -3 -6 7 -33 24 -60 27 -44 30 -58 32
-138 2 -81 2 -83 5 -22 3 53 9 71 28 93 20 21 24 34 20 63 -2 20 -11 42 -20
48 -8 6 -15 17 -15 24 0 7 -11 28 -25 46 -14 18 -25 37 -25 42 0 5 -7 15 -15
22 -8 7 -13 16 -10 20 3 4 -2 10 -10 14 -8 3 -15 13 -15 22 0 9 -8 23 -17 31
-10 8 -12 11 -5 8 11 -6 12 -3 2 14 -6 12 -15 19 -21 16 -5 -4 -9 3 -9 13 0
11 -7 22 -15 26 -8 3 -12 12 -9 21 4 8 0 17 -9 21 -9 3 -14 11 -11 18 2 6 -6
23 -18 36 -12 13 -23 30 -25 38 -1 8 -7 18 -13 22 -6 3 -12 17 -15 30 -5 25
-15 40 -15 22z m35 -104 c15 -29 31 -63 36 -75 8 -21 7 -22 -11 -11 -10 7 -17
15 -14 19 2 4 -9 31 -26 59 -33 55 -34 60 -21 60 4 0 21 -24 36 -52z m95 -170
c0 -6 -7 -5 -15 2 -8 7 -15 17 -15 22 0 6 7 5 15 -2 8 -7 15 -17 15 -22z
m1744 -14 c9 -3 16 -10 16 -14 0 -10 -38 -1 -46 11 -6 10 7 12 30 3z m-1708
-51 c15 -27 35 -57 44 -68 18 -21 101 -177 97 -181 -4 -4 -38 51 -81 126 -39
70 -51 90 -78 132 -10 14 -18 29 -18 32 0 15 11 2 36 -41z m1674 29 c0 -4 -17
-7 -37 -8 l-38 -1 30 13 c29 12 45 10 45 -4z m-165 -59 c-16 -9 -34 -22 -38
-30 -5 -9 -16 -11 -29 -7 -13 4 -18 2 -14 -4 3 -6 1 -14 -5 -18 -6 -3 -15 0
-20 7 -10 16 22 32 46 23 8 -4 15 -1 15 5 0 11 47 40 65 40 6 0 -3 -7 -20 -16z
m-1471 -92 c-7 -8 -33 33 -27 43 3 5 12 -2 19 -15 7 -13 10 -26 8 -28z m1336
29 c0 -5 -8 -10 -18 -10 -10 0 -23 -5 -30 -12 -6 -6 -14 -9 -18 -6 -3 4 7 13
23 22 33 18 43 19 43 6z m650 -10 c18 -12 2 -12 -25 0 -13 6 -15 9 -5 9 8 0
22 -4 30 -9z m-663 -36 c-27 -14 -51 -23 -54 -20 -5 5 75 44 92 45 6 0 -12
-11 -38 -25z m-63 7 c3 -5 -3 -11 -13 -14 -14 -3 -18 -1 -14 9 6 16 19 18 27
5z m-75 -39 c-7 -3 -20 -10 -28 -16 -12 -9 -12 -8 -1 11 8 13 20 19 29 15 13
-5 13 -6 0 -10z m51 -6 c0 -2 -7 -7 -16 -10 -8 -3 -12 -2 -9 4 6 10 25 14 25
6z m-1161 -76 c0 -9 -6 -4 -14 10 -19 33 -19 49 0 24 8 -10 14 -26 14 -34z
m978 35 c0 -8 -6 -15 -13 -15 -7 0 -14 -4 -16 -9 -1 -5 -19 -11 -38 -15 -19
-3 -28 -3 -20 1 8 3 17 9 20 13 3 4 19 14 35 22 17 9 30 16 31 17 0 1 1 -6 1
-14z m63 5 c-8 -5 -24 -9 -35 -9 -16 1 -16 2 5 9 35 11 48 11 30 0z m1222 -42
c-9 -9 -15 -9 -24 1 -11 11 -10 13 5 8 10 -4 17 -2 17 5 0 6 3 8 7 5 4 -4 1
-13 -5 -19z m-1344 -49 c-3 -8 -7 -3 -11 10 -4 17 -3 21 5 13 5 -5 8 -16 6
-23z m-31 -33 c-6 -15 -31 -16 -44 -1 -4 4 -2 5 5 1 7 -4 12 -2 12 6 0 9 3 9
10 -2 8 -13 10 -12 10 4 0 11 3 17 6 13 4 -3 4 -13 1 -21z m1598 -10 c60 -18
148 -43 195 -55 47 -12 112 -28 145 -36 33 -8 69 -20 80 -25 11 -5 56 -19 100
-31 116 -31 115 -31 115 -40 0 -13 -13 -11 -72 10 -29 10 -143 44 -253 76
-242 70 -444 133 -430 134 5 1 59 -14 120 -33z m-1788 -64 c-22 -24 -22 -36 1
-28 14 5 14 4 -2 -9 -11 -8 -25 -15 -30 -15 -6 0 -4 5 4 10 28 18 -9 11 -50
-10 -46 -23 -54 -25 -45 -7 4 6 0 4 -8 -6 -13 -15 -15 -16 -21 -2 -6 18 16 30
39 21 19 -7 47 3 39 15 -3 5 2 6 10 3 10 -4 16 -1 16 8 0 8 10 20 23 26 33 16
42 14 24 -6z m2313 -57 c14 -8 21 -14 15 -14 -5 0 -21 6 -35 14 -14 8 -20 14
-15 14 6 0 21 -6 35 -14z m-2473 -17 c-2 -7 -12 -12 -22 -10 -9 2 -14 -1 -11
-6 3 -6 -2 -8 -14 -5 -14 4 -20 0 -20 -11 0 -10 -4 -15 -9 -12 -5 3 -14 -1
-21 -9 -15 -18 -44 -20 -35 -2 4 6 0 3 -9 -7 -8 -10 -13 -22 -11 -27 3 -4 -5
-5 -17 -1 -13 3 -19 1 -15 -5 5 -7 0 -9 -13 -6 -11 3 -26 0 -33 -6 -8 -6 -22
-12 -33 -14 -10 -2 -28 -8 -40 -15 -16 -8 -24 -8 -34 1 -7 7 -10 7 -7 2 3 -6
-3 -16 -13 -23 -14 -9 -19 -8 -23 3 -4 9 12 20 51 35 31 12 66 25 77 30 11 4
31 8 44 8 13 1 27 6 32 13 6 11 153 77 172 79 5 0 7 -6 4 -12z m2546 3 c4 -1
7 -6 7 -12 0 -8 -4 -9 -13 0 -8 6 -16 8 -19 5 -3 -3 -9 -1 -12 4 -3 6 2 9 11
7 10 -2 21 -4 26 -4z m57 -22 c0 -14 -27 -10 -33 5 -4 10 0 12 14 9 10 -3 19
-9 19 -14z m30 -9 c0 -5 -4 -10 -10 -10 -5 0 -10 5 -10 10 0 6 5 10 10 10 6 0
10 -4 10 -10z m56 -11 c3 -5 15 -9 26 -9 12 0 19 -2 16 -5 -10 -11 -88 8 -88
20 0 14 36 9 46 -6z m-3496 -49 c0 -5 -10 -10 -22 -9 -22 0 -22 1 -3 9 11 5
21 9 23 9 1 1 2 -3 2 -9z m-140 -10 c0 -5 -10 -10 -22 -9 -22 0 -22 1 -3 9 11
5 21 9 23 9 1 1 2 -3 2 -9z m4067 -18 c-24 -25 -34 -28 -104 -31 -43 -1 -81
-5 -85 -7 -4 -3 -8 1 -8 8 0 9 -2 10 -8 1 -4 -7 -51 -14 -117 -18 -61 -3 -129
-8 -152 -9 -30 -3 -41 -1 -36 8 5 8 3 8 -8 0 -17 -13 -28 -12 -54 3 l-20 12
20 1 c16 0 17 2 6 9 -22 14 11 19 159 25 221 10 355 18 359 22 2 2 20 4 40 4
l35 0 -27 -28z m-4147 14 c0 -3 -4 -8 -10 -11 -5 -3 -10 -1 -10 4 0 6 5 11 10
11 6 0 10 -2 10 -4z m-499 -36 c6 0 7 5 4 10 -3 6 1 10 9 10 8 0 18 -5 21 -11
4 -6 14 -8 23 -4 9 3 13 2 8 -2 -4 -4 -29 -8 -56 -9 -38 -1 -46 2 -36 12 6 6
13 8 14 3 2 -5 8 -9 13 -9z m96 5 c0 -8 -4 -15 -9 -15 -10 0 -11 14 -1 23 9
10 10 9 10 -8z m276 8 c-7 -2 -21 -2 -30 0 -10 3 -4 5 12 5 17 0 24 -2 18 -5z
m-180 -10 c-7 -2 -21 -2 -30 0 -10 3 -4 5 12 5 17 0 24 -2 18 -5z m-400 -10
c-7 -2 -19 -2 -25 0 -7 3 -2 5 12 5 14 0 19 -2 13 -5z m4071 -10 c-20 -15 -36
-13 -41 4 -3 7 8 11 28 11 29 -1 30 -2 13 -15z m-4157 1 c-7 -7 -87 -8 -93 -1
-3 3 18 5 46 5 29 1 50 -1 47 -4z m3960 0 c-3 -3 -12 -4 -19 -1 -8 3 -5 6 6 6
11 1 17 -2 13 -5z m-2537 -19 c0 -9 -9 -14 -22 -14 -13 1 -36 -3 -52 -10 -16
-6 -31 -9 -34 -7 -6 6 30 21 106 45 1 1 2 -6 2 -14z m-1510 -6 c0 -3 -19 -6
-42 -7 -24 -1 -60 -5 -80 -8 -28 -4 -38 -2 -38 8 0 10 19 13 80 13 44 0 80 -2
80 -6z m-310 -9 c-12 -8 -10 -10 8 -10 13 0 21 4 17 10 -7 11 101 7 113 -4 4
-5 -6 -7 -23 -6 -16 2 -37 0 -45 -3 -24 -9 -110 -13 -110 -5 0 5 6 8 13 9 6 0
3 4 -8 9 -16 7 -14 9 15 9 26 1 31 -2 20 -9z m3890 0 c-20 -13 -33 -13 -25 0
3 6 14 10 23 10 15 0 15 -2 2 -10z m-3942 -17 c2 -8 -6 -13 -22 -13 -17 0 -26
5 -26 16 0 19 41 16 48 -3z m2521 6 c-18 -10 -22 -51 -7 -61 8 -5 1 -8 -20 -8
-18 0 -49 -7 -69 -15 -38 -16 -183 -21 -183 -6 0 5 8 8 18 7 9 0 16 5 14 12
-1 8 2 11 7 8 5 -4 11 -3 14 1 2 5 3 3 1 -4 -4 -18 8 -24 24 -10 13 10 14 9 7
-2 -5 -8 7 -4 25 9 18 13 31 19 27 13 -4 -6 0 -16 7 -22 11 -9 16 -9 22 0 5 8
3 9 -6 4 -8 -5 -11 -3 -8 6 3 10 18 13 50 11 35 -3 45 0 45 12 0 14 -18 15
-141 11 -151 -6 -270 -11 -406 -20 -47 -3 -128 -7 -180 -10 -52 -2 -156 -8
-230 -11 -139 -7 -219 -20 -152 -24 17 -2 37 -4 42 -5 6 -1 15 -3 21 -4 6 0 8
-9 5 -18 -6 -17 -5 -17 8 0 15 19 86 24 86 5 0 -6 10 -3 22 8 12 10 18 14 15
7 -4 -6 -3 -14 2 -17 5 -4 11 2 13 11 3 16 5 15 10 -3 3 -12 1 -21 -6 -21 -6
0 -33 -2 -61 -5 -27 -3 -40 -3 -27 -1 12 2 22 9 22 14 0 15 -50 10 -56 -6 -4
-10 -20 -15 -50 -15 -40 0 -47 4 -75 43 l-31 42 49 6 c26 3 96 7 156 8 59 1
124 4 145 6 20 3 129 9 242 15 113 6 237 13 275 16 285 23 354 26 334 13z
m1304 4 c-24 -2 -62 -2 -85 0 -24 2 -5 4 42 4 47 0 66 -2 43 -4z m-230 -10
c-7 -2 -19 -2 -25 0 -7 3 -2 5 12 5 14 0 19 -2 13 -5z m80 0 c-7 -2 -19 -2
-25 0 -7 3 -2 5 12 5 14 0 19 -2 13 -5z m337 3 c0 -11 -19 -15 -25 -6 -3 5 1
10 9 10 9 0 16 -2 16 -4z m-722 -23 c-10 -2 -28 -2 -40 0 -13 2 -5 4 17 4 22
1 32 -1 23 -4z m-1117 -57 c1 5 1 14 0 19 -1 6 8 -1 19 -14 26 -31 19 -37 -20
-17 -24 12 -31 12 -27 2 4 -10 -7 -12 -50 -9 -39 3 -59 0 -64 -9 -7 -11 -9
-11 -9 0 0 7 -5 10 -12 6 -7 -4 -8 -3 -4 4 4 7 22 12 41 12 19 0 37 5 40 10 3
6 12 10 18 10 7 0 6 -4 -3 -10 -17 -11 -1 -13 24 -4 9 3 13 11 9 18 -3 6 3 2
15 -8 12 -11 23 -15 23 -10z m395 1 c4 -4 0 -7 -9 -7 -9 0 -18 4 -21 9 -7 10
20 9 30 -2z m-53 -4 c-7 -2 -19 -2 -25 0 -7 3 -2 5 12 5 14 0 19 -2 13 -5z
m-805 -25 c-8 -5 4 -6 27 -2 22 4 42 8 43 10 2 1 17 -2 33 -8 21 -7 33 -7 44
2 8 6 20 10 27 7 8 -3 5 -6 -7 -7 l-20 -1 20 -9 c13 -6 -11 -9 -72 -9 -50 -1
-99 -4 -109 -8 -13 -5 -15 -3 -9 8 6 11 5 12 -6 2 -7 -7 -24 -13 -38 -13 -21
0 -23 2 -11 10 13 8 12 10 -3 10 -10 0 -16 3 -14 8 3 4 28 7 56 8 32 0 47 -3
39 -8z m359 -4 c-3 -3 -12 -4 -19 -1 -8 3 -5 6 6 6 11 1 17 -2 13 -5z m1873
-781 c0 -32 -12 -23 -16 12 -1 14 2 23 7 20 5 -4 9 -18 9 -32z"/>
<path class="st1" d="M5091 2634 c0 -11 3 -14 6 -6 3 7 2 16 -1 19 -3 4 -6 -2 -5 -13z"/>
<path class="st1" d="M5248 2633 c6 -2 18 -2 25 0 6 3 1 5 -13 5 -14 0 -19 -2 -12 -5z"/>
<path class="st1" d="M1540 2454 c0 -8 5 -12 10 -9 6 4 8 11 5 16 -9 14 -15 11 -15 -7z"/>
<path class="st1" d="M1458 3573 c12 -2 30 -2 40 0 9 3 -1 5 -23 4 -22 0 -30 -2 -17 -4z"/>
<path class="st1" d="M1358 3563 c12 -2 30 -2 40 0 9 3 -1 5 -23 4 -22 0 -30 -2 -17 -4z"/>
<path class="st1" d="M1170 3550 c-40 -6 -41 -7 -10 -8 19 0 60 3 90 8 54 7 54 7 10 7 -25
0 -65 -3 -90 -7z"/>
<path class="st1" d="M853 3523 c9 -2 25 -2 35 0 9 3 1 5 -18 5 -19 0 -27 -2 -17 -5z"/>
<path class="st1" d="M718 3513 c12 -2 32 -2 45 0 12 2 2 4 -23 4 -25 0 -35 -2 -22 -4z"/>
<path class="st1" d="M515 3500 c-28 -4 -4 -5 55 -2 58 2 107 6 109 8 7 6 -108 2 -164 -6z"/>
<path class="st1" d="M275 3480 l-60 -7 50 0 c28 0 82 3 120 7 l70 7 -60 0 c-33 0 -87 -3
-120 -7z"/>
<path class="st1" d="M160 3464 c0 -8 5 -12 10 -9 6 4 8 11 5 16 -9 14 -15 11 -15 -7z"/>
<path class="st1" d="M3531 3403 c-1 -19 -5 -22 -29 -17 -16 3 -51 -1 -79 -9 -28 -9 -54
-13 -57 -10 -3 4 -6 2 -6 -4 0 -6 -28 -23 -62 -38 -35 -15 -90 -40 -123 -55
-33 -14 -79 -35 -102 -45 -60 -26 -46 -30 18 -5 57 22 59 23 210 93 137 64
164 71 208 59 20 -5 116 -35 215 -67 98 -31 181 -54 184 -51 2 3 -1 8 -9 11
-39 14 -298 95 -321 100 -17 4 -31 17 -37 33 -9 25 -9 25 -10 5z"/>
<path class="st1" d="M1594 3332 c23 -26 23 -26 23 -7 0 8 -3 13 -5 10 -3 -3 -12 1 -21 7
-10 8 -9 4 3 -10z"/>
<path class="st1" d="M1580 3252 c0 -5 7 -9 15 -9 8 0 12 4 9 9 -3 4 -9 8 -15 8 -5 0 -9
-4 -9 -8z"/>
<path class="st1" d="M3955 3234 c22 -9 63 -22 90 -29 28 -7 77 -23 109 -35 58 -22 58 -23
53 -56 -3 -19 -2 -32 3 -29 5 3 11 1 15 -5 3 -5 15 -10 27 -10 37 0 118 -34
118 -50 0 -13 2 -13 9 -1 8 12 39 5 183 -38 95 -29 205 -63 245 -76 64 -21
164 -43 138 -30 -11 5 -211 67 -515 158 l-205 62 -3 32 c-3 31 -5 32 -140 77
-128 43 -217 63 -127 30z"/>
<path class="st1" d="M3370 3161 c-19 -19 -26 -27 -15 -18 11 8 33 22 48 30 17 9 23 16 15
19 -7 2 -29 -12 -48 -31z"/>
<path class="st1" d="M3511 3177 c2 -1 15 -11 29 -22 l25 -20 -19 23 c-11 12 -24 22 -29
22 -6 0 -8 -1 -6 -3z"/>
<path class="st1" d="M848 3154 c-52 -28 -58 -55 -58 -268 0 -194 0 -195 -22 -199 -13 -2
-5 -5 17 -5 22 0 49 4 60 9 15 7 12 8 -12 3 l-33 -6 0 171 c0 130 3 171 13
171 8 0 7 4 -3 10 -13 8 -12 10 3 10 16 0 18 -5 12 -32 -5 -25 -4 -29 4 -18 6
8 11 23 11 33 0 27 18 20 36 -15 16 -31 16 -32 -9 -53 -23 -18 -25 -24 -18
-50 5 -17 10 -22 10 -12 1 9 6 17 11 17 13 0 13 4 -10 -60 -19 -53 -19 -55 -2
-70 12 -10 18 -28 17 -57 0 -40 2 -43 26 -43 49 0 119 13 114 21 -3 4 -5 36
-5 71 0 35 -3 121 -7 192 -5 124 -7 129 -35 162 -34 38 -73 44 -120 18z m74
-3 c4 0 5 -9 2 -18 -5 -17 -5 -17 9 -1 10 13 16 15 25 6 17 -17 15 -33 -2 -19
-10 8 -16 9 -21 1 -3 -5 -1 -10 5 -10 6 0 8 -4 5 -10 -7 -12 -26 -14 -23 -2 4
11 -28 53 -35 45 -4 -3 -2 -12 4 -19 5 -7 12 -25 15 -41 l5 -28 -20 31 c-11
18 -24 35 -31 39 -8 5 -8 11 0 20 9 10 28 12 62 6z m18 -203 c0 -4 -15 -8 -32
-8 -20 0 -28 3 -21 8 16 10 53 10 53 0z m53 -5 c-7 -2 -21 -2 -30 0 -10 3 -4
5 12 5 17 0 24 -2 18 -5z m-31 -63 l16 -50 -43 0 c-24 0 -50 -3 -59 -6 -12 -5
-14 -1 -7 23 21 68 30 83 54 83 19 0 26 -9 39 -50z m38 34 c0 -14 -3 -15 -17
-3 -10 7 -20 15 -22 16 -2 2 5 3 17 3 14 0 22 -6 22 -16z m-30 -98 c0 -2 -8
-10 -17 -17 -16 -13 -17 -12 -4 4 13 16 21 21 21 13z"/>
<path class="st1" d="M866 3141 c-3 -5 2 -15 12 -22 15 -12 16 -12 5 2 -7 9 -10 19 -6 22
3 4 4 7 0 7 -3 0 -8 -4 -11 -9z"/>
<path class="st1" d="M1637 3143 c3 -7 9 -13 14 -13 5 0 9 6 9 13 0 8 -6 14 -14 14 -8 0
-12 -6 -9 -14z"/>
<path class="st1" d="M3413 3145 c-55 -24 -76 -82 -39 -107 6 -4 -7 -5 -29 -1 -22 3 -43
11 -47 17 -17 25 -14 -2 3 -34 11 -19 19 -27 19 -18 0 16 24 31 34 21 3 -4 6
-60 6 -125 0 -114 1 -117 19 -102 11 10 17 24 13 37 -3 14 -1 18 6 13 7 -4 12
-14 12 -22 0 -8 7 -14 15 -14 12 0 12 3 -3 20 -9 11 -18 31 -18 43 -1 12 -4
35 -7 50 -5 24 -4 27 9 17 8 -7 14 -29 14 -51 0 -21 4 -40 9 -43 5 -4 7 3 4
14 -3 12 0 20 7 20 10 0 10 3 0 14 -6 8 -10 25 -8 38 2 14 -2 22 -9 21 -18 -4
-16 38 2 63 8 12 11 24 8 28 -4 3 -13 -8 -21 -26 -13 -28 -16 -30 -20 -13 -2
10 0 21 5 22 5 2 7 17 5 34 -3 20 0 34 9 40 23 14 30 10 19 -10 -12 -24 -13
-42 -1 -22 13 21 44 6 36 -18 -3 -12 0 -21 10 -25 18 -7 20 -66 3 -85 -10 -11
-10 -13 0 -7 9 5 12 -7 12 -49 0 -64 15 -66 25 -4 9 50 -3 152 -16 143 -5 -3
-12 9 -15 26 -4 17 -11 33 -15 36 -5 3 -8 17 -8 32 2 24 2 24 6 5 5 -26 23
-31 23 -8 0 20 14 19 31 -1 10 -12 10 -20 1 -34 -7 -12 -8 -21 -2 -25 6 -3 10
-24 10 -46 0 -21 5 -39 11 -39 5 0 7 5 4 11 -4 5 -4 21 -1 35 8 29 56 35 56 7
1 -11 6 -7 14 12 15 34 10 54 -8 30 -13 -18 -69 -18 -64 0 2 6 6 9 10 8 19 -7
-36 65 -58 75 -31 15 -41 15 -81 -3z m-27 -64 c0 -11 -5 -17 -13 -14 -14 6
-17 16 -6 26 11 12 19 7 19 -12z m-3 -116 c-7 -21 -13 -19 -13 6 0 11 4 18 10
14 5 -3 7 -12 3 -20z m15 -87 c-2 -6 -10 -13 -16 -14 -7 -1 -8 0 -2 3 5 2 8 9
4 14 -3 5 0 9 6 9 7 0 10 -5 8 -12z m-21 -60 c-3 -8 -6 -5 -6 6 -1 11 2 17 5
13 3 -3 4 -12 1 -19z"/>
<path class="st1" d="M1580 3142 c0 -5 7 -9 15 -9 8 0 12 4 9 9 -3 4 -9 8 -15 8 -5 0 -9
-4 -9 -8z"/>
<path class="st1" d="M4039 3142 c9 -7 10 -11 2 -15 -7 -4 -8 -5 -1 -3 16 2 14 20 -2 24
-10 3 -10 2 1 -6z"/>
<path class="st1" d="M1681 3125 c1 -19 18 -51 18 -35 0 8 -4 22 -9 30 -5 8 -9 11 -9 5z"/>
<path class="st1" d="M1590 3020 c0 -6 4 -9 9 -6 5 4 12 1 14 -4 3 -6 4 -5 3 2 -3 15 -26
23 -26 8z"/>
<path class="st1" d="M3602 2893 l-2 -112 -32 -4 c-29 -3 -27 -4 10 -5 78 -3 43 -20 -55
-26 -54 -4 -124 -9 -155 -12 -38 -4 -58 -2 -58 5 0 6 4 11 8 11 4 0 6 17 3 38
l-5 37 -8 -45 c-12 -69 -8 -74 70 -66 37 3 99 9 137 12 102 8 115 12 115 34 0
11 -4 20 -10 20 -5 0 -11 49 -13 113 l-3 112 -2 -112z"/>
<path class="st1" d="M1599 2963 c6 -10 20 -29 31 -43 l21 -25 -12 25 c-7 14 -13 27 -12
31 1 3 -7 11 -18 17 -18 12 -19 11 -10 -5z"/>
<path class="st1" d="M1795 2970 c3 -5 8 -10 11 -10 2 0 4 5 4 10 0 6 -5 10 -11 10 -5 0
-7 -4 -4 -10z"/>
<path class="st1" d="M1675 2925 c0 -13 3 -21 8 -18 4 2 7 10 7 18 0 8 -3 16 -7 18 -5 3
-8 -5 -8 -18z"/>
<path class="st1" d="M3538 2884 c-1 -36 0 -73 4 -82 4 -9 7 20 7 66 1 45 -1 82 -3 82 -2
0 -6 -29 -8 -66z"/>
<path class="st1" d="M4101 2924 c0 -11 3 -14 6 -6 3 7 2 16 -1 19 -3 4 -6 -2 -5 -13z"/>
<path class="st1" d="M3311 2914 c0 -11 3 -14 6 -6 3 7 2 16 -1 19 -3 4 -6 -2 -5 -13z"/>
<path class="st1" d="M5290 2902 c0 -9 -12 -13 -39 -11 -34 3 -43 -1 -67 -31 -20 -25 -22
-29 -6 -16 17 15 22 16 23 5 0 -8 4 -4 9 9 8 19 17 22 72 23 35 1 54 4 43 6
-11 3 -23 10 -27 17 -5 8 -8 7 -8 -2z"/>
<path class="st1" d="M1690 2884 c0 -8 5 -12 10 -9 6 4 8 11 5 16 -9 14 -15 11 -15 -7z"/>
<path class="st1" d="M1608 2879 c6 -7 12 -22 13 -33 0 -12 3 -15 6 -8 2 6 9 10 14 7 5 -4
6 0 4 7 -3 7 -15 19 -28 27 -17 11 -19 11 -9 0z"/>
<path class="st1" d="M262 2855 c0 -16 2 -22 5 -12 2 9 2 23 0 30 -3 6 -5 -1 -5 -18z"/>
<path class="st1" d="M4960 2867 c0 -7 141 -49 146 -44 2 2 -22 11 -54 21 -86 26 -92 28
-92 23z"/>
<path class="st1" d="M1690 2835 c0 -5 5 -17 10 -25 5 -8 10 -10 10 -5 0 6 -5 17 -10 25
-5 8 -10 11 -10 5z"/>
<path class="st1" d="M1873 2770 c0 -30 2 -43 4 -27 2 15 2 39 0 55 -2 15 -4 2 -4 -28z"/>
<path class="st1" d="M2763 2795 c0 -8 4 -12 9 -9 5 3 6 10 3 15 -9 13 -12 11 -12 -6z"/>
<path class="st1" d="M1733 2714 c-17 -18 -22 -29 -15 -36 6 -6 16 -7 22 -3 9 6 9 10 -1
16 -10 6 -11 11 -2 20 16 16 48 6 47 -14 -2 -19 11 -23 21 -6 7 11 -22 49 -37
49 -5 0 -21 -12 -35 -26z"/>
<path class="st1" d="M1358 2723 c17 -2 47 -2 65 0 17 2 3 4 -33 4 -36 0 -50 -2 -32 -4z"/>
<path class="st1" d="M5253 2723 c15 -2 37 -2 50 0 12 2 0 4 -28 4 -27 0 -38 -2 -22 -4z"/>
<path class="st1" d="M1217 2713 c18 -2 50 -2 70 0 21 2 7 4 -32 4 -38 0 -55 -2 -38 -4z"/>
<path class="st1" d="M3765 2710 c-60 -3 -105 -7 -100 -9 17 -4 174 1 275 9 l95 7 -80 0
c-44 -1 -129 -4 -190 -7z"/>
<path class="st1" d="M1063 2703 c15 -2 39 -2 55 0 15 2 2 4 -28 4 -30 0 -43 -2 -27 -4z"/>
<path class="st1" d="M1875 2699 c-4 -6 -5 -12 -2 -15 2 -3 7 2 10 11 7 17 1 20 -8 4z"/>
<path class="st1" d="M4783 2703 c15 -2 37 -2 50 0 12 2 0 4 -28 4 -27 0 -38 -2 -22 -4z"/>
<path class="st1" d="M4578 2693 c23 -2 59 -2 80 0 20 2 1 4 -43 4 -44 0 -61 -2 -37 -4z"/>
<path class="st1" d="M4290 2682 c0 -8 152 -5 175 3 6 2 -32 4 -82 4 -51 1 -93 -3 -93 -7z"/>
<path class="st1" d="M535 2670 l-70 -6 60 -1 c33 0 92 3 130 7 l70 7 -60 0 c-33 0 -91 -3
-130 -7z"/>
<path class="st1" d="M2365 2670 c-3 -5 -1 -10 4 -10 6 0 11 5 11 10 0 6 -2 10 -4 10 -3 0
-8 -4 -11 -10z"/>
<path class="st1" d="M260 2658 c0 -14 8 -18 38 -17 34 2 34 2 7 6 -16 3 -33 10 -37 16 -5
8 -8 6 -8 -5z"/>
<path class="st1" d="M3875 2660 c-66 -4 -149 -8 -185 -10 -36 -1 -57 -4 -47 -7 9 -2 15
-8 12 -13 -3 -5 -1 -11 5 -15 5 -3 10 1 10 9 0 9 5 16 10 16 6 0 10 -6 10 -12
0 -10 2 -10 8 0 5 7 23 12 40 10 26 -2 29 -5 19 -17 -10 -12 -9 -13 8 -4 11 6
26 8 33 6 6 -3 12 0 12 5 0 6 -6 13 -12 15 -7 3 32 6 87 7 55 1 123 5 150 10
l50 7 -45 0 c-25 0 -99 -4 -165 -7z"/>
<path class="st1" d="M373 2653 c15 -2 39 -2 55 0 15 2 2 4 -28 4 -30 0 -43 -2 -27 -4z"/>
<path class="st1" d="M2778 2653 c7 -3 16 -2 19 1 4 3 -2 6 -13 5 -11 0 -14 -3 -6 -6z"/>
<path class="st1" d="M3510 2640 l-65 -7 73 0 c39 0 72 4 72 9 0 4 -3 7 -7 6 -5 -1 -37 -5
-73 -8z"/>
<path class="st1" d="M128 2633 c6 -2 18 -2 25 0 6 3 1 5 -13 5 -14 0 -19 -2 -12 -5z"/>
<path class="st1" d="M1400 2624 c0 -6 16 -10 35 -10 46 1 46 21 0 21 -19 0 -35 -5 -35
-11z"/>
<path class="st1" d="M1505 2630 c-21 -9 -21 -9 8 -15 9 -2 15 0 12 5 -3 5 1 11 7 13 7 3
9 5 3 6 -5 0 -19 -4 -30 -9z"/>
<path class="st1" d="M3315 2633 c-43 -2 -84 -7 -90 -11 -5 -4 -38 -7 -72 -7 -34 0 -57 -2
-51 -6 7 -4 16 -5 20 -3 4 3 8 1 8 -4 0 -16 -33 -24 -42 -10 -6 10 -8 8 -8 -4
0 -22 33 -24 54 -3 8 8 23 15 33 14 16 0 16 -1 -2 -9 -16 -7 -17 -9 -3 -9 9
-1 20 4 23 9 3 6 21 10 40 10 19 0 36 4 39 9 3 4 31 8 62 7 30 -1 58 2 60 6 2
4 13 5 24 3 11 -2 22 0 25 6 4 5 -4 8 -17 7 -13 -1 -59 -4 -103 -5z"/>
<path class="st1" d="M1558 2623 c6 -2 18 -2 25 0 6 3 1 5 -13 5 -14 0 -19 -2 -12 -5z"/>
<path class="st1" d="M3035 2610 c-16 -6 -16 -7 -3 -13 9 -3 24 0 33 7 20 14 3 18 -30 6z"/>
<path class="st1" d="M2939 2599 c15 -6 34 -6 50 0 22 8 19 9 -24 10 -42 0 -46 -2 -26 -10z"/>
<path class="st1" d="M3588 2603 c7 -3 16 -2 19 1 4 3 -2 6 -13 5 -11 0 -14 -3 -6 -6z"/>
<path class="st1" d="M2768 2593 c6 -2 18 -2 25 0 6 3 1 5 -13 5 -14 0 -19 -2 -12 -5z"/>
<path class="st1" d="M520 2549 c-20 -4 -26 -7 -13 -8 12 0 24 -7 26 -13 4 -10 6 -10 6 0
1 6 10 12 20 12 11 0 22 4 25 8 5 9 -16 10 -64 1z"/>
<path class="st1" d="M1102 2503 c-16 -23 -19 -46 -19 -120 0 -51 3 -93 8 -93 4 0 6 9 4
20 -2 11 0 18 6 15 13 -9 11 -35 -4 -41 -10 -3 -13 -26 -12 -82 1 -77 1 -77
28 -78 l28 -1 -22 23 c-16 17 -17 22 -5 20 31 -4 64 -58 56 -91 -1 -5 -3 -15
-3 -22 0 -13 -27 -5 -27 9 0 5 4 7 8 4 5 -3 9 1 9 9 0 8 -3 13 -5 10 -3 -3
-10 -1 -16 4 -6 5 -20 5 -32 1 -16 -7 -19 -15 -16 -44 l4 -36 68 6 c66 7 68 6
72 -17 1 -13 2 80 0 206 -3 254 -6 287 -28 310 -26 26 -80 19 -102 -12z m94 5
c5 -7 3 -8 -6 -3 -10 6 -12 4 -6 -11 5 -14 4 -16 -5 -7 -6 6 -8 16 -5 22 9 14
13 14 22 -1z m-6 -42 c0 -3 -4 -8 -10 -11 -5 -3 -10 -1 -10 4 0 6 5 11 10 11
6 0 10 -2 10 -4z m-41 -192 c4 3 7 -19 8 -49 0 -30 -4 -52 -8 -49 -5 3 -7 21
-4 40 2 21 0 32 -5 29 -6 -4 -10 -3 -10 2 0 4 -3 19 -6 33 -5 22 -4 23 6 7 6
-9 15 -15 19 -13z m69 -66 c-2 -37 -7 -53 -17 -53 -18 0 -26 72 -10 91 22 26
30 14 27 -38z m-1 -74 c-3 -3 -12 -4 -19 -1 -8 3 -5 6 6 6 11 1 17 -2 13 -5z
m-81 -86 l3 -33 -15 30 -15 30 6 -27 c3 -16 1 -28 -5 -28 -15 0 -12 57 3 63
17 6 20 2 23 -35z"/>
<path class="st1" d="M4973 2513 c20 -2 54 -2 75 0 20 2 3 4 -38 4 -41 0 -58 -2 -37 -4z"/>
<path class="st1" d="M4707 2503 c18 -2 50 -2 70 0 21 2 7 4 -32 4 -38 0 -55 -2 -38 -4z"/>
<path class="st1" d="M5458 2503 c7 -3 16 -2 19 1 4 3 -2 6 -13 5 -11 0 -14 -3 -6 -6z"/>
<path class="st1" d="M4498 2493 c23 -2 61 -2 85 0 23 2 4 4 -43 4 -47 0 -66 -2 -42 -4z"/>
<path class="st1" d="M5158 2493 c6 -2 18 -2 25 0 6 3 1 5 -13 5 -14 0 -19 -2 -12 -5z"/>
<path class="st1" d="M5223 2493 c15 -2 37 -2 50 0 12 2 0 4 -28 4 -27 0 -38 -2 -22 -4z"/>
<path class="st1" d="M501 2471 c-24 -24 -23 -16 -25 -208 0 -79 2 -143 6 -143 4 0 6 -6 4
-12 -1 -7 -1 -10 1 -5 3 4 12 7 20 7 13 0 13 2 2 17 -13 15 -12 15 9 4 12 -7
20 -17 16 -23 -4 -7 -3 -8 4 -4 18 11 14 20 -18 38 -28 16 -30 21 -30 78 0 40
6 70 17 88 17 26 17 26 0 13 -17 -13 -18 -11 -16 32 2 25 6 44 10 41 5 -2 6
-11 3 -19 -4 -9 4 -19 20 -26 14 -7 26 -19 26 -28 0 -14 2 -14 10 -1 9 13 6
-123 -5 -222 -1 -16 1 -28 5 -28 10 0 19 -49 10 -55 -3 -2 -25 -5 -48 -6 -23
-2 -42 -7 -42 -11 0 -9 17 -11 70 -8 65 2 71 7 67 53 -1 23 -6 48 -10 55 -5 6
-5 17 -2 22 12 20 5 312 -8 339 -16 35 -67 41 -96 12z m79 -60 c0 -10 -6 -18
-13 -18 -9 0 -12 9 -9 24 5 26 22 21 22 -6z m-53 -23 c-3 -8 -6 -5 -6 6 -1 11
2 17 5 13 3 -3 4 -12 1 -19z m72 -214 c-5 -6 -9 -16 -8 -20 4 -23 -2 -64 -9
-64 -11 0 -13 37 -6 90 5 41 7 43 20 26 9 -14 11 -23 3 -32z"/>
<path class="st1" d="M4288 2483 c7 -3 16 -2 19 1 4 3 -2 6 -13 5 -11 0 -14 -3 -6 -6z"/>
<path class="st1" d="M5038 2483 c7 -3 16 -2 19 1 4 3 -2 6 -13 5 -11 0 -14 -3 -6 -6z"/>
<path class="st1" d="M5088 2483 c6 -2 18 -2 25 0 6 3 1 5 -13 5 -14 0 -19 -2 -12 -5z"/>
<path class="st1" d="M5457 2483 c-3 -5 -1 -17 4 -28 7 -17 8 -17 8 8 1 27 -4 34 -12 20z"/>
<path class="st1" d="M3273 2473 c9 -2 23 -2 30 0 6 3 -1 5 -18 5 -16 0 -22 -2 -12 -5z"/>
<path class="st1" d="M4003 2473 c9 -2 23 -2 30 0 6 3 -1 5 -18 5 -16 0 -22 -2 -12 -5z"/>
<path class="st1" d="M4196 2465 c4 -8 8 -15 10 -15 2 0 4 7 4 15 0 8 -4 15 -10 15 -5 0
-7 -7 -4 -15z"/>
<path class="st1" d="M5293 2473 c7 -7 139 -4 146 3 2 2 -31 4 -74 4 -43 0 -75 -3 -72 -7z"/>
<path class="st1" d="M3053 2463 c20 -2 54 -2 75 0 20 2 3 4 -38 4 -41 0 -58 -2 -37 -4z"/>
<path class="st1" d="M3428 2463 c7 -3 16 -2 19 1 4 3 -2 6 -13 5 -11 0 -14 -3 -6 -6z"/>
<path class="st1" d="M3848 2463 c18 -2 45 -2 60 0 15 2 0 4 -33 4 -33 0 -45 -2 -27 -4z"/>
<path class="st1" d="M3268 2453 c12 -2 32 -2 45 0 12 2 2 4 -23 4 -25 0 -35 -2 -22 -4z"/>
<path class="st1" d="M3658 2453 c17 -2 47 -2 65 0 17 2 3 4 -33 4 -36 0 -50 -2 -32 -4z"/>
<path class="st1" d="M3138 2443 c7 -3 16 -2 19 1 4 3 -2 6 -13 5 -11 0 -14 -3 -6 -6z"/>
<path class="st1" d="M3888 2443 c6 -2 18 -2 25 0 6 3 1 5 -13 5 -14 0 -19 -2 -12 -5z"/>
<path class="st1" d="M4373 2433 c15 -2 37 -2 50 0 12 2 0 4 -28 4 -27 0 -38 -2 -22 -4z"/>
<path class="st1" d="M3297 2416 c-26 -7 -51 -17 -55 -21 -4 -5 2 -5 13 -1 11 4 35 10 53
13 18 3 35 10 38 14 3 5 4 9 2 8 -2 0 -24 -6 -51 -13z"/>
<path class="st1" d="M5465 1956 c6 -349 4 -470 -4 -476 -7 -3 22 -5 64 -2 50 2 75 0 75
-7 0 -11 -25 -14 -175 -16 -670 -12 -1049 -16 -1045 -12 6 5 260 16 455 18 77
2 122 4 100 7 -71 7 -725 -10 -719 -19 3 -5 -2 -9 -10 -9 -9 0 -16 5 -16 11 0
8 -17 9 -52 6 -42 -5 -250 -11 -668 -19 -3 0 -12 1 -20 3 -8 2 35 6 95 9 108
6 108 6 -50 7 -88 1 -154 -1 -147 -4 42 -17 -7 -23 -170 -21 l-183 2 135 7
c120 5 114 6 -62 4 l-198 -2 -1 31 -1 31 -7 -30 c-5 -24 -12 -31 -36 -33 -17
-1 -39 -7 -50 -12 -11 -4 -252 -11 -535 -15 -283 -3 -517 -8 -520 -12 -3 -3
232 -2 521 2 333 4 529 4 532 -2 4 -6 -147 -13 -406 -17 -456 -7 -720 -14
-814 -21 -35 -3 -63 -1 -63 4 0 10 36 20 88 23 30 2 32 5 31 38 -1 31 -2 32
-8 10 l-7 -25 -194 -5 -195 -6 150 -4 c169 -5 141 -7 -270 -19 l-270 -8 180
-3 180 -4 -225 -7 c-273 -8 -554 -8 -486 0 27 3 51 11 53 18 4 12 -14 12 -34
0 -6 -4 -13 -3 -15 2 -1 5 -25 11 -52 14 -56 7 -57 8 -59 35 0 11 -4 19 -8 16
-8 -5 -30 52 -22 59 3 3 -5 3 -16 0 -16 -4 -20 -2 -15 10 3 8 1 17 -4 21 -5 3
-8 -5 -7 -16 1 -12 10 -24 20 -28 19 -7 19 -7 0 -19 -16 -10 -16 -11 -3 -7 11
3 22 -2 28 -14 10 -18 8 -20 -18 -17 -15 2 -33 7 -40 11 -7 4 -12 2 -12 -3 0
-6 -3 -10 -7 -9 -18 4 -72 -14 -70 -24 1 -6 -6 -12 -15 -13 -13 -2 -18 3 -18
18 -1 19 -3 17 -14 -8 -12 -27 -13 -18 -14 94 -1 68 -4 126 -7 129 -3 3 -5
-51 -5 -121 0 -69 -3 -133 -7 -143 -5 -14 -3 -16 11 -11 11 4 19 1 24 -11 5
-12 20 -18 52 -19 25 -1 51 -2 58 -2 6 -1 12 -6 12 -12 0 -7 -12 -10 -30 -7
-32 5 -42 -7 -12 -15 9 -3 4 -5 -13 -5 -16 0 -39 -3 -50 -6 -11 -2 -33 -5 -50
-7 -16 -1 6 -5 50 -9 44 -4 84 -3 90 1 13 13 58 11 50 -1 -4 -6 -11 -8 -16 -5
-5 4 -9 1 -9 -4 0 -16 16 -13 30 4 8 9 30 15 60 15 41 0 51 -4 74 -32 24 -29
26 -30 23 -9 -2 12 -10 27 -18 32 -9 5 1 8 31 8 25 -1 102 1 172 4 75 3 128 2
128 -4 0 -5 5 -9 11 -9 5 0 8 4 5 9 -3 4 31 7 77 5 45 -2 96 1 112 6 43 13
325 18 325 6 0 -6 5 -5 12 2 15 15 32 16 23 2 -3 -5 -1 -10 4 -10 6 0 11 3 11
8 0 10 147 9 157 -2 5 -5 2 -6 -6 -1 -10 5 -12 4 -7 -4 4 -6 12 -9 17 -6 5 4
9 1 9 -5 0 -6 4 -9 9 -6 5 4 12 0 14 -6 3 -8 6 -7 6 4 1 9 -7 22 -16 27 -10 6
-13 11 -6 11 6 0 21 -13 31 -28 20 -27 20 -46 22 -509 1 -476 1 -481 -20 -488
-25 -8 -25 -17 0 -40 18 -17 21 -30 19 -109 -1 -66 -5 -96 -17 -108 -17 -20
-3 -25 16 -6 7 7 12 44 12 95 0 65 3 85 15 89 8 4 12 10 9 15 -6 11 56 6 74
-5 6 -3 13 -3 16 2 6 10 83 15 98 6 16 -10 79 -12 103 -4 44 16 931 30 955 15
10 -6 12 -4 7 8 -4 12 -1 17 12 17 18 0 36 -27 44 -65 3 -15 5 -12 6 8 1 29 1
29 81 29 106 -1 97 4 92 -56 -2 -32 1 -57 7 -61 6 -3 11 -16 10 -28 -1 -21 -2
-20 -9 3 -7 19 -8 14 -7 -24 1 -29 7 -51 15 -54 9 -3 12 23 12 107 0 102 10
141 23 91 3 -13 1 -18 -6 -14 -8 5 -7 2 1 -7 14 -16 16 -33 2 -24 -6 3 -10 -5
-10 -19 0 -14 5 -28 10 -31 6 -4 10 -12 9 -18 -1 -7 -1 -29 0 -49 1 -31 5 -38
21 -38 20 0 26 18 21 64 -1 19 -1 19 19 1 26 -24 54 -10 58 29 3 20 9 26 27
26 13 0 29 -8 35 -18 9 -14 10 -13 4 7 -6 21 -4 23 19 17 16 -4 29 -1 34 6 5
8 10 -8 14 -42 l6 -55 1 61 c2 55 0 62 -19 67 -12 3 -30 1 -40 -6 -22 -14 -36
-3 -20 16 20 25 -9 63 -32 41 -9 -9 4 -35 14 -28 5 3 6 11 3 17 -5 9 -3 9 6 0
18 -16 -4 -43 -34 -43 -19 0 -22 4 -18 31 3 19 0 34 -8 39 -8 5 -15 14 -16 22
-7 42 -25 69 -42 64 -17 -6 -18 1 -16 86 1 51 5 101 9 111 4 9 5 24 1 32 -3 9
0 15 8 15 14 0 36 41 36 69 0 11 7 22 16 25 11 4 15 16 12 38 -2 28 0 32 17
30 11 -2 26 -9 33 -14 9 -8 12 -6 12 7 0 13 6 16 24 11 15 -4 28 -1 33 6 5 8
10 -4 14 -32 l6 -45 1 45 c2 39 -2 47 -23 57 -14 6 -27 7 -31 2 -8 -14 -24
-10 -24 6 0 14 -3 13 -25 -1 -32 -21 -40 -13 -36 32 1 19 -2 34 -8 34 -17 0
-13 13 12 40 12 14 18 19 12 11 -5 -8 6 -3 26 12 20 15 39 25 42 22 4 -3 5 -2
2 2 -3 3 0 12 6 20 9 10 15 10 25 2 16 -13 37 -2 27 14 -4 7 4 5 18 -4 18 -12
30 -14 43 -7 12 7 21 7 28 0 12 -12 40 -4 32 9 -3 5 0 9 5 9 6 0 11 -6 12 -12
0 -7 5 0 11 16 8 21 13 25 19 15 8 -12 10 -12 18 -1 10 17 20 -5 22 -46 1 -27
1 -27 9 3 4 17 8 22 9 13 0 -10 6 -18 11 -18 6 0 10 -5 10 -11 0 -5 -6 -7 -12
-3 -8 5 -8 1 1 -10 17 -21 22 -56 10 -72 -6 -7 -1 -10 13 -10 15 1 24 -6 26
-19 2 -16 1 -17 -7 -5 -11 17 -27 7 -16 -10 4 -7 18 -9 31 -6 17 5 24 2 24 -9
0 -23 -38 -18 -65 10 -27 26 -31 25 -15 -6 9 -16 7 -19 -9 -19 -33 0 -51 11
-51 31 0 11 7 19 18 19 14 0 15 -2 2 -10 -13 -8 -12 -10 3 -10 11 0 17 6 15
13 -3 6 -13 12 -24 12 -15 0 -19 -7 -18 -33 2 -31 -17 -45 -31 -22 -4 6 -13 5
-25 -2 -28 -18 -6 -41 31 -33 26 6 28 4 26 -21 -1 -20 3 -29 16 -32 10 -2 17
3 17 12 0 9 -5 16 -11 16 -5 0 -7 -4 -4 -10 3 -5 1 -10 -4 -10 -18 0 -12 29 8
40 35 18 48 13 43 -21 -3 -21 1 -34 13 -43 10 -7 15 -18 12 -23 -11 -18 22
-73 40 -66 14 5 14 8 2 17 -8 6 -13 19 -11 29 2 9 -2 17 -8 17 -8 0 -7 9 5 26
18 28 14 54 -9 54 -17 0 -31 -18 -21 -28 3 -3 10 0 14 7 5 7 11 9 14 4 9 -15
-10 -36 -27 -30 -22 9 -20 44 3 57 31 16 51 12 51 -10 0 -11 5 -20 10 -20 6 0
10 8 10 18 0 14 2 14 9 3 8 -12 12 -12 25 -2 8 7 20 10 25 7 12 -8 45 59 38
77 -3 9 -16 12 -37 9 -21 -3 -36 0 -42 9 -7 11 -11 11 -15 2 -7 -19 -23 -16
-43 10 -13 15 -15 26 -8 34 14 17 0 54 -29 76 -13 11 -22 21 -19 24 3 3 -6 15
-20 28 -14 13 -21 26 -16 29 13 8 64 -52 56 -66 -6 -10 -4 -10 7 -2 22 16 56
11 74 -11 14 -17 13 -15 -1 15 -30 62 -110 126 -209 167 l-30 13 35 -6 c19 -3
60 -19 90 -35 51 -28 53 -28 26 -5 -34 28 -126 66 -162 66 -17 0 -24 -6 -24
-19 0 -30 -11 -51 -26 -51 -8 0 -14 -7 -14 -15 0 -9 -9 -15 -22 -14 -17 1 -19
2 -5 6 14 4 17 16 17 65 0 46 4 64 18 74 15 12 15 12 -5 7 -17 -4 -23 -13 -23
-33 0 -24 -5 -29 -37 -35 -52 -9 -126 -49 -174 -92 -41 -37 -93 -125 -87 -145
2 -6 14 11 25 38 12 27 33 59 47 71 14 13 26 27 26 33 0 5 19 19 43 30 l42 21
-25 -21 c-89 -73 -138 -153 -142 -232 -3 -45 -16 -58 -30 -28 -5 12 -7 12 -7
-2 -1 -10 -5 -18 -11 -18 -5 0 -10 -5 -10 -11 0 -5 4 -8 9 -4 11 6 61 -15 61
-26 0 -14 -33 -19 -48 -7 -10 8 -9 4 3 -13 11 -15 23 -25 26 -23 15 9 19 -39
19 -239 l0 -211 -30 32 c-16 18 -30 37 -30 43 0 5 -35 9 -77 9 -75 0 -79 -1
-94 -28 l-15 -27 89 3 c87 3 126 -2 113 -15 -3 -3 -49 -8 -102 -10 -68 -3
-100 0 -112 9 -12 10 -14 10 -8 1 4 -8 2 -13 -6 -13 -9 0 -13 17 -12 62 1 61
1 61 -3 8 -2 -30 -10 -58 -16 -62 -7 -4 -72 -8 -144 -8 -73 0 -133 -3 -133 -8
0 -4 -21 -5 -47 -3 -44 4 -46 5 -18 12 28 6 28 7 5 8 -15 0 -31 -4 -38 -11 -9
-9 -12 -9 -12 0 0 8 -18 12 -52 11 -42 -1 -48 -3 -28 -9 18 -6 -2 -9 -65 -11
-167 -6 -240 -5 -254 6 -10 7 -13 7 -9 0 4 -7 -9 -9 -35 -8 -23 2 -77 5 -120
7 -110 4 -108 16 3 16 164 0 91 9 -111 14 -107 3 -197 5 -201 6 -4 0 -9 225
-10 500 l-3 501 90 1 c511 3 804 8 823 14 19 5 22 3 23 -22 l1 -29 8 30 c4 17
8 25 9 19 1 -13 71 -25 71 -13 0 4 48 8 106 8 79 1 104 -1 98 -10 -5 -9 -2
-10 9 -6 10 3 17 2 17 -4 0 -6 4 -8 9 -4 6 3 12 -19 14 -52 3 -47 4 -42 5 27
l2 85 147 3 c81 2 151 6 155 8 5 3 8 0 8 -6 0 -6 5 -8 11 -5 16 11 89 13 501
20 216 4 388 2 391 -2 11 -17 19 -1101 9 -1107 -6 -3 -15 8 -21 24 -11 34 -6
33 -123 30 -74 -1 -88 1 -88 14 0 9 3 16 8 17 154 11 186 19 75 19 -73 0 -101
-14 -90 -45 5 -11 29 -15 104 -17 58 -2 97 -7 95 -13 -3 -13 -215 -7 -223 7
-3 5 -9 0 -12 -11 -4 -17 0 -21 21 -22 15 0 21 -3 15 -6 -33 -13 -5 -18 87
-15 l100 3 0 -115 c0 -71 4 -116 10 -116 6 0 9 12 9 28 -1 15 -1 66 0 115 1
80 3 87 21 87 19 0 20 -7 22 -117 1 -65 3 -92 5 -59 l4 59 44 -49 c24 -27 44
-52 45 -56 0 -5 5 -8 10 -8 6 0 -14 31 -45 69 -50 64 -55 74 -54 118 1 39 3
43 9 23 7 -23 8 -23 9 -3 1 22 1 22 234 20 l232 -1 -175 -5 c-160 -6 -175 -8
-178 -25 -2 -10 1 -16 5 -13 5 3 9 -3 10 -13 1 -11 -2 -22 -8 -25 -5 -4 -9
-16 -9 -28 0 -18 2 -19 10 -7 12 19 13 5 1 -18 -5 -9 -5 -26 0 -37 l8 -20 0
20 c1 17 3 17 11 5 6 -9 10 -10 10 -3 0 19 98 13 103 -6 4 -13 5 -12 6 2 1 16
10 17 104 12 56 -4 122 -7 148 -9 25 -1 50 -6 57 -10 8 -4 12 -1 12 11 0 17
-15 18 -208 21 -114 2 -209 6 -211 8 -8 8 -11 44 -3 42 4 -1 31 4 60 10 30 7
58 10 63 6 5 -3 9 0 9 6 0 7 7 10 15 6 8 -3 21 2 30 10 8 9 15 11 15 6 0 -10
34 -8 63 3 11 5 17 2 18 -6 0 -8 4 -4 9 8 11 26 30 31 30 8 0 -22 47 -19 53 3
3 10 5 5 7 -13 1 -16 4 -24 7 -17 7 18 23 15 24 -5 1 -12 4 -10 9 7 13 41 11
50 -12 60 -16 7 18 9 107 8 78 -1 133 -6 137 -12 5 -8 8 -7 8 1 0 9 70 12 279
13 l279 0 10 -62 9 -63 2 53 c0 29 6 52 12 52 6 0 4 7 -5 15 -12 13 -64 15
-323 17 l-308 2 235 6 235 6 -307 2 c-200 1 -308 -2 -308 -8 0 -5 -12 -10 -27
-10 -22 0 -25 2 -13 10 10 6 -89 10 -289 10 -313 0 -391 10 -158 21 l132 6
-142 1 -142 2 0 177 c0 115 3 173 9 163 7 -11 9 -4 9 25 -1 34 -2 36 -9 15 -7
-24 -13 134 -12 335 0 123 1 127 12 120 6 -4 8 -11 5 -16 -3 -5 1 -6 9 -3 10
4 16 17 15 33 -1 26 -1 26 -8 2 -5 -19 -8 -21 -18 -10 -13 17 -15 87 -2 95 5
3 9 21 9 40 0 21 4 33 10 29 6 -4 8 -9 6 -13 -2 -4 2 -12 9 -19 10 -10 14 -9
19 3 3 8 2 13 -3 10 -5 -3 -11 3 -14 14 -3 10 0 21 7 24 7 3 7 5 -1 5 -28 2
-11 17 21 19 19 1 54 5 78 7 23 3 156 7 293 10 138 3 324 7 415 11 91 3 237 7
325 9 88 2 167 5 175 7 13 3 15 -64 18 -544 l3 -548 -391 -3 -390 -2 392 0
392 0 7 25 c4 14 7 19 8 13 1 -7 6 -13 11 -13 7 0 7 6 1 19 -6 10 -7 21 -4 25
3 3 1 6 -5 6 -7 0 -12 14 -12 30 0 26 2 29 14 18 8 -7 14 -15 14 -18 -1 -22 5
-20 22 8 11 18 25 30 30 27 6 -4 10 7 10 24 0 16 -5 33 -12 37 -7 5 -8 3 -3
-6 6 -9 4 -11 -5 -5 -10 6 -9 11 5 22 18 13 18 13 -1 28 -17 13 -17 14 -1 15
9 0 17 5 17 11 0 5 -4 8 -9 4 -5 -3 -15 11 -22 30 -13 34 -29 47 -29 23 0 -9
-3 -9 -11 -1 -7 7 -12 96 -15 250 -4 231 -4 240 16 258 11 10 20 13 20 8 0 -6
-6 -13 -14 -16 -7 -3 -13 -17 -13 -31 0 -28 14 -35 23 -11 4 8 14 15 23 15 19
1 71 44 71 60 0 6 -4 9 -9 6 -20 -13 -19 39 2 68 15 22 16 27 4 17 -10 -8 -17
-9 -17 -3 0 6 13 20 29 31 21 15 37 19 60 15 27 -6 30 -9 19 -23 -12 -14 -11
-14 5 -2 24 19 21 29 -10 38 -37 10 -51 6 -82 -23 -14 -13 -29 -24 -34 -24 -4
0 -6 -4 -3 -9 3 -5 -2 -17 -12 -28 -9 -10 -16 -17 -15 -14 2 2 -2 10 -7 16 -8
9 2 26 37 61 26 26 39 40 27 31 -11 -9 -24 -14 -28 -10 -4 5 -6 1 -4 -7 2 -10
-5 -15 -23 -16 -19 -1 -26 4 -24 15 1 9 8 15 13 14 7 -2 9 4 5 13 -3 9 0 19 6
24 9 5 4 10 -14 14 l-27 7 28 25 c22 18 24 23 9 18 -16 -6 -14 -1 9 24 16 17
34 29 39 25 6 -3 7 -1 3 5 -4 7 -2 12 5 12 8 0 8 4 -1 15 -8 10 -31 15 -66 15
-31 0 -54 4 -54 11 0 5 -4 7 -10 4 -5 -3 -10 4 -10 15 0 15 5 20 14 17 10 -4
15 4 18 24 4 22 1 29 -9 25 -7 -3 -13 1 -13 9 0 8 5 15 11 15 6 0 9 6 6 13 -2
6 -1 21 3 31 3 11 4 37 0 58 -4 21 -3 35 2 32 5 -3 6 9 3 26 -5 26 -3 31 9 27
9 -4 18 -1 22 6 4 7 4 9 -1 5 -4 -4 -14 -3 -21 3 -11 9 -11 15 2 34 11 17 12
29 5 49 -6 14 -13 26 -16 26 -4 0 -3 -6 0 -12 4 -7 -3 -2 -14 12 -21 25 -30
87 -11 75 6 -3 7 -17 4 -29 -6 -27 22 -44 40 -25 8 9 8 10 -1 5 -17 -9 -27 32
-12 50 6 8 9 17 5 21 -3 3 -6 1 -6 -5 0 -23 -15 -12 -16 12 -1 17 2 23 12 19
8 -3 14 0 14 6 0 6 -4 11 -10 11 -5 0 -10 10 -11 23 -1 15 -4 11 -9 -13 -5
-19 -6 -38 -4 -42 2 -3 0 -9 -6 -13 -6 -4 -10 25 -10 82 -1 48 -3 136 -6 195
l-6 106 54 6 c29 3 69 7 88 9 19 2 -7 5 -58 8 l-94 4 7 -469z m38 -93 c-3 -7
-10 -13 -15 -13 -6 0 -7 7 -4 16 3 9 6 21 6 27 0 7 4 7 9 -2 5 -8 7 -20 4 -28z
m-1 -63 c3 -19 1 -29 -6 -27 -6 2 -12 18 -14 36 -4 41 14 33 20 -9z m-2092
-354 c0 -2 -9 -6 -20 -9 -11 -3 -18 -1 -14 4 5 9 34 13 34 5z m2170 -1 c0 -11
-54 -26 -69 -19 -12 5 -8 9 14 14 39 10 55 11 55 5z m-1485 -15 c3 -5 12 -10
18 -10 7 0 6 4 -3 10 -12 8 -11 10 7 10 32 0 34 -12 7 -33 -13 -10 -24 -14
-24 -8 0 5 -16 9 -37 8 -40 -2 -58 19 -21 26 40 8 47 7 53 -3z m920 1 c-3 -5
0 -13 7 -18 17 -11 -151 -22 -179 -12 -13 5 -25 4 -28 -1 -4 -6 -16 -10 -28
-9 -21 0 -21 1 -2 9 13 6 -5 8 -55 8 -59 0 -67 -2 -40 -8 33 -7 32 -8 -13 -7
-29 0 -43 4 -35 8 9 6 5 9 -12 9 -15 0 -32 -6 -39 -12 -11 -10 -13 -10 -7 0 5
8 -3 12 -26 13 l-33 2 35 6 c19 4 119 6 222 6 104 0 188 3 188 8 0 4 12 7 26
7 14 0 23 -4 19 -9z m236 -7 c9 -11 7 -14 -12 -14 -19 0 -21 2 -9 10 9 6 10
10 3 10 -6 0 -15 -5 -18 -10 -4 -6 -10 -8 -15 -5 -5 3 -11 1 -15 -5 -3 -5 -33
-10 -67 -10 -56 0 -59 1 -47 17 10 11 10 14 2 9 -7 -4 -13 -3 -13 3 0 16 177
12 191 -5z m181 4 c8 -5 2 -6 -14 -2 -20 4 -29 2 -34 -10 -3 -9 -11 -16 -16
-16 -6 0 -8 6 -5 14 5 12 -4 14 -44 12 -27 -1 -49 2 -49 6 0 11 146 7 162 -4z
m69 -5 c7 -7 4 -12 -10 -16 -14 -3 -24 1 -31 12 -7 14 -5 17 11 16 10 -1 24
-6 30 -12z m-5156 -12 c-3 -6 -16 -11 -28 -11 -21 1 -21 1 3 15 27 14 36 13
25 -4z m2533 12 c-15 -2 -42 -2 -60 0 -18 2 -6 4 27 4 33 0 48 -2 33 -4z m891
4 c-2 -1 -12 -9 -22 -16 -15 -12 -17 -12 -11 3 3 9 13 16 22 16 8 0 13 -1 11
-3z m31 -1 c0 -2 -8 -10 -17 -17 -16 -13 -17 -12 -4 4 13 16 21 21 21 13z
m-3540 -21 c0 -10 -10 -15 -30 -15 -22 0 -28 4 -24 15 4 8 17 15 30 15 15 0
24 -6 24 -15z m3234 4 c-2 -4 -13 -6 -24 -4 -11 2 -20 0 -20 -6 0 -12 -107
-12 -115 1 -3 6 -14 10 -23 9 -14 0 -14 -2 2 -8 17 -7 18 -8 3 -14 -9 -3 -19
-3 -21 2 -6 9 -33 7 -58 -3 -21 -10 -50 -4 -55 9 -2 7 16 10 47 9 28 -1 53 3
56 8 3 5 53 8 109 7 57 -2 102 -6 99 -10z m53 5 c-3 -3 -12 -4 -19 -1 -8 3 -5
6 6 6 11 1 17 -2 13 -5z m90 0 c-3 -3 -12 -4 -19 -1 -8 3 -5 6 6 6 11 1 17 -2
13 -5z m70 -9 c0 -8 -4 -12 -9 -9 -5 3 -6 10 -3 15 9 13 12 11 12 -6z m1637 7
c2 -4 -5 -9 -17 -9 -17 -2 -19 0 -7 7 18 12 18 12 24 2z m201 -2 c-3 -5 -12
-10 -18 -10 -7 0 -6 4 3 10 19 12 23 12 15 0z m-2709 -12 c4 -7 8 -22 9 -35
l1 -22 -19 20 c-21 23 -37 18 -17 -6 11 -13 8 -15 -21 -15 -31 0 -32 1 -13 16
12 10 14 14 4 11 -8 -2 -24 -1 -35 4 -15 6 -11 8 19 8 30 1 37 4 32 16 -7 18
29 21 40 3z m292 -6 c5 -15 -14 -16 -23 -2 -4 6 -11 8 -16 5 -5 -4 -9 -1 -9 4
0 14 43 7 48 -7z m36 3 c3 -8 1 -15 -4 -15 -6 0 -10 7 -10 15 0 8 2 15 4 15 2
0 6 -7 10 -15z m-184 1 c0 -3 -4 -8 -10 -11 -5 -3 -10 -1 -10 4 0 6 5 11 10
11 6 0 10 -2 10 -4z m50 -6 c0 -13 -11 -13 -30 0 -12 8 -11 10 8 10 12 0 22
-4 22 -10z m2509 -3 c-2 -1 -12 -9 -21 -16 -15 -12 -18 -11 -18 3 0 10 8 16
22 16 12 0 19 -1 17 -3z m-4156 -14 c-7 -2 -21 -2 -30 0 -10 3 -4 5 12 5 17 0
24 -2 18 -5z m75 0 c-10 -2 -28 -2 -40 0 -13 2 -5 4 17 4 22 1 32 -1 23 -4z
m2495 0 c-7 -2 -21 -2 -30 0 -10 3 -4 5 12 5 17 0 24 -2 18 -5z m-1573 -17
c14 -4 20 -4 13 1 -6 4 45 9 115 10 72 1 118 -2 107 -6 l-20 -8 20 -5 c21 -6
-15 -8 -172 -12 -72 -1 -94 1 -98 12 -4 11 -8 12 -19 3 -8 -7 -40 -11 -73 -10
-32 1 -69 -2 -82 -6 -19 -7 -22 -5 -16 6 7 11 6 12 -6 2 -12 -10 -18 -10 -29
0 -10 9 -11 9 -6 0 5 -10 -12 -13 -71 -15 -43 0 -85 0 -93 0 -18 3 -28 2 -110
-3 -36 -2 -56 -1 -45 2 11 3 24 9 30 14 13 13 38 11 29 -2 -4 -7 1 -7 16 1 12
6 31 10 41 7 10 -3 22 -1 25 4 3 5 12 9 20 9 8 0 13 -3 10 -8 -2 -4 13 -8 35
-8 45 -1 48 3 17 16 -28 11 325 7 362 -4z m917 8 c-3 -3 -12 -4 -19 -1 -8 3
-5 6 6 6 11 1 17 -2 13 -5z m116 -1 c-13 -2 -35 -2 -50 0 -16 2 -5 4 22 4 28
0 40 -2 28 -4z m-3217 -16 c4 -4 -5 -7 -20 -7 -15 0 -25 4 -22 9 7 10 31 9 42
-2z m124 3 c-19 -13 -30 -13 -30 0 0 6 10 10 23 10 18 0 19 -2 7 -10z m63 3
c-7 -2 -21 -2 -30 0 -10 3 -4 5 12 5 17 0 24 -2 18 -5z m1437 -5 c0 -4 -9 -8
-19 -8 -11 0 -22 -4 -26 -9 -3 -5 -19 -9 -35 -9 -18 1 -27 5 -23 12 5 7 2 7
-8 0 -8 -7 -44 -14 -80 -16 -54 -3 -64 -1 -53 9 7 7 38 15 70 18 32 3 60 7 62
9 7 7 112 2 112 -6z m895 2 c-3 -5 -12 -10 -18 -10 -7 0 -6 4 3 10 19 12 23
12 15 0z m35 0 c0 -5 -5 -10 -11 -10 -5 0 -7 5 -4 10 3 6 8 10 11 10 2 0 4 -4
4 -10z m-2483 -6 c-3 -3 -12 -4 -19 -1 -8 3 -5 6 6 6 11 1 17 -2 13 -5z m976
-11 c-7 -2 -19 -2 -25 0 -7 3 -2 5 12 5 14 0 19 -2 13 -5z m309 -5 c-9 -9 -15
-9 -24 0 -9 9 -7 12 12 12 19 0 21 -3 12 -12z m-936 -5 c-10 -11 -37 -12 -30
-2 3 5 12 9 21 9 9 0 13 -3 9 -7z m41 1 c-3 -3 -12 -4 -19 -1 -8 3 -5 6 6 6
11 1 17 -2 13 -5z m1826 -1 c-7 -2 -19 -2 -25 0 -7 3 -2 5 12 5 14 0 19 -2 13
-5z m354 1 c-3 -3 -12 -4 -19 -1 -8 3 -5 6 6 6 11 1 17 -2 13 -5z m-1480 -10
c-3 -3 -12 -4 -19 -1 -8 3 -5 6 6 6 11 1 17 -2 13 -5z m156 -1 c-7 -2 -21 -2
-30 0 -10 3 -4 5 12 5 17 0 24 -2 18 -5z m-1276 -49 c-3 -3 -12 -4 -19 -1 -8
3 -5 6 6 6 11 1 17 -2 13 -5z m5356 -106 c-4 -7 -6 -21 -4 -31 2 -18 2 -18
-17 0 -20 19 -12 43 15 43 9 0 11 -5 6 -12z m-2195 -42 c-20 -6 -40 -14 -44
-18 -4 -5 -14 -8 -22 -8 -9 0 -13 3 -9 6 9 9 80 33 97 33 8 -1 -2 -6 -22 -13z
m32 -31 c0 -10 -10 -15 -27 -15 -16 0 -42 -8 -59 -18 -64 -36 -98 -58 -116
-74 -10 -10 -18 -14 -18 -10 0 16 61 63 72 56 7 -4 8 -3 4 4 -7 12 27 33 92
56 50 18 52 18 52 1z m167 -9 c4 -3 -10 -5 -31 -2 -49 6 -60 16 -13 13 20 -2
40 -7 44 -11z m-61 -34 c-8 -7 -46 -14 -46 -8 0 3 3 11 6 20 5 12 10 13 26 5
11 -6 17 -13 14 -17z m114 14 c0 -2 -7 -6 -15 -10 -8 -3 -15 -1 -15 4 0 6 7
10 15 10 8 0 15 -2 15 -4z m-59 -20 c5 3 9 -2 9 -12 0 -13 -3 -14 -15 -4 -8 7
-15 18 -14 24 0 7 2 6 6 -2 2 -6 9 -10 14 -6z m-211 0 c0 -2 -7 -7 -16 -10 -8
-3 -12 -2 -9 4 6 10 25 14 25 6z m77 -25 l2 -26 -10 25 c-8 20 -12 22 -19 10
-8 -13 -10 -12 -10 2 0 29 36 18 37 -11z m262 -22 l16 -24 -32 25 c-17 14 -34
31 -38 39 -9 22 35 -11 54 -40z m-206 2 c-5 -18 -6 -18 -24 -3 -18 16 -18 17
-2 23 24 9 32 3 26 -20z m24 -13 c-3 -7 -5 -2 -5 12 0 14 2 19 5 13 2 -7 2
-19 0 -25z m-217 -53 c-7 -8 -17 -15 -23 -15 -5 0 -3 8 6 18 10 10 18 25 18
33 1 8 3 7 6 -4 3 -10 -1 -24 -7 -32z m40 24 c0 -5 -4 -9 -8 -9 -5 0 -9 7 -9
15 0 8 4 12 9 9 4 -3 8 -9 8 -15z m-92 -152 c5 -23 -43 -46 -61 -28 -9 9 -6
11 13 9 17 -2 25 3 28 16 3 14 0 17 -13 13 -10 -4 -14 -3 -10 4 10 15 39 6 43
-14z m571 -14 c-11 -3 -15 -11 -12 -24 4 -16 0 -19 -26 -19 -17 0 -31 5 -31
10 0 6 10 10 22 10 25 0 14 15 -17 23 -11 3 3 5 30 5 28 0 43 -2 34 -5z m-579
-78 c7 -8 10 -22 6 -30 -8 -22 -25 -19 -19 4 6 22 -26 38 -39 19 -6 -10 -8 -8
-8 5 0 22 42 23 60 2z m-30 -66 c0 -5 -5 -9 -11 -9 -6 0 -9 -9 -6 -20 3 -11 1
-20 -4 -20 -5 0 -9 16 -9 35 0 26 3 33 15 29 8 -4 15 -10 15 -15z m475 -19 c3
-5 1 -10 -4 -10 -6 0 -11 5 -11 10 0 6 2 10 4 10 3 0 8 -4 11 -10z m-528 -172
c-3 -7 -5 -2 -5 12 0 14 2 19 5 13 2 -7 2 -19 0 -25z m2385 -20 c-6 -6 -9 0
-9 18 0 23 1 24 9 10 7 -12 7 -21 0 -28z m-2385 -20 c-3 -8 -6 -5 -6 6 -1 11
2 17 5 13 3 -3 4 -12 1 -19z m0 -80 c-3 -7 -5 -2 -5 12 0 14 2 19 5 13 2 -7 2
-19 0 -25z m-79 -15 c3 -10 -17 -13 -77 -13 -75 0 -92 6 -74 24 12 12 146 2
151 -11z m79 -35 c-3 -7 -5 -2 -5 12 0 14 2 19 5 13 2 -7 2 -19 0 -25z m39 -3
c-6 -25 8 -36 17 -12 4 8 6 7 6 -3 1 -8 -8 -21 -19 -28 -19 -11 -20 -10 -20
28 0 23 5 40 11 40 7 0 9 -10 5 -25z m-1608 -12 c-16 -2 -28 -9 -28 -14 0 -6
-4 -7 -10 -4 -22 13 -8 25 28 24 30 -2 32 -3 10 -6z m180 0 c-15 -2 -42 -2
-60 0 -18 2 -6 4 27 4 33 0 48 -2 33 -4z m-60 -18 c-10 -10 -108 -13 -102 -4
3 5 28 9 56 9 28 0 49 -2 46 -5z m85 -2 c-7 -2 -19 -2 -25 0 -7 3 -2 5 12 5
14 0 19 -2 13 -5z m840 0 c-7 -2 -21 -2 -30 0 -10 3 -4 5 12 5 17 0 24 -2 18
-5z m346 3 c-8 -8 -78 -10 -85 -3 -4 4 14 7 41 7 27 0 46 -2 44 -4z m44 -3
c-7 -2 -19 -2 -25 0 -7 3 -2 5 12 5 14 0 19 -2 13 -5z m65 0 c-10 -2 -26 -2
-35 0 -10 3 -2 5 17 5 19 0 27 -2 18 -5z m850 0 c-15 -2 -42 -2 -60 0 -18 2
-6 4 27 4 33 0 48 -2 33 -4z m80 0 c-10 -2 -26 -2 -35 0 -10 3 -2 5 17 5 19 0
27 -2 18 -5z m245 0 c-18 -2 -48 -2 -65 0 -18 2 -4 4 32 4 36 0 50 -2 33 -4z
m315 0 c-49 -2 -127 -2 -175 0 -49 1 -9 3 87 3 96 0 136 -2 88 -3z m-1330 -43
c1 -9 -11 -23 -28 -33 -16 -10 -30 -15 -31 -10 0 4 -2 16 -4 27 -3 14 -1 16 8
7 16 -16 37 -14 37 4 0 9 -6 12 -17 8 -11 -4 -14 -3 -9 6 10 16 40 10 44 -9z
m-7 -96 c9 -11 8 -18 -1 -29 -13 -15 -30 -12 -30 6 0 6 5 7 10 4 6 -3 10 -1
10 6 0 6 -8 9 -20 6 -15 -4 -20 0 -20 13 0 21 32 17 51 -6z"/>
<path class="st1" d="M2538 1353 c7 -3 16 -2 19 1 4 3 -2 6 -13 5 -11 0 -14 -3 -6 -6z"/>
<path class="st1" d="M3043 2403 c9 -2 25 -2 35 0 9 3 1 5 -18 5 -19 0 -27 -2 -17 -5z"/>
<path class="st1" d="M4218 2403 c7 -3 16 -2 19 1 4 3 -2 6 -13 5 -11 0 -14 -3 -6 -6z"/>
<path class="st1" d="M2598 2393 c18 -2 45 -2 60 0 15 2 0 4 -33 4 -33 0 -45 -2 -27 -4z"/>
<path class="st1" d="M2888 2393 c12 -2 32 -2 45 0 12 2 2 4 -23 4 -25 0 -35 -2 -22 -4z"/>
<path class="st1" d="M2278 2383 c7 -3 16 -2 19 1 4 3 -2 6 -13 5 -11 0 -14 -3 -6 -6z"/>
<path class="st1" d="M2318 2383 c6 -2 18 -2 25 0 6 3 1 5 -13 5 -14 0 -19 -2 -12 -5z"/>
<path class="st1" d="M2553 2373 c20 -2 54 -2 75 0 20 2 3 4 -38 4 -41 0 -58 -2 -37 -4z"/>
<path class="st1" d="M3288 2373 c7 -3 16 -2 19 1 4 3 -2 6 -13 5 -11 0 -14 -3 -6 -6z"/>
<path class="st1" d="M3373 2371 c-28 -5 -77 -17 -109 -27 -46 -14 -59 -23 -68 -46 -7 -20
-18 -28 -36 -29 -14 -1 -39 -3 -55 -5 -22 -2 -34 2 -43 16 -11 18 -9 20 22 20
19 0 37 3 40 8 2 4 -13 6 -35 4 -49 -5 -56 -16 -32 -50 10 -15 21 -34 25 -42
5 -11 7 -9 7 8 1 19 6 22 39 22 20 0 42 -4 47 -8 7 -4 10 -112 9 -307 -1 -165
-2 -306 -3 -312 -1 -9 -21 -14 -58 -15 l-58 -1 60 -7 c48 -5 53 -7 25 -10 -19
-2 -45 -3 -57 -3 -13 0 -23 -4 -23 -10 0 -9 306 -5 692 8 82 3 103 9 91 28 -5
7 -11 129 -14 272 l-5 260 0 -267 1 -266 -53 -4 c-35 -2 -52 1 -52 9 0 6 3 13
8 15 4 2 5 66 2 143 l-6 140 -2 -139 c-1 -77 -4 -137 -7 -134 -3 3 -6 141 -5
307 0 256 3 307 16 333 14 26 14 30 1 25 -9 -3 -19 4 -26 19 -10 23 -9 24 9
14 34 -18 22 -3 -16 19 -19 12 -41 21 -47 20 -7 0 -1 -5 12 -10 37 -15 18 -22
-26 -10 -52 15 -207 22 -270 12z m194 -17 c-3 -3 -12 -4 -19 -1 -8 3 -5 6 6 6
11 1 17 -2 13 -5z m40 0 c-3 -3 -12 -4 -19 -1 -8 3 -5 6 6 6 11 1 17 -2 13 -5z
m65 -18 c10 -7 14 -16 10 -20 -4 -4 -7 -12 -7 -17 0 -5 -4 -9 -10 -9 -5 1 -10
10 -9 20 0 11 -3 20 -8 20 -4 0 -8 5 -8 10 0 13 11 12 32 -4z m-122 -6 c0 -5
-5 -10 -11 -10 -5 0 -7 5 -4 10 3 6 8 10 11 10 2 0 4 -4 4 -10z m60 -4 c0 -9
-30 -14 -35 -6 -4 6 3 10 14 10 12 0 21 -2 21 -4z m97 -38 c-3 -8 -6 -5 -6 6
-1 11 2 17 5 13 3 -3 4 -12 1 -19z m-242 -20 l8 -23 4 23 c8 38 37 23 41 -21
3 -32 0 -37 -17 -37 -12 0 -21 7 -21 15 0 8 -5 15 -10 15 -6 0 -10 -7 -8 -16
2 -10 -5 -18 -14 -19 -15 -3 -18 4 -18 34 0 54 21 71 35 29z m-45 -28 c0 -22
-4 -40 -9 -40 -28 0 -41 14 -41 46 0 30 3 34 25 34 23 0 25 -4 25 -40z m154
34 c10 -4 16 -18 16 -35 0 -22 -5 -29 -20 -29 -16 0 -20 7 -20 35 0 38 0 38
24 29z m-234 -41 c0 -27 -2 -28 -57 -29 l-57 -1 23 18 c27 22 41 24 42 7 0 -7
4 -3 9 10 13 32 40 29 40 -5z m298 -1 c3 -17 -2 -22 -17 -22 -16 0 -21 6 -21
26 0 33 33 30 38 -4z m42 -8 c0 -2 -7 -4 -15 -4 -8 0 -15 4 -15 10 0 5 7 7 15
4 8 -4 15 -8 15 -10z m-96 -40 c15 -14 16 -14 16 0 0 21 27 20 39 -1 10 -17
10 -17 11 0 0 10 8 17 20 17 18 0 20 -7 20 -55 0 -48 -2 -55 -20 -55 -16 0
-20 7 -22 38 l-1 37 -4 -37 c-3 -30 -9 -38 -24 -38 -15 0 -19 8 -21 38 l-1 37
-4 -38 c-3 -29 -8 -37 -21 -35 -17 3 -29 65 -18 94 7 18 11 18 30 -2z m-246
-52 c2 -40 0 -52 -12 -52 -8 0 -17 6 -20 13 -5 10 -7 10 -12 0 -3 -7 -23 -13
-45 -13 l-39 0 0 49 c0 47 2 50 28 53 15 3 43 4 62 3 35 -1 35 -1 38 -53z m78
18 c0 -43 -12 -70 -31 -70 -11 0 -15 13 -15 56 0 52 1 55 23 52 18 -2 22 -10
23 -38z m55 28 c0 -10 2 -10 6 0 2 6 13 12 24 12 16 0 19 -7 19 -51 0 -43 -3
-50 -17 -47 -12 2 -19 14 -21 33 -4 36 -21 58 -39 51 -7 -3 -13 -1 -13 4 0 15
40 12 41 -2z m119 -140 c0 -48 13 -44 14 4 1 32 3 33 44 35 46 1 42 9 46 -84
1 -12 -7 -18 -21 -18 -12 0 -25 -4 -29 -8 -4 -4 7 -7 25 -7 32 0 32 0 29 -47
l-3 -48 -72 -3 -73 -3 0 51 0 50 38 0 c23 0 32 3 24 9 -7 4 -25 6 -39 3 -24
-5 -25 -4 -20 39 3 24 6 50 6 57 1 6 8 12 16 12 11 0 15 -11 15 -42z m-289 2
l7 -25 1 28 c1 19 6 27 19 27 16 0 20 -25 14 -92 -3 -26 -26 -17 -33 12 l-7
25 -1 -27 c-1 -21 -6 -28 -20 -28 -22 0 -28 24 -22 78 4 40 31 41 42 2z m115
-31 c9 -64 19 -63 19 3 0 42 4 53 18 56 14 3 17 -4 17 -35 0 -24 3 -33 9 -25
4 7 6 24 3 38 -3 19 0 24 17 24 13 0 21 -6 21 -17 1 -10 3 -57 6 -104 l6 -87
-68 -4 c-38 -3 -72 -2 -76 1 -9 8 -12 57 -10 148 2 51 5 61 17 57 9 -4 17 -26
21 -55z m-171 3 c1 -36 -2 -42 -20 -42 -16 0 -17 2 -5 10 9 6 10 10 3 10 -7 0
-11 14 -10 35 1 26 6 35 17 33 10 -2 15 -16 15 -46z m2 -110 c3 -48 -3 -63
-22 -56 -17 7 -20 41 -5 80 13 34 24 24 27 -24z m55 1 l1 -48 7 50 c4 28 8 43
9 35 1 -12 3 -12 10 -2 11 18 21 -7 21 -54 0 -25 -4 -34 -17 -35 -17 -1 -17
-2 0 -6 13 -4 17 -15 17 -59 l0 -55 -42 3 -43 3 -3 45 c-3 42 -1 47 25 57 l28
11 -26 1 c-24 1 -26 5 -27 51 -1 43 2 50 19 50 16 0 19 -8 21 -47z m398 -108
l0 -56 -72 3 -73 3 -3 44 c-2 24 1 47 7 50 6 4 40 8 76 9 l65 3 0 -56z m-218
31 c6 -8 8 -7 8 2 0 6 9 12 20 12 17 0 20 -7 20 -49 l0 -49 -67 -4 c-38 -3
-71 -3 -75 -1 -5 2 -8 26 -8 53 l0 49 48 -1 c26 0 50 -6 54 -12z m-232 -44 c0
-35 -4 -49 -14 -49 -10 0 -15 15 -18 44 -4 48 -2 53 19 53 9 0 13 -15 13 -48z
m280 -100 l0 -49 -75 -1 -75 0 0 43 0 44 73 4 c39 1 73 4 75 5 1 1 2 -20 2
-46z m170 3 l0 -45 -37 -1 c-39 -2 -94 -1 -103 0 -3 1 -4 21 -2 46 l4 45 69 0
69 0 0 -45z m-452 -10 c-1 -27 -6 -45 -13 -45 -7 0 -12 18 -13 45 -2 34 1 45
13 45 12 0 15 -11 13 -45z m102 0 l0 -45 -42 0 -43 0 -2 45 -2 45 44 0 45 0 0
-45z m364 -60 c3 -10 -1 -15 -12 -16 -95 -6 -152 -8 -309 -13 -151 -5 -183 -4
-183 8 0 10 47 15 228 23 125 5 237 10 248 11 12 1 24 -5 28 -13z"/>
<path class="st1" d="M3293 2137 c1 -15 5 -27 10 -27 10 0 9 22 -2 39 -7 10 -9 7 -8 -12z"/>
<path class="st1" d="M3771 2363 c10 -17 23 -23 47 -23 49 0 35 -24 -16 -28 -23 -2 -42 -7
-42 -11 0 -4 14 -5 31 -3 18 3 34 0 39 -7 4 -8 13 -1 23 21 l16 33 -37 3 c-20
2 -46 11 -56 20 -18 16 -18 16 -5 -5z"/>
<path class="st1" d="M5762 2343 c-2 -41 -1 -43 26 -42 22 1 23 2 5 6 -17 3 -23 13 -26 41
l-4 37 -1 -42z"/>
<path class="st1" d="M2383 2363 c15 -2 39 -2 55 0 15 2 2 4 -28 4 -30 0 -43 -2 -27 -4z"/>
<path class="st1" d="M2218 2353 c6 -2 18 -2 25 0 6 3 1 5 -13 5 -14 0 -19 -2 -12 -5z"/>
<path class="st1" d="M3139 2343 c-13 -16 -12 -17 4 -4 16 13 21 21 13 21 -2 0 -10 -8 -17
-17z"/>
<path class="st1" d="M3215 2350 c-3 -5 -2 -10 4 -10 5 0 13 5 16 10 3 6 2 10 -4 10 -5 0
-13 -4 -16 -10z"/>
<path class="st1" d="M4160 2345 c-11 -13 -10 -14 4 -9 9 3 16 10 16 15 0 13 -6 11 -20 -6z"/>
<path class="st1" d="M4795 2350 c3 -5 12 -10 19 -10 21 0 75 -64 82 -98 6 -28 4 -32 -15
-32 -14 0 -25 10 -35 33 -42 102 -173 100 -213 -3 -15 -38 -18 -40 -58 -40
-22 0 -49 -6 -60 -13 -17 -14 -17 -15 1 -33 10 -11 21 -31 22 -44 6 -36 12
-38 12 -4 0 28 3 30 40 32 l40 3 1 -63 c1 -35 1 -69 0 -75 -1 -7 5 -13 14 -13
9 0 20 -10 25 -22 8 -22 9 -22 7 4 -1 15 -5 24 -9 22 -4 -3 -8 1 -8 10 0 8 -5
16 -12 18 -7 3 -8 10 -4 17 6 10 14 6 31 -15 13 -16 26 -26 30 -23 3 4 -1 14
-10 23 -11 11 -14 23 -9 38 6 20 5 21 -10 9 -15 -12 -21 -8 -17 12 1 5 -3 6
-8 3 -13 -8 -6 50 11 96 8 21 25 50 39 65 13 15 16 21 7 14 -10 -7 -18 -10
-18 -6 0 4 -7 2 -15 -5 -13 -11 -14 -10 -10 2 6 14 54 35 101 44 16 3 23 1 19
-6 -4 -6 -3 -10 2 -9 21 4 32 -3 43 -30 9 -23 9 -33 -2 -50 -10 -17 -10 -23
-1 -29 8 -5 9 -13 3 -22 -7 -12 -11 -10 -19 10 -5 14 -10 18 -10 10 0 -8 6
-24 14 -34 8 -11 15 -14 15 -8 0 7 5 12 10 12 14 0 12 -43 -2 -59 -10 -11 -10
-12 -1 -7 10 5 12 -9 10 -59 -1 -36 1 -65 6 -65 4 0 7 45 7 100 0 73 3 100 13
101 70 8 67 11 67 -60 0 -77 7 -78 13 -1 2 30 7 62 10 70 19 52 16 60 -19 60
-19 0 -34 5 -34 11 0 27 -36 82 -69 105 -37 25 -57 31 -46 14z m133 -157 c-15
-2 -42 -2 -60 0 -18 2 -6 4 27 4 33 0 48 -2 33 -4z m-343 -13 c-11 -5 -31 -9
-45 -9 -20 -1 -22 1 -10 9 8 5 29 9 45 9 26 0 27 -2 10 -9z m68 3 c-7 -2 -19
-2 -25 0 -7 3 -2 5 12 5 14 0 19 -2 13 -5z m304 -9 c-3 -3 -12 -4 -19 -1 -8 3
-5 6 6 6 11 1 17 -2 13 -5z"/>
<path class="st1" d="M1953 2343 c9 -2 25 -2 35 0 9 3 1 5 -18 5 -19 0 -27 -2 -17 -5z"/>
<path class="st1" d="M2448 2343 c7 -3 16 -2 19 1 4 3 -2 6 -13 5 -11 0 -14 -3 -6 -6z"/>
<path class="st1" d="M1687 2333 c18 -2 50 -2 70 0 21 2 7 4 -32 4 -38 0 -55 -2 -38 -4z"/>
<path class="st1" d="M2233 2333 c20 -2 54 -2 75 0 20 2 3 4 -38 4 -41 0 -58 -2 -37 -4z"/>
<path class="st1" d="M2588 2333 c6 -2 18 -2 25 0 6 3 1 5 -13 5 -14 0 -19 -2 -12 -5z"/>
<path class="st1" d="M2638 2333 c7 -3 16 -2 19 1 4 3 -2 6 -13 5 -11 0 -14 -3 -6 -6z"/>
<path class="st1" d="M3176 2325 c-16 -12 -17 -15 -4 -15 9 0 18 7 22 15 7 18 6 18 -18 0z"/>
<path class="st1" d="M2038 2323 c18 -2 45 -2 60 0 15 2 0 4 -33 4 -33 0 -45 -2 -27 -4z"/>
<path class="st1" d="M2468 2323 c7 -3 16 -2 19 1 4 3 -2 6 -13 5 -11 0 -14 -3 -6 -6z"/>
<path class="st1" d="M531 2308 c0 -10 -5 -18 -11 -18 -19 0 1 -26 21 -27 15 -1 18 1 11
10 -5 7 -12 21 -15 32 -4 16 -5 17 -6 3z"/>
<path class="st1" d="M1848 2313 c18 -2 45 -2 60 0 15 2 0 4 -33 4 -33 0 -45 -2 -27 -4z"/>
<path class="st1" d="M1738 2283 c7 -3 16 -2 19 1 4 3 -2 6 -13 5 -11 0 -14 -3 -6 -6z"/>
<path class="st1" d="M4586 2235 c-9 -26 -7 -32 5 -12 6 10 9 21 6 23 -2 3 -7 -2 -11 -11z"/>
<path class="st1" d="M2165 2230 c-3 -6 1 -7 9 -4 18 7 21 14 7 14 -6 0 -13 -4 -16 -10z"/>
<path class="st1" d="M1380 2219 c0 -5 5 -7 10 -4 6 3 10 8 10 11 0 2 -4 4 -10 4 -5 0 -10
-5 -10 -11z"/>
<path class="st1" d="M2119 2203 c-13 -16 -12 -17 4 -4 9 7 17 15 17 17 0 8 -8 3 -21 -13z"/>
<path class="st1" d="M3833 2185 c0 -22 2 -30 4 -17 2 12 2 30 0 40 -3 9 -5 -1 -4 -23z"/>
<path class="st1" d="M5729 2203 c14 -27 26 -29 35 -7 9 23 7 31 -3 15 -8 -13 -12 -13 -27
0 -16 13 -16 12 -5 -8z"/>
<path class="st1" d="M735 2200 c3 -5 16 -10 28 -9 21 0 21 1 2 9 -28 12 -37 12 -30 0z"/>
<path class="st1" d="M1460 2198 c0 -11 -8 -18 -21 -18 -11 0 -18 -4 -15 -9 6 -10 43 -3
50 8 3 4 1 13 -5 21 -7 13 -9 12 -9 -2z"/>
<path class="st1" d="M1665 2199 c-10 -15 -4 -18 28 -12 21 4 25 8 15 14 -18 12 -36 11
-43 -2z"/>
<path class="st1" d="M1810 2199 c0 -5 5 -7 10 -4 6 3 10 8 10 11 0 2 -4 4 -10 4 -5 0 -10
-5 -10 -11z"/>
<path class="st1" d="M2185 2201 c-40 -17 -91 -101 -66 -109 22 -7 -1 -22 -35 -22 -19 0
-34 -4 -34 -9 0 -16 18 -22 23 -9 4 10 8 9 16 -2 6 -8 11 -11 11 -6 0 5 6 3
13 -3 11 -8 13 -44 12 -150 -1 -112 1 -138 12 -134 16 6 17 19 3 28 -15 9 8
36 29 34 31 -3 34 1 16 21 -10 11 -22 17 -26 14 -9 -5 -10 9 -13 104 -2 38 0
41 11 26 15 -21 17 -11 3 16 -12 22 16 79 40 81 8 0 3 4 -12 9 -44 13 -50 20
-33 36 8 9 15 24 15 35 0 11 5 17 10 14 6 -3 10 -2 10 4 0 29 71 14 101 -22
20 -24 25 -42 9 -32 -14 9 -25 -24 -13 -36 6 -6 8 -25 4 -42 -10 -48 -3 -76
17 -70 13 3 17 14 17 39 -2 31 1 34 29 35 l31 2 -35 7 -35 7 36 2 c22 0 39 -4
42 -12 3 -7 5 -71 6 -142 1 -74 7 -135 13 -142 7 -9 6 -14 -3 -17 -22 -7 -156
-16 -270 -19 -83 -1 -105 -5 -102 -15 5 -12 102 -11 313 3 30 2 61 4 68 4 13
1 17 37 4 45 -5 3 -9 69 -10 148 0 79 3 134 7 124 11 -28 20 0 14 42 -5 31 -6
32 -58 32 -46 0 -53 3 -63 25 -12 27 -67 65 -92 64 -8 0 -24 -4 -35 -8z m235
-101 c0 -17 -107 -16 -124 1 -6 5 16 9 57 9 38 0 67 -4 67 -10z"/>
<path class="st1" d="M2331 2193 c7 -12 15 -20 18 -17 3 2 -3 12 -13 22 -17 16 -18 16 -5
-5z"/>
<path class="st1" d="M1754 2192 c4 -3 14 -7 22 -8 9 -1 13 0 10 4 -4 3 -14 7 -22 8 -9 1
-13 0 -10 -4z"/>
<path class="st1" d="M5516 2177 c3 -10 9 -15 12 -12 3 3 0 11 -7 18 -10 9 -11 8 -5 -6z"/>
<path class="st1" d="M2090 2159 c-7 -11 -10 -23 -7 -25 2 -2 9 7 15 21 14 30 7 33 -8 4z"/>
<path class="st1" d="M2203 2164 c0 -16 13 -19 21 -5 3 5 0 11 -7 14 -8 3 -14 -1 -14 -9z"/>
<path class="st1" d="M3083 2135 c0 -27 2 -38 4 -22 2 15 2 37 0 50 -2 12 -4 0 -4 -28z"/>
<path class="st1" d="M169 2168 c-5 -12 -5 -47 0 -42 3 3 6 11 6 17 0 7 19 13 45 15 29 2
40 -1 32 -6 -11 -8 -11 -10 2 -15 9 -4 15 -1 13 6 -1 7 4 11 11 9 8 -1 11 1 8
6 -5 8 -114 17 -117 10z"/>
<path class="st1" d="M368 2163 c7 -3 16 -2 19 1 4 3 -2 6 -13 5 -11 0 -14 -3 -6 -6z"/>
<path class="st1" d="M4707 2134 c-4 -4 -7 -12 -7 -18 0 -6 5 -4 10 4 9 13 11 13 21 0 9
-12 10 -12 7 -1 -5 17 -21 25 -31 15z"/>
<path class="st1" d="M5760 2120 c0 -6 -4 -8 -10 -5 -15 9 -12 -1 4 -14 10 -9 15 -8 19 3
4 9 2 18 -3 21 -6 4 -10 1 -10 -5z"/>
<path class="st1" d="M2070 2111 c0 -10 19 -25 25 -20 1 2 -3 10 -11 17 -8 7 -14 8 -14 3z"/>
<path class="st1" d="M5531 2104 c0 -11 3 -14 6 -6 3 7 2 16 -1 19 -3 4 -6 -2 -5 -13z"/>
<path class="st1" d="M2038 2093 c7 -3 16 -2 19 1 4 3 -2 6 -13 5 -11 0 -14 -3 -6 -6z"/>
<path class="st1" d="M4706 2088 c3 -5 13 -7 22 -6 12 2 19 -8 24 -37 4 -22 10 -54 13 -70
6 -29 5 -31 -29 -33 -29 -2 -36 1 -37 15 0 14 -2 15 -6 3 -8 -19 -33 -44 -33
-33 0 10 -20 -19 -20 -30 0 -5 6 -5 13 0 14 9 18 9 82 12 36 1 46 4 35 11 -13
9 -13 10 0 10 12 0 15 8 12 35 -2 19 -8 38 -13 41 -5 3 -9 20 -9 39 0 19 -6
37 -12 41 -18 11 -48 12 -42 2z m41 -164 c-3 -3 -12 -4 -19 -1 -8 3 -5 6 6 6
11 1 17 -2 13 -5z"/>
<path class="st1" d="M3733 2045 c0 -27 2 -38 4 -22 2 15 2 37 0 50 -2 12 -4 0 -4 -28z"/>
<path class="st1" d="M2853 2000 c0 -47 2 -66 4 -42 2 23 2 61 0 85 -2 23 -4 4 -4 -43z"/>
<path class="st1" d="M3081 2064 c0 -11 3 -14 6 -6 3 7 2 16 -1 19 -3 4 -6 -2 -5 -13z"/>
<path class="st1" d="M2027 2058 c4 -7 11 -58 14 -113 l5 -100 2 97 c2 98 -3 128 -20 128
-5 0 -6 -6 -1 -12z"/>
<path class="st1" d="M481 2034 c0 -11 3 -14 6 -6 3 7 2 16 -1 19 -3 4 -6 -2 -5 -13z"/>
<path class="st1" d="M1581 2024 c0 -11 3 -14 6 -6 3 7 2 16 -1 19 -3 4 -6 -2 -5 -13z"/>
<path class="st1" d="M880 2009 c-30 -3 -42 -6 -27 -7 16 -1 25 -6 22 -12 -3 -5 3 -10 15
-10 12 0 18 5 15 10 -4 6 6 10 24 10 21 0 32 -6 36 -21 6 -19 8 -20 26 -3 10
9 19 22 19 27 0 6 -2 8 -6 5 -3 -3 -19 -3 -37 1 -18 3 -57 3 -87 0z"/>
<path class="st1" d="M1420 2010 c0 -5 5 -10 10 -10 6 0 10 5 10 10 0 6 -4 10 -10 10 -5 0
-10 -4 -10 -10z"/>
<path class="st1" d="M1341 1994 c0 -11 3 -14 6 -6 3 7 2 16 -1 19 -3 4 -6 -2 -5 -13z"/>
<path class="st1" d="M1609 1973 c0 -16 -2 -42 -3 -59 -2 -18 0 -38 5 -45 5 -8 8 16 8 59
0 39 -2 72 -5 72 -2 0 -4 -12 -5 -27z"/>
<path class="st1" d="M2221 1986 c-9 -11 -9 -16 1 -22 7 -4 10 -4 6 1 -4 4 -3 14 3 22 6 7
9 13 6 13 -2 0 -10 -6 -16 -14z"/>
<path class="st1" d="M4942 1975 c0 -16 2 -22 5 -12 2 9 2 23 0 30 -3 6 -5 -1 -5 -18z"/>
<path class="st1" d="M191 1985 c3 -2 21 -5 42 -7 20 -1 37 -6 37 -11 0 -9 111 0 120 10 3
3 -12 4 -32 1 -21 -2 -38 0 -38 4 0 4 -30 8 -67 8 -36 0 -64 -2 -62 -5z"/>
<path class="st1" d="M791 1981 c-7 -5 -9 -10 -5 -13 12 -6 24 -4 54 10 17 7 20 11 8 11
-9 1 -20 -4 -24 -10 -4 -8 -9 -8 -13 -1 -4 6 -12 7 -20 3z"/>
<path class="st1" d="M160 1974 c0 -3 7 -12 15 -20 8 -9 15 -11 15 -5 0 6 12 11 27 11 14
0 24 2 22 4 -7 6 -79 15 -79 10z"/>
<path class="st1" d="M425 1971 c-3 -5 -1 -12 4 -15 5 -3 11 1 15 9 6 16 -9 21 -19 6z"/>
<path class="st1" d="M2249 1969 c-1 -8 -1 -18 0 -23 1 -5 -4 -13 -11 -17 -10 -7 -10 -11
0 -21 6 -6 12 -20 12 -30 0 -10 5 -18 11 -18 5 0 7 5 4 10 -3 6 0 10 7 10 9 0
10 2 1 8 -6 4 -11 24 -11 45 0 37 -11 66 -13 36z"/>
<path class="st1" d="M4630 1966 c0 -17 14 -29 23 -20 8 8 -3 34 -14 34 -5 0 -9 -6 -9 -14z"/>
<path class="st1" d="M2324 1870 c0 -52 1 -74 3 -47 2 26 2 68 0 95 -2 26 -3 4 -3 -48z"/>
<path class="st1" d="M3732 1940 c0 -14 2 -19 5 -12 2 6 2 18 0 25 -3 6 -5 1 -5 -13z"/>
<path class="st1" d="M2200 1940 c-9 -6 -10 -10 -3 -10 6 0 15 5 18 10 8 12 4 12 -15 0z"/>
<path class="st1" d="M278 1933 c12 -2 30 -2 40 0 9 3 -1 5 -23 4 -22 0 -30 -2 -17 -4z"/>
<path class="st1" d="M5581 1914 c0 -11 3 -14 6 -6 3 7 2 16 -1 19 -3 4 -6 -2 -5 -13z"/>
<path class="st1" d="M2161 1894 c0 -11 3 -14 6 -6 3 7 2 16 -1 19 -3 4 -6 -2 -5 -13z"/>
<path class="st1" d="M2851 1894 c0 -11 3 -14 6 -6 3 7 2 16 -1 19 -3 4 -6 -2 -5 -13z"/>
<path class="st1" d="M2201 1873 c-1 -30 2 -33 27 -32 22 1 23 2 5 6 -14 3 -23 13 -26 31
-4 24 -4 24 -6 -5z"/>
<path class="st1" d="M4940 1861 c0 -11 4 -22 9 -25 4 -3 6 6 3 19 -5 30 -12 33 -12 6z"/>
<path class="st1" d="M4841 1854 c0 -11 3 -14 6 -6 3 7 2 16 -1 19 -3 4 -6 -2 -5 -13z"/>
<path class="st1" d="M793 1843 c-23 -4 -23 -6 -23 -166 0 -89 -3 -179 -6 -199 -6 -35 -5
-38 17 -37 22 0 23 1 4 9 -23 10 -22 11 25 15 31 3 33 2 17 -10 -15 -11 -5
-13 68 -11 101 1 115 15 18 18 l-68 2 70 5 c44 4 65 9 57 14 -9 6 -13 33 -12
90 1 45 1 126 1 180 l-1 97 -72 -1 c-40 -1 -83 -4 -95 -6z m-1 -301 c2 -34 0
-62 -4 -62 -5 0 -7 39 -7 88 2 91 6 81 11 -26z m133 38 c3 -5 1 -10 -4 -10 -6
0 -11 5 -11 10 0 6 2 10 4 10 3 0 8 -4 11 -10z m1 -55 c0 -19 -4 -35 -8 -35
-10 0 -11 54 -1 63 9 10 9 10 9 -28z m21 -17 c-2 -13 -4 -5 -4 17 -1 22 1 32
4 23 2 -10 2 -28 0 -40z"/>
<path class="st1" d="M1612 1813 c-1 -23 -5 -50 -8 -60 -5 -14 -4 -15 5 -7 8 7 11 30 8 60
-3 48 -3 48 -5 7z"/>
<path class="st1" d="M2256 1834 c-4 -10 3 -14 24 -14 36 0 40 16 6 22 -15 3 -27 0 -30 -8z"/>
<path class="st1" d="M4634 1838 c-3 -4 13 -8 35 -8 23 0 41 2 41 4 0 8 -71 12 -76 4z"/>
<path class="st1" d="M4558 1833 c12 -2 32 -2 45 0 12 2 2 4 -23 4 -25 0 -35 -2 -22 -4z"/>
<path class="st1" d="M4758 1833 c7 -3 16 -2 19 1 4 3 -2 6 -13 5 -11 0 -14 -3 -6 -6z"/>
<path class="st1" d="M4522 1815 c3 -19 13 -20 146 -25 78 -3 142 -1 142 3 0 5 5 5 10 2
13 -8 140 5 140 14 0 3 -95 5 -212 3 -162 -2 -214 1 -220 10 -6 9 -8 7 -6 -7z"/>
<path class="st1" d="M5586 1803 c-6 -14 -5 -15 5 -6 7 7 10 15 7 18 -3 3 -9 -2 -12 -12z"/>
<path class="st1" d="M2040 1765 c0 -8 4 -15 10 -15 5 0 7 7 4 15 -4 8 -8 15 -10 15 -2 0
-4 -7 -4 -15z"/>
<path class="st1" d="M3082 1750 c0 -14 2 -19 5 -12 2 6 2 18 0 25 -3 6 -5 1 -5 -13z"/>
<path class="st1" d="M112 1674 c0 -19 2 -34 4 -31 8 8 11 67 4 67 -5 0 -8 -16 -8 -36z"/>
<path class="st1" d="M2862 1690 c0 -14 2 -19 5 -12 2 6 2 18 0 25 -3 6 -5 1 -5 -13z"/>
<path class="st1" d="M2861 1614 c0 -11 3 -14 6 -6 3 7 2 16 -1 19 -3 4 -6 -2 -5 -13z"/>
<path class="st1" d="M220 1589 c0 -8 9 -20 20 -27 11 -7 20 -11 20 -9 0 2 -9 14 -20 27
-13 15 -20 18 -20 9z"/>
<path class="st1" d="M1605 1550 c-3 -5 -1 -10 4 -10 6 0 11 5 11 10 0 6 -2 10 -4 10 -3 0
-8 -4 -11 -10z"/>
<path class="st1" d="M1960 1556 c0 -2 7 -7 16 -10 8 -3 12 -2 9 4 -6 10 -25 14 -25 6z"/>
<path class="st1" d="M2000 1546 c0 -2 7 -6 15 -10 8 -3 15 -1 15 4 0 6 -7 10 -15 10 -8 0
-15 -2 -15 -4z"/>
<path class="st1" d="M1840 1510 c0 -5 -16 -10 -36 -10 -31 0 -35 -2 -24 -15 11 -13 15
-13 41 1 25 12 40 34 24 34 -3 0 -5 -4 -5 -10z"/>
<path class="st1" d="M1950 1490 c20 -13 57 -13 65 0 4 6 -11 10 -37 10 -31 0 -39 -3 -28
-10z"/>
<path class="st1" d="M5148 1473 c57 -2 147 -2 200 0 53 1 7 3 -103 3 -110 0 -154 -2 -97
-3z"/>
<path class="st1" d="M3290 1450 c-12 -8 -10 -10 8 -10 13 0 20 4 17 10 -7 12 -6 12 -25 0z"/>
<path class="st1" d="M1837 1440 c-16 -5 -36 -6 -44 -3 -11 4 -14 2 -9 -5 10 -17 61 -15
76 3 7 8 11 15 9 14 -2 0 -17 -5 -32 -9z"/>
<path class="st1" d="M938 1393 c6 -2 18 -2 25 0 6 3 1 5 -13 5 -14 0 -19 -2 -12 -5z"/>
<path class="st1" d="M530 1373 c0 -5 44 -7 97 -5 174 4 191 8 46 10 -79 1 -143 -1 -143
-5z"/>
<path class="st1" d="M108 1323 c7 -3 16 -2 19 1 4 3 -2 6 -13 5 -11 0 -14 -3 -6 -6z"/>
<path class="st1" d="M2930 1320 l-35 -7 35 -1 c19 0 44 3 55 8 l20 9 -20 -1 c-11 0 -36
-4 -55 -8z"/>
<path class="st1" d="M5598 1323 c7 -3 16 -2 19 1 4 3 -2 6 -13 5 -11 0 -14 -3 -6 -6z"/>
<path class="st1" d="M710 1255 c0 -8 2 -15 4 -15 2 0 6 7 10 15 3 8 1 15 -4 15 -6 0 -10
-7 -10 -15z"/>
<path class="st1" d="M370 1236 c0 -2 7 -7 16 -10 8 -3 12 -2 9 4 -6 10 -25 14 -25 6z"/>
<path class="st1" d="M478 1233 c7 -3 16 -2 19 1 4 3 -2 6 -13 5 -11 0 -14 -3 -6 -6z"/>
<path class="st1" d="M5651 1214 c0 -11 3 -14 6 -6 3 7 2 16 -1 19 -3 4 -6 -2 -5 -13z"/>
<path class="st1" d="M4185 1184 c3 -44 12 -54 21 -20 4 16 1 31 -8 40 -13 12 -15 10 -13
-20z"/>
<path class="st1" d="M4732 1173 c1 -37 1 -37 5 -6 3 19 11 34 21 36 12 3 10 5 -5 6 -20 1
-23 -3 -21 -36z"/>
<path class="st1" d="M5616 1178 c3 -4 11 -5 19 -1 21 7 19 12 -4 10 -11 0 -18 -5 -15 -9z"/>
<path class="st1" d="M4684 1154 c-18 -14 -18 -14 6 -3 31 14 36 19 24 19 -6 0 -19 -7 -30
-16z"/>
<path class="st1" d="M4787 1163 c-14 -13 -6 -20 18 -15 46 8 105 -47 129 -120 4 -14 0
-18 -17 -18 -15 0 -27 11 -37 33 -15 33 -92 93 -98 76 -5 -12 -42 -11 -42 1 0
8 -4 7 -12 0 -7 -5 -25 -19 -39 -30 -15 -11 -34 -36 -44 -56 -16 -34 -16 -36
2 -49 16 -13 15 -14 -19 -15 -21 0 -38 -4 -38 -10 0 -5 11 -10 24 -10 31 0 36
-19 36 -159 0 -99 2 -112 16 -107 9 3 57 6 107 6 l92 0 -3 126 c-3 100 -1 125
10 122 8 -3 15 -29 19 -69 l6 -64 1 78 2 77 29 0 c16 0 34 7 41 15 11 13 9 19
-8 36 -12 11 -22 25 -22 32 0 26 -52 88 -90 107 -42 21 -53 24 -63 13z m58
-93 c8 -12 15 -50 10 -50 -2 0 -10 14 -19 30 -13 27 -6 44 9 20z m125 -80 c0
-16 -27 -23 -65 -16 -51 10 -43 22 15 25 31 1 50 -2 50 -9z m-110 -16 c0 -8
-5 -12 -10 -9 -6 4 -8 11 -5 16 9 14 15 11 15 -7z m-17 -39 c4 -8 2 -17 -3
-20 -6 -4 -10 3 -10 14 0 25 6 27 13 6z m4 -70 c2 -14 -1 -25 -7 -25 -5 0 -10
14 -10 32 0 35 12 30 17 -7z m-67 -12 c0 -16 1 -41 2 -58 3 -24 -1 -31 -19
-33 -20 -3 -23 1 -23 27 0 17 4 31 10 31 5 0 7 13 4 30 -5 24 -3 30 10 30 11
0 16 -9 16 -27z m33 2 c-7 -21 -13 -19 -13 6 0 11 4 18 10 14 5 -3 7 -12 3
-20z m37 -65 c0 -16 -4 -30 -10 -30 -5 0 -10 14 -10 30 0 17 5 30 10 30 6 0
10 -13 10 -30z m-43 -17 c-3 -10 -5 -4 -5 12 0 17 2 24 5 18 2 -7 2 -21 0 -30z
m-77 17 c0 -5 -5 -10 -11 -10 -5 0 -7 5 -4 10 3 6 8 10 11 10 2 0 4 -4 4 -10z
m58 -62 c-4 -30 -48 -39 -48 -10 0 24 8 32 32 32 14 0 19 -6 16 -22z m62 2 c0
-11 -4 -20 -8 -20 -4 0 -8 9 -9 20 -1 11 2 20 8 20 5 0 9 -9 9 -20z"/>
<path class="st1" d="M2208 1153 c6 -2 18 -2 25 0 6 3 1 5 -13 5 -14 0 -19 -2 -12 -5z"/>
<path class="st1" d="M2863 1125 c0 -22 2 -30 4 -17 2 12 2 30 0 40 -3 9 -5 -1 -4 -23z"/>
<path class="st1" d="M4620 1093 c-17 -26 -30 -54 -30 -62 1 -9 7 -1 15 17 8 18 24 47 35
63 12 16 19 29 15 29 -3 0 -19 -21 -35 -47z"/>
<path class="st1" d="M2158 1112 c-31 -13 -80 -64 -94 -99 -9 -19 -13 -37 -11 -40 3 -2 10
11 16 30 14 41 53 80 101 101 34 15 23 22 -12 8z"/>
<path class="st1" d="M2271 1117 c16 -12 79 -45 79 -42 0 7 -63 45 -74 45 -5 0 -7 -1 -5
-3z"/>
<path class="st1" d="M2215 1073 c-11 -3 -26 -13 -33 -22 -7 -9 -11 -10 -7 -3 10 20 -10
14 -32 -10 -21 -23 -34 -55 -38 -93 -1 -11 -3 -23 -4 -27 -2 -12 -46 -9 -59 4
-9 9 -12 9 -12 1 0 -17 22 -28 48 -24 22 2 22 0 23 -106 0 -70 3 -101 9 -88 7
17 9 17 9 3 2 -31 1 -33 -8 -33 -5 0 -13 -3 -17 -7 -4 -5 69 -7 162 -7 114 1
170 -3 172 -10 3 -8 -55 -11 -192 -11 -175 0 -221 6 -186 23 6 3 5 4 -2 3 -7
-2 -13 -11 -13 -22 0 -17 9 -19 112 -21 62 -1 128 -3 148 -6 19 -3 35 -1 35 3
0 8 34 6 72 -5 19 -5 20 -4 8 5 -12 10 -11 11 8 7 18 -4 22 -1 22 18 0 13 -5
25 -11 27 -6 2 -11 20 -11 41 0 20 -4 40 -9 43 -5 3 -7 -14 -5 -40 5 -43 4
-46 -19 -46 -26 0 -27 10 -27 195 0 30 2 35 22 35 17 0 20 -7 22 -57 1 -53 2
-54 5 -13 4 50 21 92 34 84 5 -3 6 3 2 13 -8 22 -43 58 -43 44 0 -5 5 -13 10
-16 6 -3 10 -13 10 -21 0 -12 -10 -14 -42 -12 -42 3 -68 28 -29 28 26 0 26 16
1 57 -31 51 -87 78 -135 66z m72 -232 c-9 -12 -9 -13 1 -7 8 5 12 0 12 -13 0
-12 -7 -21 -15 -21 -10 0 -15 10 -15 28 0 19 5 29 15 29 12 0 12 -3 2 -16z
m53 -16 c0 -14 -4 -25 -10 -25 -5 0 -10 11 -10 25 0 14 5 25 10 25 6 0 10 -11
10 -25z m-218 -87 c-9 -9 -12 -4 -11 23 0 32 1 33 11 11 8 -17 8 -26 0 -34z
m178 22 c0 -20 -5 -30 -15 -30 -10 0 -15 10 -15 30 0 20 5 30 15 30 10 0 15
-10 15 -30z m44 13 c4 -9 0 -23 -9 -32 -13 -14 -15 -12 -15 17 0 34 14 43 24
15z m-44 -78 c0 -16 -6 -25 -15 -25 -9 0 -15 9 -15 25 0 16 6 25 15 25 9 0 15
-9 15 -25z m48 -3 c2 -15 -2 -22 -12 -22 -11 0 -16 9 -16 26 0 31 23 28 28 -4z
m-145 3 c-3 -9 -8 -14 -10 -11 -3 3 -2 9 2 15 9 16 15 13 8 -4z m43 -23 c-4
-3 -12 0 -19 7 -9 9 -9 14 3 21 11 7 16 5 18 -6 2 -9 1 -18 -2 -22z"/>
<path class="st1" d="M4123 1045 c0 -22 2 -30 4 -17 2 12 2 30 0 40 -3 9 -5 -1 -4 -23z"/>
<path class="st1" d="M5550 1060 c0 -5 7 -7 15 -4 8 4 15 8 15 10 0 2 -7 4 -15 4 -8 0 -15
-4 -15 -10z"/>
<path class="st1" d="M5592 1050 c0 -14 2 -19 5 -12 2 6 2 18 0 25 -3 6 -5 1 -5 -13z"/>
<path class="st1" d="M3753 1008 c25 -31 48 -66 52 -78 4 -12 9 -19 12 -16 9 8 -43 89 -78
121 -24 23 -21 17 14 -27z"/>
<path class="st1" d="M2864 935 c0 -60 1 -84 3 -52 2 32 2 81 0 110 -2 29 -3 3 -3 -58z"/>
<path class="st1" d="M5517 1020 c3 -11 9 -22 13 -25 5 -3 6 4 3 15 -3 11 -9 22 -13 25 -5
3 -6 -4 -3 -15z"/>
<path class="st1" d="M5519 968 c-6 -22 -5 -38 3 -38 6 0 8 6 5 14 -3 8 -1 17 6 20 9 3 9
5 0 5 -7 1 -13 0 -14 -1z"/>
<path class="st1" d="M3718 931 c13 -9 24 -24 26 -31 8 -43 19 -70 28 -70 24 0 -31 113
-57 116 -18 3 -18 2 3 -15z"/>
<path class="st1" d="M4570 930 c0 -5 5 -10 11 -10 5 0 7 5 4 10 -3 6 -8 10 -11 10 -2 0
-4 -4 -4 -10z"/>
<path class="st1" d="M3789 885 c17 -54 21 -61 16 -25 -3 19 -10 39 -15 44 -7 7 -7 1 -1
-19z"/>
<path class="st1" d="M4583 870 c0 -25 2 -35 4 -22 2 12 2 32 0 45 -2 12 -4 2 -4 -23z"/>
<path class="st1" d="M2052 860 c0 -14 2 -19 5 -12 2 6 2 18 0 25 -3 6 -5 1 -5 -13z"/>
<path class="st1" d="M3120 858 c0 -16 5 -28 10 -28 13 0 13 20 0 40 -8 12 -10 9 -10 -12z"/>
<path class="st1" d="M3462 840 c0 -14 2 -19 5 -12 2 6 2 18 0 25 -3 6 -5 1 -5 -13z"/>
<path class="st1" d="M3831 844 c0 -11 3 -14 6 -6 3 7 2 16 -1 19 -3 4 -6 -2 -5 -13z"/>
<path class="st1" d="M2862 795 c0 -16 2 -22 5 -12 2 9 2 23 0 30 -3 6 -5 -1 -5 -18z"/>
<path class="st1" d="M3305 809 c-4 -6 -4 -13 0 -17 4 -4 10 -1 12 6 3 6 10 9 15 6 7 -4 8
-2 4 4 -9 15 -23 15 -31 1z"/>
<path class="st1" d="M5553 805 c0 -8 4 -12 9 -9 5 3 6 10 3 15 -9 13 -12 11 -12 -6z"/>
<path class="st1" d="M1078 713 c6 -2 18 -2 25 0 6 3 1 5 -13 5 -14 0 -19 -2 -12 -5z"/>
<path class="st1" d="M1163 713 c9 -2 23 -2 30 0 6 3 -1 5 -18 5 -16 0 -22 -2 -12 -5z"/>
<path class="st1" d="M5550 718 c-2 -5 -4 -12 -5 -18 -1 -5 -4 -13 -5 -17 -1 -5 -2 -12 -1
-17 1 -4 -4 -14 -10 -22 -7 -8 -9 -17 -5 -21 3 -3 6 -2 6 4 0 10 29 14 31 4 4
-29 9 -45 20 -55 9 -8 10 -8 5 2 -4 7 -10 24 -12 38 -3 15 -12 33 -20 41 -11
11 -12 18 -3 29 6 7 9 19 6 26 -3 7 -6 10 -7 6z"/>
<path class="st1" d="M1015 691 c-16 -10 -39 -28 -49 -40 -11 -11 -25 -21 -33 -21 -19 0
-16 -17 5 -29 15 -8 17 -30 19 -188 l1 -178 185 -3 c176 -2 185 -2 190 17 3
11 2 22 -1 26 -8 8 -12 28 -21 130 l-8 90 -4 -118 c-3 -89 -1 -117 9 -117 6 0
12 -4 12 -10 0 -14 -347 -14 -355 0 -3 6 2 10 12 11 10 0 13 3 6 6 -10 3 -13
46 -13 165 0 123 3 159 13 156 9 -4 13 -48 15 -166 l2 -162 78 2 77 2 -70 5
c-69 6 -69 6 -40 20 19 9 66 16 123 17 94 1 94 1 89 -22 -2 -13 0 -24 6 -24 6
0 7 59 3 165 -7 162 -7 165 13 165 18 0 21 -7 22 -47 l2 -48 6 54 c4 30 12 56
19 59 7 2 12 11 12 20 0 13 -4 11 -16 -6 -23 -33 -63 -29 -95 10 -23 28 -33
32 -88 36 -46 3 -67 0 -87 -13 -33 -21 -84 -27 -77 -8 3 7 24 24 47 38 22 14
37 25 31 25 -5 0 -23 -8 -40 -19z m-5 -81 c0 -5 -13 -10 -29 -10 -17 0 -33 5
-36 10 -4 6 8 10 29 10 20 0 36 -4 36 -10z m40 -38 c0 -9 -6 -12 -16 -8 -12 4
-15 2 -10 -9 3 -8 1 -15 -4 -15 -6 0 -10 10 -10 23 0 16 6 23 20 23 11 0 20
-7 20 -14z m-23 -57 c0 -8 -4 -12 -9 -9 -4 3 -8 9 -8 15 0 5 4 9 8 9 5 0 9 -7
9 -15z m8 -64 c-1 -8 5 -23 13 -32 24 -28 23 -97 -2 -115 -11 -7 -24 -14 -28
-14 -15 0 -8 43 9 62 14 15 14 18 2 13 -10 -4 -16 0 -16 10 0 10 6 14 16 10
13 -4 12 -2 -1 9 -12 9 -18 27 -18 55 0 35 2 40 14 29 7 -7 13 -19 11 -27z
m35 8 c0 -5 -4 -9 -8 -9 -5 0 -9 7 -9 15 0 8 4 12 9 9 4 -3 8 -9 8 -15z"/>
<path class="st1" d="M1242 690 c20 -11 44 -30 52 -42 9 -12 18 -20 20 -17 12 12 -73 80
-99 79 -5 -1 7 -10 27 -20z"/>
<path class="st1" d="M3300 691 c0 -13 26 -32 33 -24 11 10 8 25 -3 18 -5 -3 -10 -1 -10 4
0 6 -4 11 -10 11 -5 0 -10 -4 -10 -9z"/>
<path class="st1" d="M3777 683 c-11 -10 -8 -75 3 -68 5 3 9 21 8 40 -1 38 -1 38 -11 28z"/>
<path class="st1" d="M4588 683 c7 -3 16 -2 19 1 4 3 -2 6 -13 5 -11 0 -14 -3 -6 -6z"/>
<path class="st1" d="M4960 675 c0 -13 -30 -15 -207 -15 -142 0 -204 -3 -197 -10 12 -12
225 -14 339 -4 64 6 75 9 75 25 0 11 -2 19 -5 19 -3 0 -5 -7 -5 -15z"/>
<path class="st1" d="M3132 645 c0 -16 2 -22 5 -12 2 9 2 23 0 30 -3 6 -5 -1 -5 -18z"/>
<path class="st1" d="M2655 610 c4 -7 2 -16 -6 -21 -11 -7 -9 -9 8 -9 23 0 26 31 3 38 -8
3 -10 0 -5 -8z"/>
<path class="st1" d="M4305 600 c-3 -5 -15 -10 -25 -10 -10 0 -21 -4 -24 -8 -3 -5 8 -6 24
-4 16 2 31 10 34 18 6 16 0 19 -9 4z"/>
<path class="st1" d="M3413 565 c0 -22 2 -30 4 -17 2 12 2 30 0 40 -3 9 -5 -1 -4 -23z"/>
<path class="st1" d="M4121 584 c0 -11 3 -14 6 -6 3 7 2 16 -1 19 -3 4 -6 -2 -5 -13z"/>
<path class="st1" d="M4326 585 c-3 -8 -1 -15 4 -15 13 0 22 18 11 24 -5 3 -11 -1 -15 -9z"/>
<path class="st1" d="M2709 576 c8 -10 11 -42 9 -95 -2 -45 0 -81 5 -81 4 0 7 40 7 89 0
73 -3 90 -16 95 -14 5 -15 4 -5 -8z"/>
<path class="st1" d="M3522 570 c0 -14 2 -19 5 -12 2 6 2 18 0 25 -3 6 -5 1 -5 -13z"/>
<path class="st1" d="M4386 583 c7 -4 14 -19 17 -33 4 -22 5 -21 4 4 -1 17 -9 31 -17 33
-10 3 -11 2 -4 -4z"/>
<path class="st1" d="M2590 490 c0 -99 -4 -93 68 -92 19 0 36 3 40 6 3 3 -18 6 -47 6 l-52
0 3 85 c2 47 0 85 -4 85 -5 0 -8 -40 -8 -90z"/>
<path class="st1" d="M3132 550 c0 -19 2 -27 5 -17 2 9 2 25 0 35 -3 9 -5 1 -5 -18z"/>
<path class="st1" d="M4252 530 c0 -14 2 -19 5 -12 2 6 2 18 0 25 -3 6 -5 1 -5 -13z"/>
<path class="st1" d="M4358 543 c7 -3 16 -2 19 1 4 3 -2 6 -13 5 -11 0 -14 -3 -6 -6z"/>
<path class="st1" d="M4131 524 c0 -11 3 -14 6 -6 3 7 2 16 -1 19 -3 4 -6 -2 -5 -13z"/>
<path class="st1" d="M3133 440 c0 -41 2 -58 4 -37 2 20 2 54 0 75 -2 20 -4 3 -4 -38z"/>
<path class="st1" d="M3779 494 c-4 -90 -3 -164 3 -164 4 0 7 8 7 18 0 9 0 48 1 86 1 37
-1 71 -4 74 -3 3 -6 -3 -7 -14z"/>
<path class="st1" d="M3410 479 c0 -19 -2 -20 -17 -8 -15 12 -16 12 -10 -3 3 -10 2 -18 -3
-18 -6 0 -10 6 -10 13 0 7 -7 4 -15 -7 -21 -27 -19 -38 4 -25 20 13 56 5 46
-11 -3 -5 -1 -10 4 -10 6 0 11 20 11 45 0 25 -2 45 -5 45 -3 0 -5 -10 -5 -21z"/>
<path class="st1" d="M4131 453 c0 -29 3 -53 7 -53 4 0 6 17 4 38 -6 64 -10 69 -11 15z"/>
<path class="st1" d="M4404 482 c4 -23 4 -23 -75 -20 -44 2 -78 -1 -76 -6 3 -8 157 -9 165
-2 1 2 -2 14 -8 27 l-11 24 5 -23z"/>
<path class="st1" d="M3524 465 c-9 -22 2 -42 28 -56 23 -12 23 -12 4 10 -19 21 -19 21 7
21 21 0 25 -4 21 -17 -5 -15 -4 -16 5 -3 16 22 13 57 -3 57 -8 0 -14 -5 -13
-10 1 -5 -4 -12 -12 -15 -8 -2 -11 0 -7 6 3 5 -1 13 -9 16 -9 3 -18 -1 -21 -9z"/>
<path class="st1" d="M3375 410 c-3 -5 -1 -10 4 -10 6 0 11 5 11 10 0 6 -2 10 -4 10 -3 0
-8 -4 -11 -10z"/>
<path class="st1" d="M3131 344 c0 -11 3 -14 6 -6 3 7 2 16 -1 19 -3 4 -6 -2 -5 -13z"/>
<path class="st1" d="M3413 275 c0 -44 2 -61 4 -37 2 23 2 59 0 80 -2 20 -4 1 -4 -43z"/>
<path class="st1" d="M1675 320 c-3 -5 -2 -10 4 -10 5 0 13 5 16 10 3 6 2 10 -4 10 -5 0
-13 -4 -16 -10z"/>
<path class="st1" d="M3701 316 c-7 -8 -11 -18 -9 -22 1 -5 -6 -26 -16 -47 -10 -20 -16
-49 -13 -63 4 -23 2 -25 -21 -21 -14 3 -36 1 -49 -4 -16 -6 -25 -4 -31 6 -6
12 -10 12 -25 -5 -16 -19 -15 -20 5 -31 15 -8 22 -8 28 1 11 18 29 3 23 -18
-5 -21 21 -47 37 -37 13 8 13 25 -1 25 -5 0 -7 -4 -4 -10 3 -5 2 -10 -4 -10
-20 0 -24 23 -6 37 27 19 45 16 45 -7 0 -20 0 -20 20 0 26 26 60 26 60 0 0
-11 5 -20 10 -20 6 0 10 25 10 55 0 30 -4 55 -10 55 -5 0 -10 -9 -10 -19 0
-20 -7 -21 -48 -7 -16 5 -22 14 -20 29 3 24 29 30 36 9 2 -7 -2 -10 -12 -6
-16 6 -22 -7 -10 -19 8 -8 44 10 44 22 0 4 -9 18 -20 31 -19 22 -18 46 1 34 5
-3 7 -10 4 -15 -4 -5 -1 -9 4 -9 14 0 14 27 1 35 -5 3 -10 11 -10 16 0 6 5 7
10 4 6 -3 10 -2 10 4 0 17 -17 21 -29 7z"/>
<path class="st1" d="M4438 283 c23 -2 61 -2 85 0 23 2 4 4 -43 4 -47 0 -66 -2 -42 -4z"/>
<path class="st1" d="M4597 283 c18 -2 50 -2 70 0 21 2 7 4 -32 4 -38 0 -55 -2 -38 -4z"/>
<path class="st1" d="M2073 273 c15 -2 37 -2 50 0 12 2 0 4 -28 4 -27 0 -38 -2 -22 -4z"/>
<path class="st1" d="M1178 263 c12 -2 32 -2 45 0 12 2 2 4 -23 4 -25 0 -35 -2 -22 -4z"/>
<path class="st1" d="M5408 253 c7 -3 16 -2 19 1 4 3 -2 6 -13 5 -11 0 -14 -3 -6 -6z"/>
<path class="st1" d="M5448 253 c6 -2 18 -2 25 0 6 3 1 5 -13 5 -14 0 -19 -2 -12 -5z"/>
<path class="st1" d="M3593 204 c-3 -8 0 -21 7 -27 10 -10 11 -7 5 13 -7 22 -6 23 9 11 18
-15 32 -9 21 8 -9 16 -35 13 -42 -5z"/>
<path class="st1" d="M5530 185 c0 -8 7 -15 16 -15 9 0 12 -5 8 -12 -12 -19 -8 -78 6 -91
10 -9 11 -9 6 3 -4 8 1 5 10 -7 9 -13 26 -23 38 -22 21 0 21 0 -1 9 -13 5 -23
14 -23 20 0 6 -7 19 -16 27 -11 11 -14 27 -11 50 5 26 2 35 -14 43 -15 8 -19
7 -19 -5z"/>
<path class="st1" d="M311 174 c0 -11 3 -14 6 -6 3 7 2 16 -1 19 -3 4 -6 -2 -5 -13z"/>
<path class="st1" d="M4120 170 c0 -5 5 -10 10 -10 6 0 10 5 10 10 0 6 -4 10 -10 10 -5 0
-10 -4 -10 -10z"/>
<path class="st1" d="M5580 154 c0 -12 28 -33 35 -26 5 4 5 -1 2 -11 -4 -10 -3 -16 2 -13
5 3 26 -6 47 -20 38 -26 38 -26 19 -3 -11 13 -28 30 -37 37 -9 7 -24 19 -32
27 -14 15 -36 20 -36 9z"/>
<path class="st1" d="M4508 143 c7 -3 16 -2 19 1 4 3 -2 6 -13 5 -11 0 -14 -3 -6 -6z"/>
<path class="st1" d="M558 133 c7 -3 16 -2 19 1 4 3 -2 6 -13 5 -11 0 -14 -3 -6 -6z"/>
<path class="st1" d="M2922 120 c0 -14 2 -19 5 -12 2 6 2 18 0 25 -3 6 -5 1 -5 -13z"/>
<path class="st1" d="M2809 83 c-62 -70 -72 -83 -63 -82 5 0 28 25 52 55 46 58 52 72 11
27z"/>
<path class="st1" d="M3690 93 c0 -15 2 -16 10 -3 8 13 10 12 10 -4 0 -14 -5 -17 -26 -13
-17 3 -22 1 -15 -6 13 -13 61 0 61 17 0 8 -7 17 -16 20 -23 9 -24 8 -24 -11z"/>
<path class="st1" d="M3305 90 c-3 -5 1 -13 10 -16 22 -9 29 1 11 15 -10 8 -16 9 -21 1z"/>
<path class="st1" d="M1742 64 c-11 -11 -10 -14 2 -14 8 0 18 5 21 10 4 6 10 8 15 5 5 -3
11 -2 14 3 9 14 -39 11 -52 -4z"/>
<path class="st1" d="M1878 73 c7 -3 16 -2 19 1 4 3 -2 6 -13 5 -11 0 -14 -3 -6 -6z"/>
<path class="st1" d="M1907 60 c-10 -13 -10 -13 5 -2 13 10 17 10 22 0 5 -10 7 -10 12 0 3
6 11 9 16 6 6 -4 8 -2 4 4 -9 15 -45 11 -59 -8z"/>
<path class="st1" d="M1660 51 c0 -6 5 -13 12 -17 6 -4 8 -3 4 4 -3 6 2 13 11 15 14 4 13
5 -4 6 -13 0 -23 -3 -23 -8z"/>
<path class="st1" d="M3471 44 c0 -11 3 -14 6 -6 3 7 2 16 -1 19 -3 4 -6 -2 -5 -13z"/>
<path class="st1" d="M5512 30 c0 -19 2 -27 5 -17 2 9 2 25 0 35 -3 9 -5 1 -5 -18z"/>
<path class="st1" d="M1945 41 c-11 -5 -23 -6 -28 -4 -4 2 -6 -1 -5 -9 2 -7 -6 -13 -19
-13 -12 0 -25 -4 -29 -8 -4 -4 4 -7 19 -7 14 0 29 4 32 10 3 5 11 10 16 10 6
0 7 -5 3 -12 -4 -7 -3 -8 5 -4 6 4 8 13 4 19 -3 7 4 3 18 -8 13 -11 19 -13 12
-6 -6 7 -9 20 -6 27 6 16 6 16 -22 5z"/>
<path class="st1" d="M3842 25 c0 -17 2 -22 5 -12 2 9 2 23 0 30 -3 6 -5 -1 -5 -18z"/>
<path class="st1" d="M2711 17 c-8 -10 -7 -14 2 -14 8 0 14 6 14 14 0 7 -1 13 -2 13 -2 0
-8 -6 -14 -13z"/>
<path class="st1" d="M4245 21 c-3 -5 -1 -12 5 -16 5 -3 10 1 10 9 0 18 -6 21 -15 7z"/>
<path class="st1" d="M2120 10 c0 -5 11 -9 25 -8 14 1 25 6 25 10 0 4 -11 8 -25 8 -14 0
-25 -4 -25 -10z"/>
</g>
</svg>
