<?xml version="1.0" standalone="no"?>
<!DOCTYPE svg PUBLIC "-//W3C//DTD SVG 20010904//EN"
 "http://www.w3.org/TR/2001/REC-SVG-20010904/DTD/svg10.dtd">
<svg version="1.0" xmlns="http://www.w3.org/2000/svg"
 width="1024.000000pt" height="1024.000000pt" viewBox="0 0 1024.000000 1024.000000"
 preserveAspectRatio="xMidYMid meet">

<g transform="translate(0.000000,1024.000000) scale(0.100000,-0.100000)"
fill="#000000" stroke="none">
<path class="st0" d="M9330 9979 c-77 -12 -208 -80 -275 -140 -123 -113 -249 -319 -308
-504 -68 -210 -93 -502 -67 -766 21 -215 108 -618 160 -741 5 -13 29 -79 54
-148 24 -69 70 -192 101 -275 181 -476 260 -717 307 -940 20 -98 23 -137 23
-350 0 -191 -4 -259 -18 -333 -44 -225 -125 -413 -241 -558 -95 -118 -151
-157 -397 -273 -83 -39 -162 -108 -183 -162 -23 -56 -10 -68 24 -21 36 50 75
66 149 59 140 -12 247 -122 287 -294 37 -158 -29 -351 -163 -475 -95 -87 -215
-132 -354 -130 -248 4 -398 183 -334 399 27 90 118 151 212 140 105 -12 173
-121 128 -207 -21 -41 -53 -60 -102 -60 -50 0 -64 17 -52 68 6 29 5 32 -5 21
-8 -8 -16 -29 -20 -47 -16 -90 132 -99 194 -12 30 42 38 116 17 157 -74 142
-274 145 -366 6 -41 -62 -55 -115 -47 -186 13 -125 78 -212 201 -268 142 -66
335 -48 500 46 217 124 384 327 507 615 175 410 232 826 179 1295 -26 225 -43
315 -97 530 -69 274 -156 539 -329 1000 -87 231 -136 366 -150 415 -118 397
-152 578 -162 850 -6 176 7 372 32 496 78 374 341 724 547 727 62 1 72 -10 55
-54 -25 -60 1 -142 57 -182 43 -30 132 -31 173 -1 54 40 75 83 71 142 -7 84
-73 139 -193 161 -32 6 -59 10 -59 10 -1 -1 -26 -5 -56 -10z m131 -35 c27 -9
52 -20 55 -25 2 -4 -13 -17 -34 -28 -60 -31 -78 -88 -42 -134 27 -34 71 -43
112 -23 17 9 33 14 36 11 9 -9 -59 -64 -88 -70 -64 -14 -150 60 -150 129 0 17
9 46 20 64 24 38 21 45 -20 62 -23 9 -28 15 -18 21 21 14 75 10 129 -7z m-82
-4060 c1 -159 -13 -265 -54 -399 -48 -155 -105 -247 -229 -370 -121 -121 -203
-167 -348 -199 -40 -9 -35 -21 15 -36 172 -51 291 -231 274 -416 -6 -65 -31
-140 -54 -164 -13 -13 -14 -4 -8 75 15 204 -61 367 -207 445 -53 28 -73 34
-125 33 -35 0 -63 3 -63 7 0 13 49 42 190 111 198 98 296 187 401 360 54 90
101 206 130 317 26 104 49 239 49 293 0 26 3 62 7 80 7 33 7 33 14 9 4 -14 7
-79 8 -146z m2 -724 c-41 -182 -84 -281 -153 -356 -36 -39 -46 -44 -84 -44
-52 0 -74 25 -74 83 0 46 33 84 82 94 74 15 180 162 242 337 3 10 8 17 11 14
2 -2 -8 -60 -24 -128z"/>
<path class="st0" d="M9305 8936 c-67 -34 -147 -106 -179 -160 -14 -24 -37 -79 -52 -122
-25 -73 -27 -92 -27 -239 0 -140 3 -175 28 -280 56 -244 188 -651 320 -990
127 -327 271 -904 320 -1290 18 -140 21 -519 6 -665 -32 -290 -119 -599 -241
-845 -164 -334 -398 -559 -715 -691 -38 -16 -62 -30 -53 -32 24 -5 178 60 260
108 85 51 224 166 300 249 l56 62 4 -118 c4 -138 25 -197 86 -238 53 -36 58
-31 13 11 -55 49 -74 104 -74 217 0 101 29 209 76 284 98 155 210 454 266 708
52 240 77 546 61 771 -23 347 -111 773 -256 1244 -97 314 -127 473 -128 690
-1 136 1 148 25 200 33 70 79 120 112 120 40 0 92 -41 95 -77 4 -36 -22 -67
-50 -60 -12 4 -18 1 -15 -6 5 -16 52 -21 76 -7 26 14 61 81 61 117 0 36 -33
90 -63 104 -48 22 -136 -21 -196 -94 -63 -77 -100 -246 -82 -377 18 -134 21
-170 12 -170 -28 0 -205 566 -257 820 -24 120 -25 361 0 449 25 91 50 137 110
197 114 113 234 135 340 61 55 -39 84 -155 53 -217 -22 -43 -76 -72 -125 -67
-50 5 -78 27 -87 67 -7 30 17 90 35 90 6 0 10 5 10 10 0 19 -22 10 -51 -21
-51 -54 -29 -138 44 -172 63 -30 121 -15 175 47 38 44 46 70 40 142 -9 108
-90 179 -219 190 -55 5 -71 2 -114 -20z"/>
<path class="st0" d="M8638 7948 c-65 -70 -114 -220 -105 -328 2 -36 14 -92 26 -125 12
-33 22 -64 24 -70 1 -5 -20 -12 -48 -16 -71 -10 -99 -23 -149 -70 -55 -50 -78
-106 -74 -179 3 -61 28 -85 28 -27 0 42 29 81 81 107 142 73 396 -69 532 -299
104 -175 145 -324 176 -641 l8 -85 2 102 c1 121 -12 223 -45 353 -52 199 -151
431 -279 655 -84 146 -118 222 -149 338 -34 122 -34 188 -1 253 14 27 25 52
25 57 0 16 -23 5 -52 -25z"/>
<path class="st0" d="M8349 6946 c-60 -16 -111 -48 -145 -93 -22 -29 -28 -49 -32 -108 -5
-78 6 -111 52 -154 31 -29 117 -39 155 -19 60 32 81 107 44 155 -41 56 -113
51 -151 -9 l-19 -30 -17 23 c-53 76 26 198 141 215 68 10 140 -11 232 -67 129
-80 202 -197 231 -369 32 -190 -37 -416 -162 -537 -77 -74 -215 -111 -314 -84
-62 17 -129 67 -166 124 -30 47 -33 59 -33 127 0 67 3 80 30 120 61 89 160
130 249 100 43 -14 85 -65 93 -114 13 -82 -30 -136 -109 -136 -30 0 -47 -4
-43 -10 12 -19 90 -11 126 13 101 68 57 233 -73 272 -75 22 -168 -6 -241 -74
-127 -116 -80 -329 92 -415 190 -97 389 -17 504 202 56 106 81 224 73 347 -3
55 -9 114 -12 130 l-5 30 20 -23 c49 -56 100 -247 108 -404 16 -329 -97 -632
-312 -837 -124 -118 -258 -168 -401 -151 -231 29 -358 250 -225 391 44 46 84
51 137 18 62 -38 96 -129 59 -159 -21 -17 -19 -30 5 -30 12 0 39 17 62 38 36
34 42 45 46 93 4 49 1 59 -24 88 -129 153 -364 39 -364 -177 0 -34 6 -78 14
-96 36 -85 151 -165 271 -187 179 -33 374 60 529 250 100 123 194 350 217 526
17 132 6 336 -24 456 -93 360 -382 624 -618 565z"/>
<path class="st0" d="M7837 5020 c-236 -40 -427 -302 -427 -585 0 -127 46 -276 126 -405
59 -97 59 -101 -12 -76 -141 49 -284 13 -334 -84 -24 -47 -27 -144 -6 -193 41
-100 190 -138 268 -68 64 57 40 170 -44 198 -37 12 -78 8 -78 -9 0 -6 7 -7 16
-4 21 8 80 -18 93 -42 21 -39 13 -101 -15 -129 -23 -23 -31 -25 -82 -20 -96
10 -146 69 -139 167 4 71 28 119 74 150 31 21 47 25 117 25 55 0 95 -6 124
-18 44 -18 146 -83 257 -165 135 -99 302 -159 495 -178 91 -9 68 6 -34 22
-318 51 -572 225 -700 479 -65 129 -88 217 -89 335 0 178 61 329 170 414 63
50 108 66 182 66 81 0 117 -29 71 -57 -23 -15 -45 -55 -54 -100 -15 -70 40
-170 111 -199 47 -20 127 -17 171 5 54 28 82 58 110 119 20 45 24 64 19 113
-10 114 -79 187 -216 229 -67 21 -96 23 -174 10z m109 -75 c51 -15 124 -75
124 -102 0 -8 -12 -13 -30 -13 -44 0 -93 -23 -119 -56 -33 -41 -25 -105 18
-148 28 -28 38 -31 90 -31 46 0 66 5 91 23 31 24 49 24 35 2 -4 -7 -28 -25
-53 -41 -96 -61 -224 -17 -257 89 -19 63 25 161 82 183 13 5 21 14 18 19 -13
20 -87 51 -138 57 l-52 6 30 13 c40 18 101 17 161 -1z"/>
<path class="st0" d="M9592 3944 c-35 -18 -62 -59 -62 -94 0 -26 17 -60 31 -60 6 0 6 7 -1
19 -18 34 -11 62 25 98 32 32 40 35 73 30 72 -12 118 -97 94 -175 -14 -46 -8
-53 12 -13 22 41 20 84 -4 131 -35 69 -106 95 -168 64z"/>
<path class="st0" d="M9356 3575 c-48 -17 -58 -30 -53 -72 2 -25 -2 -34 -15 -39 -25 -7
-58 -53 -58 -78 0 -40 24 -70 65 -82 52 -14 56 -37 11 -58 -81 -38 -198 -5
-297 87 -87 80 -111 99 -170 133 -86 51 -177 82 -276 95 -80 11 -96 10 -170
-9 -121 -31 -192 -85 -221 -171 -16 -47 -15 -79 7 -127 20 -45 68 -74 120 -74
33 0 39 11 17 29 -40 33 -20 117 36 151 86 52 236 -7 269 -108 17 -53 -5 -119
-49 -145 l-35 -21 29 -23 c16 -13 42 -34 57 -48 23 -19 29 -21 34 -9 3 8 20
21 37 29 17 8 39 20 48 27 14 10 21 9 37 -6 12 -11 21 -26 21 -35 0 -9 4 -23
10 -31 21 -33 80 56 80 122 l0 33 20 -25 c23 -30 75 -159 89 -221 6 -24 11
-91 11 -149 l0 -106 -121 -53 c-140 -61 -182 -70 -237 -48 -37 15 -41 15 -55
-1 -8 -9 -17 -26 -19 -37 -2 -13 -10 -19 -23 -17 -42 7 -131 7 -158 -1 -29 -8
-107 -73 -107 -88 0 -5 11 -14 24 -19 14 -5 33 -21 42 -36 16 -23 16 -29 3
-52 -27 -47 -41 -49 -113 -13 -66 34 -102 37 -172 16 -18 -6 -24 -1 -34 29
-10 32 -9 39 10 66 55 77 110 239 110 326 0 46 12 61 58 70 40 8 42 33 5 73
-38 39 -71 45 -118 21 -22 -11 -42 -17 -46 -12 -16 17 -29 80 -29 135 0 95
-17 135 -82 198 -65 62 -74 96 -36 136 l21 23 -20 0 c-24 0 -76 -48 -98 -90
-26 -50 -28 -101 -7 -157 21 -57 20 -63 -14 -63 -66 0 -102 -46 -88 -112 8
-35 13 -42 29 -40 99 15 104 14 138 -7 125 -77 186 -258 137 -405 -12 -36 -26
-66 -32 -66 -5 0 -23 9 -38 20 -79 56 -206 69 -286 29 -59 -29 -74 -57 -19
-33 51 21 98 10 135 -32 37 -42 41 -102 10 -141 -12 -16 -20 -41 -20 -65 0
-34 -3 -39 -17 -33 -10 4 -43 9 -74 12 -64 6 -89 -10 -89 -58 0 -22 -6 -30
-24 -35 -14 -3 -34 -3 -45 1 -17 5 -21 2 -21 -17 0 -59 94 -148 157 -148 26 0
33 -4 33 -19 0 -27 39 -71 76 -87 42 -18 41 -18 40 8 -1 13 9 27 25 36 22 13
29 13 54 1 17 -8 31 -22 33 -32 2 -10 -18 -68 -44 -130 -26 -62 -64 -164 -85
-227 l-37 -115 -108 2 c-130 2 -246 32 -365 94 -120 63 -155 102 -73 81 64
-17 148 -23 164 -13 12 8 11 16 -8 49 -27 49 -27 63 -2 84 45 40 30 122 -29
152 -28 15 -29 15 -35 -10 -12 -46 -50 -74 -99 -74 -87 0 -165 52 -203 135
-56 120 0 216 118 202 26 -3 48 -2 48 2 0 22 -50 78 -84 95 -44 22 -114 23
-153 2 -39 -20 -87 -73 -114 -126 -31 -63 -39 -230 -14 -315 36 -126 80 -192
210 -320 85 -84 128 -135 144 -170 28 -60 34 -151 11 -165 -11 -7 -18 -5 -25
7 -32 53 -98 72 -136 37 -15 -14 -20 -13 -50 5 -43 26 -69 26 -102 1 -35 -28
-50 -83 -36 -130 9 -30 8 -43 -5 -68 -9 -17 -16 -38 -16 -47 0 -35 34 -87 67
-103 32 -15 33 -17 33 -79 0 -35 4 -63 9 -63 5 0 27 18 49 40 39 40 42 40 104
38 50 -2 77 4 133 27 61 25 83 29 170 29 81 0 113 -4 167 -23 84 -30 174 -100
183 -142 8 -36 -16 -69 -51 -69 -37 0 -16 -41 35 -67 52 -26 94 -18 130 26
l25 29 72 -49 c40 -26 75 -54 77 -61 9 -21 37 21 37 55 0 37 -27 95 -52 110
-24 15 -23 21 7 51 36 36 33 79 -7 117 -41 37 -51 36 -65 -2 -12 -30 -13 -31
-35 -17 -13 8 -34 42 -48 74 -23 55 -25 71 -25 221 0 89 2 164 5 167 3 3 24 8
47 12 l40 6 0 -41 c0 -81 67 -131 152 -115 50 10 61 25 29 39 -12 6 -26 18
-32 27 -21 35 57 88 131 88 56 0 81 -22 85 -72 2 -23 9 -43 16 -46 7 -2 30 14
52 36 33 33 40 47 40 78 0 46 -30 100 -65 116 -14 6 -25 15 -25 19 0 5 37 20
83 35 108 34 279 44 380 20 134 -31 247 -107 303 -204 23 -40 28 -59 28 -124
1 -74 0 -78 -33 -112 -27 -28 -43 -36 -70 -36 -43 0 -56 8 -66 38 -5 16 -1 29
11 43 16 18 16 20 -1 39 -26 28 -91 27 -123 -2 -19 -17 -26 -20 -30 -10 -9 29
-66 84 -100 97 -77 33 -189 5 -234 -58 -23 -33 -17 -48 10 -24 10 10 34 17 53
17 43 0 84 -39 104 -96 l13 -39 -36 -8 c-58 -12 -63 -21 -39 -77 l21 -50 -24
-25 c-15 -16 -21 -29 -14 -33 106 -71 167 -92 270 -92 132 0 235 46 323 146
69 79 106 222 83 322 -5 23 -6 42 -2 42 5 0 37 -22 72 -48 81 -62 122 -135
114 -201 -4 -25 -13 -52 -22 -62 -22 -24 -64 -30 -98 -13 -16 8 -31 14 -34 14
-10 0 11 -58 34 -93 43 -66 152 -97 214 -62 35 20 35 20 55 -30 38 -100 158
-180 287 -192 90 -9 178 34 178 86 0 9 -10 4 -27 -14 -25 -24 -34 -27 -76 -22
-85 8 -139 71 -152 178 l-7 56 33 7 c39 8 99 62 99 89 0 14 -4 17 -17 12 -48
-20 -93 9 -93 60 0 18 7 38 15 45 22 18 18 38 -12 66 -23 21 -35 25 -67 21
-35 -5 -42 -2 -72 30 -32 34 -37 35 -81 30 -43 -4 -59 0 -142 42 -52 26 -96
51 -98 56 -2 6 38 10 100 10 90 0 109 3 159 27 100 46 206 166 250 280 20 54
25 189 8 250 -13 46 -63 97 -102 105 -38 7 -68 47 -68 89 0 39 -1 39 -40 19
-39 -20 -70 -62 -70 -96 0 -27 -3 -29 -36 -29 -28 0 -44 8 -70 34 -42 42 -44
77 -8 111 l27 25 -30 0 c-23 0 -40 -10 -66 -39 -76 -84 -71 -170 13 -254 l49
-49 -20 -39 c-27 -50 -19 -87 28 -135 34 -36 35 -36 49 -15 17 24 41 26 67 7
28 -21 21 -64 -16 -101 -41 -41 -91 -52 -160 -36 -141 32 -232 124 -293 296
-26 72 -29 93 -29 210 0 126 11 191 45 280 l12 30 13 -33 c37 -87 120 -109
181 -48 26 26 34 42 34 70 0 39 -8 43 -41 24 -32 -20 -59 20 -59 87 0 81 59
139 89 88 9 -16 12 -16 21 -3 16 25 11 65 -13 101 -21 31 -27 34 -79 37 l-57
3 6 52 c3 29 12 57 20 64 39 31 282 29 370 -3 78 -29 144 -122 113 -159 -7 -8
-19 -15 -26 -15 -17 0 -18 -12 -2 -28 27 -27 94 -7 120 35 l15 25 23 -37 c27
-44 116 -91 151 -80 19 6 19 8 5 24 -9 10 -16 28 -16 42 0 45 -20 94 -50 126
-16 18 -30 34 -30 36 0 3 14 10 30 17 69 29 80 94 24 146 -19 19 -39 34 -43
34 -5 0 -11 -13 -14 -30 -14 -67 -105 -42 -163 46 -46 69 -73 141 -80 212 -7
61 15 210 43 294 10 33 14 66 10 99 -6 45 -3 53 20 77 l26 26 -24 19 c-20 16
-34 18 -81 14 -32 -3 -61 -1 -64 4 -10 16 -78 46 -119 53 -24 3 -55 0 -79 -9z
m161 -51 c13 -8 30 -25 39 -39 l16 -24 28 21 c36 26 65 18 53 -14 -4 -13 -7
-51 -5 -86 3 -67 -6 -91 -46 -134 -37 -40 -52 -36 -53 15 -1 65 -17 94 -18 32
-1 -62 -38 -145 -77 -172 -73 -52 -185 -66 -285 -37 -64 19 -108 52 -49 38 63
-16 153 -10 190 12 67 39 100 123 67 168 -8 10 -31 21 -53 25 -35 6 -39 9 -42
40 -4 43 21 71 65 71 38 0 39 2 17 35 -9 14 -14 31 -11 40 13 32 117 38 164 9z
m-883 1 c123 -29 232 -90 361 -204 39 -34 92 -73 118 -87 27 -14 46 -28 43
-32 -4 -3 -43 13 -88 36 -45 23 -83 40 -86 38 -2 -3 28 -26 68 -52 74 -49 82
-71 14 -35 -45 24 -72 28 -56 8 6 -7 27 -50 46 -95 39 -90 64 -196 67 -285 3
-62 19 -91 20 -35 0 27 2 30 9 13 14 -34 11 -274 -5 -340 -8 -33 -15 -73 -15
-90 0 -27 2 -25 24 22 14 28 33 56 45 62 32 18 69 13 85 -11 21 -30 20 -38 -6
-38 -30 -1 -51 -18 -71 -56 -41 -79 -26 -168 33 -202 34 -20 34 -28 -3 -56
-57 -42 -116 13 -126 116 -3 35 -9 58 -13 52 -5 -7 -35 -93 -68 -193 -52 -154
-62 -197 -69 -288 -9 -117 0 -177 41 -263 28 -59 150 -181 213 -212 183 -93
385 -24 385 132 0 55 -13 76 -60 100 -46 24 -68 25 -94 5 -14 -11 -23 -12 -33
-4 -32 27 -3 108 47 129 16 7 30 16 30 20 0 4 -19 15 -42 25 -74 29 -118 84
-118 147 0 38 18 71 27 50 14 -35 58 -72 96 -82 23 -6 66 -20 95 -31 29 -12
55 -19 58 -16 3 3 -4 19 -16 35 -16 21 -21 40 -18 72 2 24 9 45 16 48 6 2 12
-3 12 -12 0 -20 58 -86 75 -86 23 0 61 -43 74 -83 16 -47 8 -57 -22 -29 -35
33 -52 28 -27 -8 17 -23 20 -41 18 -87 l-3 -58 -18 32 c-26 48 -76 102 -111
120 -30 15 -30 14 10 -28 49 -52 89 -127 99 -187 30 -181 -180 -336 -377 -278
-124 36 -287 176 -348 299 -45 91 -60 159 -60 270 0 118 15 193 86 440 74 257
85 311 91 468 7 160 -7 268 -46 380 -39 111 -85 181 -172 263 -105 99 -210
152 -354 182 l-60 12 57 1 c31 0 86 -6 122 -14z m1 -145 c3 -5 2 -10 -4 -10
-5 0 -13 5 -16 10 -3 6 -2 10 4 10 5 0 13 -4 16 -10z m-42 -21 c27 -15 97 -80
97 -91 0 -16 -16 -6 -75 47 -59 53 -65 67 -22 44z m87 -14 c20 -24 6 -28 -15
-5 -10 11 -13 20 -8 20 6 0 16 -7 23 -15z m74 -45 c13 0 60 -49 54 -56 -4 -3
-28 16 -55 42 -26 26 -39 40 -27 31 11 -9 24 -17 28 -17z m76 -154 c0 -9 -4
-16 -8 -16 -11 0 -102 106 -102 118 0 5 -7 15 -15 22 -8 7 -15 17 -15 23 0 5
32 -22 70 -60 39 -39 70 -78 70 -87z m-948 82 c19 -18 49 -46 67 -62 42 -38
51 -62 51 -146 0 -56 6 -82 29 -132 17 -35 33 -76 36 -91 7 -36 29 -30 33 9 5
38 19 54 49 54 29 0 63 -17 63 -31 0 -5 -11 -14 -25 -19 -33 -12 -55 -65 -55
-128 0 -27 -7 -73 -16 -103 -18 -64 -83 -199 -95 -199 -17 0 -19 21 -4 51 68
130 58 264 -28 390 -61 91 -80 102 -179 105 l-83 3 -3 29 c-2 22 4 35 24 51
34 26 79 27 140 1 26 -11 49 -19 51 -16 2 2 -14 18 -36 36 -49 40 -71 84 -71
142 0 40 8 88 15 88 2 0 18 -15 37 -32z m828 -45 c23 -26 29 -38 20 -41 -13
-5 -70 53 -70 70 0 17 20 6 50 -29z m843 -50 c-24 -142 22 -320 115 -441 14
-18 22 -35 19 -39 -3 -3 -25 2 -49 12 -63 25 -202 43 -288 38 -41 -2 -95 -5
-120 -6 l-45 -2 -7 80 c-6 80 -34 201 -59 262 -7 18 -11 34 -8 37 3 3 29 -1
59 -9 136 -36 256 -10 335 73 21 23 43 42 48 42 4 0 5 -21 0 -47z m-696 -55
c-3 -8 -6 -5 -6 6 -1 11 2 17 5 13 3 -3 4 -12 1 -19z m373 -402 c0 -2 -7 -6
-15 -10 -8 -3 -15 -1 -15 4 0 6 7 10 15 10 8 0 15 -2 15 -4z m-325 -109 c-115
-86 -164 -161 -151 -232 7 -34 6 -36 -16 -33 -21 3 -23 8 -23 65 0 60 2 64 43
106 24 24 71 61 105 81 69 40 87 46 42 13z m855 13 c0 -5 -2 -10 -4 -10 -3 0
-8 5 -11 10 -3 6 -1 10 4 10 6 0 11 -4 11 -10z m-764 -110 c-8 -47 -24 -121
-36 -165 -90 -324 -92 -334 -94 -470 -1 -111 2 -141 22 -205 13 -41 35 -94 49
-118 13 -24 23 -46 20 -48 -3 -3 -31 8 -63 24 -100 50 -184 74 -275 79 -75 5
-100 2 -200 -26 -63 -18 -143 -44 -179 -58 -78 -31 -348 -113 -372 -113 -26 0
-23 16 27 141 50 123 71 162 121 225 30 37 39 42 90 49 31 4 77 16 103 27 25
11 78 28 117 38 40 10 94 32 120 49 l49 30 6 -54 c8 -68 41 -120 92 -140 52
-21 64 -19 98 14 24 24 29 38 29 75 0 39 -6 52 -34 84 -38 41 -59 37 -33 -7
22 -38 22 -93 -2 -122 -16 -20 -23 -22 -47 -14 -36 13 -74 78 -74 127 0 23 14
63 39 110 22 41 51 116 65 167 14 52 27 96 30 98 3 3 15 -2 28 -11 25 -18 65
-21 101 -7 37 14 42 40 12 71 -33 34 -32 68 4 118 44 60 173 143 193 123 4 -4
1 -45 -6 -91z m-1103 -25 c44 -18 86 -61 108 -111 18 -40 20 -54 16 -161 -2
-42 2 -56 22 -77 14 -14 30 -26 38 -26 16 0 16 0 -2 44 -53 126 95 201 189 97
17 -19 18 -23 4 -38 -25 -30 -29 -53 -13 -83 20 -40 63 -60 125 -60 68 0 135
35 195 102 36 41 45 47 40 28 -17 -65 -60 -132 -115 -183 -155 -144 -352 -130
-506 36 -33 34 -74 89 -92 122 -24 43 -31 51 -27 30 11 -49 70 -137 132 -197
62 -58 103 -84 166 -103 50 -15 51 -27 2 -43 -90 -30 -177 -13 -264 52 -20 15
-48 26 -66 26 -35 0 -75 -24 -75 -46 0 -19 -25 -18 -44 2 -18 17 -21 50 -6 59
6 3 10 13 10 21 0 12 -10 13 -48 8 -35 -4 -57 -2 -80 10 -31 16 -76 65 -67 74
2 3 32 4 65 3 33 -1 60 0 60 2 0 3 -7 20 -15 39 -28 69 29 93 117 48 54 -27
92 -22 64 8 -24 27 -21 98 4 114 15 10 20 24 20 54 0 52 -23 130 -47 156 -18
21 -18 21 19 14 21 -4 52 -13 71 -21z m572 -25 c-3 -5 -10 -10 -16 -10 -5 0
-9 5 -9 10 0 6 7 10 16 10 8 0 12 -4 9 -10z m189 -15 c-4 -8 -10 -12 -15 -9
-11 6 -2 24 11 24 5 0 7 -7 4 -15z m-124 -39 c0 -7 -15 -30 -33 -51 -26 -30
-37 -36 -50 -29 -15 9 -14 13 13 33 17 12 35 34 40 47 10 25 30 25 30 0z m42
-21 c-4 -24 -47 -75 -63 -75 -4 0 6 23 23 50 34 55 48 63 40 25z m-1759 -509
c15 -107 120 -271 237 -371 45 -38 93 -76 106 -83 22 -12 25 -32 5 -32 -5 0
-38 23 -75 51 -37 29 -69 49 -72 47 -3 -3 24 -32 60 -64 68 -60 116 -136 116
-183 -1 -22 -5 -19 -26 22 -14 26 -80 105 -147 175 -136 142 -176 205 -207
328 -20 79 -27 169 -11 160 4 -3 11 -26 14 -50z m98 -123 c22 -43 32 -73 25
-73 -24 0 -96 146 -95 195 1 29 1 29 17 -10 9 -22 33 -73 53 -112z m2086 45
c-3 -8 -6 -5 -6 6 -1 11 2 17 5 13 3 -3 4 -12 1 -19z m-1923 -95 c38 -40 64
-73 56 -73 -15 0 -140 126 -140 141 0 17 11 8 84 -68z m850 -43 c-25 -49 -58
-126 -75 -172 -16 -45 -33 -85 -36 -88 -9 -8 6 72 21 110 8 19 24 61 36 92 25
64 75 148 88 148 5 0 -10 -40 -34 -90z m-736 10 c29 -33 48 -60 41 -60 -14 0
-119 99 -119 112 0 22 30 1 78 -52z m60 3 c24 -26 41 -50 40 -55 -4 -11 -85
57 -98 83 -20 37 15 20 58 -28z m1498 -134 c64 -12 178 -61 240 -103 52 -35
39 -33 -48 8 -129 60 -302 90 -393 68 -40 -10 -39 -10 23 -11 89 -1 69 -17
-31 -24 -89 -6 -170 -29 -277 -79 -79 -37 -152 -79 -147 -84 2 -3 28 2 58 9
61 16 100 9 135 -24 29 -27 38 -65 23 -101 -14 -35 -22 -35 -37 -2 -17 35 -93
68 -140 59 -40 -7 -107 -39 -134 -63 -10 -8 -18 -29 -18 -47 0 -41 -6 -46 -41
-33 -64 22 -45 104 32 143 49 25 70 45 47 45 -7 0 -49 -12 -93 -26 -90 -29
-262 -48 -343 -39 -69 9 -57 25 21 26 53 2 47 3 -38 10 -126 11 -180 23 -263
56 -90 36 -137 64 -121 73 8 6 2 13 -19 24 -17 9 -34 21 -38 27 -4 7 21 -3 54
-21 34 -18 59 -37 55 -43 -3 -6 -1 -7 5 -3 6 4 22 0 35 -8 52 -34 187 -60 317
-59 181 0 382 47 649 150 195 76 344 98 487 72z m-50 -52 c4 -4 -2 -7 -14 -7
-11 0 -23 4 -26 8 -6 10 30 9 40 -1z m-1402 -265 c38 -136 8 -252 -80 -311
-58 -38 -106 -46 -169 -27 -63 19 -68 14 -12 -13 27 -13 63 -21 95 -21 42 0
50 -3 46 -15 -12 -31 -88 -65 -144 -65 -36 0 -63 -7 -87 -21 l-35 -22 4 44 c3
37 0 44 -17 47 -28 5 -62 39 -69 68 -9 34 10 64 39 64 31 0 31 7 0 36 -53 49
-34 125 33 132 28 3 36 -3 64 -42 38 -54 49 -58 41 -13 -6 38 13 60 49 55 18
-2 24 -10 26 -35 4 -43 49 -77 89 -67 89 21 118 65 110 163 -2 36 -8 74 -12
84 -4 9 -3 17 3 17 5 0 17 -26 26 -58z m141 24 c50 -14 115 -25 145 -26 30 0
71 -3 90 -6 l35 -6 -3 -95 c-5 -111 11 -259 34 -326 9 -27 14 -50 12 -52 -2
-2 -37 16 -78 41 -114 68 -181 86 -327 85 -68 0 -123 4 -123 8 0 4 12 18 26
32 38 35 72 98 84 155 10 49 2 115 -26 203 -8 27 -20 28 131 -13z m339 -88
c-9 -68 -23 -97 -24 -47 0 50 11 99 22 99 5 0 6 -23 2 -52z m-507 -30 c-3 -8
-6 -5 -6 6 -1 11 2 17 5 13 3 -3 4 -12 1 -19z m2150 1 c24 -11 64 -44 89 -72
l46 -52 -6 43 c-5 33 -3 42 8 42 22 0 64 -56 77 -103 6 -23 13 -48 15 -56 8
-24 22 1 26 43 4 45 28 67 52 47 13 -11 13 -16 -1 -46 -22 -47 -5 -109 38
-133 34 -20 33 -36 -3 -40 -18 -2 -34 5 -52 24 -30 33 -43 26 -28 -13 6 -15
16 -64 22 -108 7 -48 22 -99 38 -128 14 -26 22 -50 19 -54 -12 -12 -84 17
-129 52 -58 44 -91 110 -98 194 -5 69 -24 91 -35 42 -21 -95 -130 -127 -202
-59 -30 28 -29 33 9 36 41 3 92 35 106 67 28 60 4 159 -53 227 -14 17 -23 33
-20 36 9 9 99 -58 125 -94 30 -40 46 -45 26 -6 -15 29 -74 88 -116 116 -35 23
-5 20 47 -5z m-250 -106 c-8 -134 -74 -203 -204 -211 -56 -4 -68 -1 -127 32
-35 20 -76 50 -91 67 -30 37 -44 33 -20 -5 20 -29 11 -34 -17 -9 -15 14 -18
14 -18 1 0 -8 10 -27 21 -42 31 -39 17 -42 -24 -6 -25 22 -45 54 -67 113 -17
45 -39 96 -50 114 -22 37 -18 43 26 43 69 0 108 -30 151 -115 l26 -50 11 26
c17 41 36 59 62 59 27 0 28 -3 13 -31 -12 -24 2 -75 32 -113 38 -48 136 -27
207 44 36 35 52 83 53 155 0 44 1 47 11 25 5 -14 8 -58 5 -97z m-1927 62 c-13
-14 -25 -23 -28 -21 -5 6 31 44 42 45 5 1 -1 -10 -14 -24z m533 -122 c8 -107
32 -180 72 -220 37 -37 37 -38 -9 -19 -25 11 -37 25 -49 57 -25 69 -48 277
-29 265 5 -3 12 -40 15 -83z"/>
<path class="st0" d="M7010 3491 c-63 -20 -122 -66 -149 -118 -21 -42 -13 -133 18 -198 43
-91 119 -155 243 -204 l56 -23 -36 -76 c-35 -72 -37 -83 -37 -173 0 -89 2 -99
30 -145 37 -59 123 -109 207 -119 98 -12 230 51 275 130 59 104 -3 229 -118
242 -36 4 -49 1 -69 -17 -22 -19 -22 -20 -3 -11 98 48 212 -53 183 -161 -20
-72 -135 -148 -224 -148 -139 0 -256 136 -243 284 11 126 111 261 236 319 85
40 208 49 307 22 74 -20 94 -15 34 9 -157 62 -345 27 -470 -90 -26 -24 -56
-44 -66 -44 -35 0 -162 68 -210 112 -58 53 -104 145 -104 207 0 128 164 230
278 172 47 -24 83 -65 129 -148 39 -69 44 -45 7 28 -62 123 -169 181 -274 150z"/>
<path class="st0" d="M6438 3130 c-67 -36 -117 -123 -117 -205 -1 -22 6 -65 14 -95 8 -30
12 -56 10 -58 -2 -2 -44 17 -94 42 -174 88 -339 114 -493 77 -265 -63 -430
-253 -429 -494 0 -100 21 -163 73 -222 55 -62 102 -85 178 -85 101 0 181 49
221 135 36 78 12 190 -52 235 -88 63 -171 59 -238 -11 -20 -22 -39 -39 -43
-39 -16 0 -40 92 -35 134 16 114 88 207 208 271 188 99 426 82 641 -45 133
-79 289 -262 364 -427 39 -84 84 -240 84 -288 0 -16 5 -37 10 -45 13 -20 13
12 0 105 -12 83 -30 142 -76 248 -39 90 -85 160 -176 269 -93 111 -138 203
-138 281 0 102 47 173 129 198 50 15 144 -12 184 -53 27 -26 29 -34 25 -80 -7
-64 -40 -98 -96 -98 -52 0 -81 23 -88 70 -8 47 -24 43 -24 -5 0 -53 35 -87 96
-92 90 -8 151 55 142 147 -7 67 -37 104 -104 129 -68 26 -128 26 -176 1z
m-961 -768 c6 -2 14 7 18 20 19 60 101 107 169 94 66 -13 136 -97 136 -164 0
-41 -23 -93 -60 -132 -37 -40 -51 -33 -20 10 68 95 34 206 -69 226 -69 14
-131 -52 -131 -139 0 -42 -10 -45 -51 -16 -38 27 -66 83 -75 147 -11 88 3 96
39 22 18 -35 37 -66 44 -68z"/>
<path class="st0" d="M4855 2377 c-94 -31 -158 -100 -171 -184 -19 -128 53 -223 162 -210
80 9 134 84 108 151 -9 24 -24 19 -24 -9 0 -17 -9 -29 -31 -40 -78 -41 -172
56 -152 157 7 34 56 85 100 104 106 46 240 -22 305 -153 28 -58 33 -79 36
-162 3 -78 0 -108 -17 -157 -29 -87 -87 -184 -154 -259 -197 -220 -566 -341
-899 -295 -104 14 -234 53 -260 79 -16 15 -7 16 140 16 139 0 165 3 227 24
191 64 301 166 339 313 39 150 -31 305 -169 375 -95 49 -202 30 -280 -50 -57
-58 -76 -109 -76 -194 0 -43 5 -61 26 -89 53 -69 148 -93 212 -54 39 23 66 71
61 108 -4 25 -5 23 -16 -14 -16 -55 -51 -85 -104 -91 -164 -16 -217 201 -77
320 109 94 266 64 356 -66 46 -69 58 -117 45 -198 -33 -218 -219 -354 -502
-366 -197 -9 -314 31 -422 142 -124 128 -157 322 -68 406 53 51 131 63 170 27
22 -21 22 -22 5 -32 -74 -43 -85 -98 -30 -153 31 -31 40 -35 72 -30 82 14 128
110 88 187 -33 63 -137 114 -203 99 -44 -10 -105 -51 -135 -91 -128 -172 16
-462 298 -598 150 -73 274 -100 457 -100 196 0 353 40 553 143 63 32 101 61
175 136 52 53 110 121 128 152 91 155 109 340 47 476 -61 135 -207 216 -320
180z"/>
<path class="st0" d="M6016 2225 c-54 -19 -107 -64 -136 -116 -32 -56 -35 -159 -7 -202 48
-74 141 -106 207 -72 68 35 98 138 51 176 -25 20 -76 26 -86 9 -4 -6 8 -10 28
-10 45 0 61 -20 54 -67 -15 -91 -108 -124 -190 -66 -142 99 -31 333 157 333
78 0 144 -28 203 -86 59 -59 79 -111 89 -233 16 -192 -98 -383 -274 -463 -194
-88 -429 -34 -518 118 -58 98 -55 187 8 247 45 43 44 56 -4 36 -79 -32 -141
-114 -209 -274 -62 -145 -104 -211 -183 -291 -128 -127 -276 -208 -491 -267
-129 -36 -209 -47 -390 -54 -265 -10 -449 31 -1090 241 -646 212 -716 232
-1005 290 -241 48 -375 60 -604 53 -207 -6 -300 -21 -475 -78 -296 -96 -521
-290 -596 -513 -18 -57 -21 -175 -6 -234 14 -52 82 -129 122 -137 88 -20 156
5 194 70 82 140 -56 297 -200 228 -46 -22 -57 -11 -59 59 -2 80 45 168 133
251 232 218 549 327 961 328 199 1 335 -13 540 -57 279 -59 382 -88 755 -210
539 -175 618 -199 890 -269 357 -91 534 -118 835 -129 268 -9 662 66 920 174
41 17 93 38 115 47 128 53 325 193 441 315 194 203 268 451 193 654 -27 74
-58 115 -112 152 -84 58 -182 75 -261 47z m-458 -667 c62 -127 221 -205 403
-196 44 2 79 0 79 -3 0 -19 -111 -53 -186 -57 -179 -10 -312 74 -364 229 l-18
54 -6 -40 c-25 -149 -69 -236 -178 -344 -160 -159 -345 -250 -584 -286 -114
-17 -284 -20 -284 -5 0 6 3 10 8 10 25 0 217 32 269 45 201 50 396 152 511
267 85 84 139 167 208 321 36 78 75 152 87 165 l22 24 5 -69 c4 -40 15 -87 28
-115z m50 -318 c69 -65 17 -151 -138 -230 -58 -29 -169 -65 -235 -75 -38 -6
-37 -5 28 31 97 53 179 136 207 210 12 32 26 64 32 71 17 20 81 16 106 -7z
m-4991 -430 c5 0 26 9 48 20 50 25 101 25 142 0 61 -37 79 -108 43 -167 -25
-42 -30 -41 -23 2 11 65 -36 125 -97 125 -30 0 -80 -53 -80 -85 0 -22 -4 -26
-22 -23 -44 6 -84 134 -61 194 5 14 10 9 24 -24 10 -23 22 -42 26 -42z"/>
<path class="st0" d="M3215 1940 c-48 -10 -91 -37 -123 -76 -32 -38 -62 -119 -62 -165 0
-34 -20 -38 -78 -13 -20 9 -79 18 -132 21 -81 4 -103 2 -152 -17 -69 -26 -173
-93 -194 -126 -22 -33 -8 -51 20 -26 114 105 334 69 666 -109 262 -140 471
-218 706 -264 102 -20 284 -32 284 -18 0 6 -45 13 -102 16 -218 12 -431 77
-598 182 -71 44 -193 174 -235 250 -33 58 -39 79 -43 145 -3 58 0 84 12 109
27 51 52 71 92 71 19 0 33 4 30 9 -8 12 -56 18 -91 11z"/>
<path class="st0" d="M6697 1690 c-92 -326 -336 -626 -655 -809 -540 -309 -1345 -375
-2182 -180 -331 78 -514 130 -805 230 -464 159 -701 214 -925 213 -154 -1
-236 -17 -331 -65 -137 -69 -200 -164 -201 -304 0 -105 27 -157 102 -195 87
-43 154 -33 217 33 67 71 70 142 8 204 -39 39 -79 43 -119 12 -34 -27 -33 -42
2 -23 66 34 122 -3 122 -81 0 -58 -11 -78 -62 -115 -49 -36 -92 -39 -147 -10
-84 42 -113 115 -92 231 32 183 218 289 508 289 146 0 361 -40 598 -111 158
-48 395 -131 395 -139 0 -4 -62 -5 -138 -2 -219 8 -352 -32 -436 -131 -37 -45
-40 -53 -41 -108 0 -56 3 -63 32 -90 60 -53 113 -51 170 6 27 27 34 41 31 66
-2 18 -8 34 -15 36 -7 3 -10 -3 -7 -14 3 -10 -1 -27 -9 -38 -13 -16 -20 -18
-53 -10 -39 10 -84 60 -84 94 0 65 114 136 246 153 165 21 401 -9 754 -95 443
-109 696 -152 987 -169 484 -28 993 53 1331 213 46 21 85 39 87 39 2 0 46 24
97 54 140 80 212 115 275 131 108 28 213 14 294 -39 21 -14 42 -26 45 -26 18
0 -36 45 -81 68 -59 30 -168 40 -255 24 -30 -6 -57 -9 -58 -7 -2 2 16 23 40
47 183 183 284 342 355 557 13 41 23 86 21 100 -2 19 -8 8 -21 -39z"/>
<path class="st0" d="M6494 806 c-42 -19 -64 -52 -64 -99 0 -80 59 -137 144 -137 44 0 114
25 103 37 -3 2 -14 0 -25 -6 -31 -17 -110 -13 -143 6 -32 19 -59 68 -59 106 0
14 11 38 24 54 19 22 32 28 65 28 45 0 54 9 19 19 -29 7 -27 8 -64 -8z"/>
</g>
</svg>
