<?xml version="1.0" standalone="no"?>
<!DOCTYPE svg PUBLIC "-//W3C//DTD SVG 20010904//EN"
 "http://www.w3.org/TR/2001/REC-SVG-20010904/DTD/svg10.dtd">
<svg version="1.0" xmlns="http://www.w3.org/2000/svg"
 width="1024.000000pt" height="1024.000000pt" viewBox="0 0 1024.000000 1024.000000"
 preserveAspectRatio="xMidYMid meet">

<g transform="translate(0.000000,1024.000000) scale(0.100000,-0.100000)"
fill="#000000" stroke="none">
<path class="st0" d="M880 9976 c-113 -25 -171 -77 -178 -158 -4 -59 17 -102 71 -142 41
-30 130 -29 173 1 56 40 82 122 57 182 -17 44 -7 55 55 54 206 -3 469 -353
547 -727 25 -124 38 -320 32 -496 -10 -272 -44 -453 -162 -850 -14 -49 -63
-184 -150 -415 -173 -461 -260 -726 -329 -1000 -178 -705 -152 -1276 82 -1825
123 -288 290 -491 507 -615 165 -94 358 -112 500 -46 123 56 188 143 201 268
8 71 -6 124 -47 186 -74 112 -221 137 -315 55 -50 -44 -67 -82 -62 -138 8 -84
69 -140 153 -140 49 0 77 29 69 72 -4 18 -12 39 -20 47 -10 11 -11 8 -5 -21
12 -51 -2 -68 -52 -68 -169 0 -145 248 26 267 128 15 227 -89 227 -236 0 -260
-318 -389 -603 -244 -187 95 -309 347 -263 546 40 172 147 282 287 294 74 7
113 -9 149 -59 34 -47 47 -35 24 21 -21 54 -100 123 -183 162 -246 116 -302
155 -397 273 -116 145 -197 333 -241 558 -14 74 -18 142 -18 333 0 213 3 252
23 350 47 223 126 464 307 940 31 83 77 206 101 275 25 69 49 135 54 148 52
123 139 526 160 741 26 264 1 556 -67 766 -58 183 -185 391 -306 502 -121 110
-284 166 -407 139z m128 -25 c10 -6 5 -12 -18 -21 -41 -17 -44 -24 -20 -62 11
-18 20 -47 20 -64 0 -69 -86 -143 -150 -129 -29 6 -97 61 -88 70 3 3 19 -2 36
-11 41 -20 85 -11 112 23 36 47 18 103 -43 135 -22 11 -36 23 -31 28 29 29
153 50 182 31z m-19 -4001 c1 -64 23 -197 50 -302 29 -111 76 -227 130 -317
105 -173 203 -262 401 -360 141 -69 190 -98 190 -111 0 -4 -28 -7 -63 -7 -52
1 -72 -5 -125 -33 -146 -78 -222 -241 -207 -445 6 -79 5 -88 -8 -75 -23 24
-48 99 -54 164 -17 185 102 365 275 416 49 15 54 27 15 36 -63 14 -132 38
-188 67 -86 45 -248 208 -309 312 -55 94 -109 262 -125 384 -12 95 -15 291 -4
342 7 33 7 33 14 9 4 -14 7 -50 8 -80z m-20 -732 c64 -155 152 -268 219 -281
49 -10 82 -48 82 -94 0 -58 -22 -83 -74 -83 -39 0 -48 5 -84 44 -66 71 -117
188 -152 346 -11 52 -23 106 -26 120 -9 39 7 16 35 -52z"/>
<path class="st0" d="M858 8946 c-94 -25 -148 -89 -156 -181 -6 -71 2 -97 40 -141 54 -62
112 -77 175 -47 73 34 95 118 44 172 -29 31 -51 40 -51 21 0 -5 4 -10 10 -10
18 0 42 -60 35 -90 -9 -40 -37 -62 -87 -67 -49 -5 -103 24 -125 67 -31 62 -2
178 53 217 106 74 226 52 340 -61 60 -60 85 -106 110 -197 25 -88 24 -329 0
-449 -52 -254 -229 -820 -257 -820 -9 0 -6 36 12 170 18 131 -19 300 -82 377
-60 73 -148 116 -196 94 -30 -14 -63 -68 -63 -104 0 -36 35 -103 61 -117 24
-14 71 -9 76 7 3 7 -3 10 -15 6 -28 -7 -54 24 -50 60 3 36 55 77 95 77 33 0
79 -50 112 -120 24 -52 26 -64 25 -200 -1 -217 -31 -376 -128 -690 -145 -471
-233 -897 -256 -1244 -16 -225 9 -531 61 -771 56 -254 168 -553 266 -708 47
-75 76 -183 76 -284 0 -113 -19 -168 -74 -217 -45 -42 -40 -47 13 -11 61 41
82 100 86 238 l4 118 56 -62 c76 -83 215 -198 300 -249 82 -48 236 -113 260
-108 9 2 -15 16 -53 32 -448 186 -735 565 -890 1177 -59 233 -76 380 -76 679
0 238 11 353 57 610 54 301 187 788 279 1025 132 339 264 746 320 990 25 105
28 140 28 280 0 147 -2 166 -27 239 -36 105 -68 157 -130 211 -100 88 -172
109 -278 81z"/>
<path class="st0" d="M1650 7973 c0 -5 11 -30 25 -57 33 -65 33 -131 -1 -253 -31 -116 -65
-192 -149 -338 -128 -224 -227 -456 -279 -655 -33 -130 -46 -232 -45 -353 l2
-102 8 85 c31 317 72 466 176 641 136 230 390 372 532 299 52 -26 81 -65 81
-107 0 -58 25 -34 28 27 4 73 -19 129 -74 179 -50 47 -78 60 -149 70 -27 4
-49 11 -48 16 2 6 12 37 24 70 12 33 24 89 26 125 9 108 -40 258 -105 328 -29
30 -52 41 -52 25z"/>
<path class="st0" d="M1878 6950 c-210 -26 -428 -272 -505 -569 -30 -120 -41 -324 -24
-456 23 -176 117 -403 217 -526 155 -190 350 -283 529 -250 120 22 235 102
271 187 8 18 14 62 14 96 0 216 -235 330 -364 177 -25 -29 -28 -39 -24 -88 4
-48 10 -59 46 -93 23 -21 50 -38 62 -38 24 0 26 13 5 30 -37 30 -3 121 59 159
53 33 93 28 137 -18 82 -87 69 -214 -32 -305 -156 -142 -405 -115 -594 65
-215 205 -328 508 -312 837 8 157 59 348 108 404 l20 23 -5 -30 c-3 -16 -9
-75 -12 -130 -8 -123 17 -241 73 -347 92 -176 234 -263 388 -238 166 27 280
143 279 285 0 117 -76 205 -207 239 -50 13 -63 13 -105 1 -94 -28 -152 -130
-121 -211 19 -51 69 -84 125 -84 24 0 46 5 49 10 4 6 -13 10 -43 10 -79 0
-122 54 -109 136 8 49 50 100 93 114 89 30 188 -11 249 -100 27 -40 30 -53 30
-120 0 -68 -3 -80 -33 -127 -37 -57 -104 -107 -166 -124 -64 -17 -164 -6 -227
25 -220 110 -321 459 -211 734 41 104 99 173 193 231 92 56 164 77 232 67 115
-17 194 -139 141 -215 l-17 -23 -19 30 c-38 60 -110 65 -151 9 -37 -48 -16
-123 44 -155 38 -20 124 -10 155 19 46 43 57 76 52 155 -4 62 -9 78 -37 113
-33 41 -111 86 -166 93 -16 3 -56 1 -87 -2z"/>
<path class="st0" d="M2319 5007 c-90 -31 -143 -68 -174 -122 -90 -153 15 -355 185 -355
28 0 65 6 83 14 71 29 126 129 111 199 -9 45 -31 85 -54 100 -46 28 -10 57 71
57 74 0 119 -16 182 -66 109 -85 170 -236 170 -414 -1 -118 -24 -206 -89 -335
-128 -254 -382 -428 -700 -479 -102 -16 -125 -31 -34 -22 193 19 360 79 495
178 111 82 213 147 257 165 29 12 69 18 124 18 70 0 86 -4 117 -25 46 -31 70
-79 74 -150 7 -98 -43 -157 -139 -167 -51 -5 -59 -3 -82 20 -28 28 -36 90 -15
129 13 24 72 50 93 42 9 -3 16 -2 16 4 0 17 -41 21 -78 9 -84 -28 -108 -141
-44 -198 78 -70 227 -32 268 68 21 49 18 146 -6 193 -50 97 -193 133 -334 84
-71 -25 -71 -21 -12 76 109 177 146 353 112 532 -46 242 -215 424 -422 458
-83 14 -100 12 -175 -13z m236 -61 l30 -13 -52 -6 c-51 -6 -125 -37 -138 -57
-3 -5 5 -14 18 -19 57 -22 101 -120 82 -183 -33 -106 -161 -150 -257 -89 -25
16 -49 34 -53 41 -14 22 4 22 35 -2 25 -18 45 -23 91 -23 52 0 62 3 90 31 43
43 51 107 18 148 -26 33 -75 56 -119 56 -40 0 -38 18 7 64 58 58 176 83 248
52z"/>
<path class="st0" d="M640 3942 c-67 -33 -98 -128 -64 -193 20 -40 26 -33 12 13 -24 78 22
163 94 175 33 5 41 2 73 -30 36 -36 43 -64 25 -98 -7 -12 -7 -19 -1 -19 14 0
31 34 31 60 0 36 -28 77 -64 94 -43 20 -63 20 -106 -2z"/>
<path class="st0" d="M885 3581 c-36 -9 -91 -37 -99 -50 -3 -5 -32 -7 -64 -4 -47 4 -61 2
-81 -14 l-24 -19 26 -26 c23 -24 26 -32 20 -77 -4 -33 0 -66 10 -99 28 -84 50
-233 43 -294 -7 -71 -34 -143 -80 -212 -58 -88 -149 -113 -163 -46 -3 17 -9
30 -14 30 -4 0 -24 -15 -43 -34 -56 -52 -45 -117 24 -146 16 -7 30 -14 30 -17
0 -2 -14 -18 -30 -36 -30 -32 -50 -81 -50 -126 0 -14 -7 -32 -16 -42 -14 -16
-14 -18 5 -24 35 -11 124 36 151 80 l23 37 15 -25 c26 -42 93 -62 120 -35 16
16 15 28 -2 28 -7 0 -19 7 -26 15 -31 37 35 130 113 159 88 32 331 34 370 3 8
-7 17 -35 20 -64 l6 -52 -57 -3 c-52 -3 -58 -6 -79 -37 -24 -36 -29 -76 -13
-101 9 -13 12 -13 21 3 30 51 89 -7 89 -88 0 -67 -27 -107 -59 -87 -33 19 -41
15 -41 -24 0 -28 8 -44 34 -70 61 -61 144 -39 181 48 l13 33 12 -30 c34 -89
45 -154 45 -280 0 -117 -3 -138 -29 -210 -61 -172 -152 -264 -293 -296 -69
-16 -119 -5 -160 36 -37 37 -44 80 -15 101 25 19 49 17 66 -7 14 -21 15 -21
49 15 47 48 55 85 28 135 l-20 39 49 49 c84 84 89 170 13 254 -26 29 -43 39
-66 39 l-30 0 27 -25 c36 -34 34 -69 -8 -111 -26 -26 -42 -34 -70 -34 -33 0
-36 2 -36 29 0 34 -31 76 -70 96 -39 20 -40 20 -40 -19 0 -42 -30 -82 -68 -89
-39 -8 -89 -59 -102 -105 -17 -61 -12 -196 8 -250 44 -114 150 -234 250 -280
50 -24 69 -27 160 -27 61 0 101 -4 99 -10 -2 -5 -46 -30 -98 -56 -83 -42 -99
-46 -142 -42 -44 5 -49 4 -81 -30 -30 -32 -37 -35 -72 -30 -32 4 -44 0 -66
-21 -31 -28 -35 -48 -13 -66 8 -7 15 -27 15 -45 0 -51 -45 -80 -93 -60 -13 5
-17 2 -17 -12 0 -27 60 -81 99 -89 l33 -7 -7 -56 c-13 -107 -67 -170 -152
-178 -42 -5 -51 -2 -76 22 -17 18 -27 23 -27 14 0 -52 88 -95 178 -86 129 12
249 92 287 192 20 50 20 50 55 30 62 -35 171 -4 214 62 23 35 44 93 34 93 -3
0 -18 -6 -34 -14 -34 -17 -76 -11 -98 13 -9 10 -18 37 -22 62 -8 66 33 139
114 201 35 26 67 48 72 48 4 0 3 -19 -2 -43 -23 -99 14 -242 83 -321 88 -100
191 -146 323 -146 103 0 164 21 270 92 7 4 1 17 -14 33 l-24 25 21 50 c24 56
19 65 -39 77 l-36 8 13 39 c20 57 61 96 104 96 19 0 43 -7 53 -17 27 -24 33
-9 10 24 -45 63 -157 91 -234 58 -34 -13 -91 -68 -100 -97 -4 -10 -11 -7 -30
9 -32 30 -97 31 -123 3 -17 -19 -17 -21 -1 -39 12 -14 16 -27 11 -43 -10 -30
-23 -38 -66 -38 -27 0 -43 8 -70 36 -33 34 -34 38 -33 112 0 65 5 84 28 124
56 97 169 173 303 204 101 24 272 14 381 -20 45 -15 82 -30 82 -35 0 -4 -11
-13 -25 -19 -35 -16 -65 -70 -65 -116 0 -31 7 -45 40 -78 22 -22 45 -38 52
-36 7 3 14 23 16 46 4 50 29 72 85 72 74 0 152 -53 131 -88 -6 -9 -20 -21 -32
-27 -32 -14 -21 -29 29 -39 85 -16 152 34 152 115 l0 41 40 -6 c23 -4 44 -9
47 -12 3 -3 5 -78 5 -167 0 -150 -2 -166 -25 -221 -14 -32 -35 -66 -48 -74
-22 -14 -23 -13 -35 17 -14 38 -24 39 -65 2 -40 -38 -43 -81 -7 -117 30 -30
31 -36 7 -51 -25 -15 -52 -73 -52 -110 0 -34 28 -76 37 -55 2 7 37 35 77 61
l72 49 25 -29 c36 -44 78 -52 130 -26 51 26 72 67 35 67 -35 0 -59 33 -51 69
9 42 99 112 183 142 54 19 86 23 167 23 87 0 109 -4 170 -29 56 -23 83 -29
133 -27 62 2 65 2 104 -38 22 -22 44 -40 49 -40 5 0 9 28 9 63 0 62 1 64 33
79 33 16 67 68 67 103 0 9 -7 30 -16 47 -13 25 -14 38 -5 68 14 47 -1 102 -36
130 -33 25 -59 25 -102 -1 -30 -18 -35 -19 -50 -5 -38 35 -104 16 -136 -37 -7
-12 -14 -14 -25 -7 -23 14 -17 105 11 165 16 35 59 86 144 170 130 128 174
194 210 320 25 85 17 252 -14 315 -27 53 -75 106 -114 126 -39 21 -109 20
-153 -2 -34 -17 -84 -73 -84 -95 0 -4 22 -5 48 -2 118 14 174 -82 118 -202
-38 -83 -116 -135 -203 -135 -49 0 -87 28 -99 74 -6 25 -7 25 -35 10 -59 -30
-74 -112 -29 -152 25 -21 25 -35 -2 -84 -19 -33 -20 -41 -8 -49 16 -10 100 -4
164 13 82 21 47 -18 -73 -81 -119 -62 -235 -92 -365 -94 l-108 -2 -37 115
c-21 63 -59 165 -85 227 -26 62 -46 120 -44 130 2 10 16 24 33 32 25 12 32 12
54 -1 16 -9 26 -23 25 -36 -1 -26 -2 -26 40 -8 37 16 76 60 76 87 0 15 7 19
33 19 62 0 157 89 157 148 0 19 -4 21 -24 16 -41 -10 -66 4 -66 36 0 47 -25
63 -89 57 -31 -3 -64 -8 -73 -12 -15 -6 -18 -1 -18 33 0 24 -8 49 -20 65 -31
39 -27 99 10 141 37 42 84 53 135 32 55 -24 40 4 -19 33 -80 40 -207 27 -286
-29 -15 -11 -33 -20 -38 -20 -6 0 -20 30 -32 66 -49 147 12 328 137 405 34 21
39 22 138 7 16 -2 21 5 29 40 14 66 -22 112 -88 112 -34 0 -35 6 -14 63 21 56
19 107 -7 157 -22 42 -74 90 -98 90 l-20 0 21 -23 c38 -40 29 -74 -36 -136
-65 -63 -82 -103 -82 -198 0 -55 -13 -118 -29 -135 -4 -5 -24 1 -46 12 -47 24
-80 18 -117 -21 -38 -40 -36 -65 4 -73 46 -9 58 -24 58 -70 0 -87 55 -249 110
-326 19 -27 20 -34 10 -66 -10 -30 -16 -35 -34 -29 -70 21 -106 18 -172 -16
-72 -36 -86 -34 -113 13 -13 23 -13 29 3 52 9 15 28 31 42 36 13 5 24 14 24
19 0 15 -78 80 -107 88 -27 8 -116 8 -158 1 -13 -2 -21 4 -23 17 -2 11 -11 28
-19 37 -14 16 -18 16 -55 1 -55 -22 -97 -13 -237 48 l-121 53 0 106 c0 58 5
125 11 149 14 62 66 191 89 221 l20 25 0 -33 c0 -42 21 -92 49 -117 19 -16 24
-17 31 -5 6 8 10 22 10 31 0 9 9 24 21 35 16 15 23 16 37 6 9 -7 31 -19 48
-27 17 -8 34 -21 37 -29 5 -12 11 -10 34 9 15 14 41 35 57 48 l29 23 -35 21
c-44 26 -66 92 -49 145 33 101 183 160 269 108 56 -34 76 -118 36 -151 -22
-18 -16 -29 17 -29 52 0 100 29 120 74 22 48 23 80 7 127 -29 86 -100 140
-221 171 -74 19 -90 20 -170 9 -99 -13 -190 -44 -276 -95 -59 -34 -83 -53
-170 -133 -99 -92 -216 -125 -297 -87 -45 21 -41 44 11 58 41 12 65 42 65 82
0 26 -34 71 -59 79 -13 4 -17 12 -14 25 9 32 -5 66 -31 78 -36 16 -87 22 -121
13z m88 -53 c21 -11 22 -28 2 -54 -21 -28 -18 -34 18 -34 44 0 69 -28 65 -71
-3 -31 -7 -34 -42 -40 -22 -4 -45 -15 -53 -25 -33 -45 0 -129 67 -168 37 -22
127 -28 190 -12 59 14 15 -19 -49 -38 -100 -29 -212 -15 -285 37 -39 27 -76
110 -77 172 -1 62 -17 33 -18 -32 -1 -51 -16 -55 -53 -15 -40 43 -49 67 -46
134 2 35 -1 73 -5 86 -12 32 17 40 51 15 l27 -20 30 35 c42 48 118 61 178 30z
m852 -2 c-144 -30 -249 -83 -354 -182 -165 -156 -230 -347 -218 -643 6 -157
17 -211 91 -468 71 -247 86 -322 86 -440 0 -111 -15 -179 -60 -270 -61 -123
-224 -263 -348 -299 -197 -58 -407 97 -377 278 10 60 50 135 99 187 40 42 40
43 10 28 -35 -18 -85 -72 -111 -120 l-18 -32 -3 58 c-2 46 1 64 18 87 25 36 8
41 -27 8 -30 -28 -38 -18 -22 29 13 40 51 83 74 83 17 0 75 66 75 86 0 9 6 14
13 12 6 -3 13 -24 15 -48 3 -32 -2 -51 -18 -72 -12 -16 -19 -32 -16 -35 3 -3
29 4 58 16 29 11 72 25 95 31 38 10 82 47 96 82 9 21 27 -12 27 -50 0 -63 -44
-118 -117 -147 -24 -10 -43 -21 -43 -25 0 -4 14 -13 30 -20 50 -21 79 -102 47
-129 -10 -8 -19 -7 -33 4 -26 20 -48 19 -94 -5 -47 -24 -60 -45 -60 -100 0
-156 202 -225 385 -132 63 31 185 153 213 212 41 86 50 146 41 263 -7 91 -17
134 -69 288 -33 100 -63 186 -68 193 -4 6 -10 -17 -13 -52 -10 -103 -69 -158
-126 -116 -37 28 -37 36 -3 56 59 34 74 123 33 202 -20 38 -41 55 -70 56 -27
0 -28 8 -7 38 16 24 53 29 85 11 12 -6 31 -34 45 -62 22 -47 24 -49 24 -22 0
17 -7 57 -15 90 -16 66 -19 306 -5 340 7 17 9 14 9 -13 1 -56 17 -27 20 35 3
89 28 195 67 285 19 45 40 88 46 95 16 20 -11 16 -56 -8 -68 -36 -60 -14 14
35 40 26 70 49 68 52 -3 2 -41 -15 -86 -38 -45 -23 -84 -39 -88 -36 -3 4 16
18 43 32 26 14 80 53 118 87 76 67 183 141 243 166 67 30 166 51 232 51 l65 0
-60 -12z m-100 -146 c-3 -5 -11 -10 -16 -10 -6 0 -7 5 -4 10 3 6 11 10 16 10
6 0 7 -4 4 -10z m0 -65 c-59 -53 -75 -63 -75 -47 0 11 67 74 95 90 45 26 37 8
-20 -43z m-50 25 c-10 -11 -20 -18 -23 -15 -7 6 18 35 31 35 5 0 2 -9 -8 -20z
m-88 -56 c-27 -25 -51 -43 -55 -40 -7 7 42 56 56 56 5 0 15 7 22 15 7 8 15 15
19 15 3 0 -16 -21 -42 -46z m50 -12 c-10 -10 -17 -22 -17 -26 0 -11 -92 -116
-102 -116 -4 0 -8 7 -8 16 0 16 131 156 139 148 2 -2 -3 -12 -12 -22z m867
-34 c11 -41 6 -109 -10 -143 -8 -18 -33 -47 -55 -65 -22 -18 -38 -34 -36 -36
2 -3 25 5 51 16 61 26 106 25 140 -1 20 -16 26 -29 24 -51 l-3 -29 -83 -3
c-99 -3 -118 -14 -179 -105 -86 -126 -96 -260 -28 -390 15 -30 13 -51 -4 -51
-12 0 -77 135 -95 199 -9 30 -16 76 -16 103 0 63 -22 116 -55 128 -14 5 -25
14 -25 19 0 14 34 31 63 31 30 0 44 -16 49 -54 4 -39 26 -45 33 -9 3 15 19 56
36 91 23 50 29 76 29 132 0 83 9 108 51 146 18 16 46 43 63 60 38 39 42 40 50
12z m-824 -26 c0 -17 -57 -75 -70 -70 -9 3 -3 15 20 41 30 35 50 46 50 29z
m-845 -74 c79 -83 199 -109 335 -73 30 8 56 12 59 9 3 -3 -1 -19 -8 -37 -25
-61 -53 -182 -59 -262 l-7 -80 -45 2 c-25 1 -79 4 -120 6 -86 5 -225 -13 -288
-38 -24 -10 -46 -15 -49 -12 -3 4 5 21 19 39 93 121 139 299 115 441 -5 26 -4
47 0 47 5 0 27 -19 48 -42z m652 -60 c-3 -8 -6 -5 -6 6 -1 11 2 17 5 13 3 -3
4 -12 1 -19z m-347 -408 c0 -5 -7 -7 -15 -4 -8 4 -15 8 -15 10 0 2 7 4 15 4 8
0 15 -4 15 -10z m-540 -84 c0 -3 -4 -8 -10 -11 -5 -3 -10 -1 -10 4 0 6 5 11
10 11 6 0 10 -2 10 -4z m969 -102 l56 -52 0 -63 c0 -59 -2 -64 -23 -67 -22 -3
-23 -1 -16 33 13 71 -32 140 -151 233 -26 20 -23 19 25 -5 30 -15 79 -51 109
-79z m-114 26 c56 -38 105 -104 105 -138 0 -14 -11 -38 -25 -52 -30 -31 -25
-57 12 -71 36 -14 76 -11 101 7 13 9 25 14 28 11 3 -2 16 -46 30 -98 14 -51
43 -126 65 -167 25 -47 39 -87 39 -110 0 -49 -38 -114 -74 -127 -24 -8 -31 -6
-47 14 -24 29 -24 84 -2 122 26 44 5 48 -33 7 -28 -32 -34 -45 -34 -84 0 -37
5 -51 29 -75 34 -33 46 -35 98 -14 51 20 84 72 92 140 l6 54 49 -30 c26 -17
80 -39 120 -49 39 -10 92 -27 117 -38 26 -11 72 -23 103 -27 51 -7 60 -12 90
-49 50 -63 71 -102 121 -225 50 -125 53 -141 28 -141 -25 0 -295 82 -373 113
-36 14 -116 40 -179 58 -100 28 -125 31 -200 26 -91 -5 -175 -29 -275 -79 -32
-16 -60 -27 -63 -24 -3 2 7 24 20 48 14 24 36 77 49 118 20 64 23 94 22 205
-2 136 -4 146 -94 470 -26 94 -52 244 -44 256 7 12 63 -13 119 -51z m1081 -59
c-23 -25 -46 -104 -46 -155 0 -30 5 -44 20 -54 25 -16 28 -87 4 -114 -28 -30
10 -35 64 -8 88 45 145 21 117 -48 -8 -19 -15 -36 -15 -39 0 -2 27 -3 60 -2
33 1 63 0 65 -3 9 -9 -36 -58 -67 -74 -23 -12 -45 -14 -80 -10 -38 5 -48 4
-48 -8 0 -8 5 -18 10 -21 15 -9 12 -42 -6 -59 -19 -20 -44 -21 -44 -2 0 22
-40 46 -75 46 -18 0 -46 -11 -66 -26 -87 -65 -175 -83 -262 -52 -49 16 -49 29
0 43 63 19 104 45 166 103 62 60 121 148 132 197 4 21 -3 13 -27 -30 -18 -33
-59 -88 -92 -122 -115 -123 -254 -164 -389 -113 -102 38 -203 151 -232 260 -5
19 4 13 40 -28 60 -67 127 -102 195 -102 62 0 105 20 125 60 16 30 12 53 -13
83 -14 15 -13 19 4 38 94 104 242 29 189 -97 -18 -44 -18 -44 -2 -44 8 0 24
12 38 26 20 21 24 35 22 77 -4 107 -2 121 15 161 11 23 33 55 50 71 31 30 109
64 146 65 18 0 18 -1 2 -19z m-636 -31 c0 -5 -4 -10 -9 -10 -6 0 -13 5 -16 10
-3 6 1 10 9 10 9 0 16 -4 16 -10z m-195 -9 c3 -5 1 -12 -4 -15 -5 -3 -11 1
-15 9 -6 16 9 21 19 6z m135 -46 c0 -7 16 -27 36 -43 29 -24 33 -30 18 -36 -9
-3 -23 -1 -31 5 -28 24 -55 70 -49 85 7 18 26 10 26 -11z m-32 -45 c34 -54 29
-65 -11 -25 -24 24 -42 75 -27 75 4 0 21 -22 38 -50z m1727 -576 c-28 -128
-72 -200 -211 -344 -68 -71 -134 -151 -148 -177 -21 -41 -25 -44 -26 -22 0 47
48 123 116 183 36 32 63 61 60 64 -3 2 -35 -18 -72 -47 -37 -28 -70 -51 -75
-51 -20 0 -17 20 5 32 13 7 61 45 106 83 113 96 218 257 235 361 10 62 19 73
23 30 2 -21 -4 -72 -13 -112z m-56 14 c-30 -69 -61 -118 -76 -118 -8 0 1 25
21 63 19 34 42 85 52 112 17 44 19 47 22 23 2 -14 -7 -50 -19 -80z m-2132 0
c-3 -8 -6 -5 -6 6 -1 11 2 17 5 13 3 -3 4 -12 1 -19z m2003 -28 c0 -15 -125
-140 -140 -140 -13 0 119 148 133 149 4 1 7 -3 7 -9z m-931 -65 c16 -25 39
-71 51 -103 12 -31 28 -73 36 -92 15 -38 30 -118 21 -110 -3 3 -20 43 -36 88
-17 46 -50 123 -75 172 -46 96 -45 120 3 45z m811 18 c0 -13 -104 -113 -118
-113 -17 0 88 119 106 120 6 0 12 -3 12 -7z m-80 -22 c-13 -26 -94 -94 -98
-83 -4 12 79 102 95 102 10 0 11 -5 3 -19z m-1268 -171 c47 -10 137 -39 200
-63 266 -103 468 -150 648 -150 130 -1 265 25 317 59 13 8 29 12 35 8 6 -4 8
-3 5 3 -4 6 21 25 55 43 33 18 58 28 54 21 -4 -6 -21 -18 -38 -27 -21 -11 -27
-18 -19 -24 16 -9 -31 -37 -121 -73 -83 -33 -137 -45 -263 -56 -85 -7 -91 -8
-38 -10 78 -1 90 -17 21 -26 -81 -9 -253 10 -343 39 -44 14 -86 26 -93 26 -23
0 -2 -20 47 -45 77 -39 96 -121 32 -143 -35 -13 -41 -8 -41 33 0 18 -8 39 -17
47 -28 24 -95 56 -135 63 -47 9 -123 -24 -140 -59 -15 -33 -23 -33 -37 2 -15
36 -6 74 23 101 35 33 74 40 135 24 30 -7 56 -12 58 -9 5 5 -68 47 -147 84
-107 50 -188 73 -277 79 -100 7 -120 23 -31 24 62 1 63 1 23 11 -91 22 -264
-8 -393 -68 -87 -41 -100 -43 -48 -8 58 40 176 92 232 102 82 16 203 13 296
-8z m-198 -42 c-3 -4 -14 -8 -25 -8 -11 0 -18 4 -15 8 2 4 14 8 25 8 11 0 17
-4 15 -8z m1351 -230 c-27 -86 -35 -154 -25 -202 12 -57 46 -120 84 -155 14
-14 26 -28 26 -32 0 -4 -55 -8 -122 -8 -147 1 -214 -17 -328 -85 -41 -25 -76
-43 -78 -41 -2 2 3 25 12 52 23 67 39 215 34 326 l-3 95 35 6 c19 3 58 6 85 6
51 0 204 33 234 50 9 5 24 10 35 10 15 0 17 -5 11 -22z m40 5 c-4 -10 -10 -48
-12 -84 -8 -98 21 -142 110 -163 40 -10 85 24 89 67 2 25 8 33 26 35 36 5 55
-17 49 -55 -8 -45 3 -41 41 13 28 39 36 45 64 42 67 -7 86 -83 33 -132 -31
-29 -31 -36 0 -36 29 0 48 -30 39 -64 -7 -29 -41 -63 -69 -68 -17 -3 -20 -10
-17 -47 l4 -44 -35 22 c-24 14 -51 21 -87 21 -56 0 -132 34 -144 65 -4 12 4
15 46 15 32 0 68 8 95 21 56 27 51 32 -12 13 -136 -41 -265 66 -265 220 0 65
27 176 42 176 6 0 7 -8 3 -17z m-491 -84 c3 -17 6 -48 6 -68 -1 -50 -15 -21
-24 47 -7 56 7 73 18 21z m-1614 -45 c-42 -28 -101 -87 -116 -116 -20 -39 -4
-34 26 6 26 36 116 103 125 94 3 -3 -6 -19 -20 -36 -57 -68 -81 -167 -53 -227
14 -32 65 -64 106 -67 38 -3 39 -8 9 -36 -72 -68 -181 -36 -202 59 -11 49 -30
27 -35 -42 -7 -84 -40 -150 -98 -194 -45 -35 -117 -64 -129 -52 -3 4 5 28 19
54 16 29 31 80 38 128 6 44 16 93 22 108 15 39 2 46 -28 13 -18 -19 -34 -26
-52 -24 -36 4 -37 20 -3 40 43 24 60 86 38 133 -14 30 -14 35 -1 46 24 20 48
-2 52 -47 4 -42 18 -67 26 -43 2 8 9 33 15 56 13 47 55 103 77 103 11 0 13 -9
8 -42 l-6 -43 46 51 c25 29 65 61 88 73 52 25 83 28 48 5z m2107 -6 c-3 -8 -6
-5 -6 6 -1 11 2 17 5 13 3 -3 4 -12 1 -19z m-1862 -156 c57 -89 189 -133 234
-76 30 38 44 89 32 113 -15 28 -14 31 13 31 26 0 45 -18 62 -59 l11 -26 26 50
c43 85 82 115 151 115 44 0 48 -6 26 -43 -11 -18 -33 -69 -50 -114 -22 -59
-42 -91 -67 -113 -41 -36 -55 -33 -24 6 11 15 21 34 21 42 0 13 -3 13 -18 -1
-28 -25 -37 -20 -17 9 24 38 10 42 -20 5 -15 -17 -56 -47 -91 -67 -59 -33 -71
-36 -127 -32 -84 5 -135 32 -170 90 -32 51 -45 139 -31 205 7 36 8 35 15 -35
4 -40 15 -85 24 -100z m1896 117 c11 -11 19 -23 17 -25 -3 -2 -15 7 -28 21
-28 30 -19 34 11 4z m-522 -76 c-2 -74 -20 -189 -36 -232 -12 -32 -24 -46 -49
-57 -46 -19 -46 -18 -9 19 39 39 64 112 71 212 3 39 7 76 10 83 7 24 15 11 13
-25z"/>
<path class="st0" d="M3202 3489 c-44 -13 -114 -84 -146 -148 -37 -73 -32 -97 7 -28 46 83
82 124 129 148 114 58 278 -44 278 -172 0 -62 -46 -154 -104 -207 -48 -44
-175 -112 -210 -112 -10 0 -40 20 -66 44 -97 91 -237 136 -362 116 -69 -10
-153 -38 -144 -47 3 -3 34 2 70 12 99 27 222 18 307 -22 125 -58 225 -193 236
-319 13 -148 -104 -284 -243 -284 -52 0 -136 36 -177 76 -68 66 -69 154 -1
213 37 33 93 42 137 20 19 -9 19 -8 -3 11 -20 18 -33 21 -69 17 -115 -13 -177
-138 -118 -242 45 -79 177 -142 275 -130 84 10 170 60 207 119 28 46 30 56 30
145 0 90 -2 101 -37 173 l-36 76 56 23 c172 69 272 187 272 322 0 64 -14 99
-57 138 -60 57 -157 81 -231 58z"/>
<path class="st0" d="M3723 3129 c-64 -25 -94 -64 -101 -129 -9 -92 52 -155 142 -147 61 5
96 39 96 92 0 48 -16 52 -24 5 -7 -47 -36 -70 -88 -70 -56 0 -89 34 -96 98 -4
46 -2 54 25 80 40 41 134 68 184 53 82 -25 129 -96 129 -198 0 -78 -45 -170
-138 -281 -91 -109 -137 -179 -176 -269 -46 -106 -64 -165 -76 -248 -13 -93
-13 -125 0 -105 5 8 10 29 10 45 0 48 45 204 84 288 75 165 231 348 364 427
215 127 453 144 641 45 120 -64 192 -157 208 -271 5 -42 -19 -134 -35 -134 -4
0 -23 17 -43 39 -67 70 -150 74 -238 11 -64 -45 -88 -157 -52 -235 40 -86 120
-135 221 -135 76 0 123 23 178 85 52 59 73 122 73 222 1 241 -164 431 -429
494 -154 37 -319 11 -493 -77 -50 -25 -92 -44 -94 -42 -2 2 2 28 10 58 27 99
14 175 -39 245 -56 73 -143 92 -243 54z m1223 -711 c-7 -70 -35 -129 -75 -157
-41 -29 -51 -26 -51 16 0 87 -62 153 -131 139 -103 -20 -137 -131 -69 -226 31
-43 17 -50 -20 -10 -37 39 -60 91 -60 132 0 67 70 151 136 164 68 13 150 -34
169 -94 10 -35 27 -23 60 45 16 34 34 59 39 56 5 -3 6 -32 2 -65z"/>
<path class="st0" d="M5365 2376 c-65 -21 -99 -42 -139 -87 -125 -138 -131 -369 -14 -568
18 -31 76 -99 128 -152 74 -75 112 -104 175 -136 200 -103 357 -143 553 -143
183 0 307 27 457 100 282 136 426 426 298 598 -30 40 -91 81 -135 91 -66 15
-170 -36 -203 -99 -40 -77 6 -173 88 -187 32 -5 41 -1 72 30 55 55 44 110 -30
153 -17 10 -17 11 5 32 28 26 78 29 122 6 75 -39 101 -90 96 -188 -4 -90 -45
-179 -116 -251 -108 -111 -225 -151 -422 -142 -283 12 -469 148 -502 366 -13
81 -1 129 45 198 90 130 247 160 356 66 140 -119 87 -336 -77 -320 -53 6 -88
36 -104 91 -11 37 -12 39 -16 14 -5 -37 22 -85 61 -108 64 -39 159 -15 212 54
21 28 26 46 26 89 0 85 -19 136 -76 194 -55 56 -104 76 -185 76 -101 -1 -221
-100 -258 -213 -20 -59 -22 -128 -6 -188 38 -147 148 -249 339 -313 62 -21 88
-24 227 -24 147 0 156 -1 140 -16 -26 -26 -156 -65 -260 -79 -333 -46 -702 75
-899 295 -67 75 -125 172 -154 259 -17 49 -20 79 -17 157 3 83 8 104 36 162
65 131 199 199 305 153 44 -19 93 -70 100 -104 20 -101 -74 -198 -152 -157
-22 11 -31 23 -31 40 0 28 -15 33 -24 9 -14 -38 -5 -75 27 -110 26 -29 42 -37
81 -41 60 -7 100 12 136 64 21 31 25 48 25 107 -1 46 -6 82 -17 101 -51 96
-178 152 -273 121z"/>
<path class="st0" d="M4150 2223 c-102 -37 -162 -96 -199 -197 -56 -151 -29 -330 77 -510
89 -152 366 -381 557 -459 22 -9 74 -30 115 -47 125 -53 287 -99 455 -130 264
-49 399 -55 695 -29 180 15 322 42 605 114 272 70 351 94 890 269 373 122 476
151 755 210 205 44 341 58 540 57 412 -1 729 -110 961 -328 88 -83 135 -171
133 -251 -2 -70 -13 -81 -59 -59 -107 51 -225 -24 -225 -142 0 -155 186 -221
290 -104 47 54 61 98 61 197 0 132 -57 252 -176 372 -120 122 -259 206 -436
263 -175 57 -268 72 -475 78 -229 7 -363 -5 -604 -53 -289 -58 -359 -78 -1005
-290 -641 -210 -825 -251 -1090 -241 -181 7 -261 18 -390 54 -215 59 -363 140
-491 267 -79 80 -121 146 -183 291 -68 160 -130 242 -209 274 -48 20 -49 7 -4
-36 31 -30 41 -48 46 -83 17 -123 -73 -253 -208 -300 -316 -108 -649 149 -622
481 10 122 30 174 89 233 59 58 125 86 203 86 188 0 299 -234 157 -333 -82
-58 -175 -25 -190 66 -7 47 9 67 54 67 20 0 32 4 28 10 -10 17 -61 11 -86 -9
-18 -15 -23 -28 -22 -60 5 -112 128 -169 221 -101 63 45 77 73 77 150 -1 99
-46 169 -138 217 -45 23 -143 26 -197 6z m771 -664 c69 -156 118 -233 205
-321 118 -120 310 -221 517 -273 52 -13 244 -45 270 -45 4 0 7 -4 7 -10 0 -15
-170 -12 -284 5 -239 36 -424 127 -584 286 -109 108 -153 195 -178 344 l-6 40
-18 -54 c-52 -155 -185 -239 -364 -229 -75 4 -186 38 -186 57 0 3 35 5 79 3
147 -7 274 39 355 129 52 57 76 121 76 198 l0 54 24 -22 c13 -12 52 -85 87
-162z m-83 -312 c6 -7 20 -39 32 -71 28 -74 110 -157 207 -210 65 -36 66 -37
28 -31 -66 10 -177 46 -235 75 -155 79 -207 165 -138 230 25 23 89 27 106 7z
m4941 -427 c0 -59 -36 -134 -66 -138 -19 -3 -23 1 -23 23 0 32 -50 85 -80 85
-61 0 -108 -60 -97 -125 7 -43 2 -44 -23 -2 -36 59 -18 130 43 167 41 25 92
25 142 0 49 -25 60 -21 75 25 15 47 30 30 29 -35z"/>
<path class="st0" d="M7070 1942 c-42 -6 -47 -22 -7 -22 41 0 66 -19 93 -71 12 -25 15 -51
12 -109 -4 -66 -10 -87 -43 -145 -42 -76 -164 -206 -235 -250 -167 -105 -380
-170 -597 -182 -58 -3 -103 -10 -103 -16 0 -14 182 -2 284 18 235 46 444 124
706 264 332 178 552 214 666 109 28 -25 42 -7 20 26 -21 33 -125 100 -194 126
-49 19 -71 21 -152 17 -53 -3 -112 -12 -132 -21 -58 -25 -78 -21 -78 13 0 46
-30 127 -62 165 -45 55 -118 87 -178 78z"/>
<path class="st0" d="M3621 1728 c-1 -15 10 -60 23 -100 70 -214 172 -374 354 -556 24 -24
42 -45 40 -47 -1 -2 -28 1 -58 7 -87 16 -196 6 -255 -24 -45 -23 -99 -68 -81
-68 3 0 24 12 45 26 81 53 186 67 294 39 63 -16 135 -51 275 -131 51 -30 95
-54 97 -54 2 0 41 -18 87 -39 338 -160 847 -241 1331 -213 291 17 544 60 987
169 353 86 589 116 754 95 132 -17 246 -88 246 -153 0 -34 -45 -84 -84 -94
-33 -8 -40 -6 -53 10 -8 11 -12 28 -9 38 3 11 0 17 -7 14 -7 -2 -13 -18 -15
-36 -3 -25 4 -39 31 -66 57 -57 110 -59 170 -6 29 27 32 34 32 90 -1 55 -4 63
-41 108 -84 99 -217 139 -436 131 -76 -3 -138 -2 -138 2 0 14 397 144 575 189
519 130 879 42 926 -228 21 -116 -8 -189 -92 -231 -55 -29 -98 -26 -147 10
-51 37 -62 57 -62 115 0 78 56 115 123 81 34 -19 35 -4 1 23 -40 31 -80 27
-119 -12 -62 -62 -59 -133 8 -204 63 -66 130 -76 217 -33 75 38 102 90 102
195 -1 140 -64 235 -201 304 -95 48 -177 64 -331 65 -224 1 -461 -54 -925
-213 -422 -145 -814 -245 -1180 -300 -584 -89 -1193 -29 -1627 159 -206 90
-374 205 -517 356 -150 158 -246 320 -312 524 -17 54 -27 75 -28 58z"/>
<path class="st0" d="M3778 813 c-32 -8 -19 -18 23 -18 73 0 108 -66 74 -139 -9 -18 -28
-40 -44 -49 -33 -19 -112 -23 -143 -6 -11 6 -22 8 -25 6 -11 -12 59 -37 103
-37 85 0 144 57 144 137 0 47 -22 81 -66 99 -34 14 -37 15 -66 7z"/>
</g>
</svg>
