<?xml version="1.0" standalone="no"?>
<!DOCTYPE svg PUBLIC "-//W3C//DTD SVG 20010904//EN"
 "http://www.w3.org/TR/2001/REC-SVG-20010904/DTD/svg10.dtd">
<svg version="1.0" xmlns="http://www.w3.org/2000/svg"
 width="1024.000000pt" height="1024.000000pt" viewBox="0 0 1024.000000 1024.000000"
 preserveAspectRatio="xMidYMid meet">

<g transform="translate(0.000000,1024.000000) scale(0.100000,-0.100000)"
fill="#000000" stroke="none">
<path class="st0" d="M2150 10121 c-22 -42 1 -129 42 -154 24 -15 23 -21 -7 -51 -36 -36
-33 -79 7 -117 41 -37 51 -36 65 2 12 30 13 31 35 17 13 -8 34 -42 48 -74 23
-55 25 -71 25 -221 0 -89 -2 -164 -5 -167 -3 -3 -24 -8 -47 -12 l-40 -6 0 41
c0 81 -67 131 -152 115 -50 -10 -61 -25 -29 -39 12 -6 26 -18 32 -27 21 -35
-57 -88 -131 -88 -56 0 -81 22 -85 72 -2 23 -9 43 -16 46 -7 2 -30 -14 -52
-36 -33 -33 -40 -47 -40 -78 0 -46 30 -100 65 -116 14 -6 25 -15 25 -19 0 -5
-37 -20 -82 -35 -109 -34 -280 -44 -381 -20 -134 31 -247 107 -303 204 -23 40
-28 59 -28 124 -1 74 0 78 33 112 27 28 43 36 70 36 43 0 56 -8 66 -38 5 -16
1 -29 -11 -43 -16 -18 -16 -20 1 -39 26 -28 91 -27 123 3 19 16 26 19 30 9 9
-29 66 -84 100 -97 77 -33 189 -5 234 58 23 33 17 48 -10 24 -10 -10 -34 -17
-53 -17 -43 0 -84 39 -104 96 l-13 39 36 8 c58 12 63 21 39 77 l-21 50 24 25
c15 16 21 29 14 33 -106 71 -167 92 -270 92 -132 0 -235 -46 -323 -146 -69
-79 -106 -222 -83 -321 5 -24 6 -43 2 -43 -5 0 -37 22 -72 48 -81 62 -122 135
-114 201 4 25 13 52 22 62 22 24 64 30 98 13 16 -8 31 -14 34 -14 10 0 -11 58
-34 93 -43 66 -152 97 -214 62 -35 -20 -35 -20 -55 30 -38 100 -158 180 -287
192 -90 9 -178 -34 -178 -86 0 -9 10 -4 27 14 25 24 34 27 76 22 85 -8 139
-71 152 -178 l7 -56 -33 -7 c-39 -8 -99 -62 -99 -89 0 -14 4 -17 18 -12 47 20
92 -9 92 -60 0 -18 -7 -38 -15 -45 -22 -18 -18 -38 12 -66 23 -21 35 -25 67
-21 35 5 42 2 72 -30 32 -34 37 -35 81 -30 43 4 59 0 142 -42 52 -26 96 -51
98 -56 2 -6 -38 -10 -100 -10 -90 0 -109 -3 -159 -27 -100 -46 -206 -166 -250
-280 -20 -54 -25 -189 -8 -250 13 -46 63 -97 102 -105 38 -7 68 -47 68 -89 0
-39 1 -39 40 -19 39 20 70 62 70 96 0 27 3 29 36 29 28 0 44 -8 70 -34 42 -42
44 -77 8 -111 l-27 -25 30 0 c23 0 40 10 66 39 76 84 71 170 -13 254 l-49 49
20 39 c27 50 19 87 -28 135 -34 36 -35 36 -49 15 -17 -24 -41 -26 -66 -7 -29
21 -22 64 15 101 41 41 91 52 160 36 141 -32 232 -124 293 -296 26 -72 29 -93
29 -210 0 -126 -11 -191 -45 -280 l-12 -30 -13 33 c-37 87 -120 109 -181 48
-26 -26 -34 -42 -34 -70 0 -39 8 -43 41 -23 32 19 59 -21 59 -88 0 -81 -59
-139 -89 -87 -9 15 -12 15 -21 2 -16 -25 -11 -65 13 -101 21 -31 27 -34 79
-37 l57 -3 -6 -52 c-3 -29 -12 -57 -20 -64 -39 -31 -282 -29 -370 3 -78 29
-144 122 -113 159 7 8 19 15 26 15 17 0 18 12 2 28 -27 27 -94 7 -120 -35
l-15 -25 -23 37 c-27 44 -116 91 -151 80 -19 -6 -19 -8 -5 -24 9 -10 16 -28
16 -42 0 -45 20 -94 50 -126 16 -18 30 -34 30 -36 0 -3 -14 -10 -30 -17 -69
-29 -80 -94 -24 -146 19 -19 39 -34 43 -34 5 0 11 13 14 30 14 67 105 42 163
-46 46 -69 73 -141 80 -212 7 -61 -15 -210 -43 -294 -10 -33 -14 -66 -10 -99
6 -45 3 -53 -20 -77 l-26 -26 24 -19 c20 -16 34 -18 81 -14 32 3 61 1 64 -4 9
-14 75 -45 113 -53 40 -7 104 8 126 31 11 11 15 28 13 50 -3 25 0 34 14 39 25
7 58 53 58 78 0 40 -24 70 -65 82 -52 14 -56 37 -11 58 81 38 198 5 297 -87
87 -80 111 -99 170 -133 86 -51 177 -82 276 -95 80 -11 96 -10 170 9 121 31
192 85 221 171 16 47 15 79 -7 127 -20 45 -68 74 -120 74 -33 0 -39 -11 -17
-29 40 -33 20 -117 -36 -151 -86 -52 -236 7 -269 108 -17 53 5 119 49 145 l35
21 -29 23 c-16 13 -42 34 -57 48 -23 19 -29 21 -34 9 -3 -8 -20 -21 -37 -29
-17 -8 -39 -20 -48 -27 -14 -10 -21 -9 -37 6 -12 11 -21 26 -21 35 0 9 -4 23
-10 31 -21 33 -80 -56 -80 -122 l0 -33 -20 25 c-23 30 -75 159 -89 221 -6 24
-11 91 -11 149 l0 106 121 53 c140 61 182 70 237 48 37 -15 41 -15 55 1 8 9
17 26 19 37 2 13 10 19 23 17 42 -7 131 -7 158 1 29 8 107 73 107 88 0 5 -11
14 -24 19 -14 5 -33 21 -42 36 -16 23 -16 29 -3 52 27 47 41 49 113 13 66 -34
102 -37 172 -16 18 6 24 1 34 -29 10 -32 9 -39 -10 -66 -55 -77 -110 -239
-110 -326 0 -46 -12 -61 -58 -70 -40 -8 -42 -33 -4 -73 37 -39 70 -45 117 -21
22 11 42 17 46 12 16 -17 29 -80 29 -135 0 -95 17 -135 82 -198 65 -62 74 -96
36 -136 l-21 -23 20 0 c24 0 76 48 98 90 26 50 28 101 7 157 -21 57 -20 63 14
63 66 0 102 46 88 112 -8 35 -13 42 -29 40 -99 -15 -104 -14 -138 7 -125 77
-186 258 -137 405 12 36 26 66 32 66 5 0 23 -9 38 -20 79 -56 206 -69 286 -29
59 29 74 57 19 33 -51 -21 -98 -10 -135 32 -37 42 -41 102 -10 141 12 16 20
41 20 65 0 34 3 39 18 33 9 -4 42 -9 73 -12 64 -6 89 10 89 58 0 22 6 30 24
35 14 3 34 3 45 -1 17 -5 21 -2 21 17 0 59 -94 148 -157 148 -26 0 -33 4 -33
19 0 27 -39 71 -76 87 -42 18 -41 18 -40 -8 1 -13 -9 -27 -25 -36 -22 -13 -29
-13 -54 -1 -17 8 -31 22 -33 32 -2 10 18 68 44 130 26 62 64 164 85 227 l37
115 108 -2 c130 -2 246 -32 365 -94 120 -63 155 -102 73 -81 -64 17 -148 23
-164 13 -12 -8 -11 -16 8 -49 27 -49 27 -63 2 -84 -45 -40 -30 -122 29 -152
28 -15 29 -15 35 10 12 46 50 74 99 74 87 0 165 -52 203 -135 56 -120 0 -216
-118 -202 -26 3 -48 2 -48 -2 0 -22 50 -78 84 -95 44 -22 114 -23 153 -2 39
20 87 73 114 126 31 63 39 230 14 315 -36 126 -80 192 -210 320 -85 84 -128
135 -144 170 -28 60 -34 151 -11 165 11 7 18 5 25 -7 32 -53 98 -72 136 -37
15 14 20 13 50 -5 43 -26 69 -26 102 -1 35 28 50 83 36 130 -9 30 -8 43 5 68
9 17 16 38 16 47 0 35 -34 87 -67 103 -32 15 -33 17 -33 79 0 35 -4 63 -9 63
-5 0 -27 -18 -49 -40 -39 -40 -42 -40 -104 -38 -50 2 -77 -4 -133 -27 -61 -25
-83 -29 -170 -29 -81 0 -113 4 -167 23 -84 30 -174 100 -183 142 -8 36 16 69
51 69 37 0 16 41 -35 67 -52 26 -94 18 -130 -26 l-25 -29 -73 49 c-40 27 -73
54 -73 59 0 17 -19 11 -30 -9z m-1684 -86 c98 -41 155 -123 164 -234 5 -69 24
-91 35 -42 21 95 130 127 202 59 30 -28 29 -33 -9 -36 -41 -3 -92 -35 -106
-67 -28 -60 -4 -159 53 -227 14 -17 23 -33 20 -36 -9 -9 -99 58 -125 94 -30
40 -46 45 -26 7 15 -30 74 -89 116 -117 35 -23 5 -20 -47 5 -24 11 -64 44 -89
72 l-46 52 6 -42 c5 -34 3 -43 -8 -43 -22 0 -64 56 -77 103 -6 23 -13 48 -15
56 -8 24 -22 -1 -26 -43 -4 -45 -28 -67 -52 -47 -13 11 -13 16 1 46 22 47 5
109 -38 133 -34 20 -33 36 3 40 18 2 34 -5 52 -24 30 -33 43 -26 28 13 -6 15
-16 64 -22 108 -7 47 -22 98 -36 124 -13 24 -24 47 -24 52 0 13 26 11 66 -6z
m1858 -189 c25 -11 37 -25 49 -57 25 -69 48 -277 29 -265 -5 3 -12 40 -15 83
-8 107 -32 180 -72 220 -37 37 -37 38 9 19z m181 -60 c98 -60 171 -78 313 -77
67 0 122 -4 122 -8 0 -4 -12 -18 -26 -32 -38 -35 -72 -98 -84 -155 -10 -49 -2
-115 26 -203 8 -27 20 -28 -131 13 -49 14 -115 25 -145 26 -30 0 -71 3 -90 6
l-35 6 -1 156 c-1 150 -4 173 -40 301 -8 27 -10 27 91 -33z m743 12 c-3 -36 0
-43 17 -46 28 -5 62 -39 69 -68 9 -34 -10 -64 -39 -64 -31 0 -31 -7 0 -36 53
-49 34 -125 -33 -132 -28 -3 -36 3 -64 42 -38 54 -49 58 -41 13 6 -38 -13 -60
-49 -55 -18 2 -24 10 -26 35 -4 43 -49 77 -89 67 -89 -21 -118 -65 -110 -163
2 -36 8 -74 12 -83 4 -10 3 -18 -3 -18 -15 0 -42 111 -42 176 0 154 129 261
265 220 63 -19 68 -14 12 13 -27 13 -63 21 -95 21 -42 0 -50 3 -46 15 12 31
88 65 145 65 37 0 63 6 84 20 17 11 31 20 33 20 2 0 2 -19 0 -42z m-1922 -73
c34 -19 74 -49 89 -66 30 -37 44 -33 20 5 -20 29 -11 34 17 9 15 -14 18 -14
18 -1 0 8 -10 27 -21 42 -31 39 -17 42 24 6 25 -22 45 -54 67 -113 17 -45 39
-96 50 -114 22 -37 18 -43 -26 -43 -69 0 -108 30 -151 115 l-26 50 -11 -26
c-17 -41 -36 -59 -62 -59 -27 0 -28 3 -13 31 12 24 -2 75 -32 113 -38 48 -136
27 -207 -44 -36 -35 -52 -83 -53 -155 -1 -73 -18 -27 -18 50 -1 150 76 232
218 234 44 1 66 -5 117 -34z m1605 -244 c-30 -30 -39 -26 -11 4 13 14 25 23
28 21 2 -2 -6 -14 -17 -25z m-526 -78 c-3 -23 -11 -43 -16 -43 -10 0 -4 73 9
115 6 18 7 18 10 -4 2 -13 1 -44 -3 -68z m-169 21 c11 -42 -14 -83 -67 -109
-49 -25 -70 -45 -47 -45 7 0 49 12 93 26 90 29 262 48 343 39 69 -9 57 -25
-21 -26 -53 -2 -47 -3 38 -10 126 -11 180 -23 263 -56 90 -36 137 -64 121 -73
-8 -6 -2 -13 19 -24 17 -9 34 -21 38 -27 4 -7 -21 3 -54 21 -34 18 -59 37 -55
43 3 6 1 7 -5 3 -6 -4 -22 0 -35 8 -52 34 -187 60 -317 59 -180 0 -382 -47
-648 -150 -258 -100 -443 -109 -618 -28 -67 30 -157 85 -142 85 4 0 40 -15 80
-34 129 -60 302 -90 393 -68 40 10 39 10 -23 11 -89 1 -69 17 31 24 89 6 170
29 277 79 79 37 152 79 147 84 -2 3 -28 -2 -58 -9 -61 -16 -100 -9 -135 24
-29 27 -38 65 -23 101 14 35 22 35 37 2 17 -35 93 -68 140 -59 40 7 107 39
135 63 9 8 17 29 17 47 0 41 6 46 41 33 18 -6 31 -19 35 -34z m661 4 c-3 -8
-6 -5 -6 6 -1 11 2 17 5 13 3 -3 4 -12 1 -19z m246 -296 c136 -142 176 -205
207 -328 20 -79 27 -169 11 -160 -4 3 -11 26 -14 50 -15 107 -120 271 -237
371 -45 39 -93 76 -106 83 -22 12 -25 32 -5 32 5 0 38 -23 75 -51 37 -29 69
-49 72 -47 3 3 -24 32 -60 64 -68 60 -116 136 -116 183 1 22 5 19 26 -22 14
-26 80 -105 147 -175z m-2296 173 c71 -21 188 -100 255 -173 101 -110 148
-234 148 -395 0 -118 -15 -193 -86 -440 -74 -257 -85 -311 -91 -468 -7 -160 7
-268 46 -380 39 -111 85 -181 172 -263 105 -99 210 -152 354 -182 l60 -12 -57
-1 c-154 -3 -315 70 -483 218 -38 34 -92 73 -118 87 -27 14 -46 28 -43 32 4 3
43 -13 88 -36 45 -23 83 -40 86 -38 2 3 -28 26 -68 52 -74 49 -82 71 -14 35
45 -24 72 -28 56 -8 -6 7 -27 50 -46 95 -39 90 -64 196 -67 285 -3 62 -19 91
-20 35 0 -27 -2 -30 -9 -13 -14 34 -11 274 5 340 8 33 15 74 15 90 0 27 -2 25
-24 -22 -14 -28 -33 -56 -45 -62 -32 -18 -69 -13 -85 11 -21 30 -20 38 7 38
29 1 50 18 70 56 41 79 26 168 -33 202 -34 20 -34 28 3 56 57 42 116 -13 126
-116 3 -35 9 -58 13 -52 5 7 35 93 68 193 52 154 62 197 69 288 9 117 0 177
-41 263 -28 59 -150 181 -213 212 -183 93 -385 24 -385 -132 0 -55 13 -76 60
-100 46 -24 68 -25 94 -5 14 11 23 12 33 4 32 -27 3 -108 -47 -129 -16 -7 -30
-16 -30 -20 0 -4 19 -15 43 -25 73 -29 117 -84 117 -147 0 -38 -18 -71 -27
-50 -14 35 -58 72 -96 82 -23 6 -66 20 -95 31 -29 12 -55 19 -58 16 -3 -3 4
-19 16 -35 16 -21 21 -40 18 -72 -2 -24 -9 -45 -15 -48 -7 -2 -13 3 -13 12 0
20 -58 86 -75 86 -23 0 -61 43 -74 83 -16 47 -8 57 22 29 35 -33 52 -28 27 8
-17 23 -20 41 -18 87 l3 58 18 -32 c26 -48 76 -102 111 -120 30 -15 30 -14
-10 28 -51 53 -90 128 -99 190 -28 184 181 334 382 274z m1499 -172 c-4 -21
-13 -54 -20 -73 -8 -19 -24 -61 -36 -92 -25 -64 -75 -148 -88 -148 -5 0 12 44
38 98 26 53 59 132 75 175 15 42 30 77 32 77 3 0 2 -17 -1 -37z m-36 13 c0
-20 -87 -233 -112 -275 -12 -20 -36 -55 -54 -77 -30 -37 -39 -42 -90 -49 -31
-4 -77 -16 -103 -27 -25 -11 -78 -28 -117 -38 -40 -10 -94 -32 -120 -49 l-49
-30 -6 54 c-8 68 -41 120 -92 140 -52 21 -64 19 -98 -14 -24 -24 -29 -38 -29
-75 0 -39 6 -52 34 -84 38 -41 59 -37 33 7 -22 38 -22 93 2 122 16 20 23 22
47 14 36 -13 74 -78 74 -127 0 -23 -14 -63 -39 -110 -22 -41 -51 -116 -65
-167 -14 -52 -27 -96 -30 -98 -3 -3 -15 2 -28 11 -25 18 -65 21 -101 7 -37
-14 -42 -40 -12 -71 33 -34 32 -68 -4 -118 -44 -60 -181 -147 -195 -123 -8 12
18 162 44 256 90 324 92 334 94 470 1 111 -2 141 -22 205 -13 41 -35 94 -49
118 -13 24 -23 46 -20 48 3 3 31 -8 63 -24 100 -50 184 -74 275 -79 75 -5 100
-2 200 26 63 18 143 44 179 58 84 34 338 111 368 112 13 1 22 -5 22 -13z
m-806 -64 c6 -10 -30 -9 -40 1 -4 4 2 7 14 7 11 0 23 -4 26 -8z m1451 -194
c19 -22 23 -34 15 -36 -13 -5 -100 83 -100 100 0 14 54 -27 85 -64z m42 20
c54 -53 63 -68 41 -68 -17 1 -123 120 -107 120 8 0 37 -23 66 -52z m109 -33
c55 -56 81 -94 57 -83 -19 8 -145 148 -133 148 7 0 41 -29 76 -65z m149 -17
c36 -59 64 -132 64 -163 -1 -29 -1 -29 -17 10 -9 22 -33 73 -53 113 -37 72
-32 103 6 40z m-2088 -100 c-3 -8 -6 -5 -6 6 -1 11 2 17 5 13 3 -3 4 -12 1
-19z m1018 -60 c17 -9 45 -28 64 -42 20 -15 48 -26 66 -26 35 0 75 24 75 46 0
19 25 18 44 -2 18 -17 21 -50 6 -59 -5 -3 -10 -13 -10 -21 0 -12 10 -13 48 -8
35 4 57 2 80 -10 31 -16 76 -65 67 -74 -2 -3 -32 -4 -65 -3 -33 1 -60 0 -60
-2 0 -3 7 -20 15 -39 28 -69 -29 -93 -117 -48 -54 27 -92 22 -64 -8 24 -27 21
-98 -4 -114 -15 -10 -20 -24 -20 -54 0 -52 23 -130 47 -156 18 -21 18 -21 -19
-14 -89 16 -147 59 -179 132 -18 40 -20 54 -16 161 2 42 -2 56 -22 77 -14 14
-30 26 -38 26 -16 0 -16 0 2 -44 53 -126 -95 -201 -189 -97 -17 19 -18 23 -4
39 25 29 29 52 13 82 -20 40 -63 60 -125 60 -68 0 -135 -35 -195 -102 -36 -41
-45 -47 -40 -28 17 65 60 132 115 183 155 144 352 130 506 -36 33 -34 74 -89
92 -122 24 -43 31 -51 27 -30 -11 49 -70 137 -134 198 -57 55 -146 107 -183
107 -22 0 -32 16 -16 26 51 32 176 32 233 2z m-557 -488 c-17 -27 -34 -50 -38
-50 -15 0 3 51 27 75 40 40 45 29 11 -25z m90 32 c9 -6 3 -15 -18 -31 -17 -12
-35 -34 -40 -47 -10 -25 -30 -25 -30 -1 0 14 58 87 68 87 4 0 13 -4 20 -8z
m-273 -81 l0 -63 -56 -52 c-30 -28 -79 -64 -109 -79 -48 -24 -51 -25 -25 -5
119 93 164 162 151 233 -7 34 -6 36 16 33 21 -3 23 -8 23 -67z m710 -21 c3 -5
-1 -24 -10 -41 -68 -130 -58 -264 28 -390 61 -91 80 -102 179 -105 l83 -3 3
-29 c2 -22 -4 -35 -24 -51 -34 -26 -79 -27 -139 -1 -26 11 -50 20 -53 20 -4 0
17 -22 45 -49 37 -35 54 -60 59 -86 6 -36 1 -121 -8 -131 -3 -2 -21 10 -40 28
-19 18 -49 46 -67 62 -42 38 -51 62 -51 146 0 56 -6 82 -29 132 -17 35 -33 76
-36 91 -7 36 -29 30 -33 -9 -5 -38 -19 -54 -49 -54 -29 0 -63 17 -63 31 0 5
11 14 25 19 33 12 55 65 55 128 0 62 22 138 67 230 34 70 46 82 58 62z m-630
-21 c-10 -15 -25 -10 -19 6 4 8 10 12 15 9 5 -3 7 -10 4 -15z m195 -9 c0 -5
-7 -10 -16 -10 -8 0 -12 5 -9 10 3 6 10 10 16 10 5 0 9 -4 9 -10z m-1305 -160
c3 -5 1 -10 -4 -10 -6 0 -11 5 -11 10 0 6 2 10 4 10 3 0 8 -4 11 -10z m110
-86 c57 -23 201 -42 285 -37 41 2 95 5 120 6 l45 2 7 -80 c6 -80 34 -201 59
-262 7 -18 11 -34 8 -37 -3 -3 -29 1 -59 9 -137 37 -254 10 -337 -75 -23 -24
-45 -41 -48 -38 -4 3 -1 33 5 65 22 123 -28 303 -116 419 -38 49 -31 54 31 28z
m435 -4 c0 -5 -8 -10 -17 -10 -15 0 -16 2 -3 10 19 12 20 12 20 0z m31 -416
c64 -19 108 -52 49 -38 -63 16 -153 10 -190 -12 -67 -39 -100 -123 -67 -168 8
-10 31 -21 53 -25 35 -6 39 -9 42 -40 4 -43 -21 -71 -65 -71 -38 0 -39 -2 -17
-35 21 -33 13 -52 -29 -63 -56 -16 -117 1 -152 41 l-30 34 -27 -20 c-34 -25
-63 -17 -51 15 4 13 7 51 5 86 -3 67 6 91 46 135 37 39 52 35 53 -15 1 -66 17
-95 18 -33 1 62 38 145 77 172 72 52 185 66 285 37z m316 -6 c-3 -8 -6 -5 -6
6 -1 11 2 17 5 13 3 -3 4 -12 1 -19z m86 -92 c26 -30 47 -59 47 -64 0 -5 7
-15 15 -22 8 -7 15 -17 15 -23 0 -5 -31 22 -70 60 -62 62 -86 103 -62 103 5 0
29 -24 55 -54z m83 9 c15 -20 24 -38 20 -42 -7 -7 -53 33 -67 60 -18 33 19 19
47 -18z m-68 -112 c26 -26 38 -39 26 -30 -11 9 -24 17 -27 17 -10 0 -57 43
-57 52 0 15 11 8 58 -39z m133 -25 c59 -51 70 -70 28 -47 -29 15 -99 79 -99
91 0 15 11 8 71 -44z m-36 -46 c-6 -7 -35 18 -35 31 0 5 9 2 20 -8 11 -10 18
-20 15 -23z m40 -22 c3 -5 2 -10 -4 -10 -5 0 -13 5 -16 10 -3 6 -2 10 4 10 5
0 13 -4 16 -10z"/>
<path class="st0" d="M7473 10010 c-18 -10 -39 -30 -48 -44 -18 -27 -17 -77 2 -83 7 -3 10
3 7 14 -3 10 1 27 9 38 13 16 20 18 53 10 39 -10 84 -60 84 -94 0 -65 -114
-136 -246 -153 -165 -21 -401 9 -754 95 -443 109 -696 152 -987 169 -484 28
-993 -53 -1331 -213 -46 -21 -85 -39 -87 -39 -2 0 -46 -24 -97 -54 -140 -80
-212 -115 -275 -131 -108 -28 -213 -14 -294 39 -21 14 -42 26 -45 26 -18 0 36
-45 81 -68 59 -30 168 -40 255 -24 30 6 57 9 58 7 2 -2 -16 -23 -40 -47 -182
-182 -284 -342 -354 -556 -13 -40 -24 -85 -23 -100 1 -17 11 4 28 58 66 204
162 366 312 524 143 151 311 266 517 356 366 158 855 227 1357 189 406 -30
912 -145 1450 -330 464 -159 701 -214 925 -213 154 1 236 17 331 65 137 69
200 164 201 304 0 105 -27 157 -102 195 -87 43 -154 33 -217 -33 -67 -71 -70
-142 -8 -204 39 -39 79 -43 119 -12 34 27 33 42 -1 23 -67 -34 -123 3 -123 81
0 58 11 78 62 115 49 36 92 39 147 10 84 -42 113 -115 92 -231 -32 -183 -218
-289 -508 -289 -146 0 -361 40 -598 111 -158 48 -395 131 -395 139 0 4 62 5
138 2 107 -4 156 -1 213 12 154 34 255 115 265 212 6 59 -8 89 -55 121 -42 28
-76 29 -118 3z"/>
<path class="st0" d="M9405 9972 c-78 -15 -135 -84 -135 -163 0 -118 118 -193 225 -142 46
22 57 11 59 -59 2 -80 -45 -168 -133 -251 -232 -218 -549 -327 -961 -328 -199
-1 -335 13 -540 57 -279 59 -382 88 -755 210 -539 175 -618 199 -890 269 -357
91 -534 118 -835 129 -268 9 -662 -66 -920 -174 -41 -17 -93 -38 -115 -47
-128 -53 -325 -193 -441 -315 -194 -203 -268 -451 -193 -654 27 -73 57 -115
112 -152 191 -131 420 -33 422 178 0 77 -14 105 -77 150 -93 68 -216 11 -221
-101 -1 -32 4 -45 22 -60 25 -20 76 -26 86 -9 4 6 -8 10 -28 10 -45 0 -61 20
-54 67 15 91 108 124 190 66 142 -99 31 -333 -157 -333 -78 0 -144 28 -203 86
-59 59 -79 111 -89 233 -16 192 98 383 274 463 194 88 429 34 518 -118 58 -98
55 -187 -8 -247 -45 -43 -44 -56 4 -36 79 32 141 114 209 274 62 145 104 211
183 291 128 127 276 208 491 267 129 36 209 47 390 54 265 10 449 -31 1090
-241 646 -212 716 -232 1005 -290 241 -48 375 -60 604 -53 207 6 300 21 475
78 177 57 316 141 436 263 119 120 176 240 176 372 0 100 -14 145 -64 198 -33
37 -51 48 -87 54 -25 4 -54 6 -65 4z m-72 -107 c-11 -65 36 -125 97 -125 30 0
80 53 80 85 0 22 4 26 23 23 30 -4 66 -79 66 -138 1 -65 -14 -82 -29 -35 -15
46 -26 50 -75 25 -72 -37 -147 -19 -185 43 -25 41 -25 83 0 125 25 41 30 40
23 -3z m-3593 -245 c0 -5 -3 -10 -7 -10 -26 0 -218 -32 -270 -45 -207 -52
-399 -153 -517 -273 -87 -88 -136 -165 -205 -321 -35 -77 -74 -150 -87 -162
l-24 -22 0 54 c0 77 -24 141 -76 198 -81 90 -208 136 -355 129 -44 -2 -79 0
-79 3 0 19 111 53 186 57 179 10 312 -74 364 -229 l18 -54 6 40 c25 149 69
236 178 344 198 198 453 297 766 300 62 1 102 -3 102 -9z m-843 -57 c-96 -51
-179 -135 -207 -209 -28 -76 -35 -84 -79 -84 -68 0 -105 58 -77 123 26 64 168
147 316 186 111 29 123 25 47 -16z"/>
<path class="st0" d="M3507 9944 c-16 -9 -27 -18 -24 -21 3 -2 14 0 25 6 31 17 110 13 143
-6 32 -19 59 -68 59 -106 0 -14 -11 -38 -24 -54 -19 -22 -32 -28 -65 -28 -46
0 -54 -10 -16 -19 32 -8 88 15 109 45 20 29 21 91 1 129 -33 63 -140 91 -208
54z"/>
<path class="st0" d="M6010 9383 c0 -6 45 -13 103 -16 217 -12 430 -77 597 -182 71 -44
193 -174 235 -250 33 -58 39 -79 43 -145 3 -58 0 -84 -12 -109 -27 -52 -52
-71 -93 -71 -27 0 -34 -3 -26 -11 18 -18 97 -12 141 10 72 37 132 138 132 222
0 34 20 38 78 13 20 -9 79 -18 132 -21 81 -4 103 -2 152 17 69 26 173 93 194
126 22 33 8 51 -20 26 -114 -105 -334 -69 -666 109 -262 140 -471 218 -706
264 -102 20 -284 32 -284 18z"/>
<path class="st0" d="M5662 9219 c-103 -22 -207 -60 -327 -122 -63 -32 -101 -61 -175 -136
-52 -53 -110 -121 -128 -152 -91 -155 -109 -340 -47 -476 69 -152 230 -226
357 -165 95 46 132 105 133 208 0 59 -4 76 -25 107 -36 52 -76 71 -136 64 -80
-9 -134 -84 -108 -151 9 -24 24 -19 24 9 0 17 9 29 31 40 78 41 172 -56 152
-157 -7 -34 -56 -85 -100 -104 -106 -46 -240 22 -305 153 -28 58 -33 79 -36
162 -3 78 0 108 17 157 29 87 87 184 154 259 197 220 566 341 899 295 104 -14
234 -53 260 -79 16 -15 7 -16 -140 -16 -139 0 -165 -3 -227 -24 -191 -64 -301
-166 -339 -313 -39 -150 31 -305 169 -375 95 -49 202 -30 280 50 57 58 76 109
76 194 0 43 -5 61 -26 89 -53 69 -148 93 -212 54 -39 -23 -66 -71 -61 -108 4
-25 5 -23 16 14 16 55 51 85 104 91 164 16 217 -201 77 -320 -109 -94 -266
-64 -356 66 -46 69 -58 117 -45 198 33 218 219 354 502 366 197 9 314 -31 422
-142 124 -128 157 -322 68 -406 -53 -51 -131 -63 -170 -27 -22 21 -22 22 -5
32 74 43 85 98 30 153 -31 31 -40 35 -72 30 -82 -14 -128 -110 -88 -187 33
-63 137 -114 203 -99 44 10 105 51 135 91 128 172 -16 462 -298 598 -44 21
-100 46 -125 54 -149 49 -391 60 -558 25z"/>
<path class="st0" d="M3410 8510 c0 -46 20 -165 36 -215 49 -151 109 -256 226 -397 93
-111 138 -203 138 -281 0 -102 -47 -173 -129 -198 -50 -15 -144 12 -184 53
-27 26 -29 34 -25 80 7 64 40 98 96 98 52 0 81 -23 88 -70 8 -47 24 -43 24 5
0 53 -35 87 -96 92 -90 8 -151 -55 -142 -147 7 -67 37 -104 104 -129 100 -38
184 -19 240 54 53 70 66 146 39 245 -8 30 -12 56 -10 58 2 2 44 -17 94 -42
174 -88 339 -114 493 -77 265 63 430 253 429 494 0 100 -21 163 -73 222 -56
63 -102 85 -180 85 -173 -1 -285 -159 -217 -305 23 -48 54 -76 115 -101 55
-23 124 -4 173 47 20 22 39 39 43 39 16 0 40 -92 35 -134 -16 -114 -88 -207
-208 -271 -188 -99 -426 -82 -641 45 -133 79 -289 262 -364 427 -39 84 -84
240 -84 288 0 17 -5 37 -10 45 -8 12 -10 10 -10 -10z m1030 -170 c-68 -95 -34
-206 69 -226 69 -14 131 52 131 139 0 42 10 45 51 16 38 -27 66 -83 75 -147
11 -88 -3 -96 -39 -22 -35 70 -52 83 -62 48 -19 -60 -101 -107 -169 -94 -66
13 -136 97 -136 164 0 41 23 93 60 132 37 40 51 33 20 -10z"/>
<path class="st0" d="M2695 8080 c-113 -45 -175 -115 -175 -201 0 -79 62 -147 141 -156 36
-4 49 -1 69 17 22 19 22 20 3 11 -98 -48 -212 53 -183 161 20 72 135 148 224
148 139 0 256 -136 243 -284 -11 -126 -111 -261 -236 -319 -85 -40 -208 -49
-307 -22 -74 20 -94 15 -34 -9 157 -62 345 -27 470 90 26 24 56 44 66 44 35 0
162 -68 210 -112 58 -53 104 -145 104 -207 0 -128 -164 -230 -278 -172 -47 24
-83 65 -129 148 -39 69 -44 45 -7 -28 70 -140 198 -193 317 -133 80 41 117 97
117 181 0 135 -100 253 -272 322 l-56 23 36 76 c35 72 37 83 37 173 0 89 -2
99 -30 145 -60 97 -219 147 -330 104z"/>
<path class="st0" d="M2754 6949 c-75 -22 -107 -113 -62 -179 14 -21 38 -40 60 -47 37 -12
78 -8 78 9 0 6 -7 7 -16 4 -21 -8 -80 18 -93 42 -21 39 -13 101 15 129 23 23
31 25 82 20 96 -10 146 -69 139 -167 -4 -71 -28 -119 -74 -150 -31 -21 -47
-25 -117 -25 -55 0 -95 6 -124 18 -44 18 -146 83 -257 165 -135 99 -302 159
-495 178 -91 9 -68 -6 34 -22 318 -51 572 -225 700 -479 65 -129 88 -217 89
-335 0 -178 -61 -329 -170 -414 -63 -50 -108 -66 -182 -66 -81 0 -117 29 -71
57 23 15 45 55 54 100 15 70 -40 170 -111 199 -47 20 -127 17 -171 -5 -54 -28
-82 -58 -110 -119 -20 -45 -24 -64 -19 -113 10 -116 79 -188 221 -231 60 -18
77 -19 142 -10 221 31 392 210 440 460 34 179 -3 355 -112 532 -59 97 -59 101
12 76 141 -49 284 -13 334 84 22 44 27 140 9 187 -31 84 -132 129 -225 102z
m-524 -989 c40 -20 72 -58 85 -98 19 -63 -25 -161 -82 -183 -13 -5 -21 -14
-18 -19 13 -20 87 -51 138 -57 l52 -6 -30 -13 c-72 -31 -190 -6 -248 53 -45
45 -47 63 -7 63 44 0 93 23 119 56 33 41 25 105 -18 148 -28 28 -38 31 -90 31
-46 0 -66 -5 -91 -23 -31 -24 -49 -24 -35 -2 4 7 28 25 53 41 55 35 115 38
172 9z"/>
<path class="st0" d="M1341 6875 c-160 -66 -325 -184 -453 -324 l-56 -62 -4 118 c-4 138
-25 197 -86 238 -53 36 -58 31 -13 -11 55 -49 74 -104 74 -217 0 -101 -29
-209 -76 -284 -98 -155 -210 -454 -266 -708 -52 -240 -77 -546 -61 -771 23
-347 111 -773 256 -1244 97 -314 127 -473 128 -690 1 -136 -1 -148 -25 -200
-33 -70 -79 -120 -112 -120 -40 0 -92 41 -95 77 -4 36 22 67 50 60 12 -4 18
-1 15 6 -5 16 -52 21 -76 7 -26 -14 -61 -81 -61 -117 0 -36 33 -90 63 -104 48
-22 136 21 196 94 63 77 100 246 82 377 -18 134 -21 170 -12 170 28 0 205
-566 257 -820 24 -120 25 -361 0 -449 -25 -91 -50 -137 -110 -197 -114 -113
-234 -135 -340 -61 -55 39 -84 155 -53 217 22 43 76 72 125 67 50 -5 78 -27
87 -67 7 -30 -17 -90 -35 -90 -6 0 -10 -4 -10 -10 0 -19 22 -10 51 21 51 54
29 138 -44 172 -63 30 -121 15 -175 -47 -38 -44 -46 -70 -40 -142 9 -107 88
-177 215 -190 54 -6 69 -4 115 19 69 34 149 105 182 161 14 24 37 79 52 122
25 73 27 92 27 239 0 140 -3 175 -28 280 -56 244 -188 651 -320 990 -127 327
-271 904 -320 1290 -18 140 -21 519 -6 665 44 401 195 831 384 1085 163 220
303 328 607 468 70 32 -4 17 -89 -18z"/>
<path class="st0" d="M396 6781 c-49 -95 38 -226 138 -207 41 8 83 45 92 82 8 31 -5 75
-24 82 -11 3 -12 0 -3 -16 19 -35 12 -63 -24 -99 -32 -32 -40 -35 -73 -30 -72
12 -118 97 -94 175 14 46 8 53 -12 13z"/>
<path class="st0" d="M1550 6607 c-420 -127 -741 -649 -835 -1355 -29 -216 -13 -577 40
-877 51 -295 174 -695 390 -1270 87 -231 136 -366 150 -415 118 -397 152 -578
162 -850 6 -176 -7 -372 -32 -496 -78 -374 -341 -724 -547 -727 -62 -1 -72 10
-55 54 25 60 -1 142 -57 182 -23 16 -45 22 -88 22 -64 0 -97 -18 -136 -76 -34
-49 -27 -127 14 -170 61 -64 164 -94 269 -78 81 13 211 78 280 140 123 113
249 319 308 504 68 210 93 502 67 766 -21 215 -108 618 -160 741 -5 13 -29 79
-54 148 -24 69 -70 193 -101 275 -181 476 -260 717 -307 940 -20 98 -23 137
-23 350 0 191 4 259 18 333 44 225 125 413 241 558 95 118 151 157 397 273 83
39 162 108 183 162 23 56 10 68 -24 21 -36 -50 -75 -66 -149 -59 -140 12 -247
122 -287 294 -37 158 29 351 163 475 95 87 215 132 354 130 248 -4 398 -183
334 -399 -27 -90 -118 -151 -212 -140 -105 12 -173 121 -128 207 21 41 53 60
102 60 50 0 64 -17 52 -68 -6 -29 -5 -32 5 -21 8 8 16 29 20 47 16 90 -132 99
-194 12 -30 -42 -38 -116 -17 -157 74 -142 274 -145 366 -6 41 62 55 115 47
186 -13 125 -78 211 -201 268 -62 29 -81 33 -175 36 -87 2 -118 -1 -180 -20z
m-365 -454 c-15 -201 62 -366 207 -443 53 -28 73 -34 125 -33 35 0 63 -3 63
-7 0 -13 -49 -42 -190 -111 -198 -98 -296 -187 -401 -360 -54 -90 -101 -206
-130 -317 -26 -104 -49 -239 -49 -293 0 -26 -3 -62 -7 -80 -7 -33 -7 -33 -14
-9 -11 39 -10 258 2 351 16 122 70 290 125 384 61 104 223 267 309 312 56 29
125 53 188 67 39 9 34 21 -15 36 -173 51 -292 231 -275 416 7 75 44 174 64
174 3 0 2 -39 -2 -87z m-111 -405 c9 -12 16 -40 16 -61 0 -46 -33 -84 -82 -94
-67 -13 -155 -126 -219 -281 -28 -68 -44 -91 -35 -52 3 14 15 68 26 120 35
158 86 275 152 346 36 39 45 44 84 44 33 0 46 -5 58 -22z m-327 -4914 c33 -21
63 -73 63 -109 0 -16 -9 -45 -20 -63 -24 -38 -21 -45 20 -62 37 -15 23 -30
-28 -30 -36 0 -129 27 -138 41 -2 4 13 17 34 28 60 31 78 88 42 134 -27 34
-71 43 -112 23 -38 -19 -44 -16 -21 12 43 51 107 62 160 26z"/>
<path class="st0" d="M1755 5379 c-135 -30 -260 -115 -369 -248 -100 -123 -194 -350 -217
-526 -17 -132 -6 -336 24 -456 58 -226 197 -425 360 -517 73 -41 114 -53 190
-54 83 -1 161 34 208 93 28 35 33 51 37 113 5 79 -6 112 -52 155 -31 29 -117
39 -155 19 -60 -32 -81 -107 -44 -155 41 -56 113 -51 151 9 l19 30 17 -23 c53
-76 -26 -198 -141 -215 -68 -10 -140 11 -232 67 -129 80 -202 197 -231 369
-32 190 37 416 162 537 77 74 215 111 314 84 62 -17 129 -67 166 -124 30 -47
33 -59 33 -127 0 -67 -3 -80 -30 -120 -61 -89 -160 -130 -249 -100 -43 14 -85
65 -93 114 -13 82 30 136 109 136 30 0 47 4 43 10 -12 19 -90 11 -126 -13
-101 -68 -57 -233 73 -272 75 -22 168 6 241 74 127 116 80 329 -92 415 -190
97 -389 17 -504 -202 -56 -106 -81 -224 -73 -347 3 -55 9 -113 12 -130 l5 -30
-20 23 c-49 56 -100 247 -108 404 -16 329 97 632 312 837 124 118 258 168 401
151 231 -29 358 -250 225 -391 -44 -46 -84 -51 -137 -18 -62 38 -96 129 -59
159 21 17 19 30 -5 30 -12 0 -39 -17 -62 -38 -36 -34 -42 -45 -46 -93 -4 -49
-1 -59 24 -88 129 -153 364 -39 364 177 0 34 -6 78 -14 96 -56 133 -264 223
-431 185z"/>
<path class="st0" d="M1021 4213 c-1 -121 12 -223 45 -353 52 -199 151 -431 279 -655 84
-146 118 -222 149 -338 34 -122 34 -188 1 -253 -28 -55 -30 -64 -14 -64 18 0
70 63 95 115 59 126 67 251 25 370 -12 33 -22 64 -24 70 -1 5 21 12 48 16 71
10 99 23 149 70 55 50 78 106 74 179 -3 61 -28 85 -28 27 0 -42 -29 -81 -81
-107 -142 -73 -396 69 -532 299 -104 175 -145 324 -176 641 l-8 85 -2 -102z"/>
</g>
</svg>
