<?xml version="1.0" standalone="no"?>
<!DOCTYPE svg PUBLIC "-//W3C//DTD SVG 20010904//EN"
 "http://www.w3.org/TR/2001/REC-SVG-20010904/DTD/svg10.dtd">
<svg version="1.0" xmlns="http://www.w3.org/2000/svg"
 width="1024.000000pt" height="1024.000000pt" viewBox="0 0 1024.000000 1024.000000"
 preserveAspectRatio="xMidYMid meet">

<g transform="translate(0.000000,1024.000000) scale(0.100000,-0.100000)"
fill="#000000" stroke="none">
<path class="st0" d="M7980 9981 c0 -6 -33 -33 -73 -60 l-73 -49 -25 29 c-36 44 -78 52
-130 26 -51 -26 -72 -67 -35 -67 35 0 59 -33 51 -69 -9 -42 -99 -112 -183
-142 -54 -19 -86 -23 -167 -23 -87 0 -109 4 -170 29 -56 23 -83 29 -133 27
-62 -2 -65 -2 -104 38 -22 22 -44 40 -49 40 -5 0 -9 -28 -9 -63 0 -62 -1 -64
-33 -79 -33 -16 -67 -68 -67 -103 0 -9 7 -30 16 -47 13 -25 14 -38 5 -68 -14
-47 1 -102 36 -130 33 -25 59 -25 102 1 30 18 35 19 50 5 38 -35 104 -16 136
37 7 12 14 14 25 7 23 -14 17 -105 -11 -165 -16 -35 -59 -86 -144 -170 -130
-128 -174 -194 -210 -320 -25 -85 -17 -252 14 -315 27 -53 75 -106 114 -126
39 -21 109 -20 153 2 34 17 84 73 84 95 0 4 -22 5 -48 2 -118 -14 -174 82
-118 202 38 83 116 135 203 135 49 0 87 -28 99 -74 6 -25 7 -25 35 -10 59 30
74 112 29 152 -25 21 -25 35 2 84 19 33 20 41 8 49 -16 10 -100 4 -164 -13
-82 -21 -47 18 73 81 119 62 235 92 365 94 l108 2 37 -115 c21 -63 59 -165 85
-227 26 -62 46 -120 44 -130 -2 -10 -16 -24 -33 -32 -25 -12 -32 -12 -54 1
-16 9 -26 23 -25 36 1 26 2 26 -40 8 -37 -16 -76 -60 -76 -87 0 -15 -7 -19
-33 -19 -63 0 -157 -89 -157 -148 0 -19 4 -22 21 -17 11 4 31 4 45 1 18 -5 24
-13 24 -35 0 -48 25 -64 89 -58 31 3 64 8 74 12 14 6 17 1 17 -33 0 -24 8 -49
20 -65 31 -39 27 -99 -10 -141 -37 -42 -84 -53 -135 -32 -55 24 -40 -4 19 -33
80 -40 207 -27 286 29 15 11 33 20 38 20 6 0 20 -30 32 -66 49 -147 -12 -328
-137 -405 -34 -21 -39 -22 -138 -7 -16 2 -21 -5 -29 -40 -14 -66 22 -112 88
-112 34 0 35 -6 14 -63 -21 -56 -19 -107 7 -157 22 -42 74 -90 98 -90 l20 0
-21 23 c-38 40 -29 74 36 136 65 63 82 103 82 198 0 55 13 118 29 135 4 5 24
-1 46 -12 47 -24 80 -18 118 21 37 40 35 65 -5 73 -46 9 -58 24 -58 70 0 87
-55 249 -110 326 -19 27 -20 34 -10 66 10 30 16 35 34 29 70 -21 106 -18 172
16 72 36 86 34 113 -13 13 -23 13 -29 -3 -52 -9 -15 -28 -31 -42 -36 -13 -5
-24 -14 -24 -19 0 -15 78 -80 107 -88 27 -8 116 -8 158 -1 13 2 21 -4 23 -17
2 -11 11 -28 19 -37 14 -16 18 -16 55 -1 55 22 97 13 237 -48 l121 -53 0 -106
c0 -58 -5 -125 -11 -149 -14 -62 -66 -191 -89 -221 l-20 -25 0 33 c0 42 -21
92 -49 117 -19 16 -24 17 -31 5 -6 -8 -10 -22 -10 -31 0 -9 -9 -24 -21 -35
-16 -15 -23 -16 -37 -6 -9 7 -31 19 -48 27 -17 8 -34 21 -37 29 -5 12 -11 10
-34 -9 -15 -14 -41 -35 -57 -48 l-29 -23 35 -21 c44 -26 66 -92 49 -145 -33
-101 -183 -160 -269 -108 -56 34 -76 118 -36 151 22 18 16 29 -17 29 -52 0
-100 -29 -120 -74 -22 -48 -23 -80 -7 -127 29 -86 100 -140 221 -171 74 -19
90 -20 170 -9 99 13 190 44 276 95 59 34 83 53 170 133 99 92 216 125 297 87
45 -21 41 -44 -11 -58 -41 -12 -65 -42 -65 -82 0 -25 33 -71 58 -78 14 -5 17
-14 14 -39 -9 -79 104 -109 210 -56 20 10 39 23 42 28 3 5 32 7 64 4 47 -4 61
-2 81 14 l24 19 -26 26 c-23 24 -26 32 -20 77 4 33 0 66 -10 99 -28 84 -50
233 -43 294 7 71 34 143 80 212 58 88 149 113 163 46 3 -17 9 -30 14 -30 4 0
24 15 43 34 56 52 45 117 -24 146 -16 7 -30 14 -30 17 0 2 14 18 30 36 30 32
50 81 50 126 0 14 7 32 16 42 14 16 14 18 -5 24 -35 11 -124 -36 -151 -80
l-23 -37 -15 25 c-26 42 -93 62 -120 35 -16 -16 -15 -28 2 -28 7 0 19 -7 26
-15 31 -37 -35 -130 -113 -159 -88 -32 -331 -34 -370 -3 -8 7 -17 35 -20 64
l-6 52 57 3 c52 3 58 6 79 37 24 36 29 76 13 101 -9 13 -12 13 -21 -2 -30 -52
-89 6 -89 87 0 67 27 107 59 88 33 -20 41 -16 41 23 0 28 -8 44 -34 70 -61 61
-144 39 -181 -48 l-13 -33 -12 30 c-34 89 -45 154 -45 280 0 117 3 138 29 210
61 172 152 264 293 296 69 16 119 5 160 -36 37 -37 44 -80 16 -101 -26 -19
-50 -17 -67 7 -14 21 -15 21 -49 -15 -47 -48 -55 -85 -28 -135 l20 -39 -49
-49 c-84 -84 -89 -170 -13 -254 26 -29 43 -39 66 -39 l30 0 -27 25 c-36 34
-34 69 8 111 26 26 42 34 70 34 33 0 36 -2 36 -29 0 -34 31 -76 70 -96 39 -20
40 -20 40 19 0 42 30 82 68 89 39 8 89 59 102 105 17 61 12 196 -8 250 -44
114 -150 234 -250 280 -50 24 -69 27 -159 27 -62 0 -102 4 -100 10 2 5 46 30
98 56 83 42 99 46 142 42 44 -5 49 -4 81 30 30 32 37 35 72 30 32 -4 44 0 67
21 30 28 34 48 12 66 -8 7 -15 27 -15 45 0 51 45 80 93 60 13 -5 17 -2 17 12
0 27 -60 81 -99 89 l-33 7 7 56 c13 107 67 170 152 178 42 5 51 2 76 -22 17
-18 27 -23 27 -14 0 52 -88 95 -178 86 -129 -12 -249 -92 -287 -192 -20 -50
-20 -50 -55 -30 -62 35 -171 4 -214 -62 -23 -35 -44 -93 -34 -93 3 0 18 6 34
14 34 17 76 11 98 -13 9 -10 18 -37 22 -62 8 -66 -33 -139 -114 -201 -35 -26
-67 -48 -72 -48 -4 0 -3 19 2 43 23 99 -14 242 -83 321 -88 100 -191 146 -323
146 -103 0 -164 -21 -270 -92 -7 -4 -1 -17 14 -33 l24 -25 -21 -50 c-24 -56
-19 -65 39 -77 l36 -8 -13 -39 c-20 -57 -61 -96 -104 -96 -19 0 -43 7 -53 17
-27 24 -33 9 -10 -24 45 -63 157 -91 234 -58 34 13 91 68 100 97 4 10 11 7 30
-9 32 -30 97 -31 123 -3 17 19 17 21 1 39 -12 14 -16 27 -11 43 10 30 23 38
66 38 27 0 43 -8 70 -36 33 -34 34 -38 33 -112 0 -65 -5 -84 -28 -124 -56 -97
-169 -173 -303 -204 -101 -24 -272 -14 -380 20 -46 15 -83 30 -83 35 0 4 11
13 25 19 35 16 65 70 65 116 0 31 -7 45 -40 78 -22 22 -45 38 -52 36 -7 -3
-14 -23 -16 -46 -4 -50 -29 -72 -85 -72 -74 0 -152 53 -131 88 6 9 20 21 32
27 32 14 21 29 -29 39 -85 16 -152 -34 -152 -115 l0 -41 -40 6 c-23 4 -44 9
-47 12 -3 3 -5 78 -5 167 0 150 2 166 25 221 14 32 35 66 48 74 22 14 23 13
35 -17 14 -38 24 -39 65 -2 40 38 43 81 7 117 -14 14 -25 26 -25 28 0 2 13 18
30 36 33 35 47 90 34 128 -9 26 -34 43 -34 23z m1780 -90 c0 -5 -11 -28 -24
-52 -14 -26 -29 -77 -36 -124 -6 -44 -16 -93 -22 -108 -15 -39 -2 -46 28 -13
18 19 34 26 52 24 36 -4 37 -20 3 -40 -43 -24 -60 -86 -38 -133 14 -30 14 -35
1 -46 -24 -20 -48 2 -52 47 -4 42 -18 67 -26 43 -2 -8 -9 -33 -15 -56 -13 -47
-55 -103 -77 -103 -11 0 -13 9 -8 43 l6 42 -46 -52 c-25 -28 -65 -61 -89 -72
-52 -25 -82 -28 -47 -5 42 28 101 87 116 117 20 38 4 33 -26 -7 -26 -36 -116
-103 -125 -94 -3 3 6 19 20 36 57 68 81 167 53 227 -14 32 -65 64 -106 67 -38
3 -39 8 -9 36 72 68 181 36 202 -59 11 -49 30 -27 35 42 6 80 39 149 90 189
59 46 140 76 140 51z m-1915 -214 c-40 -40 -64 -113 -72 -220 -3 -43 -10 -80
-15 -83 -19 -12 4 196 29 264 11 32 24 48 47 58 46 20 47 17 11 -19z m-815
-27 c56 0 132 -34 144 -65 4 -12 -4 -15 -46 -15 -32 0 -68 -8 -95 -21 -56 -27
-51 -32 12 -13 136 41 265 -66 265 -220 0 -65 -27 -176 -42 -176 -6 0 -7 8 -3
18 4 9 10 47 12 83 8 98 -21 142 -110 163 -40 10 -85 -24 -89 -67 -2 -25 -8
-33 -26 -35 -36 -5 -55 17 -49 55 8 45 -3 41 -41 -13 -28 -39 -36 -45 -64 -42
-67 7 -86 83 -33 132 31 29 31 36 0 36 -29 0 -48 30 -39 64 7 29 41 63 69 68
17 3 20 10 17 47 l-4 44 35 -22 c24 -14 51 -21 87 -21z m706 -17 c-23 -67 -39
-215 -34 -326 l3 -95 -35 -6 c-19 -3 -60 -6 -90 -6 -30 -1 -95 -12 -145 -26
-151 -41 -139 -40 -131 -13 28 88 36 154 26 203 -12 57 -46 120 -84 155 -14
14 -26 28 -26 32 0 4 55 8 123 8 146 -1 213 17 327 85 41 25 76 43 78 41 2 -2
-3 -25 -12 -52z m1329 -48 c60 -30 97 -97 102 -188 3 -39 0 -83 -5 -97 -10
-22 -11 -19 -11 25 -1 72 -17 120 -53 155 -71 71 -169 92 -207 44 -30 -38 -44
-89 -32 -113 15 -28 14 -31 -13 -31 -26 0 -45 18 -62 59 l-11 26 -26 -50 c-43
-85 -82 -115 -151 -115 -44 0 -48 6 -26 43 11 18 33 69 50 114 22 59 42 91 67
113 41 36 55 33 24 -6 -11 -15 -21 -34 -21 -42 0 -13 3 -13 18 1 28 25 37 20
17 -9 -24 -38 -10 -42 20 -5 15 17 54 47 88 66 56 33 68 36 127 33 39 -2 81
-12 105 -23z m-1809 -273 c-5 -4 -46 35 -46 45 0 3 11 -4 25 -17 14 -13 23
-25 21 -28z m518 -49 c4 -30 3 -53 -2 -53 -11 0 -22 49 -22 99 1 50 15 21 24
-46z m226 13 c0 -19 8 -39 18 -48 27 -24 94 -56 134 -63 47 -9 123 24 140 59
15 33 23 33 37 -2 15 -36 6 -74 -23 -101 -35 -33 -74 -40 -135 -24 -30 7 -56
12 -58 9 -5 -5 68 -47 147 -84 107 -50 188 -73 277 -79 100 -7 120 -23 31 -24
-62 -1 -63 -1 -23 -11 91 -22 264 8 393 68 40 19 76 34 80 34 15 0 -75 -55
-142 -85 -175 -81 -360 -72 -618 28 -266 103 -468 150 -648 150 -130 1 -265
-25 -317 -59 -13 -8 -29 -12 -35 -8 -6 4 -8 3 -5 -3 4 -6 -21 -25 -55 -43 -33
-18 -58 -28 -54 -21 4 6 21 18 38 27 21 11 27 18 19 24 -16 9 31 37 121 73 83
33 137 45 263 56 85 7 91 8 38 10 -78 1 -90 17 -21 26 81 9 253 -10 343 -39
44 -14 86 -26 93 -26 23 0 2 20 -47 45 -76 38 -96 121 -34 143 37 12 43 7 43
-32z m-733 2 c-3 -8 -6 -5 -6 6 -1 11 2 17 5 13 3 -3 4 -12 1 -19z m-101 -172
c-16 -33 -49 -73 -91 -110 -36 -32 -64 -61 -61 -64 3 -2 35 18 72 47 37 28 70
51 75 51 20 0 17 -20 -5 -32 -13 -7 -61 -44 -106 -83 -117 -100 -222 -264
-237 -371 -3 -24 -10 -47 -14 -50 -16 -9 -9 81 11 160 31 123 71 186 210 331
76 80 133 148 145 175 17 38 21 41 23 22 2 -13 -8 -47 -22 -76z m2378 30 c179
-88 203 -287 52 -445 -40 -42 -40 -43 -10 -28 35 18 85 72 111 120 l18 32 3
-58 c2 -46 -1 -64 -18 -87 -25 -36 -8 -41 27 -8 30 28 38 18 22 -29 -13 -40
-51 -83 -74 -83 -17 0 -75 -66 -75 -86 0 -9 -6 -14 -12 -12 -7 3 -14 24 -16
48 -3 32 2 51 18 72 12 16 19 32 16 35 -3 3 -29 -4 -58 -16 -29 -11 -72 -25
-95 -31 -38 -10 -82 -47 -96 -82 -9 -21 -27 12 -27 50 0 63 44 118 118 147 23
10 42 21 42 25 0 4 -14 13 -30 20 -50 21 -79 102 -47 129 10 8 19 7 33 -4 26
-20 48 -19 94 5 47 24 60 45 60 100 0 156 -202 225 -385 132 -63 -31 -185
-153 -213 -212 -41 -86 -50 -146 -41 -263 7 -91 17 -134 69 -288 33 -100 63
-186 68 -193 4 -6 10 17 13 52 10 103 69 158 126 116 37 -28 37 -36 3 -56 -59
-34 -74 -123 -33 -202 20 -38 41 -55 71 -56 26 0 27 -8 6 -38 -16 -24 -53 -29
-85 -11 -12 6 -31 34 -45 62 -22 47 -24 49 -24 22 0 -16 7 -57 15 -90 16 -66
19 -306 5 -340 -7 -17 -9 -14 -9 13 -1 56 -17 27 -20 -35 -3 -89 -28 -195 -67
-285 -19 -45 -40 -88 -46 -95 -16 -20 11 -16 56 8 68 36 60 14 -14 -35 -40
-26 -70 -49 -68 -52 3 -2 41 15 86 38 45 23 84 39 88 36 3 -4 -16 -18 -43 -32
-26 -14 -79 -53 -118 -87 -168 -148 -329 -221 -483 -218 l-57 1 60 12 c144 30
249 83 354 182 165 156 230 347 218 643 -6 157 -17 211 -91 468 -71 247 -86
322 -86 440 0 111 15 179 61 271 58 117 206 249 333 294 72 26 167 19 240 -16z
m-1695 -204 c17 -46 50 -123 75 -172 24 -50 39 -90 34 -90 -13 0 -63 84 -88
148 -12 31 -28 73 -36 92 -15 38 -30 118 -21 110 3 -3 20 -43 36 -88z m181 34
c80 -24 174 -55 210 -69 36 -14 116 -40 179 -58 100 -28 125 -31 200 -26 91 5
175 29 275 79 32 16 60 27 63 24 3 -2 -7 -24 -20 -48 -14 -24 -36 -77 -49
-118 -20 -64 -23 -94 -22 -205 2 -136 4 -146 94 -470 26 -94 52 -244 44 -256
-14 -24 -151 63 -195 123 -36 50 -37 84 -4 118 30 31 25 57 -12 71 -36 14 -76
11 -101 -7 -13 -9 -25 -14 -28 -11 -3 2 -16 46 -30 98 -14 51 -43 126 -65 167
-25 47 -39 87 -39 110 0 49 38 114 74 127 24 8 31 6 47 -14 24 -29 24 -84 2
-122 -26 -44 -5 -48 33 -7 28 32 34 45 34 84 0 37 -5 51 -29 75 -34 33 -46 35
-98 14 -51 -20 -84 -72 -92 -140 l-6 -54 -49 30 c-26 17 -80 39 -120 49 -39
10 -92 27 -117 38 -26 11 -72 23 -103 27 -51 7 -60 12 -90 49 -18 22 -42 57
-54 77 -25 42 -112 255 -112 275 0 21 23 18 180 -30z m666 -33 c-10 -10 -46
-11 -40 -1 3 4 15 8 26 8 12 0 18 -3 14 -7z m-1508 -183 c-47 -53 -78 -74 -78
-53 0 13 104 113 118 113 7 0 -11 -27 -40 -60z m59 -5 c-26 -27 -50 -45 -58
-43 -10 4 3 22 40 59 66 64 80 52 18 -16z m-173 -27 c-73 -77 -84 -86 -84 -69
0 15 125 141 140 141 8 0 -18 -33 -56 -72z m-163 -50 c-20 -40 -44 -91 -53
-113 -16 -39 -16 -39 -17 -10 -1 49 71 195 95 195 7 0 -3 -30 -25 -72z m2086
-60 c-3 -8 -6 -5 -6 6 -1 11 2 17 5 13 3 -3 4 -12 1 -19z m-789 -62 c16 -10 6
-26 -16 -26 -37 0 -126 -52 -183 -107 -64 -61 -123 -149 -134 -198 -4 -21 3
-13 27 30 18 33 59 88 92 122 115 123 254 164 389 113 102 -38 203 -151 232
-260 5 -19 -4 -13 -40 28 -60 67 -127 102 -195 102 -62 0 -105 -20 -125 -60
-16 -30 -12 -53 13 -82 14 -16 13 -20 -4 -39 -94 -104 -242 -29 -189 97 18 44
18 44 2 44 -8 0 -24 -12 -38 -26 -20 -21 -24 -35 -22 -77 4 -107 2 -121 -16
-161 -32 -73 -90 -116 -179 -132 -37 -7 -37 -7 -19 14 24 26 47 104 47 156 0
30 -5 44 -20 54 -25 16 -28 87 -4 114 28 30 -10 35 -64 8 -88 -45 -145 -21
-117 48 8 19 15 36 15 39 0 2 -27 3 -60 2 -33 -1 -63 0 -65 3 -9 9 36 58 67
74 23 12 45 14 80 10 38 -5 48 -4 48 8 0 8 -4 18 -10 21 -15 9 -12 42 6 59 19
20 44 21 44 2 0 -22 40 -46 75 -46 18 0 46 11 66 26 54 41 91 58 139 64 43 6
132 -8 158 -24z m335 -461 c24 -24 42 -75 27 -75 -4 0 -21 23 -38 50 -34 54
-29 65 11 25z m-44 -22 c32 -39 38 -58 21 -68 -6 -3 -14 5 -20 19 -5 13 -23
35 -40 47 -21 16 -27 25 -18 31 20 12 25 10 57 -29z m255 -18 c-13 -71 32
-141 151 -233 26 -20 23 -19 -25 5 -30 15 -78 51 -108 78 -50 46 -55 55 -59
102 -7 63 0 83 27 83 19 0 20 -4 14 -35z m-691 -117 c45 -92 67 -168 67 -230
0 -63 22 -116 55 -128 14 -5 25 -14 25 -19 0 -14 -34 -31 -63 -31 -30 0 -44
16 -49 54 -4 39 -26 45 -33 9 -3 -15 -19 -56 -36 -91 -23 -50 -29 -76 -29
-132 0 -84 -9 -108 -51 -146 -18 -16 -48 -44 -67 -62 -19 -18 -37 -30 -40 -28
-9 10 -14 95 -8 131 5 26 22 51 59 86 28 27 49 49 45 49 -3 0 -27 -9 -53 -20
-60 -26 -105 -25 -139 1 -20 16 -26 29 -24 51 l3 29 83 3 c99 3 118 14 179
105 86 126 96 260 28 390 -15 30 -13 51 4 51 5 0 25 -33 44 -72z m592 34 c-8
-8 -25 10 -19 20 4 6 9 5 15 -3 4 -7 6 -15 4 -17z m-190 -2 c3 -5 -1 -10 -9
-10 -9 0 -16 5 -16 10 0 6 4 10 9 10 6 0 13 -4 16 -10z m1295 -160 c0 -5 -5
-10 -11 -10 -5 0 -7 5 -4 10 3 6 8 10 11 10 2 0 4 -4 4 -10z m-70 -77 c0 -3
-11 -20 -24 -37 -88 -116 -138 -296 -116 -419 6 -32 9 -62 5 -65 -3 -3 -25 14
-48 38 -83 85 -200 112 -337 75 -30 -8 -56 -12 -59 -9 -3 3 1 19 8 37 25 61
53 182 59 262 l7 80 45 -2 c25 -1 79 -4 120 -6 84 -5 228 14 281 36 37 17 59
21 59 10z m-460 -19 c0 -2 -7 -4 -15 -4 -8 0 -15 4 -15 10 0 5 7 7 15 4 8 -4
15 -8 15 -10z m-373 -416 c-3 -8 -6 -5 -6 6 -1 11 2 17 5 13 3 -3 4 -12 1 -19z
m520 6 c26 -9 61 -26 77 -37 39 -27 76 -110 77 -172 1 -62 17 -33 18 33 1 50
16 54 53 15 40 -44 49 -68 46 -135 -2 -35 1 -73 5 -86 12 -32 -17 -40 -51 -15
l-27 20 -30 -34 c-35 -40 -96 -57 -152 -41 -42 11 -50 30 -29 63 22 33 21 35
-17 35 -44 0 -69 28 -65 71 3 31 7 34 42 40 22 4 45 15 53 25 33 45 0 129 -67
168 -37 22 -127 28 -190 12 -31 -7 -33 -6 -20 7 41 42 194 59 277 31z m-547
-60 c0 -9 -31 -48 -70 -87 -38 -38 -70 -65 -70 -60 0 6 7 16 15 23 8 7 15 17
15 22 0 12 91 118 102 118 4 0 8 -7 8 -16z m-99 -11 c-14 -27 -60 -67 -67 -60
-10 10 45 77 62 77 11 0 12 -4 5 -17z m79 -91 c0 -9 -47 -52 -57 -52 -3 0 -16
-8 -27 -17 -12 -9 -1 4 24 29 44 46 60 56 60 40z m-120 -20 c0 -11 -70 -76
-97 -91 -43 -23 -37 -9 22 44 59 53 75 63 75 47z m-10 -77 c-7 -8 -17 -15 -23
-15 -5 0 -2 9 8 20 21 23 35 19 15 -5z m-45 -35 c-3 -5 -11 -10 -16 -10 -6 0
-7 5 -4 10 3 6 11 10 16 10 6 0 7 -4 4 -10z"/>
<path class="st0" d="M2569 9857 c-47 -32 -61 -62 -55 -121 10 -97 111 -178 265 -212 57
-13 106 -16 213 -12 76 3 138 2 138 -2 0 -14 -397 -144 -575 -189 -519 -130
-879 -42 -926 228 -21 116 8 189 92 231 55 29 98 26 147 -10 51 -37 62 -57 62
-115 0 -78 -56 -115 -122 -81 -35 19 -36 4 -2 -23 40 -31 80 -27 119 12 62 62
59 133 -8 204 -63 66 -130 76 -217 33 -75 -38 -102 -90 -102 -195 1 -140 64
-235 201 -304 95 -48 177 -64 331 -65 224 -1 461 54 925 213 422 145 814 245
1180 300 584 89 1193 29 1627 -159 206 -90 374 -205 517 -356 150 -158 246
-320 312 -524 17 -54 27 -75 28 -58 1 15 -10 60 -23 100 -70 214 -172 374
-354 556 -24 24 -42 45 -40 47 1 2 28 -1 58 -7 87 -16 196 -6 255 24 45 23 99
68 81 68 -3 0 -24 -12 -45 -26 -81 -53 -186 -67 -294 -39 -63 16 -135 51 -275
131 -51 30 -95 54 -97 54 -2 0 -41 18 -87 39 -338 160 -847 241 -1331 213
-291 -17 -544 -60 -987 -169 -353 -86 -589 -116 -754 -95 -132 17 -246 88
-246 153 0 34 45 84 84 94 33 8 40 6 53 -10 8 -11 12 -28 9 -38 -3 -11 0 -17
7 -14 19 6 20 56 2 83 -21 33 -73 64 -106 64 -14 0 -41 -10 -60 -23z"/>
<path class="st0" d="M690 9819 c-36 -7 -54 -18 -87 -54 -50 -54 -64 -99 -64 -199 0 -132
57 -252 176 -372 120 -122 259 -206 436 -263 175 -57 268 -72 475 -78 229 -7
363 5 604 53 289 58 359 78 1005 290 641 210 825 251 1090 241 181 -7 261 -18
390 -54 215 -59 363 -140 491 -267 79 -80 121 -146 183 -291 68 -160 130 -242
209 -274 48 -20 49 -7 4 36 -31 30 -41 48 -46 83 -17 123 73 253 208 300 316
108 649 -149 622 -481 -10 -122 -30 -174 -89 -233 -59 -58 -125 -86 -203 -86
-188 0 -299 234 -157 333 82 58 175 25 190 -66 7 -47 -9 -67 -54 -67 -20 0
-32 -4 -28 -10 10 -17 61 -11 86 9 18 15 23 28 22 60 -5 112 -128 169 -221
101 -63 -45 -77 -73 -77 -150 2 -211 231 -309 422 -178 55 37 85 79 112 152
56 151 29 330 -77 510 -89 152 -366 381 -557 459 -22 9 -74 30 -115 47 -125
53 -287 99 -455 130 -264 49 -399 55 -695 29 -180 -15 -322 -42 -605 -114
-272 -70 -351 -94 -890 -269 -373 -122 -476 -151 -755 -210 -205 -44 -341 -58
-540 -57 -412 1 -729 110 -961 328 -88 83 -135 171 -133 251 2 70 13 81 59 59
106 -51 225 24 225 141 0 49 -31 114 -65 136 -35 23 -87 33 -135 25z m160
-101 c25 -42 25 -84 0 -125 -38 -62 -113 -80 -185 -43 -49 25 -60 21 -75 -25
-15 -47 -30 -30 -29 35 0 59 36 134 67 138 18 3 22 -1 22 -23 0 -32 50 -85 80
-85 61 0 108 60 97 125 -7 43 -2 44 23 3z m3854 -253 c239 -36 424 -127 584
-286 109 -108 153 -195 178 -344 l6 -40 18 54 c52 155 185 239 364 229 75 -4
186 -38 186 -57 0 -3 -35 -5 -79 -3 -147 7 -274 -39 -355 -129 -52 -57 -76
-121 -76 -198 l0 -54 -24 22 c-13 12 -52 85 -87 162 -69 156 -118 233 -205
321 -118 120 -310 221 -517 273 -52 13 -244 45 -269 45 -5 0 -8 5 -8 10 0 15
170 12 284 -5z m641 -47 c134 -39 257 -115 281 -175 28 -65 -9 -123 -77 -123
-44 0 -51 8 -79 84 -28 74 -110 157 -207 210 -65 36 -66 37 -28 31 22 -3 72
-15 110 -27z"/>
<path class="st0" d="M6492 9789 c-18 -12 -39 -34 -47 -50 -20 -37 -19 -99 1 -128 21 -30
77 -53 109 -45 38 9 30 19 -16 19 -73 0 -108 66 -74 139 9 18 28 40 44 49 33
19 112 23 143 6 11 -6 22 -8 25 -6 3 3 -9 13 -26 21 -43 23 -119 20 -159 -5z"/>
<path class="st0" d="M3990 9235 c-8 -2 -49 -8 -90 -15 -224 -35 -468 -124 -740 -269 -332
-178 -552 -214 -666 -109 -28 25 -42 7 -20 -26 21 -33 125 -100 194 -126 49
-19 71 -21 152 -17 53 3 112 12 132 21 58 25 78 21 78 -13 0 -84 60 -185 132
-222 44 -22 123 -28 141 -10 8 8 1 11 -26 11 -41 0 -66 19 -93 71 -12 25 -15
51 -12 109 4 66 10 87 43 145 42 76 164 206 235 250 167 105 380 170 598 182
56 3 102 10 102 15 0 7 -124 10 -160 3z"/>
<path class="st0" d="M4065 9075 c-100 -20 -138 -33 -240 -81 -290 -137 -438 -426 -308
-602 30 -40 91 -81 135 -91 66 -15 170 36 203 99 40 77 -6 173 -88 187 -32 5
-41 1 -72 -30 -55 -55 -44 -110 30 -153 17 -10 17 -11 -5 -32 -28 -26 -78 -29
-122 -6 -75 39 -101 90 -96 188 4 90 45 179 116 251 108 111 225 151 422 142
283 -12 469 -148 502 -366 13 -81 1 -129 -45 -198 -90 -130 -247 -160 -356
-66 -140 119 -87 336 77 320 53 -6 88 -36 104 -91 11 -37 12 -39 16 -14 5 37
-22 85 -61 108 -64 39 -159 15 -212 -54 -21 -28 -26 -46 -26 -89 0 -85 19
-136 76 -194 55 -56 104 -76 185 -76 101 1 221 100 258 213 20 59 22 128 6
188 -38 147 -148 249 -339 313 -62 21 -88 24 -227 24 -147 0 -156 1 -140 16
26 26 156 65 260 79 333 46 702 -75 899 -295 67 -75 125 -172 154 -259 17 -49
20 -79 17 -157 -3 -83 -8 -104 -36 -162 -65 -131 -199 -199 -305 -153 -44 19
-93 70 -100 104 -20 101 74 198 152 157 22 -11 31 -23 31 -40 0 -28 15 -33 24
-9 14 38 5 75 -27 110 -26 29 -42 37 -81 41 -60 7 -100 -12 -136 -64 -21 -31
-25 -48 -25 -107 1 -103 38 -162 133 -208 127 -61 288 13 357 165 62 136 44
321 -47 476 -18 31 -76 99 -128 152 -101 101 -165 142 -332 208 -168 67 -424
90 -603 56z"/>
<path class="st0" d="M6737 8366 c-4 -10 -7 -30 -7 -44 0 -45 -46 -203 -84 -285 -75 -165
-231 -348 -364 -427 -215 -127 -453 -144 -641 -45 -120 64 -192 157 -208 271
-5 42 19 134 35 134 4 0 23 -17 43 -39 67 -70 150 -74 238 -11 61 43 87 151
55 228 -36 88 -120 141 -222 142 -78 0 -124 -22 -180 -85 -52 -59 -73 -122
-73 -222 -1 -241 164 -431 429 -494 154 -37 319 -11 493 77 50 25 92 44 94 42
2 -2 -2 -28 -10 -58 -27 -99 -14 -175 39 -245 56 -73 140 -92 240 -54 67 25
97 62 104 129 9 92 -52 155 -142 147 -61 -5 -96 -39 -96 -92 0 -48 16 -52 24
-5 7 47 36 70 88 70 56 0 89 -34 96 -98 4 -46 2 -54 -25 -80 -40 -41 -134 -68
-184 -53 -82 25 -129 96 -129 198 0 78 45 170 138 281 152 182 228 340 253
528 11 84 9 125 -4 90z m-985 -179 c52 -71 60 -124 28 -186 -40 -80 -116 -116
-190 -91 -43 14 -84 52 -95 88 -10 35 -27 22 -62 -48 -36 -74 -50 -66 -39 22
9 64 37 120 75 147 41 29 51 26 51 -16 0 -87 62 -153 131 -139 103 20 137 131
70 225 -12 16 -21 32 -21 35 0 13 31 -9 52 -37z"/>
<path class="st0" d="M7304 7939 c-22 -5 -65 -24 -94 -42 -42 -25 -61 -44 -83 -87 -27 -51
-29 -62 -25 -141 3 -73 9 -96 40 -161 l36 -76 -56 -23 c-172 -69 -272 -187
-272 -322 0 -84 37 -140 117 -181 119 -60 247 -7 317 133 37 73 32 97 -7 28
-46 -83 -82 -124 -129 -148 -114 -58 -278 44 -278 172 0 62 46 154 104 207 48
44 175 112 210 112 10 0 40 -20 66 -44 97 -91 237 -136 362 -116 69 10 153 38
144 47 -3 3 -34 -2 -70 -12 -99 -27 -222 -18 -307 22 -125 58 -225 193 -236
319 -13 148 104 284 243 284 52 0 136 -36 177 -76 68 -66 69 -154 1 -213 -37
-33 -93 -42 -137 -20 -19 9 -19 8 3 -11 20 -18 33 -21 69 -17 115 13 177 138
118 242 -26 47 -94 95 -165 118 -56 19 -86 20 -148 6z"/>
<path class="st0" d="M7275 6791 c-76 -35 -105 -85 -105 -182 0 -104 53 -171 158 -199 48
-12 134 -5 196 16 71 25 71 21 12 -76 -109 -177 -146 -353 -112 -532 48 -250
219 -429 440 -460 65 -9 82 -8 142 10 94 29 156 71 189 126 90 154 -14 356
-185 356 -28 0 -65 -6 -83 -14 -71 -29 -126 -129 -111 -199 9 -45 31 -85 54
-100 46 -28 10 -57 -71 -57 -74 0 -119 16 -182 66 -109 85 -170 236 -170 414
1 118 24 206 89 335 128 254 382 428 700 479 102 16 125 31 34 22 -193 -19
-360 -79 -495 -178 -111 -82 -213 -147 -257 -165 -29 -12 -69 -18 -124 -18
-70 0 -86 4 -117 25 -46 31 -70 79 -74 150 -7 98 43 157 139 167 51 5 59 3 82
-20 28 -28 36 -90 15 -129 -13 -24 -72 -50 -93 -42 -9 3 -16 2 -16 -4 0 -17
41 -21 78 -9 110 36 105 196 -7 227 -51 14 -80 12 -126 -9z m827 -990 c25 -16
49 -34 53 -41 14 -22 -4 -22 -35 2 -25 18 -45 23 -91 23 -52 0 -62 -3 -90 -31
-43 -43 -51 -107 -18 -148 26 -33 75 -56 119 -56 40 0 38 -18 -7 -63 -58 -59
-176 -84 -248 -53 l-30 13 52 6 c51 6 125 37 138 57 3 5 -5 14 -18 19 -57 22
-101 120 -82 183 33 106 160 150 257 89z"/>
<path class="st0" d="M8730 6743 c304 -140 444 -248 607 -468 189 -254 340 -684 384 -1085
15 -146 12 -525 -6 -665 -49 -386 -193 -963 -320 -1290 -132 -339 -264 -746
-320 -990 -25 -105 -28 -140 -28 -280 0 -147 2 -166 27 -239 15 -43 38 -98 52
-122 33 -56 113 -127 182 -161 46 -23 61 -25 115 -19 127 13 206 83 215 190 6
72 -2 98 -40 142 -54 62 -112 77 -175 47 -73 -34 -95 -118 -44 -172 29 -31 51
-40 51 -21 0 6 -4 10 -10 10 -18 0 -42 60 -35 90 9 40 37 62 87 67 49 5 103
-24 125 -67 31 -62 2 -178 -53 -217 -106 -74 -226 -52 -340 61 -60 60 -85 106
-110 197 -25 88 -24 329 0 449 52 254 229 820 257 820 9 0 6 -36 -12 -170 -18
-131 19 -300 82 -377 60 -73 148 -116 196 -94 30 14 63 68 63 104 0 36 -35
103 -61 117 -24 14 -71 9 -76 -7 -3 -7 3 -10 15 -6 28 7 54 -24 50 -60 -3 -36
-55 -77 -95 -77 -33 0 -79 50 -112 120 -24 52 -26 64 -25 200 1 217 31 376
128 690 145 471 233 897 256 1244 16 225 -9 531 -61 771 -56 254 -168 553
-266 708 -47 75 -76 183 -76 284 0 113 19 168 74 217 45 42 40 47 -13 11 -61
-41 -82 -100 -86 -238 l-4 -118 -56 62 c-128 140 -293 258 -453 324 -85 35
-159 50 -89 18z"/>
<path class="st0" d="M9745 6643 c36 -92 -6 -186 -88 -200 -32 -5 -41 -1 -72 30 -36 36
-43 64 -24 99 9 16 8 19 -3 16 -19 -7 -32 -51 -24 -82 9 -37 51 -74 92 -82 99
-18 187 112 139 206 -17 32 -32 41 -20 13z"/>
<path class="st0" d="M8305 6461 c-160 -58 -236 -145 -251 -288 -8 -71 6 -124 47 -186 74
-112 221 -137 315 -55 50 44 67 82 62 138 -8 84 -69 140 -153 140 -49 0 -77
-29 -69 -72 4 -18 12 -39 20 -47 10 -11 11 -8 5 21 -12 51 2 68 52 68 169 0
145 -248 -26 -267 -128 -15 -227 89 -227 236 0 260 318 389 603 244 187 -95
309 -347 263 -546 -40 -172 -147 -282 -287 -294 -74 -7 -113 9 -149 59 -34 47
-47 35 -24 -21 21 -54 100 -123 183 -162 246 -116 302 -155 397 -273 116 -145
197 -333 241 -558 14 -74 18 -142 18 -333 0 -213 -3 -252 -23 -350 -47 -223
-126 -464 -307 -940 -31 -82 -77 -206 -101 -275 -25 -69 -49 -135 -54 -148
-52 -123 -139 -526 -160 -741 -26 -264 -1 -556 67 -766 59 -185 185 -391 308
-504 69 -62 199 -127 280 -140 105 -16 208 14 269 78 41 43 48 121 14 170 -39
58 -72 76 -136 76 -43 0 -65 -6 -88 -22 -56 -40 -82 -122 -57 -182 17 -44 7
-55 -55 -54 -206 3 -469 353 -547 727 -25 124 -38 320 -32 496 10 272 44 453
162 850 14 49 63 184 150 415 173 461 260 726 329 1000 178 705 152 1276 -82
1825 -151 354 -389 600 -656 677 -99 29 -228 31 -301 4z m709 -440 c80 -208
-41 -459 -251 -521 -50 -15 -55 -27 -15 -36 62 -14 131 -38 187 -67 86 -45
248 -208 309 -312 55 -94 109 -262 125 -384 12 -95 15 -291 4 -342 -7 -33 -7
-33 -14 -9 -4 14 -7 50 -8 80 -1 64 -23 197 -50 302 -29 111 -76 227 -130 317
-105 173 -203 262 -401 360 -141 69 -190 98 -190 111 0 4 28 7 63 7 52 -1 72
5 125 33 146 78 222 241 207 445 -6 79 -5 88 8 75 8 -8 22 -35 31 -59z m214
-445 c66 -71 117 -188 152 -346 11 -52 23 -106 26 -120 9 -39 -7 -16 -35 52
-64 155 -152 268 -219 281 -49 10 -82 48 -82 94 0 58 22 83 74 83 39 0 48 -5
84 -44z m298 -4882 c31 -15 69 -53 60 -61 -1 -2 -17 4 -34 13 -41 20 -85 11
-112 -23 -36 -46 -18 -103 42 -134 21 -11 36 -24 34 -28 -9 -14 -102 -41 -138
-41 -51 0 -65 15 -28 30 41 17 44 24 20 62 -26 43 -25 87 3 129 21 33 77 69
105 69 8 0 29 -7 48 -16z"/>
<path class="st0" d="M8230 5230 c-67 -14 -166 -68 -206 -113 -48 -53 -64 -95 -64 -169 0
-216 235 -330 364 -177 25 29 28 39 24 88 -4 48 -10 59 -46 93 -23 21 -50 38
-62 38 -24 0 -26 -13 -5 -30 37 -30 3 -121 -59 -159 -53 -33 -93 -28 -137 18
-82 87 -69 214 32 305 156 142 405 115 594 -65 215 -205 328 -508 312 -837 -8
-157 -59 -348 -108 -404 l-20 -23 5 30 c3 17 9 75 12 130 8 123 -17 241 -73
347 -92 176 -234 263 -388 238 -166 -27 -280 -143 -279 -285 0 -117 76 -205
207 -239 50 -13 63 -13 105 -1 94 28 152 130 121 211 -19 51 -69 84 -125 84
-24 0 -46 -4 -49 -10 -4 -6 13 -10 43 -10 79 0 122 -54 109 -136 -8 -49 -50
-100 -93 -114 -89 -30 -188 11 -249 100 -27 40 -30 53 -30 120 0 68 3 80 33
127 37 57 104 107 166 124 64 17 164 6 227 -25 220 -110 321 -459 211 -734
-41 -104 -99 -173 -193 -231 -92 -56 -164 -77 -232 -67 -115 17 -194 139 -141
215 l17 23 19 -30 c38 -60 110 -65 151 -9 37 48 16 123 -44 155 -38 20 -124
10 -155 -19 -46 -43 -57 -76 -52 -155 4 -62 9 -78 37 -113 18 -23 55 -51 87
-67 121 -59 277 -20 415 104 174 156 274 392 286 672 7 168 -7 283 -52 417
-80 241 -186 388 -366 510 -92 63 -244 95 -349 73z"/>
<path class="st0" d="M9127 4060 c-21 -268 -72 -450 -174 -621 -136 -230 -390 -372 -532
-299 -52 26 -81 65 -81 107 0 58 -25 34 -28 -27 -4 -73 19 -129 74 -179 50
-47 78 -60 149 -70 28 -4 49 -11 48 -16 -2 -6 -12 -37 -24 -70 -42 -119 -34
-244 25 -370 25 -52 77 -115 95 -115 16 0 14 9 -14 64 -33 65 -33 131 1 253
31 116 65 192 149 338 219 382 332 736 323 1015 l-3 95 -8 -105z"/>
</g>
</svg>
