<?xml version="1.0" standalone="no"?>
<!DOCTYPE svg PUBLIC "-//W3C//DTD SVG 20010904//EN"
 "http://www.w3.org/TR/2001/REC-SVG-20010904/DTD/svg10.dtd">
<svg version="1.0" xmlns="http://www.w3.org/2000/svg"
 width="800.000000pt" height="200.000000pt" viewBox="0 0 800.000000 200.000000"
 preserveAspectRatio="xMidYMid meet">

<g transform="translate(0.000000,200.000000) scale(0.100000,-0.100000)"
fill="#000000" stroke="none">
<path d="M2948 1655 c-44 -30 -60 -72 -34 -91 16 -12 16 -14 -6 -27 -12 -9
-35 -21 -50 -28 -16 -7 -28 -16 -28 -21 0 -18 58 -6 106 22 72 41 106 83 102
129 -2 30 -7 36 -28 39 -14 1 -41 -8 -62 -23z"/>
<path d="M805 1614 c-74 -18 -255 -106 -353 -171 -227 -153 -345 -301 -283
-357 28 -25 75 -17 169 30 66 32 93 56 80 70 -3 2 -38 -11 -79 -31 -82 -39
-129 -46 -129 -17 0 23 157 173 256 244 138 98 356 203 410 196 l25 -3 -31
-37 c-17 -21 -120 -117 -228 -215 -248 -223 -314 -290 -372 -379 -55 -85 -74
-145 -68 -216 4 -40 11 -57 32 -75 82 -71 250 11 564 275 68 57 125 102 127
100 1 -1 -147 -172 -330 -378 -184 -206 -341 -389 -351 -407 -17 -31 -17 -33
1 -52 10 -12 24 -21 32 -21 18 0 208 188 199 197 -4 4 -17 1 -29 -6 -21 -13
-21 -13 -8 5 8 10 54 60 102 109 150 154 929 1039 929 1055 0 20 -20 40 -39
40 -8 0 -112 -96 -231 -213 -415 -411 -764 -677 -891 -677 -67 0 -75 35 -29
126 42 84 118 167 340 374 209 196 290 282 322 344 24 47 17 83 -18 96 -32 12
-45 12 -119 -6z"/>
<path d="M7741 1422 c-76 -77 -268 -295 -358 -407 -22 -27 -32 -35 -33 -23 0
22 -30 38 -72 38 -48 0 -115 -43 -266 -169 -159 -133 -204 -164 -268 -189 -53
-21 -69 -42 -32 -42 37 1 96 32 186 99 45 33 84 61 86 61 2 0 -4 -21 -12 -47
-14 -40 -14 -49 -1 -72 30 -53 88 -37 184 51 54 49 57 50 41 20 -10 -19 -16
-49 -14 -70 3 -36 4 -37 46 -40 44 -3 60 15 22 25 -11 3 -20 13 -20 23 0 34
202 286 459 573 161 179 191 216 191 237 0 15 -7 20 -26 20 -19 0 -48 -22
-113 -88z m-411 -445 c0 -56 -233 -297 -287 -297 -56 0 85 196 201 281 41 30
86 38 86 16z"/>
<path d="M6614 1373 c-7 -2 -53 -53 -103 -113 l-92 -108 -62 -6 c-34 -3 -100
-8 -146 -11 -89 -7 -111 -12 -111 -26 0 -5 62 -10 138 -11 l137 -3 -65 -69
c-105 -111 -382 -321 -465 -354 -54 -21 -70 -42 -33 -42 39 0 116 44 223 127
55 43 118 92 139 108 l40 30 -28 -45 c-62 -101 -83 -183 -53 -208 7 -6 41 -11
76 -11 57 1 73 6 177 60 l114 60 0 -44 c0 -68 45 -96 135 -83 56 9 64 36 11
36 -40 0 -66 22 -66 53 0 34 13 47 72 71 134 55 248 149 248 205 0 41 -21 54
-80 49 -82 -8 -214 -107 -285 -214 -20 -30 -41 -54 -48 -54 -7 0 -63 -25 -125
-57 -78 -39 -124 -57 -148 -56 -43 1 -48 5 -39 32 20 65 281 406 322 422 13 5
51 9 83 9 62 0 90 7 90 21 0 5 -34 9 -76 9 l-75 0 44 58 c57 74 87 123 87 143
0 18 -18 29 -36 22z m226 -378 c0 -25 -68 -93 -148 -145 -41 -28 -77 -48 -80
-46 -9 10 51 86 115 146 63 60 113 79 113 45z"/>
<path d="M4383 1280 c-63 -38 -51 -110 15 -95 43 9 82 42 82 69 0 48 -43 59
-97 26z"/>
<path d="M6053 1280 c-63 -38 -51 -110 15 -95 43 9 82 42 82 69 0 48 -43 59
-97 26z"/>
<path d="M2826 1049 c-34 -30 -46 -48 -46 -68 0 -21 -14 -42 -57 -82 -130
-122 -237 -201 -312 -229 -49 -19 -66 -40 -31 -40 57 0 190 89 360 241 74 67
109 92 135 96 19 3 35 2 35 -2 0 -4 -35 -45 -79 -91 -138 -145 -162 -244 -59
-244 44 0 50 16 12 31 -31 11 -36 1 70 119 114 125 143 200 94 234 -12 9 -31
16 -41 16 -14 0 -16 4 -7 19 29 55 -11 55 -74 0z"/>
<path d="M4608 1003 c-177 -160 -359 -298 -435 -328 -68 -28 -84 -51 -29 -42
54 9 126 54 279 177 76 60 141 110 144 110 2 0 -29 -39 -69 -87 -93 -110 -115
-144 -111 -165 9 -39 35 -27 122 55 147 140 304 257 343 257 10 0 18 -3 18 -7
0 -4 -45 -53 -100 -108 -91 -93 -130 -150 -130 -189 0 -28 30 -46 76 -46 48 0
59 16 19 26 -14 3 -25 13 -25 21 0 8 40 56 88 106 123 128 144 158 140 199 -3
28 -7 33 -33 36 -48 6 -98 -15 -178 -72 -40 -29 -79 -56 -86 -61 -7 -4 8 21
34 56 52 70 56 102 13 107 -20 2 -39 -8 -80 -45z"/>
<path d="M3371 1029 c-74 -29 -194 -136 -246 -219 -14 -22 -31 -40 -39 -40 -7
0 -60 -24 -117 -53 -57 -29 -114 -56 -126 -59 -13 -3 -23 -11 -23 -17 0 -24
54 -8 164 49 l116 61 0 -44 c0 -68 45 -96 135 -83 56 9 64 36 11 36 -40 0 -66
22 -66 53 0 34 13 47 72 71 173 71 289 191 236 244 -14 14 -83 15 -117 1z m69
-34 c0 -25 -68 -93 -148 -145 -41 -28 -77 -48 -80 -46 -9 10 51 86 115 146 63
60 113 79 113 45z"/>
<path d="M5203 948 c-159 -137 -321 -256 -378 -277 -54 -20 -71 -41 -32 -41
52 0 196 96 382 254 51 44 56 46 35 18 -72 -96 -91 -127 -102 -163 -15 -51 -2
-90 34 -103 49 -17 110 17 223 126 119 114 176 191 178 239 2 30 -1 34 -27 37
-24 3 -38 -6 -87 -58 -65 -67 -91 -128 -71 -160 10 -16 4 -26 -46 -70 -70 -64
-117 -89 -134 -72 -18 18 17 82 100 181 90 107 110 144 93 165 -27 32 -58 18
-168 -76z m307 44 c0 -20 -101 -152 -117 -152 -7 0 -13 2 -13 5 0 16 37 73 72
111 38 42 58 54 58 36z"/>
<path d="M1460 1016 c-16 -10 -30 -11 -42 -5 -9 5 -21 9 -26 9 -5 0 -75 -54
-156 -120 -187 -152 -265 -208 -323 -230 -51 -19 -68 -40 -34 -40 35 0 111 41
198 107 46 34 87 64 92 67 5 3 1 -17 -10 -44 -24 -64 -24 -81 2 -114 25 -32
73 -35 128 -6 90 46 238 214 262 297 22 80 -21 117 -91 79z m60 -43 c0 -28
-50 -126 -70 -138 -18 -11 -50 6 -56 30 -7 29 16 75 56 109 42 35 70 35 70 -1z
m-125 -159 l26 -21 -61 -56 c-86 -80 -130 -88 -130 -23 0 37 32 90 88 149 l37
38 7 -33 c3 -18 18 -42 33 -54z"/>
<path d="M1840 939 c-155 -134 -308 -247 -365 -268 -53 -20 -71 -41 -35 -41
47 0 178 81 313 193 99 83 103 85 58 27 -52 -65 -71 -107 -71 -153 0 -75 63
-73 160 4 38 31 60 44 56 33 -28 -73 -15 -104 45 -104 41 0 53 18 19 27 -42
11 -19 57 100 198 93 111 105 131 90 150 -7 8 -18 15 -25 15 -7 0 -76 -67
-154 -148 -132 -139 -201 -196 -217 -179 -14 14 34 91 111 182 96 114 109 155
47 155 -19 -1 -57 -27 -132 -91z"/>
<path d="M4090 914 c-170 -144 -277 -221 -337 -244 -52 -20 -68 -40 -30 -40
48 0 148 64 314 202 45 37 84 68 87 68 3 0 -19 -34 -49 -76 -92 -127 -97 -194
-15 -194 29 0 40 4 40 15 0 8 -9 15 -20 15 -45 0 -27 32 113 198 43 51 83 104
89 117 15 34 4 55 -29 54 -21 0 -64 -31 -163 -115z"/>
<path d="M5760 914 c-170 -144 -277 -221 -337 -244 -52 -20 -68 -40 -30 -40
48 0 148 64 314 202 45 37 84 68 87 68 3 0 -19 -34 -49 -76 -92 -127 -97 -194
-15 -194 29 0 40 4 40 15 0 8 -9 15 -20 15 -45 0 -27 32 113 198 43 51 83 104
89 117 15 34 4 55 -29 54 -21 0 -64 -31 -163 -115z"/>
</g>
</svg>
